<svg id="freepik_stories-stress" data-name="freepik stories-stress" xmlns="http://www.w3.org/2000/svg" viewBox="0 0 500 500"><defs><style>.cls-1{fill:#f5f5f5;}.cls-2{fill:#e6e6e6;}.cls-3,.cls-30{fill:#0966e5;}.cls-16,.cls-25,.cls-27,.cls-4,.cls-6,.cls-7{fill:#fff;}.cls-21,.cls-4{opacity:0.3;}.cls-19,.cls-24,.cls-25,.cls-27,.cls-30,.cls-4,.cls-5,.cls-6,.cls-7,.cls-8{isolation:isolate;}.cls-5{opacity:0.1;}.cls-23,.cls-6{opacity:0.5;}.cls-7{opacity:0.65;}.cls-8{opacity:0.2;}.cls-24,.cls-9{fill:#263238;}.cls-10{fill:#37474f;}.cls-11{fill:#455a64;}.cls-12{fill:#fafafa;}.cls-13{fill:#ebebeb;}.cls-14{fill:#f0f0f0;}.cls-15{fill:#e0e0e0;}.cls-17{opacity:0.25;}.cls-18{fill:#ffa8a7;}.cls-19{opacity:0.15;}.cls-20{fill:#f28f8f;}.cls-22{fill:#b16668;}.cls-24,.cls-29{opacity:0.9;}.cls-25,.cls-26,.cls-30{opacity:0.6;}.cls-27,.cls-28{opacity:0.8;}.cls-31{opacity:0.7;}</style></defs><title>Live help 01</title><g id="freepik--Floor--inject-370"><ellipse id="freepik--floor--inject-370-2" data-name="freepik--floor--inject-370" class="cls-1" cx="250" cy="358.63" rx="245" ry="134.58"/></g><g id="freepik--Shadows--inject-370"><g id="freepik--Shadow--inject-370"><path class="cls-2" d="M35,399.53l63,36.52c10.28,6,26.94,6,37.25,0l38.83-22.47c10.28-5.95,10.29-15.6,0-21.56l-62.95-36.53c-10.27-6-26.93-6-37.25,0L35.06,378C24.77,383.9,24.77,393.56,35,399.53Z"/><ellipse class="cls-2" cx="172.15" cy="433.33" rx="53.06" ry="30.64"/></g><path id="freepik--shadow--inject-370-2" data-name="freepik--shadow--inject-370" class="cls-2" d="M349.11,427.12,451.33,368c1.72-1,1.72-2.58,0-3.57l-189.82-110a6.78,6.78,0,0,0-6.17,0L153.11,313.56c-1.71,1-1.71,2.57,0,3.56l189.83,110A6.9,6.9,0,0,0,349.11,427.12Z"/><path class="cls-2" d="M188.39,300.84l66.79-38.59a1.24,1.24,0,0,0,.75-1.58,1.25,1.25,0,0,0-.75-.76l-53.56-31.37a4.53,4.53,0,0,0-4,0l-66.77,38.6a1.24,1.24,0,0,0,0,2.33l53.55,31.37A4.45,4.45,0,0,0,188.39,300.84Z"/></g><g id="freepik--Desk--inject-370"><g id="freepik--Table--inject-370"><polygon class="cls-3" points="258.5 188.05 258.5 184.39 258.5 184.39 258.5 156.45 255.28 154.66 255.28 186.25 166.93 237.35 166.93 241.07 255.28 189.92 255.28 260.9 258.5 262.69 258.5 188.05 258.5 188.05"/><polygon class="cls-4" points="258.5 188.05 258.5 184.39 258.5 184.39 258.5 156.45 255.28 154.66 255.28 186.25 166.93 237.35 166.93 241.07 255.28 189.92 255.28 260.9 258.5 262.69 258.5 188.05 258.5 188.05"/><polygon class="cls-5" points="258.5 188.05 258.5 184.39 258.5 184.39 258.5 156.45 255.28 154.66 255.28 186.25 166.93 237.35 166.93 241.07 255.28 189.92 255.28 260.9 258.5 262.69 258.5 188.05 258.5 188.05"/><path class="cls-3" d="M163.7,207.68v3.66h0V317.58l3.23-1.92v-71l91.57-53v71l3.23-1.79V151Zm94.8-19.63-91.57,53V216.21l91.57-52.75Z"/><path class="cls-6" d="M163.7,207.68v3.66h0V317.58l3.23-1.92v-71l91.57-53v71l3.23-1.79V151Zm94.8-19.63-91.57,53V216.21l91.57-52.75Z"/><polygon class="cls-3" points="439.35 292.69 439.35 289.03 439.35 289.03 439.35 261.09 436.13 259.3 436.13 290.9 347.78 341.99 347.78 345.71 436.13 294.56 436.13 365.54 439.35 367.33 439.35 292.69 439.35 292.69"/><polygon class="cls-4" points="439.35 292.69 439.35 289.03 439.35 289.03 439.35 261.09 436.13 259.3 436.13 290.9 347.78 341.99 347.78 345.71 436.13 294.56 436.13 365.54 439.35 367.33 439.35 292.69 439.35 292.69"/><polygon class="cls-5" points="439.35 292.69 439.35 289.03 439.35 289.03 439.35 261.09 436.13 259.3 436.13 290.9 347.78 341.99 347.78 345.71 436.13 294.56 436.13 365.54 439.35 367.33 439.35 292.69 439.35 292.69"/><polygon class="cls-3" points="163.69 207.94 163.69 207.68 163.47 207.81 160.47 206.08 160.47 209.48 160.47 217.18 160.47 315.72 163.69 317.58 163.69 219.04 341.33 321.29 341.33 420.36 344.55 422.22 344.55 323.14 344.55 312.33 344.55 312.31 163.69 207.94"/><polygon class="cls-6" points="163.69 207.94 163.69 207.68 163.47 207.81 160.47 206.08 160.47 209.48 160.47 217.18 160.47 315.72 163.69 317.58 163.69 219.04 341.33 321.29 341.33 420.36 344.55 422.22 344.55 323.14 344.55 312.33 344.55 312.31 163.69 207.94"/><polygon class="cls-5" points="163.69 207.94 163.69 207.68 163.47 207.81 160.47 206.08 160.47 209.48 160.47 217.18 160.47 315.72 163.69 317.58 163.69 219.04 341.33 321.29 341.33 420.36 344.55 422.22 344.55 323.14 344.55 312.33 344.55 312.31 163.69 207.94"/><path class="cls-3" d="M344.51,312.33V422.22l3.23-1.92V349.36l91.57-53v71l3.23-1.79v-110Zm3.23,33.38V320.85l91.57-52.75v24.6Z"/><path class="cls-6" d="M344.51,312.33V422.22l3.23-1.92V349.36l91.57-53v71l3.23-1.79v-110Zm3.23,33.38V320.85l91.57-52.75v24.6Z"/><polygon class="cls-3" points="344.55 312.33 442.58 255.63 258.5 149.39 160.47 206.08 344.55 312.33"/><polygon class="cls-7" points="344.55 312.33 442.58 255.63 258.5 149.39 160.47 206.08 344.55 312.33"/></g><g id="freepik--Device--inject-370"><g id="freepik--Keyboard--inject-370"><path class="cls-8" d="M289.27,232.37,262.46,248a3.14,3.14,0,0,1-2.86,0l-75.41-43.47a.88.88,0,0,1-.56-1.09.85.85,0,0,1,.56-.56L211,187.26a3.2,3.2,0,0,1,2.86,0l75.41,43.48C290.06,231.18,290.06,231.91,289.27,232.37Z"/><g id="freepik--keyboard--inject-370-2" data-name="freepik--keyboard--inject-370"><path class="cls-9" d="M186.25,199.65a1,1,0,0,1,.59-.82l23.86-13.77a3.12,3.12,0,0,1,2.85,0l72.82,42.11a1,1,0,0,1,.59.82v2.5a1,1,0,0,1-.59.82l-23.86,13.77a3.16,3.16,0,0,1-2.84,0l-72.83-42a1,1,0,0,1-.59-.82Z"/><path class="cls-10" d="M262.51,242.53l23.86-13.72a.86.86,0,0,0,.54-1.09.89.89,0,0,0-.54-.55l-72.82-42.11a3.12,3.12,0,0,0-2.85,0l-23.86,13.77a.88.88,0,0,0-.53,1.12.87.87,0,0,0,.53.53l72.83,42A3.19,3.19,0,0,0,262.51,242.53Z"/><path class="cls-9" d="M261.19,242.86v2.55a2.89,2.89,0,0,0,1.32-.32l23.86-13.77a1,1,0,0,0,.58-.83V228a1,1,0,0,1-.58.81l-23.86,13.73A3,3,0,0,1,261.19,242.86Z"/><path class="cls-3" d="M190.67,199.84h0l2.35-1.36,3.22,1.85-2.38,1.41-3.2-1.85Zm3.7-2.14h0l2.37-1.36,2.52,1.45-2.38,1.41-2.52-1.45Zm.78,4.72h0l2.35-1.36,2.52,1.45-2.37,1.41-2.52-1.45Zm2.92-6.85h0l2.36-1.36,4,2.34L202.09,198l-4-2.34Zm.09,4.32h0l2.36-1.36,2,1.15-2.39,1.41-2-1.15Zm.77,4.72h0l2.36-1.36,2.52,1.45-2.38,1.41-2.51-1.45Zm2.5-2.83h0l2.37-1.36,2,1.15L203.43,203l-2-1.15Zm.33-8.35h0l2.36-1.36,3.21,1.86L205,195.32l-3.2-1.86Zm1,13.36h0l2.37-1.36,18.18,10.5-2.39,1.41-18.12-10.5Zm.68-8.14h0l2.36-1.36,2,1.15-2.37,1.41-2-1.15Zm1.3,5h0l2.37-1.37,2,1.16-2.37,1.41-2-1.16Zm.76-12.37h0l2.35-1.36,2,1.15-2.38,1.41-2-1.15Zm.78,4.72h0l2.37-1.37,2,1.16-2.37,1.41-2-1.15Zm.44,4.52h0l2.35-1.37,2,1.16-2.38,1.41-2-1.15Zm1.3,5h0l2.36-1.35,2,1.14L210,206.78l-2-1.14Zm.75-12.36h0l2.36-1.37,2,1.16-2.38,1.41-2-1.15Zm.79,4.71h0l2.36-1.37,2,1.16-2.38,1.41-2-1.16Zm.43,4.53h0l2.36-1.36,2,1.16L212,203.67l-2-1.16Zm0-13.72h0l2.35-1.37,2.52,1.46-2.37,1.41-2.52-1.45Zm1.29,18.74h0l2.36-1.37,2,1.16-2.38,1.41-2-1.15ZM212,195.1h0l2.36-1.36,2,1.16L214,196.31l-2-1.16Zm.78,4.73h0l2.36-1.36,2,1.14L214.78,201l-2-1.14Zm.44,4.52h0l2.37-1.36,2,1.15-2.38,1.4-2-1.14Zm1.29,5h0l2.37-1.36,2,1.16-2.38,1.41-2-1.16Zm.64-17.61h0l2.37-1.37,2,1.16L217.16,193l-2-1.16Zm.12,5.25h0l2.36-1.37,2,1.16-2.38,1.4-2-1.14Zm.78,4.72h0l2.37-1.37,2,1.16-2.38,1.41-2-1.16Zm.43,4.52h0l2.37-1.37,2,1.16-2.37,1.41-2-1.16Zm1.3,5h0l2.36-1.37,2,1.16-2.37,1.41-2-1.15Zm.65-17.62h0l2.36-1.35,2,1.14-2.38,1.42-2-1.16Zm.12,5.26h0l2.36-1.37,2,1.16-2.39,1.41-2-1.16Zm.77,4.71h0l2.36-1.36,2,1.15-2.37,1.41-2-1.15Zm.43,4.52h0l2.37-1.36,2,1.15-2.37,1.41-2-1.15Zm1.3,5h0l2.36-1.37,2,1.16-2.37,1.4-2-1.15Zm.65-17.62h0l2.35-1.37,2,1.16-2.38,1.41-2-1.15Zm.12,5.24h0l2.38-1.48,2,1.15-2.38,1.41-2-1.15Zm.36,17.29h0l2.37-1.37,2.51,1.46-2.36,1.28L222.18,218Zm.41-12.57h0l2.36-1.36,2,1.15-2.37,1.41-2-1.15Zm.44,4.53h0l2.36-1.37,2,1.15L225,211.26l-2-1.14Zm1.3,5h0l2.35-1.36,2,1.15-2.38,1.41-2-1.15Zm.64-17.62h0l2.36-1.36,2,1.16L227,198.69l-2-1.16Zm.12,5.26h0l2.37-1.37,2,1.15-2.38,1.41-2-1.15Zm.78,4.71h0l2.35-1.36,2,1.16-2.38,1.41-2-1.16Zm.1,12.86h0l2.35-1.35,2.52,1.45-2.38,1.4L226,220.37Zm.33-8.34h0l2.36-1.36,2,1.16-2.38,1.41-2-1.16Zm1.3,5h0l2.35-1.37,2,1.16-2.38,1.41-2-1.16Zm.75-12.37h0l2.37-1.36,2,1.15-2.37,1.42-2-1.16Zm.79,4.72h0l2.35-1.37,2,1.16-2.37,1.28-2-1.15Zm.43,4.52h0l2.36-1.37,2,1.16-2.38,1.41-2-1.15Zm.09-13.66h0l2.37-1.37,2,1.16-2.37,1.41-2-1.16Zm.07,22.19h0l2.36-1.36,2.52,1.45-2.38,1.41-2.52-1.45Zm1.12-3.63h0l2.37-1.36,2,1.15L232.84,220l-2-1.16Zm.76-12.36h0L234,205l2,1.16-2.38,1.41-2-1.15Zm.78,4.72h0l2.36-1.37,2,1.16-2.39,1.41-2-1.16Zm.43,4.52h0l2.36-1.37,2,1.16-2.37,1.41-2-1.16Zm.09-13.67h0l2.36-1.36,2,1.15-2.37,1.41-2-1.15Zm.61,22.61h0l2.36-1.37,3.21,1.86-2.38,1.41-3.2-1.86Zm.6-3.92h0l2.37-1.37,6.3,3.64-2.37,1.41-6.31-3.63Zm.76-12.38h0l2.36-1.36,2,1.16-2.38,1.41-2-1.16Zm.78,4.73h0l2.37-1.36,2,1.14-2.38,1.41-2-1.14Zm.44,4.52h0l2.36-1.36,2,1.14-2.39,1.41-2-1.14Zm.09-13.67h0l2.35-1.37,2,1.16-2.38,1.41-2-1.15Zm2,6.32h0l2.37-1.36,2,1.14-2.38,1.41-2-1.14Zm.53,17.38h0l2.37-1.37,2,1.16-2.37,1.41-2-1.16Zm.26-12.66h0l2.36-1.37,2,1.16-2.37,1.41-2-1.16Zm.43,4.52h0l2.36-1.37,1.83,1.06a1.43,1.43,0,0,0,.58.12,1.35,1.35,0,0,0,.6-.13l3.11-1.8,2.33,1.36-6,3.55-4.75-2.74Zm.09-13.67h0l2.35-1.38,2,1.15-2.38,1.41-2-1.15Zm2,6.32h0l2.36-1.37,2,1.16-2.37,1.41-2-1.16Zm.54,17.38h0l2.35-1.36,2,1.16-2.38,1.4-2-1.15Zm.25-12.67h0l2.36-1.36,2,1.16L244.21,218l-2-1.16Zm1.94-8.32h0l2.37-1.36,2,1.15-2.38,1.41-2-1.16Zm.54,5.49h0l2.36-1.36,2,1.15-2.37,1.41-2-1.15Zm.54,17.39h0l2.35-1.37,2,1.16-2.35,1.43-2-1.15Zm.42-4h0L248,226l2,1.16-2.38,1.41-2-1.16Zm1.77-17h0l2.37-1.36,2,1.15-2.37,1.41-2-1.15Zm.55,5.49h0l2.35-1.36,3.56,2-2.39,1.41-3.54-2Zm1.21,17.78h0l2.37-1.35,5.27,3-2.38,1.41-5.27-3Zm.6-12.46h0l2.35-1.37,2,1.16-2.38,1.41-2-1.16Zm.91-8.92h0l2.36-1.37,2,1.16-2.37,1.41-2-1.15Zm2.2,19.25h0l2.37-1.36,2,1.15-2.37,1.38-2-1.11Zm.16-8.45h0l2.36-1.36,2,1.15L255,224.26l-2-1.16Zm.42-4h0l2.36-1.37,2,1.15-2.37,1.41-2-1.15Zm.5-4.91h0l2.35-1.36,2,1.16L256,215.33l-2-1.16Zm1.76,23.28h0l2.35-1.36,2,1.15-2.38,1.41-2-1.15Zm.43-4h0l2.37-1.36,2,1.16-2.37,1.41-2-1.16Zm.16-8.44h0l2.37-1.37,2,1.15-2.38,1.41-2-1.14Zm.26,4.42h0l2.36-1.37,2,1.15-2.37,1.41-2-1.14Zm.17-8.45h0l2.35-1.36,2,1.15-2.38,1.41-2-1.15Zm1.21-4.48h0l2.36-1.36,2,1.16L260,217.63l-2-1.16Zm1,22.86h0l6-3.5,2,1.16-6,3.54-2-1.16Zm.42-4h0l2.37-1.36,2,1.14-2.37,1.41-2-1.14Zm.44-4h0l2.36-1.37,2,1.16-2.38,1.41-2-1.16Zm.16-8.45h0l2.35-1.37,2,1.16L262,224l-2-1.15Zm.26,4.42h0l2.36-1.37,2,1.16-2.38,1.41-2-1.15Zm1-8.9h0l2.36-1.37,2,1.16-2.39,1.41-2-1.15Zm1.89,14.81h0l2.36-1.36,2,1.15-2.38,1.41-2-1.15Zm.42-4h0l2.36-1.37,2,1.16-2.38,1.41-2-1.16Zm.42-4h0l2.36-1.36,2,1.15-2.37,1.4-2-1.14Zm.54-4.88h0l2.36-1.37,2,1.16-2.38,1.41-2-1.16ZM266.37,235h0l6-3.5,2,1.16-6.05,3.54-2-1.16Zm.42-4h0l2.37-1.36,2,1.15-2.38,1.4-2-1.14Zm.43-4h0l2.35-1.37,2,1.16-2.38,1.41-2-1.16Zm2.16-5h0l1-.6,2,1.16-1,.63-2-1.14Zm1.11,6.91h0l2.35-1.36,2,1.15L272.48,230l-2-1.15Zm2.16-5h0l1-.6,2,1.16-1,.63-2-1.14Zm1.11,6.92h0l2.36-1.37,2,1.15-2.38,1.41-2-1.15Zm2.17-5h0l1-.58,2,1.14-1,.64-2-1.15Zm3.27,1.89h0l1-.59,2,1.16-1,.63-2-1.15Z"/></g></g><g id="freepik--Monitor--inject-370"><path class="cls-8" d="M337.66,228.13l15.5-8.94c2.32-1.35,2.32-3.53,0-4.87l-94-54.24a9.26,9.26,0,0,0-8.42,0L235.26,169c-2.33,1.35-2.33,3.52,0,4.87l94,54.25A9.29,9.29,0,0,0,337.66,228.13Z"/><g id="freepik--monitor--inject-370-2" data-name="freepik--monitor--inject-370"><path class="cls-10" d="M273.76,213.08l-17.11-9.88c-1.77-1-2.64-2.36-2.64-3.69v-2.37L270.12,188a3.77,3.77,0,0,0,1.7-3V164l29.81,17.21v21.14a3.76,3.76,0,0,1-1.7,2.94l-13.43,7.83A14.12,14.12,0,0,1,273.76,213.08Z"/><path class="cls-9" d="M294.47,206v2.36l5.47-3.15a3.76,3.76,0,0,0,1.7-2.94V181.22L296,178c-.11,1.44-.24,2.93-.36,4.38l4,2.31v16.45a3.7,3.7,0,0,1-1.71,2.94Z"/><path class="cls-11" d="M299.58,201.12a3.76,3.76,0,0,1-1.71,2.95l-11.36,6.63a14.11,14.11,0,0,1-12.75,0l-17.12-9.88c-3.51-2-3.51-5.32,0-7.36L268,186.83a3.79,3.79,0,0,0,1.7-2.94V167.43l29.84,17.24Z"/><path class="cls-10" d="M264.58,188.83h0l3.46-2a3.79,3.79,0,0,0,1.7-2.94V167.43l29.84,17.24v16.45a3.76,3.76,0,0,1-1.71,2.95l-3.4,2Z"/><path class="cls-10" d="M339.48,218.85a4.5,4.5,0,0,1-4.12-.08l-98.21-56.68a4.71,4.71,0,0,1-2.12-3.68V75.06A4,4,0,0,1,239,71a4,4,0,0,1,2.17.58L339.3,128.2a4.7,4.7,0,0,1,2.13,3.69v83.36A4.58,4.58,0,0,1,339.48,218.85Z"/><path class="cls-11" d="M335.31,218.77l-98.16-56.68a4.69,4.69,0,0,1-2.12-3.67V75.06c0-1.36,1-1.91,2.12-1.23l98.16,56.67a4.7,4.7,0,0,1,2.12,3.68v83.37C337.46,218.91,336.46,219.48,335.31,218.77Z"/><path class="cls-12" d="M333.44,205.1V135.5a2.8,2.8,0,0,0-1.27-2.2L240.29,80.25c-.7-.41-1.26-.07-1.26.73v69.6a2.8,2.8,0,0,0,1.27,2.21l91.89,53.05C332.88,206.24,333.44,205.92,333.44,205.1Z"/><path class="cls-3" d="M283.3,181.22a4.41,4.41,0,0,1,2,3.45c0,1.27-.9,1.79-2,1.15a4.4,4.4,0,0,1-2-3.45C281.3,181.1,282.2,180.58,283.3,181.22Z"/><path class="cls-9" d="M340.8,129.78l-4,2.3a4.44,4.44,0,0,1,.63,2.1v83.37c0,1.23-1.1,1.64-2.12,1.22a3.8,3.8,0,0,0,6.11-3.27V131.89A4.46,4.46,0,0,0,340.8,129.78Z"/></g></g><g id="freepik--Mouse--inject-370"><path class="cls-8" d="M283,259.75l9.19,5.3a10.06,10.06,0,0,0,10.11-.54l15.11-11.07c2.69-2,2.54-4.91-.35-6.59l-4.6-2.66a12.48,12.48,0,0,0-10.63-.33L283.14,254C280.19,255.53,280.07,258.1,283,259.75Z"/><path class="cls-10" d="M317.69,248.68l-10.43,8.18-7.72,6a7.09,7.09,0,0,1-6.14-.18L285.11,258h0a5.79,5.79,0,0,1-1.89-8l.23-.34.24-.33a10.93,10.93,0,0,1,6.6-4.19l4.16-.83c6.74-1.37,12.26-2,12.9-1.59l10.28,5.94Z"/><path class="cls-3" d="M311.84,253.26l.58-.47-9.19-5.32,8.06-2.51-.82-.47L302.42,247l-5.51-3.19-1,.21Z"/><path class="cls-9" d="M300.4,262.41h.05l7.35-5.32,9.93-7.16v-1.12a.11.11,0,0,0-.05-.09h-.06c-.74-.25-5,1-10.24,3.1l-3.44,1.37a10.52,10.52,0,0,0-2.94,1.74,10.93,10.93,0,0,0-4,8.46v.18a6.74,6.74,0,0,0,2.46-.6Z"/></g></g><g id="freepik--Notebooks--inject-370"><path class="cls-9" d="M336.35,267.31l-24.68,13-.52.8v.64a.94.94,0,0,0,.52.8l32.53,18.78a1.86,1.86,0,0,0,1.69,0l24.16-13.93v-.65Z"/><path class="cls-3" d="M345,300.9a1.77,1.77,0,0,1-.84-.21L311.67,281.9a.87.87,0,0,1-.43-1.16.9.9,0,0,1,.43-.43l23.59-13.62L370,286.75l-24.16,13.94A1.67,1.67,0,0,1,345,300.9Z"/><path class="cls-13" d="M335.26,264.79l-23.33,13.47-.24.33v2.51h0a.39.39,0,0,0,.24.33l32.58,18.8a1.31,1.31,0,0,0,1.16,0L369,286.75v-2.5Z"/><path class="cls-14" d="M369,284.25l-.3.17-3.79,2.19-.71.41-18.53,10.7a1.31,1.31,0,0,1-1.16,0l-32.54-18.79a.36.36,0,0,1-.22-.45.35.35,0,0,1,.22-.21l.31-.18,23-13.3,33.41,19.3h.07Z"/><path class="cls-15" d="M345,297.86v2.51a1.26,1.26,0,0,1-.57-.14l-32.54-18.79a.4.4,0,0,1-.23-.33V278.6a.4.4,0,0,0,.23.33l32.58,18.79A1.1,1.1,0,0,0,345,297.86Z"/><path class="cls-16" d="M369,283.92l-4.2,2.42-.67.38-18.46,10.67a1.31,1.31,0,0,1-1.16,0l-29.16-16.83-.73-.42a7.15,7.15,0,0,1-2.36-2l-.06-.08a1.07,1.07,0,0,1-.07-.19.52.52,0,0,1,.41-.58,10.89,10.89,0,0,0,2.2-.92h0l20.51-11.85Z"/><path class="cls-5" d="M364.65,283.62a.34.34,0,0,0-.2.43.33.33,0,0,0,.2.2,1.19,1.19,0,0,0,1.07,0,.34.34,0,0,0,0-.63A1.19,1.19,0,0,0,364.65,283.62Z"/><path class="cls-9" d="M368.08,281.59a1.43,1.43,0,0,0-1.45.11,4.52,4.52,0,0,0-1.83,2.63,1.27,1.27,0,0,0,.39,0,4.12,4.12,0,0,1,1.64-2.34,1.38,1.38,0,0,1,.66-.2.78.78,0,0,1,.39.1,1.5,1.5,0,0,1,.55,1.34v.32l.39.22a4.86,4.86,0,0,0,0-.54A1.9,1.9,0,0,0,368.08,281.59Z"/><path class="cls-9" d="M368.75,284a.14.14,0,0,1,0,.09h-.07Z"/><path class="cls-5" d="M361.34,281.74a.33.33,0,0,0-.19.43.34.34,0,0,0,.19.2,1.23,1.23,0,0,0,1.09,0,.35.35,0,0,0,.2-.43.33.33,0,0,0-.2-.2A1.23,1.23,0,0,0,361.34,281.74Z"/><path class="cls-9" d="M364.82,279.71a1.43,1.43,0,0,0-1.45.11,4.52,4.52,0,0,0-1.83,2.63,1.34,1.34,0,0,0,.4,0,4,4,0,0,1,1.63-2.34,1.41,1.41,0,0,1,.66-.2.67.67,0,0,1,.39.1,1.5,1.5,0,0,1,.55,1.34v.32l.38.22a4.86,4.86,0,0,0,0-.54A1.83,1.83,0,0,0,364.82,279.71Z"/><path class="cls-5" d="M358.08,279.89a.33.33,0,0,0,0,.62,1.23,1.23,0,0,0,1.09,0,.33.33,0,0,0,0-.62A1.23,1.23,0,0,0,358.08,279.89Z"/><path class="cls-9" d="M361.56,277.87a1.45,1.45,0,0,0-1.45.12,4.51,4.51,0,0,0-1.84,2.62,1,1,0,0,0,.41.05,4,4,0,0,1,1.63-2.33,1.41,1.41,0,0,1,.66-.2.65.65,0,0,1,.39.1,1.5,1.5,0,0,1,.55,1.34,1.71,1.71,0,0,1,0,.32l.38.22a2.44,2.44,0,0,0,0-.54A1.89,1.89,0,0,0,361.56,277.87Z"/><path class="cls-5" d="M354.82,278a.33.33,0,0,0-.2.42.36.36,0,0,0,.2.2,1.17,1.17,0,0,0,1.09,0,.33.33,0,0,0,0-.62A1.17,1.17,0,0,0,354.82,278Z"/><path class="cls-9" d="M358.3,276a1.42,1.42,0,0,0-1.46.1,4.55,4.55,0,0,0-1.83,2.63,1.1,1.1,0,0,0,.4.05,4.12,4.12,0,0,1,1.64-2.34,1.38,1.38,0,0,1,.66-.2.87.87,0,0,1,.39.1,1.51,1.51,0,0,1,.55,1.34,1.82,1.82,0,0,1,0,.33l.38.22a5,5,0,0,0,0-.55A1.87,1.87,0,0,0,358.3,276Z"/><path class="cls-5" d="M351.56,276.09a.35.35,0,0,0-.2.43.36.36,0,0,0,.2.2,1.15,1.15,0,0,0,1.08,0,.33.33,0,0,0,.19-.43.34.34,0,0,0-.19-.2A1.21,1.21,0,0,0,351.56,276.09Z"/><path class="cls-9" d="M355,274.07a1.42,1.42,0,0,0-1.46.1,4.46,4.46,0,0,0-1.82,2.63,1,1,0,0,0,.39.05,4.05,4.05,0,0,1,1.63-2.34,1.42,1.42,0,0,1,.67-.2.9.9,0,0,1,.39.1,1.5,1.5,0,0,1,.54,1.34v.32l.38.22a4.86,4.86,0,0,0,0-.54A1.85,1.85,0,0,0,355,274.07Z"/><path class="cls-5" d="M348.31,274.21a.32.32,0,0,0-.2.43.29.29,0,0,0,.2.19,1.13,1.13,0,0,0,1.07,0,.32.32,0,0,0,.2-.42.31.31,0,0,0-.2-.2A1.19,1.19,0,0,0,348.31,274.21Z"/><path class="cls-9" d="M351.78,272.19a1.42,1.42,0,0,0-1.46.1,4.44,4.44,0,0,0-1.82,2.62.86.86,0,0,0,.39,0,4.16,4.16,0,0,1,1.63-2.33,1.42,1.42,0,0,1,.67-.2.78.78,0,0,1,.39.1,1.5,1.5,0,0,1,.55,1.34v.32l.37.22a2.44,2.44,0,0,0,0-.54A1.83,1.83,0,0,0,351.78,272.19Z"/><path class="cls-5" d="M345,272.33a.32.32,0,0,0-.19.42.29.29,0,0,0,.19.2,1.15,1.15,0,0,0,1.08,0,.33.33,0,0,0,.2-.42.31.31,0,0,0-.2-.2A1.21,1.21,0,0,0,345,272.33Z"/><path class="cls-9" d="M348.54,270.3a1.42,1.42,0,0,0-1.45.1,4.55,4.55,0,0,0-1.83,2.63,1,1,0,0,0,.39.05,4.06,4.06,0,0,1,1.64-2.33,1.39,1.39,0,0,1,.65-.21.8.8,0,0,1,.4.11,1.47,1.47,0,0,1,.55,1.33v.33l.38.22a5,5,0,0,0,0-.55A1.86,1.86,0,0,0,348.54,270.3Z"/><path class="cls-5" d="M341.78,270.44a.36.36,0,0,0-.19.45.39.39,0,0,0,.19.19,1.21,1.21,0,0,0,1.08,0,.34.34,0,0,0,0-.64A1.21,1.21,0,0,0,341.78,270.44Z"/><path class="cls-9" d="M345.26,268.42a1.4,1.4,0,0,0-1.45.1,4.61,4.61,0,0,0-1.84,2.63,1.13,1.13,0,0,0,.41.05,4.05,4.05,0,0,1,1.63-2.34,1.41,1.41,0,0,1,.66-.2.8.8,0,0,1,.38.1,1.48,1.48,0,0,1,.56,1.34v.32l.38.23a5,5,0,0,0,0-.55A1.86,1.86,0,0,0,345.26,268.42Z"/><path class="cls-5" d="M338.52,268.56a.34.34,0,0,0-.19.45.39.39,0,0,0,.19.19,1.23,1.23,0,0,0,1.09,0,.35.35,0,0,0,.2-.43.39.39,0,0,0-.2-.2A1.23,1.23,0,0,0,338.52,268.56Z"/><path class="cls-9" d="M342,266.54a1.42,1.42,0,0,0-1.46.1,4.57,4.57,0,0,0-1.83,2.63,1.1,1.1,0,0,0,.4.05,4,4,0,0,1,1.63-2.34,1.45,1.45,0,0,1,.67-.2.87.87,0,0,1,.39.1,1.5,1.5,0,0,1,.55,1.34,1.71,1.71,0,0,1,0,.32l.38.22a4.86,4.86,0,0,0,0-.54A1.86,1.86,0,0,0,342,266.54Z"/><path class="cls-5" d="M335.26,266.68a.33.33,0,0,0-.19.44.3.3,0,0,0,.19.19,1.23,1.23,0,0,0,1.09,0c.3-.18.3-.46,0-.63A1.23,1.23,0,0,0,335.26,266.68Z"/><path class="cls-9" d="M338.74,264.66a1.42,1.42,0,0,0-1.46.1,4.53,4.53,0,0,0-1.83,2.62.92.92,0,0,0,.4.05,4,4,0,0,1,1.63-2.33,1.42,1.42,0,0,1,.67-.2.78.78,0,0,1,.39.1,1.49,1.49,0,0,1,.54,1.34,1.71,1.71,0,0,1,0,.32l.39.22a4.86,4.86,0,0,0,0-.54A1.86,1.86,0,0,0,338.74,264.66Z"/><path class="cls-13" d="M341.78,294a.27.27,0,0,0,.18,0l18-10.37a.34.34,0,0,0,.15-.46v0a.36.36,0,0,0-.48-.15h0L341.6,293.34a.36.36,0,0,0-.14.5A.37.37,0,0,0,341.78,294Z"/><path class="cls-13" d="M339.61,292.78a.61.61,0,0,0,.18,0l17.95-10.36a.38.38,0,0,0,.14-.51.36.36,0,0,0-.49-.13h0l-17.9,10.36a.35.35,0,0,0-.15.48l0,0A.36.36,0,0,0,339.61,292.78Z"/><path class="cls-13" d="M337.46,291.52a.38.38,0,0,0,.19,0l17.94-10.36a.36.36,0,0,0,.14-.49v0a.38.38,0,0,0-.51-.13l-18,10.36a.38.38,0,0,0-.13.51A.37.37,0,0,0,337.46,291.52Z"/><path class="cls-13" d="M335.26,290.27a.45.45,0,0,0,.19,0l17.94-10.33a.36.36,0,0,0,.15-.48v0a.38.38,0,0,0-.5-.14l-17.95,10.36a.35.35,0,0,0,.18.66Z"/><path class="cls-13" d="M333.09,289a.35.35,0,0,0,.18-.05l18-10.36a.37.37,0,0,0,.14-.5.35.35,0,0,0-.48-.15l0,0-18,10.36a.37.37,0,0,0-.13.5A.38.38,0,0,0,333.09,289Z"/><path class="cls-13" d="M330.92,287.75a.29.29,0,0,0,.18-.05L349,277.34a.36.36,0,0,0,.15-.49h0a.36.36,0,0,0-.5-.13l-17.95,10.36a.36.36,0,0,0-.13.5A.35.35,0,0,0,330.92,287.75Z"/><path class="cls-13" d="M328.74,286.5a.35.35,0,0,0,.18-.05l18-10.37a.36.36,0,0,0,.13-.49.37.37,0,0,0-.49-.15h0l-17.95,10.36a.36.36,0,0,0-.13.51.37.37,0,0,0,.32.18Z"/><path class="cls-13" d="M326.57,285.24a.41.41,0,0,0,.18-.05l17.95-10.34a.37.37,0,0,0,.05-.52.37.37,0,0,0-.42-.11l-17.94,10.34a.35.35,0,0,0-.15.49h0A.36.36,0,0,0,326.57,285.24Z"/><path class="cls-13" d="M324.37,284a.41.41,0,0,0,.19-.05l17.94-10.36a.38.38,0,0,0,.05-.53.39.39,0,0,0-.43-.11L324.18,283.3a.37.37,0,0,0-.14.5A.39.39,0,0,0,324.37,284Z"/><path class="cls-13" d="M322.22,282.74a.61.61,0,0,0,.18-.05l18-10.37a.36.36,0,0,0-.36-.63h0L322,282.06a.36.36,0,0,0-.15.48v0A.37.37,0,0,0,322.22,282.74Z"/><path class="cls-13" d="M320,281.48a.41.41,0,0,0,.19-.05l17.95-10.36a.37.37,0,0,0,.13-.5.36.36,0,0,0-.5-.14h0l-17.94,10.36a.37.37,0,0,0-.14.5h0A.38.38,0,0,0,320,281.48Z"/><path class="cls-13" d="M317.87,280.22a.28.28,0,0,0,.18,0L336,269.82a.36.36,0,0,0,.15-.48l0,0a.36.36,0,0,0-.49-.13l-17.95,10.36a.36.36,0,0,0-.14.5A.37.37,0,0,0,317.87,280.22Z"/><path class="cls-3" d="M315.7,279a.31.31,0,0,0,.19,0l17.94-10.36a.36.36,0,0,0,.2-.48.37.37,0,0,0-.48-.21l-.08.05-18,10.37a.33.33,0,0,0,.19.63Z"/><path class="cls-13" d="M344,295.28a.27.27,0,0,0,.19,0l19-11a.36.36,0,0,0,.14-.48v0a.36.36,0,0,0-.46-.15l0,0-19,11a.37.37,0,0,0-.14.5A.38.38,0,0,0,344,295.28Z"/><g class="cls-17"><path class="cls-11" d="M351.15,279.07a1.71,1.71,0,0,0-.74-.47l-.35-.18c-.16-.26-.38-.7-.09-.75s.5.14.69.2.08-.12,0-.15c-.32-.13-.93-.52-1.07,0a.9.9,0,0,0,.09.51,1,1,0,0,0-.48-.09c-.15,0-.28,0-.33.19s0,.14,0,.21a.19.19,0,0,0,.15.16h-.17c-.23,0-.85-.16-1,.12-.06.11.07.27.05.32a4.64,4.64,0,0,1-.52.21c-.08.06,0,.15,0,.17s-.52,0-.65,0c-.37,0-1.25-.1-1.13.45,0,.06.06,0,.07.14a.56.56,0,0,1,0,.14s0,0-.08.07-.15,0-.2.09.09.28-.12.42-.93-.2-1.23,0,.08.73-.4.74c-.11,0-.05.16,0,.17.46,0,.41-.05.49-.41.14-.6,1-.19,1.53-.32a.09.09,0,0,0,0-.13h0c-.13-.22,0-.34.21-.43,0,0,0-.07,0-.11l0,0c-.05-.1-.24-.39-.13-.53a2.33,2.33,0,0,1,.53-.06,11.22,11.22,0,0,1,1.16,0,.09.09,0,0,0,.09-.08,0,0,0,0,0,0,0c-.06-.12.44-.2.55-.24a.06.06,0,0,0,.06-.08v0c-.24-.59.65-.38,1-.32a.09.09,0,0,0,.11-.06,0,0,0,0,0,0,0c-.06-.2-.5-.4,0-.47a.78.78,0,0,1,.4.09,2.88,2.88,0,0,0,.92.95C351.06,279.6,351.42,279.48,351.15,279.07Zm-.17.11c.11.14-.23,0-.28,0a1.33,1.33,0,0,1-.45-.49l.27.14A1.23,1.23,0,0,1,351,279.18Z"/><path class="cls-11" d="M342.17,282.85c-.07-.25-.08-.54.17-.58s0-.17,0-.17c-.33,0-.43.28-.39.62a1.47,1.47,0,0,0-.4-.14c-.21,0-.35,0-.42.17s.06.21.06.32.15.1-.1.17h-.29c-.27,0-.29,0-.45.13s.24.2-.23.13a1,1,0,0,0-.37-.05c-.17,0-.26.08-.23.27s.2.21.2.27c0,.41-.46.06-.63,0a.06.06,0,0,0-.09,0v0c0,.2.13.28-.16.29a1.62,1.62,0,0,0-.3-.11c-.06,0-.37.25-.61.23-.07,0-.09.05-.07.11s.16.29-.22.45l-.43,0s0,.17.05.18.75.27.92,0-.12-.37-.06-.48c0,.07.33-.1.37-.11a1,1,0,0,1,.29-.08c.05,0,.09.08.15.08h.21c.06,0,.08-.12.11-.14s-.08-.1,0-.14.19.06.28.09.35.15.47,0-.13-.33-.11-.46c.06-.3.48-.07.67-.21a.07.07,0,0,0,0-.09c-.12-.41.62-.09.85-.13a.08.08,0,0,0,.08-.09l-.09-.25c.06-.24.39-.22.54-.17.15.49.55,1,1,.85a.08.08,0,0,0,.05-.08C343,283.42,342.57,283.08,342.17,282.85Zm.16.41-.06-.12a1.07,1.07,0,0,1,.3.3C342.65,283.68,342.37,283.33,342.33,283.26Z"/><path class="cls-11" d="M348.69,285.51A1.51,1.51,0,0,0,348,285l-.36-.18c-.16-.26-.38-.69-.09-.75a2.18,2.18,0,0,1,.7.21c.11,0,.08-.12,0-.15-.33-.13-.93-.53-1.07,0a.76.76,0,0,0,.08.49,1.09,1.09,0,0,0-.47-.08c-.16,0-.29,0-.34.19s0,.14,0,.21a.21.21,0,0,0,.15.16h-.17c-.22,0-.84-.15-1,.13-.06.12.07.28.05.32s-.45.17-.53.22,0,.14,0,.15a3.53,3.53,0,0,1-.65,0c-.36,0-1.25-.11-1.13.44,0,.06.06.06.07.15a.33.33,0,0,0,0,.14l-.09.07c-.09.08-.15,0-.2.09s.09.29-.12.42-.92-.19-1.23,0,.08.72-.39.73c-.11,0,0,.16,0,.16.45,0,.4,0,.49-.4.13-.6,1-.19,1.52-.32a.07.07,0,0,0,0-.11l0,0c-.13-.21,0-.33.22-.42a.09.09,0,0,0,0-.13h0c0-.1-.24-.39-.12-.53a2.33,2.33,0,0,1,.53-.06,11.22,11.22,0,0,1,1.16,0,.08.08,0,0,0,.08-.08,0,0,0,0,0,0,0c-.06-.13.45-.2.56-.23a.07.07,0,0,0,0-.1h0c-.24-.61.64-.38,1-.32a.09.09,0,0,0,.11-.05s0,0,0-.07c-.07-.2-.51-.4,0-.48a1,1,0,0,1,.4.1,2.76,2.76,0,0,0,.91.95C348.61,286,349,285.93,348.69,285.51Zm-.16.1c.11.15-.23,0-.27,0a1.3,1.3,0,0,1-.47-.49l.27.14a1.05,1.05,0,0,1,.48.35Z"/><path class="cls-11" d="M354.21,281c-.06-.27-.07-.55.17-.58s0-.17-.05-.18c-.34,0-.44.27-.39.61a1.72,1.72,0,0,0-.4-.14c-.21,0-.35,0-.42.17s.06.22.05.34.16.1-.09.16h-.3a.46.46,0,0,0-.44.14c-.16.13.24.19-.23.12a.92.92,0,0,0-.37,0c-.17,0-.26.09-.23.28s.2.19.19.25c0,.42-.44.06-.62,0a.07.07,0,0,0-.09,0v0c0,.21.14.29-.16.31a2.06,2.06,0,0,0-.31-.13c-.07,0-.36.26-.61.24a.08.08,0,0,0-.07.11s.17.3-.2.46l-.44-.06c-.11,0,0,.18,0,.18s.76.26.93,0-.12-.37-.06-.48c0,.08.33-.1.37-.11a1,1,0,0,1,.29-.08s.09.08.15.08h.21c.07,0,.09-.12.12-.14s-.09-.09,0-.14.18.06.26.09.35.15.47,0-.13-.34-.1-.47c.06-.29.48-.07.67-.2a.08.08,0,0,0,0-.09c-.11-.4.63-.09.86-.13a.08.08,0,0,0,.08-.08,1.07,1.07,0,0,0-.09-.26c0-.24.39-.21.54-.17.15.49.55,1,1,.85a.09.09,0,0,0,.06-.07C355,281.51,354.58,281.18,354.21,281Zm.16.4a.24.24,0,0,1-.06-.11.92.92,0,0,1,.3.29c.08.24-.2-.11-.24-.18Z"/><path class="cls-11" d="M337.89,271.74a1.68,1.68,0,0,0-.73-.47,2.42,2.42,0,0,1-.36-.18c-.16-.26-.38-.7-.09-.75s.51.14.69.21.08-.13,0-.16c-.32-.13-.92-.52-1.07,0a.9.9,0,0,0,.09.51,1,1,0,0,0-.48-.09c-.15,0-.28,0-.33.2s0,.13,0,.21.12.14.15.15h-.17c-.22,0-.85-.16-1,.12-.06.11.07.27.05.32a4.53,4.53,0,0,1-.52.22c-.08,0,0,.15,0,.16h-.65c-.37,0-1.25-.1-1.13.45,0,.06.06.05.07.14a.56.56,0,0,1,0,.14s0,0-.08.07-.15,0-.2.09.09.28-.12.43-.92-.2-1.23,0,.08.72-.4.73c-.11,0-.05.16,0,.17.46,0,.41-.05.5-.41.13-.6,1-.18,1.52-.32a.11.11,0,0,0,0-.12h0c-.13-.22,0-.34.22-.43a.09.09,0,0,0,0-.13h0c-.05-.09-.24-.39-.12-.53a2.31,2.31,0,0,1,.52-.06,11.42,11.42,0,0,1,1.17,0,.09.09,0,0,0,.08-.09v0c-.06-.12.44-.2.55-.23a.08.08,0,0,0,.06-.09v0c-.24-.59.65-.38,1-.32a.08.08,0,0,0,.11,0,.15.15,0,0,0,0-.07c-.06-.2-.5-.4,0-.47a.85.85,0,0,1,.41.09,2.76,2.76,0,0,0,.91.95C337.8,272.27,338.16,272.15,337.89,271.74Zm-.17.11c.12.14-.23,0-.27,0a1.35,1.35,0,0,1-.46-.49l.27.14a1,1,0,0,1,.46.33Z"/><path class="cls-11" d="M328.91,275.53c-.07-.26-.08-.54.17-.58s0-.18-.05-.18c-.33,0-.43.28-.39.62a1.47,1.47,0,0,0-.4-.14c-.21,0-.35,0-.42.17s.07.21.06.33.16.09-.1.16h-.3a.48.48,0,0,0-.44.14c-.16.13.24.19-.23.12a1.09,1.09,0,0,0-.36,0c-.18,0-.27.09-.24.29s.2.19.2.25c0,.41-.46.06-.62,0a.07.07,0,0,0-.1,0v0c0,.21.14.28-.16.3l-.3-.12c-.19,0-.37.25-.61.23-.07,0-.1,0-.07.11s.17.3-.22.46l-.43-.06c-.1,0,0,.17.05.18s.75.27.92,0-.12-.37-.06-.48c0,.07.33-.1.37-.11a1,1,0,0,1,.29-.08c.05,0,.1.08.15.08h.21c.06,0,.09-.12.11-.14s-.08-.09.05-.14.18.06.27.09.35.15.47,0-.13-.33-.11-.46c.06-.3.48-.07.67-.21a.07.07,0,0,0,0-.09c-.12-.4.62-.09.85-.13a.08.08,0,0,0,.08-.09l-.09-.25c.06-.24.39-.21.54-.17.15.49.55,1,1,.86,0,0,.05,0,.05-.07C329.69,276.09,329.31,275.76,328.91,275.53Zm.16.4-.06-.12a1.07,1.07,0,0,1,.3.3C329.41,276.35,329.11,276,329.07,275.93Z"/><path class="cls-11" d="M335.45,278.18a1.67,1.67,0,0,0-.74-.48l-.35-.18c-.17-.26-.39-.69-.1-.75a2.18,2.18,0,0,1,.7.21c.11,0,.09-.12,0-.15-.33-.13-.93-.53-1.06,0a.79.79,0,0,0,.07.5,1,1,0,0,0-.47-.09c-.16,0-.29,0-.34.19s0,.14,0,.21a.21.21,0,0,0,.15.16h-.17c-.22,0-.84-.16-1,.12-.06.12.08.28.06.33a5.12,5.12,0,0,1-.54.21c-.08.05,0,.14,0,.15a3.53,3.53,0,0,1-.65,0c-.35,0-1.25-.1-1.13.45,0,.06.06.05.07.14v.14l-.09.08c-.09.07-.15,0-.19.09s.08.28-.13.41-.92-.19-1.23,0,.09.72-.39.73c-.1,0,0,.16,0,.16.44,0,.39,0,.48-.4.14-.59,1-.19,1.52-.32a.07.07,0,0,0,0-.11s0,0,0,0c-.13-.21,0-.33.22-.42a.09.09,0,0,0,0-.13h0c-.05-.11-.24-.4-.12-.54a2.33,2.33,0,0,1,.53-.06,11.22,11.22,0,0,1,1.16,0,.08.08,0,0,0,.08-.08,0,0,0,0,0,0,0c0-.12.45-.2.57-.23a.07.07,0,0,0,0-.1h0c-.23-.61.64-.38,1-.32a.09.09,0,0,0,.11-.05.06.06,0,0,0,0-.06c-.06-.21-.51-.41,0-.48a.7.7,0,0,1,.4.09,2.79,2.79,0,0,0,.92.95C335.35,278.7,335.7,278.58,335.45,278.18Zm-.17.11c.11.14-.23,0-.27,0a1.3,1.3,0,0,1-.47-.49l.27.15a.92.92,0,0,1,.46.34Z"/><path class="cls-11" d="M341,273.62c-.07-.27-.08-.55.16-.58s0-.17-.05-.18c-.33,0-.43.27-.39.61l-.4-.14c-.21,0-.35,0-.42.18s.06.21.06.33.15.1-.1.16h-.3a.46.46,0,0,0-.44.14c-.16.13.24.2-.23.12a.92.92,0,0,0-.37-.05c-.17,0-.26.09-.23.28s.2.2.2.25c0,.42-.45.06-.62,0a.08.08,0,0,0-.1,0s0,0,0,0c0,.21.14.28-.16.3a2.63,2.63,0,0,0-.3-.12c-.06,0-.37.25-.62.23a.08.08,0,0,0-.08.08,0,0,0,0,0,0,0c.07.19.17.3-.2.46l-.44-.06c-.11,0,0,.18,0,.18s.75.26.92,0-.12-.37-.06-.47c0,.07.33-.11.37-.12a1,1,0,0,1,.29-.08s.09.09.15.09h.21c.07,0,.09-.12.12-.14s-.09-.09,0-.14.18.07.27.09.35.15.46,0-.13-.34-.1-.47c.06-.29.48-.07.67-.2a.08.08,0,0,0,0-.09c-.12-.4.62-.09.85-.13a.08.08,0,0,0,.08-.08,1.07,1.07,0,0,0-.09-.26c.06-.24.39-.21.54-.17.15.49.55,1,1,.85,0,0,.06,0,.06-.07C341.73,274.18,341.35,273.85,341,273.62Zm.15.4a.24.24,0,0,1-.06-.11.92.92,0,0,1,.3.29c.08.25-.2-.11-.24-.18Z"/><path class="cls-11" d="M336.8,282.6a1.5,1.5,0,0,0-.74-.47l-.35-.18c-.17-.27-.38-.7-.09-.75s.5.15.69.2.09-.12,0-.15c-.32-.12-.93-.53-1.06,0a.79.79,0,0,0,.07.5,1.09,1.09,0,0,0-.47-.08c-.15,0-.28,0-.33.19s0,.14,0,.21a.16.16,0,0,0,.16.15h-.17c-.23,0-.84-.16-1,.12s.08.29.06.33-.46.17-.53.22,0,.14,0,.15h-.65c-.36,0-1.25-.11-1.14.44,0,.06.06,0,.07.15a.28.28,0,0,0,0,.13l-.08.09c-.08.08-.16,0-.2.08s.09.29-.12.42-.93-.19-1.23,0,.08.72-.4.73c-.1,0,0,.15,0,.16.44,0,.4,0,.48-.41.14-.59,1-.18,1.53-.32.06,0,.06-.08,0-.13-.13-.21,0-.32.22-.41a.08.08,0,0,0,0-.12h0c0-.11-.24-.4-.13-.54a3.33,3.33,0,0,1,.54-.07h1.15a.09.09,0,0,0,.09-.08v0c-.06-.13.45-.21.56-.23s.06-.07,0-.11c-.24-.6.64-.37,1-.31a.11.11,0,0,0,.11-.08v0c-.07-.21-.51-.41,0-.48a1,1,0,0,1,.4.1,2.85,2.85,0,0,0,.91.95C336.71,283.13,337.07,283,336.8,282.6Zm-.16.11c.11.15-.24,0-.28,0a1.4,1.4,0,0,1-.47-.5l.28.16A.94.94,0,0,1,336.64,282.71Z"/><path class="cls-11" d="M341.17,278.45c-.07-.26-.07-.55.17-.58s0-.18-.06-.18c-.32,0-.42.28-.38.62a1.53,1.53,0,0,0-.41-.14c-.21,0-.34,0-.41.17s.06.21,0,.33.16.09-.1.16h-.29c-.26,0-.28,0-.44.14s.24.19-.24.12a.87.87,0,0,0-.36,0c-.17,0-.26.09-.23.28s.19.2.19.26c0,.41-.44.06-.61,0a.08.08,0,0,0-.11,0v0c0,.21.14.28-.17.3a1.34,1.34,0,0,0-.3-.12c-.19,0-.36.25-.61.23-.07,0-.09.05-.07.11s.17.3-.2.46l-.45-.06c-.1,0,0,.17.05.18s.76.27.93,0-.13-.37-.06-.48c0,.07.32-.1.37-.11a1.47,1.47,0,0,1,.28-.08c.06,0,.1.08.16.08H338c.07,0,.08-.12.1-.14s-.08-.09,0-.14.17.06.26.09.35.15.47,0-.13-.33-.1-.46c.06-.3.47-.07.67-.21a.14.14,0,0,0,0-.09c-.12-.4.61-.09.85-.13a.07.07,0,0,0,.07-.09h0a1.25,1.25,0,0,0-.09-.25c.06-.24.39-.21.56-.17.15.49.54,1,1,.86,0,0,.06,0,.05-.08C341.94,279,341.57,278.67,341.17,278.45Zm.15.4-.05-.12a1.07,1.07,0,0,1,.3.3c.08.24-.21-.15-.25-.15Z"/><path class="cls-11" d="M346.17,275.08a.17.17,0,0,0,0-.1c-.07-.26-.36-.07-.41.09s.06.22.05.33.16.1-.1.17h-.29c-.27,0-.29,0-.44.13s.24.2-.24.12a.87.87,0,0,0-.36-.05c-.17,0-.26.09-.23.28s.19.2.19.25c0,.42-.44.07-.61,0a.09.09,0,0,0-.11.07h0c0,.21.15.28-.16.3a1.54,1.54,0,0,0-.3-.11c-.19,0-.36.24-.61.22a.07.07,0,0,0-.09.05.07.07,0,0,0,0,.06c.07.19.17.3-.2.46l-.45-.05c-.1,0,0,.17.05.18s.76.25.93,0-.12-.36-.06-.47c0,.07.33-.1.37-.12a1,1,0,0,1,.28-.08c.06,0,.1.09.15.09h.23c.07,0,.08-.12.1-.13s-.08-.1.05-.14.17.06.26.09.35.14.47,0-.13-.34-.1-.47c.06-.29.47-.07.67-.2a.14.14,0,0,0,0-.09c-.13-.4.62-.08.85-.13a.07.07,0,0,0,.07-.07h0a1.51,1.51,0,0,1,0-.52Z"/></g></g><g id="freepik--Pencil--inject-370"><path class="cls-5" d="M338.47,245.84c-.36,1-1.43,1.61-3.2,1.85L303.33,229,300,225.65a.24.24,0,0,1,0-.35.25.25,0,0,1,.29-.07l6,2Z"/><path class="cls-18" d="M306.13,225l-5.4-1.06a.16.16,0,0,0-.19.12.14.14,0,0,0,0,.15l3.66,4.15Z"/><path class="cls-9" d="M300.58,224.19a.17.17,0,0,1,0-.23.17.17,0,0,1,.15,0l1.06.21h0a.92.92,0,0,0-.43.86v.09Z"/><path class="cls-3" d="M331,243.75l-.44-.25-.54-.3-25.76-14.86a2.41,2.41,0,0,1,.15-1.79,2.52,2.52,0,0,1,1.74-1.57l25.75,14.86,1,.58C332.22,240.08,330.3,243.4,331,243.75Z"/><path class="cls-13" d="M329.3,242.8l-1-.57c-.29-.16-.12-.87.21-1.61.45-1,1.34-1.93,1.72-1.73l.73.42.26.15c-.38-.2-1.27.75-1.72,1.74-.32.7-.49,1.39-.24,1.58h0Z"/><path class="cls-3" d="M329.05,242.64c-.68-.37,1.25-3.7,1.94-3.34l1,.57c-.69-.37-2.62,3-1.95,3.33Z"/><path class="cls-13" d="M331,243.75l-1-.55c-.66-.35,1.18-3.58,1.88-3.36h0l1,.57C332.22,240.08,330.3,243.4,331,243.75Z"/><path class="cls-19" d="M300.55,224l.18-.09,3.92,2.14,26.86,15.5q.06-.09.09,0c-.57.89-1,2-.62,2.22l-.44-.25-.54-.3-25.76-14.89h0l-3.66-4.15A.19.19,0,0,1,300.55,224Z"/><path class="cls-20" d="M335.11,246.12,331,243.75c-.29-.15-.13-.85.2-1.59.44-1,1.33-1.94,1.72-1.74h0l4.15,2.37c.83.48.06,2.26-.86,3A1,1,0,0,1,335.11,246.12Z"/><path class="cls-5" d="M334.87,244.84a2.91,2.91,0,0,1,1.68-2,.65.65,0,0,1,.62.08c.61.58-.1,2.22-1,3a1,1,0,0,1-1.06.27A1.32,1.32,0,0,1,334.87,244.84Z"/></g></g><g id="freepik--Gears--inject-370"><g id="freepik--gears--inject-370-2" data-name="freepik--gears--inject-370"><path class="cls-2" d="M408.83,78.82l-2.74-2.88a2.17,2.17,0,0,1-.49-1.18,18.19,18.19,0,0,0-.23-2.21.58.58,0,0,1,.35-.6l1.76-.62h0a1.33,1.33,0,0,0,.77-1.73L406.59,65A1.83,1.83,0,0,0,405,63.84h-2.12a1.17,1.17,0,0,1-.88-.52,21.25,21.25,0,0,0-1.43-2.16,2,2,0,0,1-.32-1.2l.4-3.12a2.31,2.31,0,0,0-.69-1.88l-3.13-2.81a1.09,1.09,0,0,0-1-.29,1.12,1.12,0,0,0-.75.72l-.9,2.41a.25.25,0,0,1-.14.16.3.3,0,0,1-.26,0,13,13,0,0,0-1.39-.56,1.62,1.62,0,0,1-.88-.75l-1.81-4.08a1.71,1.71,0,0,0-1.75-.95l-2.22.34a1.26,1.26,0,0,0-.88.57,1.3,1.3,0,0,0-.14,1l1.23,4.12a1,1,0,0,1-.29.87,7.6,7.6,0,0,0-.68.71s0,0,0,0a.34.34,0,0,1-.49.08l-2.79-2.11A1,1,0,0,0,380,55l-.75,3.15a2.23,2.23,0,0,0,.52,1.93l2.72,3A2.24,2.24,0,0,1,383,64.3a18,18,0,0,0,.23,2.2.6.6,0,0,1-.34.61l-1.76.61a1.39,1.39,0,0,0-.78.69,1.36,1.36,0,0,0,0,1L382,74a1.86,1.86,0,0,0,1.64,1.15h2.12a1.2,1.2,0,0,1,.88.52,22,22,0,0,0,1.43,2.17,2.18,2.18,0,0,1,.32,1.2L388,82.18a2.38,2.38,0,0,0,.7,1.87l3.13,2.81a1,1,0,0,0,1.75-.42l.91-2.42a.25.25,0,0,1,.14-.16.36.36,0,0,1,.25,0,9.85,9.85,0,0,0,1.39.56,1.7,1.7,0,0,1,.89.76l1.81,4a1.69,1.69,0,0,0,1.51.91h.22l2.23-.34.18,0a1.24,1.24,0,0,0,.82-1.55l-1.23-4.13a1,1,0,0,1,.3-.87,7.5,7.5,0,0,0,.67-.71.36.36,0,0,1,.5-.1l2.79,2.11a1.05,1.05,0,0,0,1,.19,1,1,0,0,0,.65-.78l.77-3.15A2.25,2.25,0,0,0,408.83,78.82ZM400,74.88a3.35,3.35,0,0,1-2.14,2.67c-1.37.42-3.11-.2-4.8-1.73-3.26-2.92-5.22-8.19-4.36-11.74a3.34,3.34,0,0,1,2.13-2.67,2.7,2.7,0,0,1,.89-.13,6.16,6.16,0,0,1,3.92,1.85C398.89,66.06,400.84,71.33,400,74.88Z"/><path class="cls-2" d="M373.55,70.9,371.74,69a1.47,1.47,0,0,1-.29-.73,12,12,0,0,0-.15-1.46.31.31,0,0,1,.17-.31l1.16-.4a1,1,0,0,0,.55-.49,1,1,0,0,0,0-.75l-1.11-3a1.31,1.31,0,0,0-1.14-.81h-1.4a.66.66,0,0,1-.51-.31,16.77,16.77,0,0,0-.94-1.43,1.15,1.15,0,0,1-.19-.72l.26-2a1.59,1.59,0,0,0-.48-1.29l-2-1.86a.82.82,0,0,0-.72-.2.8.8,0,0,0-.54.52l-.6,1.59a.31.31,0,0,1-.15,0,8.46,8.46,0,0,0-1-.29,1,1,0,0,1-.53-.45L360.94,52a1.17,1.17,0,0,0-1.23-.67l-1.46.23-.16,0a.88.88,0,0,0-.57,1.11l.8,2.71a.51.51,0,0,1-.17.48,5,5,0,0,0-.44.48.16.16,0,0,1-.22,0l-1.84-1.39a.82.82,0,0,0-.74-.14.81.81,0,0,0-.48.58l-.5,2.07a1.53,1.53,0,0,0,.36,1.34l1.8,1.89a1.39,1.39,0,0,1,.3.73,14,14,0,0,0,.14,1.44.28.28,0,0,1-.17.3l-1.16.41a.93.93,0,0,0-.55.5,1,1,0,0,0,0,.74l1.11,3a1.27,1.27,0,0,0,1.13.81h1.4a.72.72,0,0,1,.52.3c.29.49.6,1,.93,1.43a1.13,1.13,0,0,1,.2.73l-.26,2a1.62,1.62,0,0,0,.48,1.3l2,1.84a.77.77,0,0,0,1.28-.31l.59-1.6h.15a8.1,8.1,0,0,0,.92.38,1,1,0,0,1,.54.45l1.21,2.68a1.21,1.21,0,0,0,1.11.55h.15l1.47-.22a.9.9,0,0,0,.63-.4.94.94,0,0,0,.1-.75l-.81-2.71a.57.57,0,0,1,.17-.49,3.34,3.34,0,0,0,.45-.47.17.17,0,0,1,.23,0l1.83,1.39a.75.75,0,0,0,1.22-.45l.5-2.06A1.56,1.56,0,0,0,373.55,70.9Zm-6-2.53a2.14,2.14,0,0,1-1.35,1.71,3.15,3.15,0,0,1-.53,0A3.37,3.37,0,0,1,363.12,69c-2.13-1.91-3.41-5.35-2.85-7.65a2.1,2.1,0,0,1,1.36-1.69,1.45,1.45,0,0,1,.55-.1,4.07,4.07,0,0,1,2.53,1.2C366.83,62.65,368.1,66.07,367.55,68.37Z"/></g></g><g id="freepik--Clock--inject-370"><g id="freepik--clock--inject-370-2" data-name="freepik--clock--inject-370"><path class="cls-10" d="M433.6,28.73h0l5.34-3.09h0c3.36-1.7,7.84-1.2,12.68,1.91,9.71,6.25,17.11,20.66,16.56,32.22-.27,5.75-2.49,9.69-5.83,11.44h0L457,74.31h0c-3.36,1.71-7.85,1.2-12.68-1.91-9.71-6.25-17.12-20.67-16.57-32.21C428.08,34.42,430.26,30.47,433.6,28.73Z"/><path class="cls-9" d="M457.27,74.12l5.09-3h0c3.34-1.75,5.56-5.69,5.83-11.43a36,36,0,0,0-3.43-16.17l-5.34,3.09a35.75,35.75,0,0,1,3.51,16.11C462.65,68.43,460.54,72.32,457.27,74.12Z"/><ellipse class="cls-11" cx="445.34" cy="51.47" rx="14.78" ry="25.6" transform="translate(25.77 209.4) rotate(-27.22)"/><path class="cls-12" d="M452.47,71.56c5.72.28,6.66-6.15,6.79-8.93.49-10.18-6.33-23.43-14.88-28.94a12.91,12.91,0,0,0-6.15-2.28c-5.72-.29-6.66,6.15-6.79,8.93-.49,10.18,6.32,23.42,14.88,28.94A13.12,13.12,0,0,0,452.47,71.56Z"/><path class="cls-10" d="M444.19,53.39h.2a.6.6,0,0,0,.42-.58V38.05a.63.63,0,0,0-1.25,0V51l-6.87-8.81a.63.63,0,1,0-1,.76h0l8,10.25A.64.64,0,0,0,444.19,53.39Z"/><path class="cls-3" d="M447.74,64.26h.09a.26.26,0,0,0,.17-.32l-3.45-11.65a.27.27,0,1,0-.51.15l3.46,11.64A.28.28,0,0,0,447.74,64.26Z"/><path class="cls-3" d="M444.43,49.82c-1.15-.73-2.13-.23-2.2,1.13a4.69,4.69,0,0,0,2,3.78c1.13.74,2.12.24,2.18-1.12A4.73,4.73,0,0,0,444.43,49.82Z"/></g></g><g id="freepik--Chair--inject-370"><path class="cls-10" d="M176,402.72l-10.2-93.9-8.33-.42,14.33,94.32h0a1.14,1.14,0,0,0,.55.75,3.31,3.31,0,0,0,3,.15,1,1,0,0,0,.66-.89Z"/><path class="cls-9" d="M165.83,308.79l-8.33-.42L160,324.48a31.91,31.91,0,0,0,4.93-2.28,5,5,0,0,0,2.21-1.88Z"/><path class="cls-10" d="M61.42,300.66H53.09L39.25,389.34h0a1,1,0,0,0,.61.92,3.3,3.3,0,0,0,3,0,1.14,1.14,0,0,0,.59-.73h0Z"/><path class="cls-9" d="M53.09,300.66,49.59,323a34.31,34.31,0,0,0,6.51,4l5.32-26.34Z"/><path class="cls-10" d="M120.28,431.21l-7.83-95.32-8.34-.43,12,95.74h0a1.12,1.12,0,0,0,.56.75,3.29,3.29,0,0,0,3,.15,1,1,0,0,0,.64-.89Z"/><path class="cls-9" d="M113.46,348.35l-1-12.45-8.34-.43,1.69,13.44C107.66,349.46,111,349.12,113.46,348.35Z"/><path class="cls-10" d="M107,274.19H98.61L84.75,362.86h0a1,1,0,0,0,.6.92,3.35,3.35,0,0,0,3,0,1.14,1.14,0,0,0,.59-.72h0Z"/><path class="cls-9" d="M99.44,276.41a10.36,10.36,0,0,0-1.12-.12L87.77,343.47c1.52.82,3.12,1.57,4.65,2.36l13.85-68C104,277.34,101.76,276.87,99.44,276.41Z"/><g id="freepik--chair--inject-370-2" data-name="freepik--chair--inject-370"><path class="cls-3" d="M169.43,304.77c0-2.63-2.31-5.44-7.18-8.6-9-5.84-35.24-20.47-47.84-27.46a.13.13,0,0,0-.1-.1c-9.71-5.89-12.65-31-19.36-52.35-.14-.46-.28-.9-.44-1.32s-.24-.68-.35-1c-.42-1.16-.85-2.21-1.31-3.19l-.32-.64a21,21,0,0,0-1.4-2.5c-.12-.19-.25-.38-.38-.57-.23-.35-.47-.66-.72-1l-.42-.5a8,8,0,0,0-.68-.74,6,6,0,0,0-.58-.54,11.24,11.24,0,0,0-1.81-1.33l-.46-.26H86l-.12-.07-.21-.12-2-1.11-.54-.31-.24-.14-.72-.4a8.56,8.56,0,0,0-1.94-.9c-.22-.08-.45-.14-.67-.21s-.52-.12-.78-.17a16.36,16.36,0,0,0-7.72.84l-.61.19c-.6.22-1.22.44-1.85.69h0c-.83.34-1.69.72-2.56,1.11-3,1.41-6.35,3.21-9.85,5.14l-1.25.69c-.5.29-1,.58-1.48.89-.31.18-.63.38-.94.58-.78.49-1.55,1-2.29,1.57-.37.27-.74.56-1.1.86s-.73.58-1.07.88c-.53.46-1,.93-1.53,1.43-.34.31-.66.67-1,1-.65.71-1.26,1.45-1.83,2.21h0c-.15.19-.29.39-.42.58-.29.41-.56.83-.84,1.27-.4.63-.77,1.3-1.13,2-.12.23-.25.47-.36.71s-.24.48-.35.73-.21.49-.33.75A47.3,47.3,0,0,0,37,238c-.95,11.23,0,32.69,2.24,48.95h0c3.3,27.18,7.35,27.18,13.24,31.76,10.12,7.82,32.92,18.82,42.54,22.6,17.43,6.86,31.68-3.72,42.29-9a248.88,248.88,0,0,0,28.14-16.66c2.65-1.93,4-3.89,4-5.94C169.41,309,169.43,305.62,169.43,304.77Z"/><path class="cls-8" d="M169.43,304.77c0-2.63-2.31-5.44-7.18-8.6-9-5.84-35.24-20.47-47.84-27.46a.13.13,0,0,0-.1-.1c-9.71-5.89-12.65-31-19.36-52.35-.14-.46-.28-.9-.44-1.32s-.24-.68-.35-1c-.42-1.16-.85-2.21-1.31-3.19l-.32-.64a21,21,0,0,0-1.4-2.5c-.12-.19-.25-.38-.38-.57-.23-.35-.47-.66-.72-1l-.42-.5a8,8,0,0,0-.68-.74,6,6,0,0,0-.58-.54,11.24,11.24,0,0,0-1.81-1.33l-.46-.26H86l-.12-.07-.21-.12-2-1.11-.54-.31-.24-.14-.72-.4a8.56,8.56,0,0,0-1.94-.9c-.22-.08-.45-.14-.67-.21s-.52-.12-.78-.17a16.36,16.36,0,0,0-7.72.84l-.61.19c-.6.22-1.22.44-1.85.69h0c-.83.34-1.69.72-2.56,1.11-3,1.41-6.35,3.21-9.85,5.14l-1.25.69c-.5.29-1,.58-1.48.89-.31.18-.63.38-.94.58-.78.49-1.55,1-2.29,1.57-.37.27-.74.56-1.1.86s-.73.58-1.07.88c-.53.46-1,.93-1.53,1.43-.34.31-.66.67-1,1-.65.71-1.26,1.45-1.83,2.21h0c-.15.19-.29.39-.42.58-.29.41-.56.83-.84,1.27-.4.63-.77,1.3-1.13,2-.12.23-.25.47-.36.71s-.24.48-.35.73-.21.49-.33.75A47.3,47.3,0,0,0,37,238c-.95,11.23,0,32.69,2.24,48.95h0c3.3,27.18,7.35,27.18,13.24,31.76,10.12,7.82,32.92,18.82,42.54,22.6,17.43,6.86,31.68-3.72,42.29-9a248.88,248.88,0,0,0,28.14-16.66c2.65-1.93,4-3.89,4-5.94C169.41,309,169.43,305.62,169.43,304.77Z"/><path class="cls-3" d="M137.28,327.34a248.74,248.74,0,0,0,28.19-16.67c6-4.39,5.48-8.88-3.17-14.5-12-7.8-54.76-31.28-54.76-31.28s-62,36.57-59.33,43.29S82.89,331.54,95,336.27C112.42,343.16,126.66,332.58,137.28,327.34Z"/><g class="cls-21"><path class="cls-16" d="M137.28,327.34a248.74,248.74,0,0,0,28.19-16.67c6-4.39,5.48-8.88-3.17-14.5-12-7.8-54.76-31.28-54.76-31.28s-62,36.57-59.33,43.29S82.89,331.54,95,336.27C112.42,343.16,126.66,332.58,137.28,327.34Z"/></g><path class="cls-3" d="M86.15,202.78c-6.52-3.43-15,1.22-25.49,7-6.72,3.69-12.45,8.06-15.93,16.22l-4.43-2.55c3.48-8.14,9.2-12.51,15.9-16.18,10.77-5.9,19.41-10.64,26-6.69C82.74,200.88,85.06,202.16,86.15,202.78Z"/><path class="cls-6" d="M86.15,202.78c-6.52-3.43-15,1.22-25.49,7-6.72,3.69-12.45,8.06-15.93,16.22l-4.43-2.55c3.48-8.14,9.2-12.51,15.9-16.18,10.77-5.9,19.41-10.64,26-6.69C82.74,200.88,85.06,202.16,86.15,202.78Z"/><path class="cls-3" d="M95,216.3c-.14-.46-.28-.9-.44-1.32s-.24-.68-.35-1c-.42-1.16-.85-2.21-1.31-3.19l-.32-.64a21.87,21.87,0,0,0-1.4-2.5c-.12-.19-.25-.38-.38-.57-.23-.35-.47-.66-.72-1l-.42-.5a8,8,0,0,0-.68-.74,6,6,0,0,0-.58-.54,10.61,10.61,0,0,0-.94-.77,5,5,0,0,0-.64-.4l-.23-.16-.46-.26H86l-.12-.07-.33-.15-.49-.21a10.87,10.87,0,0,0-1.94-.51l-.51-.08c-.27,0-.52-.06-.77-.07h-.64c-5.7,0-12.55,3.76-20.56,8.14l-2,1.14-.74.44-.89.56c-.22.13-.43.27-.65.42a37.56,37.56,0,0,0-4,3.07c-.21.18-.4.36-.6.56a28.59,28.59,0,0,0-2.3,2.37l-.38.45-.45.58-.45.58c-.15.2-.28.38-.42.6a28.21,28.21,0,0,0-1.61,2.56,3.65,3.65,0,0,0-.18.34c0,.11-.26.48-.39.73L45,225.22a46.2,46.2,0,0,0-3.58,15.4c-1.56,18.45,1.86,64.51,8.2,69.76,0,0-1-6,11.79-14,8.67-5.46,14.76-10.07,24-14.58,22.55-11.07,28.87-13.15,28.87-13.15C104.6,262.77,101.66,237.6,95,216.3Z"/></g><path class="cls-5" d="M165.9,310.29a13.69,13.69,0,0,0-3.62-5.23c-6.91-6.65-15.11-12.25-23.23-17.29-6.81-4.22-18.44-8-20.38-16.66h0l-4.31-2.39a.12.12,0,0,0-.09-.09c-9.71-5.89-12.65-31-19.36-52.35-.14-.46-.28-.9-.44-1.32s-.24-.68-.35-1c-.42-1.16-.85-2.21-1.32-3.19l-.31-.64a21.87,21.87,0,0,0-1.4-2.5l-.38-.57c-.23-.35-.47-.66-.72-1l-.42-.5a8,8,0,0,0-.68-.74,6,6,0,0,0-.58-.54,10.61,10.61,0,0,0-.94-.77h0c-.21-.15-.42-.27-.64-.4l-.23-.16-.42-.23h0L84.8,202l-.86-.48-1-.59h-.07l-.72-.4a8.28,8.28,0,0,0-1.19-.6l-.22-.09c-.18-.07-.35-.16-.53-.21l-.67-.21c-.23-.07-.52-.12-.78-.17l-.45-.06h-.14c-.44,0-.87-.08-1.31-.09h-.13a11.42,11.42,0,0,0-1.17,0h-.31l-1.28.18-.32.07-1.09.24-.37.09c-.38.11-.76.22-1.15.35l-.21.06-.19.06-.21.07-.56.21-1.09.4-.2.08h0l-.82.35-1.13.49L66,202h-.09l-2.15,1-.8.41-1.26.64-1.4.75-.53.28c-1.19.64-2.38,1.3-3.62,2l-1.25.69-.77.45-.49.31-.22.13c-.31.18-.63.38-.94.58-.78.49-1.55,1-2.29,1.57-.37.27-.74.56-1.1.86s-.73.58-1.07.88c-.53.46-1,.93-1.53,1.43-.34.31-.66.67-1,1l-.29.34-.29.33c-.23.27-.46.55-.69.85l-.24.29c-.1.13-.21.26-.31.4h0l-.41.58c-.13.19-.15.23-.22.34a25.82,25.82,0,0,0-1.64,2.72l-.11.19c-.11.22-.24.45-.34.67h0c-.12.24-.23.48-.34.72s-.21.49-.33.74A45.51,45.51,0,0,0,37.15,236c3.14-.94,6-4.11,9-3a321.09,321.09,0,0,0,4.56,50.94c2.38,14.84,1.82,23.15,22,35.23,15.1,9.07,26.43,14.17,39.75,18.6,8-1,19.75-8.16,24.83-10.66a248.74,248.74,0,0,0,28.19-16.67Z"/></g><g id="freepik--Bottom--inject-370"><path class="cls-10" d="M170.33,400.71c-1.51-.11-1.65,1.63-2,5.19-.09,1-1.55,6.11-.08,11.49,3.26,6.1,7.64,6.19,11.71,12.46,3.25,5,8.05,11.48,18.17,12.84,12.4,1.68,18.06-5.44,15-8.59-3.42-3.47-12-8.16-21.55-21.4C186.8,406.15,170.33,400.71,170.33,400.71Z"/><path class="cls-18" d="M185.49,372.26s-.83,24.92,2.33,31.71c3,6.48,8.19,13.48,13,19.69,1,1.35,3.4,3.95,4.33,5,2,2.28.21,3.43-2,3.66-5,.56-9.84-1.21-15.1-5.57-6-5-8.23-8.79-13.35-14.56a24.47,24.47,0,0,1-4.1-5.92,8.8,8.8,0,0,1-.52-4.43,16.32,16.32,0,0,0,0-5c-.23-1.61-2.4-17.46-3.44-21.44Z"/><path class="cls-10" d="M137.2,414.63c-1.51-.14-1.69,1.59-2.11,5.16-.11,1-1.68,6-.32,11.47,3.13,6.18,7.51,6.36,11.45,12.71,3.15,5,7.8,11.64,17.9,13.21,12.37,1.93,18.18-5,15.1-8.28-3.35-3.54-11.81-8.4-21.14-21.84C153.55,420.37,137.2,414.63,137.2,414.63Z"/><path class="cls-18" d="M152.84,387s-.45,26.09,2.57,32.95c2.88,6.54,7.11,11.92,11.8,18.23,1,1.37,3.32,4,4.23,5,2,2.32.14,3.44-2,3.63-5.09.45-9.81-1.42-14.93-5.88-5.9-5.14-8.05-9-13.09-14.84a24.76,24.76,0,0,1-4-6,8.69,8.69,0,0,1-.44-4.43,15.61,15.61,0,0,0,0-5.86c-.86-5.34-3-19.25-3.56-21.35Z"/><path class="cls-11" d="M154.47,323.9c2.38,1.62.94,13.27,3,24.33,1.3,6.87,2.24,9.24,5.43,21.38,2.6,9.86,5.83,21.44,5.83,21.44,3.21,1.17,14.47,1.36,17.29-1.24,0,0-.42-71.63-4.52-82s-21.85-20-32-25.87-15.8-9.47-27.37-17.31L97.61,247.53c-1.89,10.57-2.47,16.55,1.25,27.18s12,28.46,27.31,36C140.13,317.6,152.1,322.29,154.47,323.9Z"/><path class="cls-10" d="M118,287.73l-1.76,2L113.63,301a41.81,41.81,0,0,0,12.55,9.74c12.6,6.19,23.62,10.61,27.37,12.59C149.19,320.22,134.71,300.09,118,287.73Z"/><path class="cls-11" d="M120.28,338.18c2.53,1.56,3,4.72,3.42,11.84.57,8.67,1.2,13.7,4.67,26.42l6.74,24.86s10.26,2.56,18.44-1.83c0,0-1-65.14-4.26-74.2s-33-35.58-33-35.58,3.41-14.49,5.93-25L57.22,269.5c0-.2,3.07,24.16,10,34.54s14,14.11,22.61,18.67C102.27,329.34,116.61,336.62,120.28,338.18Z"/><path class="cls-10" d="M123.72,280.25a88.31,88.31,0,0,1-7.48,9.44l2.68,2.45S123.46,286.65,123.72,280.25Z"/></g><g id="freepik--Top--inject-370"><path class="cls-13" d="M110.1,188c4.4-.63,9.31.47,16.34,3.11L162,204.38s10.53,17.39,5.18,19.06c-2.4.73-13.25-1.79-24.16-3.94-13.57-2.67-27.44-5.17-27.41-4.87C115.63,215.18,110.1,188,110.1,188Z"/><path class="cls-18" d="M123.33,173c-1.11-1.83-2.67-4-3.32-5.3-1.21-2.36-.94-5.35-.79-8,.07-1.26,0-2.24.08-3.49a18.14,18.14,0,0,0-.15-4,11.33,11.33,0,0,0-2.2-4.94c-.32-.43-3.31.07-4.24-.14-1.64-.38-2-1.54-.81-2a21.67,21.67,0,0,1,5.9-1.11c1.37.13,5,5.09,5,5.09s-1.89-4.19-2.6-5.25-3.58-1-5.19-1.39c-2.58-.52-3.52-2.62-2.55-2.82a28,28,0,0,1,7.87,0c2.3.36,3,.67,4.45,2.82a38.88,38.88,0,0,1,2.56,4.65s-1.2-7-1.63-8.32c0,0-2.19-.53-3.15-.82-1.38-.42-3.09-1.21-3.38-2.73,0,0-.64-1.51,2-1.14s6.93,1,7.75,1.34,1.58,2,2.36,5.24a110.13,110.13,0,0,1,2.31,14.21,43.93,43.93,0,0,0,1.95,10.73c2.41,8,21.76,19.39,31.43,32.32,3.68,4.95,5.38,9.06,5.56,15.11.23,8-3.8,11.47-8.28,10.06a38.5,38.5,0,0,1-19.52-15.46C136.1,193.59,128,179.77,123.33,173Z"/><path class="cls-1" d="M81.41,187.56l-15.29,1.16-7.45,22.15c-4.63,17.39-4.12,43.85-3.12,59.82.45,7.37,1.25,8.79,3.72,10.21,0,0,13.48,5.37,39.87-1.15,22.15-5.47,23.07-15.1,23.07-15.1.59-3.69-4.45-11.33-5.75-14.67l1.72-15.69s10.27-8.06,6.72-21.26c-3.21-12-14.76-25.07-14.76-25.07l-8-.33S89,187,81.41,187.56Z"/><path class="cls-15" d="M103.88,234.66a14.74,14.74,0,0,1-14.27,7.42,15.64,15.64,0,0,1-13.09-8.66s.18,10.9,13,11.23S103.88,234.66,103.88,234.66Z"/><path class="cls-11" d="M79.66,185.36l-.26,2.4,22.26,27.69A9.73,9.73,0,0,1,92.89,217c-4.84-1.67-6.74-11.07-6.74-11.07s-13.48-4-15.69-17.51C71.21,186.64,74.33,185.66,79.66,185.36Z"/><path class="cls-11" d="M101.66,215.45s3.73,1.81,6.2-.83-3.1-11.74-3.1-11.74,3.14-4.31,3-8.41a15.63,15.63,0,0,0-1.78-6.92s-.23-1.77-6-1.64l-.62,4.41Z"/><path class="cls-20" d="M51,169.77c.39-1.57-1.29-6-1.29-8.46s1.69-7,1.29-10.14.4-4,1.28-3.59a8.07,8.07,0,0,1,3.24,5.61C55.55,155.7,51,169.77,51,169.77Z"/><path class="cls-9" d="M137,131.69A24.47,24.47,0,0,1,121.49,129a22,22,0,0,0,6.58-4.86c-5.74.66-11.52-.22-17.19-1.28-2.57-.48-5-1.33-7.69-1.7a32.87,32.87,0,0,0-6.5-.31,8.37,8.37,0,0,0,3.24-3.58,10.31,10.31,0,0,0,.45-4.54c-1,2.91-4,4.57-6.88,5.58s-5.92,1.68-8.87,2.54a26,26,0,0,0-8.35,3.82c-2.71,2-5.29,5.5-5.24,9.06-3.6-.31-6.82,2.35-8.75,5.39s-4.09,5-6,8-7.29,7.36-10.89,7.05c6.94,2.65,13.63-1.26,16.89-5.5-2.2,3.68-4.3,5.63-5.62,9.72a19.26,19.26,0,0,0-.2,12.61A23.7,23.7,0,0,1,62,160c-1.53,5.35-1.79,11.33,1.29,16.22a15.6,15.6,0,0,0,7.87,6.35,13.52,13.52,0,0,1-3.7-8.38,11.73,11.73,0,0,0,4,5.32,21.85,21.85,0,0,0,6,3.09,29.92,29.92,0,0,0,13.81,1.66A19.14,19.14,0,0,0,96,183.17c1.84,1.1,1.71-1.58,3.64-.64,4,1.93,12.16,2.14,16.85-.68,5.12-3.09,7.86-8.86,5.86-14.17,2.89,1.9,4.08,4.95,5,8.3.86-7.11-1.33-11.47-2.66-13.61a15.42,15.42,0,0,0-5.22-5.28,23.78,23.78,0,0,0-6.65-2.77,14.76,14.76,0,0,1,8.42-.61,8.73,8.73,0,0,1,6.18,5.41,20.17,20.17,0,0,0-.54-7.46,11,11,0,0,0-4.22-6,9.7,9.7,0,0,0,5.91,1.35,26.15,26.15,0,0,1-2.46-3.1c-.14-.2-1.62-3-1.64-3A19.13,19.13,0,0,0,137,131.69Z"/><path class="cls-18" d="M113.59,136.56c3.34,1.95,7.2,7.34,6.88,24.94-.27,14.92-5,18.62-7.51,19.7s-7.69.56-12.24-.17l-1.32,9.32,2.26,25.17L79.4,187.76l2-19.22s-2.2,2.2-5.62,0c-3.65-2.36-5.22-8.54-2.31-11.52s7.74-2.83,9,1.94c0,0-.29-7.54,10.51-11.33C101,144.79,110.38,144,113.59,136.56Z"/><path class="cls-22" d="M110.46,174.24a1.27,1.27,0,0,1-1.19.75,3.61,3.61,0,0,1-2.14-.77,5.83,5.83,0,0,0-2-1,5,5,0,0,0-1.81.09,4.8,4.8,0,0,1-1.81.08,1.69,1.69,0,0,1-1.33-1.1,2.58,2.58,0,0,1,.83-2.22,6.47,6.47,0,0,1,6.45-1.42,4.42,4.42,0,0,1,3,3.16A3.81,3.81,0,0,1,110.46,174.24Z"/><path class="cls-22" d="M100.09,172a1.68,1.68,0,0,0,1.41,1.65c1.26.37,2.64-.25,3.5-.14a13.94,13.94,0,0,1,2.78,1.12l-.56-1.69-4.76-1.67Z"/><path class="cls-20" d="M107.78,174.6a5.55,5.55,0,0,0-6.85-4.52,2.49,2.49,0,0,0-.79,2.17,1.71,1.71,0,0,0,1.33,1.1,4.8,4.8,0,0,0,1.81-.08,5,5,0,0,1,1.81-.09,5.83,5.83,0,0,1,2,1A5.71,5.71,0,0,0,107.78,174.6Z"/><path class="cls-9" d="M87.35,150.2c-1.17,1.24-2.13,7.67-2.1,11a3,3,0,0,1-2.79,3h0v-5.25S81.94,149.59,87.35,150.2Z"/><path class="cls-9" d="M113.83,147.47l4,2.89a2.45,2.45,0,1,1-4-2.89Z"/><path class="cls-9" d="M94.6,152.46l3.56-3.38a2.45,2.45,0,1,1-3.56,3.38Z"/><path class="cls-9" d="M117.55,156.31c-.29,1.15-1.37,1.14-2.45.87s-1.81-.75-1.51-1.89a2,2,0,1,1,4,1Z"/><path class="cls-9" d="M102.64,156.65c.43,1.09-.43,1.73-1.48,2.15s-1.88.46-2.32-.63a2.07,2.07,0,0,1,1.09-2.73h0A2.1,2.1,0,0,1,102.64,156.65Z"/><polygon class="cls-20" points="108.79 165.72 114.5 163.64 107.86 154.7 108.79 165.72"/><path class="cls-20" d="M100.72,181c-4.8-.61-14.1-3.52-15.66-7.41a10.1,10.1,0,0,0,3.49,5c3,2.52,11.76,5.3,11.76,5.3Z"/><path class="cls-13" d="M66.12,188.72c-6.36,0-11.86,2.88-21.7,8.33-4.31,2.37-24.41,14-24.41,14l-7,18,3.77,4.23c7.05.8,17.63-3.29,30.14-8.37,3.87-1.57,6.83-3.73,9.19,1C65.37,231.89,75.25,201.61,66.12,188.72Z"/><path class="cls-18" d="M63.73,179.38c1.21-2,2.91-4.33,3.62-5.68,1.33-2.53,1.08-5.75.94-8.6-.07-1.37,0-2.42-.05-3.76a20,20,0,0,1,.2-4.37,12.21,12.21,0,0,1,2.43-5.31c.35-.46,3.57.12,4.57-.11,1.77-.38,2.21-1.64.88-2.13A22.86,22.86,0,0,0,70,148.17c-1.48.13-5.49,5.43-5.49,5.43s2.08-4.49,2.85-5.64,3.88-1.09,5.62-1.43c2.77-.53,3.81-2.79,2.77-3a30.56,30.56,0,0,0-8.49-.07c-2.48.38-3.29.7-4.83,3a44.19,44.19,0,0,0-2.79,5S61,144,61.45,142.55c0,0,2.36-.56,3.41-.86,1.5-.43,3.34-1.27,3.66-2.91,0,0,.71-1.62-2.07-1.25a84.77,84.77,0,0,0-8.37,1.36c-.88.36-1.73,2.22-2.6,5.63a120.07,120.07,0,0,0-2.64,15.29,47.76,47.76,0,0,1-2.21,11.55C48,179.92,27,192,16.4,205.88c-4,5.28-5.9,9.67-6.15,16.26-.33,8.68,4,12.4,8.83,10.9a41.54,41.54,0,0,0,21.19-16.46C49.74,201.43,58.57,186.61,63.73,179.38Z"/></g><g id="freepik--lighting-bolts--inject-370"><polygon class="cls-3" points="22.79 125.78 43.32 125.29 41.92 132.27 58.24 131.6 35.56 138.21 37.67 129.67 22.79 125.78"/><polygon class="cls-7" points="22.79 125.78 43.32 125.29 41.92 132.27 58.24 131.6 35.56 138.21 37.67 129.67 22.79 125.78"/><polygon class="cls-3" points="24.16 95.01 50.49 109.91 45.17 115.3 57.52 125.58 36.67 116.01 41.71 109.66 24.16 95.01"/><polygon class="cls-3" points="143.81 100.59 124.32 107.05 127.99 113.15 112.4 118.02 136 116.59 131.13 109.26 143.81 100.59"/><polygon class="cls-3" points="132.15 72.07 112.38 94.98 119.21 98.27 111.06 112.11 127.45 96.07 120.57 91.78 132.15 72.07"/><polygon class="cls-7" points="132.15 72.07 112.38 94.98 119.21 98.27 111.06 112.11 127.45 96.07 120.57 91.78 132.15 72.07"/></g><g id="freepik--Window--inject-393"><g id="freepik--window--inject-393-2" data-name="freepik--window--inject-393"><path class="cls-11" d="M248.19,48.9v-.18h0a.48.48,0,0,1,0-.17.71.71,0,0,1,.11-.25.21.21,0,0,1,.06-.1l.06-.07a.8.8,0,0,1,.13-.13h0a1,1,0,0,1,.17-.1,1.42,1.42,0,0,1,1.31.17l129.18,74.54a4.35,4.35,0,0,1,2,3.39v93.49h0v.43a1.33,1.33,0,0,1-.7,1.17l-.09.06-.1.06h-.42a1.29,1.29,0,0,1-.64-.19h0L377.44,220,250.13,146.49a4.34,4.34,0,0,1-1.95-3.38v-94S248.19,49,248.19,48.9Z"/><path class="cls-3" d="M248.82,47.85a1.42,1.42,0,0,1,1.31.17l129.18,74.54a4.35,4.35,0,0,1,1.95,3.39v6.42l2.49-1.46v-6.33a4.31,4.31,0,0,0-1.95-3.38L252.62,46.61a1.35,1.35,0,0,0-1.41-.12C250.86,46.71,249.24,47.63,248.82,47.85Z"/><path class="cls-3" d="M248.18,49.13c0-1.23.88-1.73,1.95-1.11l129.18,74.55a4.27,4.27,0,0,1,1.95,3.38v6.42L248.18,55.54Z"/><g class="cls-23"><path class="cls-16" d="M250.13,48l129.18,74.55a4,4,0,0,1,1.37,1.44l2.48-1.43a3.81,3.81,0,0,0-1.36-1.43L252.63,46.61a1.37,1.37,0,0,0-1.42-.12c-.35.22-2,1.14-2.38,1.36A1.38,1.38,0,0,1,250.13,48Z"/></g><path class="cls-19" d="M383.76,130.87v-6.34a4,4,0,0,0-.59-2L380.68,124a3.8,3.8,0,0,1,.59,1.94v6.47Z"/><path class="cls-11" d="M376.86,123.91a2.9,2.9,0,0,1,1.1,2.34c0,.93-.49,1.41-1.1,1.06a2.92,2.92,0,0,1-1.1-2.34C375.76,124,376.25,123.56,376.86,123.91Z"/><path class="cls-11" d="M372.89,121.62A2.89,2.89,0,0,1,374,124c0,.94-.49,1.41-1.1,1.06a2.9,2.9,0,0,1-1.1-2.33C371.79,121.74,372.28,121.27,372.89,121.62Z"/><path class="cls-11" d="M368.92,119.37a2.9,2.9,0,0,1,1.1,2.34c0,.93-.49,1.41-1.1,1.06a2.92,2.92,0,0,1-1.1-2.34C367.82,119.44,368.31,119,368.92,119.37Z"/><path class="cls-24" d="M380.56,221.06l.1-.06,2.06-1.19a2,2,0,0,0,1-1.51,1.31,1.31,0,0,0,0-.28V130.86l-2.5,1.47v87.55a1.29,1.29,0,0,1-.61,1.11h-.06Z"/></g><g id="freepik--Code--inject-393"><path class="cls-3" d="M287.75,88.81,315,104.5a1.47,1.47,0,0,1,.7,1.15c0,.42-.31.58-.7.35L287.75,90.31a1.5,1.5,0,0,1-.69-1.15C287.06,88.74,287.37,88.59,287.75,88.81Z"/><path class="cls-2" d="M298.16,118.85l10.28,5.94a1.47,1.47,0,0,1,.69,1.15c0,.41-.31.57-.69.35l-10.28-5.92a1.46,1.46,0,0,1-.7-1.15C297.44,118.79,297.77,118.63,298.16,118.85Z"/><path class="cls-2" d="M298.16,124.86l10.28,5.93a1.49,1.49,0,0,1,.69,1.16c0,.41-.31.57-.69.35l-10.28-5.93a1.51,1.51,0,0,1-.7-1.15C297.44,124.79,297.77,124.64,298.16,124.86Z"/><path class="cls-3" d="M317.67,106.05l54.53,31.4a1.49,1.49,0,0,1,.69,1.16c0,.41-.31.57-.69.35l-54.53-31.4a1.54,1.54,0,0,1-.69-1.16C317,106,317.29,105.83,317.67,106.05Z"/><path class="cls-3" d="M298.38,161l16.6,9.61a1.43,1.43,0,0,1,.7,1.15c0,.41-.31.57-.7.35l-16.6-9.61a1.47,1.47,0,0,1-.69-1.15C297.69,160.92,298,160.76,298.38,161Z"/><path class="cls-3" d="M317.67,172.14l54.53,31.44a1.47,1.47,0,0,1,.69,1.15c0,.42-.31.57-.69.35l-54.53-31.44a1.5,1.5,0,0,1-.69-1.15C317,172.07,317.29,171.92,317.67,172.14Z"/><path class="cls-3" d="M287.75,94.83l13.69,7.88a1.47,1.47,0,0,1,.69,1.15c0,.42-.31.58-.69.35l-13.69-7.84a1.47,1.47,0,0,1-.69-1.15C287.06,94.77,287.37,94.61,287.75,94.83Z"/><path class="cls-25" d="M287.75,94.83l13.69,7.88a1.47,1.47,0,0,1,.69,1.15c0,.42-.31.58-.69.35l-13.69-7.84a1.47,1.47,0,0,1-.69-1.15C287.06,94.77,287.37,94.61,287.75,94.83Z"/><path class="cls-3" d="M287.75,100.83l6.42,3.7a1.47,1.47,0,0,1,.69,1.15c0,.41-.31.57-.69.35l-6.42-3.66a1.5,1.5,0,0,1-.69-1.15C287.06,100.76,287.37,100.61,287.75,100.83Z"/><path class="cls-25" d="M287.75,100.83l6.42,3.7a1.47,1.47,0,0,1,.69,1.15c0,.41-.31.57-.69.35l-6.42-3.66a1.5,1.5,0,0,1-.69-1.15C287.06,100.76,287.37,100.61,287.75,100.83Z"/><path class="cls-3" d="M287.75,112.84l6.42,3.7a1.49,1.49,0,0,1,.69,1.16c0,.41-.31.57-.69.35l-6.42-3.7a1.54,1.54,0,0,1-.69-1.16C287.06,112.78,287.37,112.62,287.75,112.84Z"/><path class="cls-25" d="M287.75,112.84l6.42,3.7a1.49,1.49,0,0,1,.69,1.16c0,.41-.31.57-.69.35l-6.42-3.7a1.54,1.54,0,0,1-.69-1.16C287.06,112.78,287.37,112.62,287.75,112.84Z"/><path class="cls-3" d="M287.75,118.85l6.42,3.7a1.47,1.47,0,0,1,.69,1.15c0,.42-.31.58-.69.35l-6.42-3.7a1.47,1.47,0,0,1-.69-1.15C287.06,118.79,287.37,118.63,287.75,118.85Z"/><path class="cls-25" d="M287.75,118.85l6.42,3.7a1.47,1.47,0,0,1,.69,1.15c0,.42-.31.58-.69.35l-6.42-3.7a1.47,1.47,0,0,1-.69-1.15C287.06,118.79,287.37,118.63,287.75,118.85Z"/><path class="cls-3" d="M304.16,104.26l8.22,4.77a1.47,1.47,0,0,1,.7,1.15c0,.42-.31.57-.7.35l-8.22-4.76a1.53,1.53,0,0,1-.7-1.16C303.44,104.2,303.77,104,304.16,104.26Z"/><path class="cls-25" d="M304.16,104.26l8.22,4.77a1.47,1.47,0,0,1,.7,1.15c0,.42-.31.57-.7.35l-8.22-4.76a1.53,1.53,0,0,1-.7-1.16C303.44,104.2,303.77,104,304.16,104.26Z"/><path class="cls-16" d="M316.88,147.7l55.32,31.85a1.47,1.47,0,0,1,.69,1.15c0,.41-.31.57-.69.35L316.88,149.2a1.51,1.51,0,0,1-.7-1.15C316.18,147.63,316.49,147.48,316.88,147.7Z"/><path class="cls-16" d="M364,168.77l8.23,4.76a1.47,1.47,0,0,1,.69,1.15c0,.42-.31.57-.69.35L364,170.27a1.5,1.5,0,0,1-.69-1.15C363.28,168.7,363.59,168.54,364,168.77Z"/><path class="cls-16" d="M306,135.37l55.32,31.85a1.49,1.49,0,0,1,.69,1.16c0,.41-.31.57-.69.35L306,136.87a1.51,1.51,0,0,1-.69-1.16C305.27,135.3,305.58,135.14,306,135.37Z"/><path class="cls-3" d="M298.16,106.84l13.71,7.88a1.43,1.43,0,0,1,.7,1.15c0,.41-.31.57-.7.35l-13.71-7.85a1.51,1.51,0,0,1-.7-1.15C297.44,106.77,297.77,106.61,298.16,106.84Z"/><path class="cls-25" d="M298.16,106.84l13.71,7.88a1.43,1.43,0,0,1,.7,1.15c0,.41-.31.57-.7.35l-13.71-7.85a1.51,1.51,0,0,1-.7-1.15C297.44,106.77,297.77,106.61,298.16,106.84Z"/><path class="cls-3" d="M314.56,116.27l57.23,33.1a1.49,1.49,0,0,1,.69,1.16c0,.41-.31.57-.69.35l-57.23-33.11a1.5,1.5,0,0,1-.69-1.15C313.87,116.2,314.18,116.05,314.56,116.27Z"/><path class="cls-25" d="M314.56,116.27l57.23,33.1a1.49,1.49,0,0,1,.69,1.16c0,.41-.31.57-.69.35l-57.23-33.11a1.5,1.5,0,0,1-.69-1.15C313.87,116.2,314.18,116.05,314.56,116.27Z"/><path class="cls-2" d="M298.16,143l74,42.69a1.47,1.47,0,0,1,.69,1.15c0,.42-.31.58-.69.36l-74-42.7a1.47,1.47,0,0,1-.72-1.14C297.44,142.94,297.77,142.79,298.16,143Z"/><path class="cls-3" d="M287.75,137l6.42,3.7a1.47,1.47,0,0,1,.69,1.15c0,.42-.31.57-.69.35l-6.42-3.7a1.47,1.47,0,0,1-.69-1.15C287.06,136.94,287.37,136.78,287.75,137Z"/><path class="cls-25" d="M287.75,137l6.42,3.7a1.47,1.47,0,0,1,.69,1.15c0,.42-.31.57-.69.35l-6.42-3.7a1.47,1.47,0,0,1-.69-1.15C287.06,136.94,287.37,136.78,287.75,137Z"/><path class="cls-2" d="M298.16,149l74,42.7a1.47,1.47,0,0,1,.69,1.15c0,.42-.31.57-.69.35l-74-42.7a1.47,1.47,0,0,1-.72-1.14C297.44,149,297.77,148.79,298.16,149Z"/><path class="cls-3" d="M287.75,143l6.42,3.7a1.47,1.47,0,0,1,.69,1.15c0,.41-.31.57-.69.35l-6.42-3.7a1.5,1.5,0,0,1-.69-1.15C287.06,142.94,287.37,142.79,287.75,143Z"/><path class="cls-25" d="M287.75,143l6.42,3.7a1.47,1.47,0,0,1,.69,1.15c0,.41-.31.57-.69.35l-6.42-3.7a1.5,1.5,0,0,1-.69-1.15C287.06,142.94,287.37,142.79,287.75,143Z"/><path class="cls-2" d="M298.16,155l74,42.7a1.47,1.47,0,0,1,.69,1.15c0,.41-.31.57-.69.35l-74-42.7a1.49,1.49,0,0,1-.72-1.15C297.44,155,297.77,154.8,298.16,155Z"/><path class="cls-3" d="M287.75,149l6.42,3.7a1.47,1.47,0,0,1,.69,1.15c0,.42-.31.58-.69.36l-6.42-3.71a1.47,1.47,0,0,1-.69-1.15C287.06,149,287.37,148.79,287.75,149Z"/><path class="cls-25" d="M287.75,149l6.42,3.7a1.47,1.47,0,0,1,.69,1.15c0,.42-.31.58-.69.36l-6.42-3.71a1.47,1.47,0,0,1-.69-1.15C287.06,149,287.37,148.79,287.75,149Z"/><g class="cls-26"><path class="cls-16" d="M277.75,82.78,281.52,85a1.51,1.51,0,0,1,.68,1.19v1.39c0,.43-.3.61-.68.39l-3.77-2.18a1.5,1.5,0,0,1-.69-1.18V83.18C277.06,82.74,277.37,82.57,277.75,82.78Z"/><path class="cls-16" d="M277.75,88.85,281.52,91a1.52,1.52,0,0,1,.68,1.18V93.6c0,.44-.3.61-.68.4l-3.77-2.18a1.53,1.53,0,0,1-.69-1.19V89.24C277.06,88.81,277.37,88.63,277.75,88.85Z"/><path class="cls-16" d="M277.75,94.91l3.77,2.18a1.51,1.51,0,0,1,.68,1.19v1.39c0,.43-.3.61-.68.39l-3.77-2.18a1.53,1.53,0,0,1-.69-1.18V95.31C277.06,94.87,277.37,94.7,277.75,94.91Z"/><path class="cls-16" d="M277.75,101l3.77,2.18a1.52,1.52,0,0,1,.68,1.18v1.39c0,.44-.3.61-.68.4L277.75,104a1.53,1.53,0,0,1-.69-1.19v-1.39C277.06,100.94,277.37,100.76,277.75,101Z"/><path class="cls-16" d="M277.75,107l3.77,2.18a1.51,1.51,0,0,1,.68,1.19v1.38c0,.44-.3.62-.68.4L277.75,110a1.53,1.53,0,0,1-.69-1.18v-1.39C277.06,107,277.37,106.82,277.75,107Z"/><path class="cls-16" d="M277.75,113.11l3.77,2.18a1.49,1.49,0,0,1,.68,1.18v1.39c0,.44-.3.61-.68.4l-3.77-2.18a1.53,1.53,0,0,1-.69-1.19V113.5C277.06,113.07,277.37,112.89,277.75,113.11Z"/><path class="cls-16" d="M277.75,119.17l3.77,2.18a1.51,1.51,0,0,1,.68,1.19v1.38c0,.44-.3.62-.68.4l-3.77-2.18a1.53,1.53,0,0,1-.69-1.18v-1.39C277.06,119.13,277.37,119,277.75,119.17Z"/><path class="cls-16" d="M277.75,125.24l3.77,2.18a1.49,1.49,0,0,1,.68,1.18V130c0,.44-.3.61-.68.39l-3.77-2.17a1.53,1.53,0,0,1-.69-1.19v-1.39C277.06,125.2,277.37,125,277.75,125.24Z"/><path class="cls-16" d="M277.75,131.3l3.77,2.18a1.51,1.51,0,0,1,.68,1.19v1.38c0,.44-.3.62-.68.4l-3.77-2.18a1.53,1.53,0,0,1-.69-1.19V131.7C277.06,131.26,277.37,131.08,277.75,131.3Z"/><path class="cls-16" d="M277.75,137.37l3.77,2.18a1.46,1.46,0,0,1,.68,1.18v1.39c0,.44-.3.61-.68.39l-3.77-2.14a1.53,1.53,0,0,1-.69-1.19v-1.39C277.06,137.37,277.37,137.15,277.75,137.37Z"/><path class="cls-16" d="M277.75,143.43l3.77,2.18a1.51,1.51,0,0,1,.68,1.19v1.38c0,.44-.3.62-.68.4l-3.77-2.21a1.53,1.53,0,0,1-.69-1.19V143.8C277.06,143.37,277.37,143.21,277.75,143.43Z"/><path class="cls-16" d="M277.75,149.5l3.77,2.17a1.51,1.51,0,0,1,.68,1.19v1.39c0,.44-.3.61-.68.39l-3.77-2.17a1.53,1.53,0,0,1-.69-1.19v-1.39C277.06,149.46,277.37,149.28,277.75,149.5Z"/></g><path class="cls-10" d="M252.72,63.08l20.4,11.78a3,3,0,0,1,1.37,2.37v23.56c0,.87-.61,1.23-1.37.79L252.72,89.8a3,3,0,0,1-1.37-2.37V63.88C251.35,63,252,62.65,252.72,63.08Z"/><path class="cls-3" d="M254.61,86.43l1.88,1.09a1.51,1.51,0,0,1,.7,1.15c0,.42-.32.57-.7.35l-1.88-1.09a1.47,1.47,0,0,1-.69-1.15C253.92,86.37,254.23,86.21,254.61,86.43Z"/><path class="cls-25" d="M254.61,86.43l1.88,1.09a1.51,1.51,0,0,1,.7,1.15c0,.42-.32.57-.7.35l-1.88-1.09a1.47,1.47,0,0,1-.69-1.15C253.92,86.37,254.23,86.21,254.61,86.43Z"/><path class="cls-3" d="M254.61,67.14l1.88,1.09a1.51,1.51,0,0,1,.7,1.15c0,.42-.32.57-.7.35l-1.88-1.08a1.54,1.54,0,0,1-.69-1.16C253.92,67.08,254.23,66.92,254.61,67.14Z"/><path class="cls-25" d="M254.61,67.14l1.88,1.09a1.51,1.51,0,0,1,.7,1.15c0,.42-.32.57-.7.35l-1.88-1.08a1.54,1.54,0,0,1-.69-1.16C253.92,67.08,254.23,66.92,254.61,67.14Z"/><path class="cls-3" d="M257.25,72.52l1.88,1.08a1.47,1.47,0,0,1,.69,1.15c0,.42-.31.58-.69.35L257.25,74a1.5,1.5,0,0,1-.69-1.15C256.56,72.45,256.87,72.3,257.25,72.52Z"/><path class="cls-25" d="M257.25,72.52l1.88,1.08a1.47,1.47,0,0,1,.69,1.15c0,.42-.31.58-.69.35L257.25,74a1.5,1.5,0,0,1-.69-1.15C256.56,72.45,256.87,72.3,257.25,72.52Z"/><path class="cls-3" d="M257.25,76.37l1.88,1.09a1.47,1.47,0,0,1,.69,1.15c0,.42-.31.57-.69.35l-1.88-1.08a1.5,1.5,0,0,1-.69-1.15C256.56,76.3,256.87,76.14,257.25,76.37Z"/><path class="cls-25" d="M257.25,76.37l1.88,1.09a1.47,1.47,0,0,1,.69,1.15c0,.42-.31.57-.69.35l-1.88-1.08a1.5,1.5,0,0,1-.69-1.15C256.56,76.3,256.87,76.14,257.25,76.37Z"/><path class="cls-3" d="M254.61,78.71l1.88,1.09a1.51,1.51,0,0,1,.7,1.15c0,.42-.32.57-.7.35l-1.88-1.08a1.51,1.51,0,0,1-.69-1.16C253.92,78.65,254.23,78.49,254.61,78.71Z"/><path class="cls-25" d="M254.61,78.71l1.88,1.09a1.51,1.51,0,0,1,.7,1.15c0,.42-.32.57-.7.35l-1.88-1.08a1.51,1.51,0,0,1-.69-1.16C253.92,78.65,254.23,78.49,254.61,78.71Z"/><path class="cls-3" d="M257.25,84.09l1.88,1.09a1.47,1.47,0,0,1,.69,1.15c0,.41-.31.57-.69.35l-1.88-1.09a1.47,1.47,0,0,1-.69-1.15C256.56,84,256.87,83.87,257.25,84.09Z"/><path class="cls-25" d="M257.25,84.09l1.88,1.09a1.47,1.47,0,0,1,.69,1.15c0,.41-.31.57-.69.35l-1.88-1.09a1.47,1.47,0,0,1-.69-1.15C256.56,84,256.87,83.87,257.25,84.09Z"/><path class="cls-3" d="M259.76,70.11l11.46,6.63a1.43,1.43,0,0,1,.7,1.15c0,.41-.31.57-.7.35l-11.46-6.62a1.46,1.46,0,0,1-.7-1.16C259.06,70.05,259.37,69.89,259.76,70.11Z"/><path class="cls-27" d="M259.76,70.11l11.46,6.63a1.43,1.43,0,0,1,.7,1.15c0,.41-.31.57-.7.35l-11.46-6.62a1.46,1.46,0,0,1-.7-1.16C259.06,70.05,259.37,69.89,259.76,70.11Z"/><path class="cls-3" d="M259.76,89.37,271.22,96a1.43,1.43,0,0,1,.7,1.15c0,.41-.31.57-.7.35l-11.46-6.62a1.53,1.53,0,0,1-.7-1.16C259.06,89.37,259.37,89.18,259.76,89.37Z"/><path class="cls-27" d="M259.76,89.37,271.22,96a1.43,1.43,0,0,1,.7,1.15c0,.41-.31.57-.7.35l-11.46-6.62a1.53,1.53,0,0,1-.7-1.16C259.06,89.37,259.37,89.18,259.76,89.37Z"/><path class="cls-3" d="M262.44,75.49l8.82,5.1a1.46,1.46,0,0,1,.7,1.16c0,.41-.31.57-.7.35L262.44,77a1.51,1.51,0,0,1-.7-1.15C261.7,75.42,262,75.27,262.44,75.49Z"/><path class="cls-27" d="M262.44,75.49l8.82,5.1a1.46,1.46,0,0,1,.7,1.16c0,.41-.31.57-.7.35L262.44,77a1.51,1.51,0,0,1-.7-1.15C261.7,75.42,262,75.27,262.44,75.49Z"/><path class="cls-3" d="M262.44,79.37l8.82,5.11a1.47,1.47,0,0,1,.7,1.15c0,.42-.31.57-.7.35l-8.82-5.13a1.51,1.51,0,0,1-.7-1.15C261.7,79.28,262,79.12,262.44,79.37Z"/><path class="cls-27" d="M262.44,79.37l8.82,5.11a1.47,1.47,0,0,1,.7,1.15c0,.42-.31.57-.7.35l-8.82-5.13a1.51,1.51,0,0,1-.7-1.15C261.7,79.28,262,79.12,262.44,79.37Z"/><path class="cls-3" d="M259.76,81.69l11.46,6.62a1.47,1.47,0,0,1,.7,1.15c0,.42-.31.57-.7.35l-11.46-6.62a1.51,1.51,0,0,1-.7-1.15C259.06,81.62,259.37,81.47,259.76,81.69Z"/><path class="cls-27" d="M259.76,81.69l11.46,6.62a1.47,1.47,0,0,1,.7,1.15c0,.42-.31.57-.7.35l-11.46-6.62a1.51,1.51,0,0,1-.7-1.15C259.06,81.62,259.37,81.47,259.76,81.69Z"/><path class="cls-3" d="M262.44,87.06l8.82,5.11a1.43,1.43,0,0,1,.7,1.15c0,.41-.31.57-.7.35l-8.82-5.11a1.46,1.46,0,0,1-.7-1.15C261.7,87,262,86.84,262.44,87.06Z"/><path class="cls-27" d="M262.44,87.06l8.82,5.11a1.43,1.43,0,0,1,.7,1.15c0,.41-.31.57-.7.35l-8.82-5.11a1.46,1.46,0,0,1-.7-1.15C261.7,87,262,86.84,262.44,87.06Z"/><path class="cls-10" d="M252.72,94.24,273.12,106a3,3,0,0,1,1.37,2.36v46.54c0,.88-.61,1.23-1.37.79l-20.4-11.78a3,3,0,0,1-1.37-2.37V95C251.35,94.15,252,93.8,252.72,94.24Z"/><path class="cls-3" d="M254.61,98.29l1.88,1.08a1.51,1.51,0,0,1,.7,1.15c0,.42-.32.57-.7.35l-1.88-1.08a1.5,1.5,0,0,1-.69-1.15C253.92,98.23,254.23,98.07,254.61,98.29Z"/><path class="cls-25" d="M254.61,98.29l1.88,1.08a1.51,1.51,0,0,1,.7,1.15c0,.42-.32.57-.7.35l-1.88-1.08a1.5,1.5,0,0,1-.69-1.15C253.92,98.23,254.23,98.07,254.61,98.29Z"/><path class="cls-3" d="M257.25,103.67l1.88,1.08a1.48,1.48,0,0,1,.69,1.16c0,.41-.31.57-.69.35l-1.88-1.09a1.5,1.5,0,0,1-.69-1.15C256.56,103.6,256.87,103.45,257.25,103.67Z"/><path class="cls-25" d="M257.25,103.67l1.88,1.08a1.48,1.48,0,0,1,.69,1.16c0,.41-.31.57-.69.35l-1.88-1.09a1.5,1.5,0,0,1-.69-1.15C256.56,103.6,256.87,103.45,257.25,103.67Z"/><path class="cls-3" d="M257.25,107.52l1.88,1.08a1.47,1.47,0,0,1,.69,1.15c0,.42-.31.57-.69.35L257.25,109a1.5,1.5,0,0,1-.69-1.15C256.56,107.45,256.87,107.29,257.25,107.52Z"/><path class="cls-25" d="M257.25,107.52l1.88,1.08a1.47,1.47,0,0,1,.69,1.15c0,.42-.31.57-.69.35L257.25,109a1.5,1.5,0,0,1-.69-1.15C256.56,107.45,256.87,107.29,257.25,107.52Z"/><path class="cls-3" d="M254.61,109.87l1.88,1.08a1.51,1.51,0,0,1,.7,1.15c0,.42-.32.57-.7.35l-1.88-1.08a1.5,1.5,0,0,1-.69-1.15C253.92,109.8,254.23,109.64,254.61,109.87Z"/><path class="cls-25" d="M254.61,109.87l1.88,1.08a1.51,1.51,0,0,1,.7,1.15c0,.42-.32.57-.7.35l-1.88-1.08a1.5,1.5,0,0,1-.69-1.15C253.92,109.8,254.23,109.64,254.61,109.87Z"/><path class="cls-3" d="M259.76,101.27l11.46,6.62a1.43,1.43,0,0,1,.7,1.15c0,.41-.31.57-.7.35l-11.46-6.62a1.51,1.51,0,0,1-.7-1.15C259.06,101.2,259.37,101,259.76,101.27Z"/><path class="cls-27" d="M259.76,101.27l11.46,6.62a1.43,1.43,0,0,1,.7,1.15c0,.41-.31.57-.7.35l-11.46-6.62a1.51,1.51,0,0,1-.7-1.15C259.06,101.2,259.37,101,259.76,101.27Z"/><path class="cls-3" d="M262.44,106.64l8.82,5.11a1.43,1.43,0,0,1,.7,1.15c0,.41-.31.57-.7.35l-8.82-5.11a1.51,1.51,0,0,1-.7-1.15C261.7,106.57,262,106.42,262.44,106.64Z"/><path class="cls-27" d="M262.44,106.64l8.82,5.11a1.43,1.43,0,0,1,.7,1.15c0,.41-.31.57-.7.35l-8.82-5.11a1.51,1.51,0,0,1-.7-1.15C261.7,106.57,262,106.42,262.44,106.64Z"/><path class="cls-3" d="M262.44,110.5l8.82,5.1a1.47,1.47,0,0,1,.7,1.15c0,.42-.31.58-.7.36L262.44,112a1.51,1.51,0,0,1-.7-1.15C261.7,110.43,262,110.27,262.44,110.5Z"/><path class="cls-27" d="M262.44,110.5l8.82,5.1a1.47,1.47,0,0,1,.7,1.15c0,.42-.31.58-.7.36L262.44,112a1.51,1.51,0,0,1-.7-1.15C261.7,110.43,262,110.27,262.44,110.5Z"/><path class="cls-3" d="M259.76,112.84l11.46,6.62a1.47,1.47,0,0,1,.7,1.15c0,.42-.31.57-.7.35l-11.46-6.59a1.51,1.51,0,0,1-.7-1.15C259.06,112.77,259.37,112.62,259.76,112.84Z"/><path class="cls-27" d="M259.76,112.84l11.46,6.62a1.47,1.47,0,0,1,.7,1.15c0,.42-.31.57-.7.35l-11.46-6.59a1.51,1.51,0,0,1-.7-1.15C259.06,112.77,259.37,112.62,259.76,112.84Z"/><path class="cls-3" d="M257.25,115.26l1.88,1.09a1.47,1.47,0,0,1,.69,1.15c0,.42-.31.57-.69.35l-1.88-1.08a1.5,1.5,0,0,1-.69-1.15C256.56,115.2,256.87,115,257.25,115.26Z"/><path class="cls-25" d="M257.25,115.26l1.88,1.09a1.47,1.47,0,0,1,.69,1.15c0,.42-.31.57-.69.35l-1.88-1.08a1.5,1.5,0,0,1-.69-1.15C256.56,115.2,256.87,115,257.25,115.26Z"/><path class="cls-3" d="M257.25,119.11l1.88,1.09a1.47,1.47,0,0,1,.69,1.15c0,.41-.31.57-.69.35l-1.88-1.09a1.47,1.47,0,0,1-.69-1.15C256.56,119.05,256.87,118.89,257.25,119.11Z"/><path class="cls-25" d="M257.25,119.11l1.88,1.09a1.47,1.47,0,0,1,.69,1.15c0,.41-.31.57-.69.35l-1.88-1.09a1.47,1.47,0,0,1-.69-1.15C256.56,119.05,256.87,118.89,257.25,119.11Z"/><path class="cls-3" d="M262.44,118.23l8.82,5.11a1.47,1.47,0,0,1,.7,1.15c0,.42-.31.58-.7.35l-8.82-5.1a1.51,1.51,0,0,1-.7-1.15C261.7,118.17,262,118,262.44,118.23Z"/><path class="cls-27" d="M262.44,118.23l8.82,5.11a1.47,1.47,0,0,1,.7,1.15c0,.42-.31.58-.7.35l-8.82-5.1a1.51,1.51,0,0,1-.7-1.15C261.7,118.17,262,118,262.44,118.23Z"/><path class="cls-3" d="M262.44,122.09l8.82,5.11a1.47,1.47,0,0,1,.7,1.15c0,.42-.31.57-.7.35l-8.82-5.11a1.46,1.46,0,0,1-.7-1.15C261.7,122,262,121.87,262.44,122.09Z"/><path class="cls-27" d="M262.44,122.09l8.82,5.11a1.47,1.47,0,0,1,.7,1.15c0,.42-.31.57-.7.35l-8.82-5.11a1.46,1.46,0,0,1-.7-1.15C261.7,122,262,121.87,262.44,122.09Z"/><path class="cls-3" d="M254.61,129.2l1.88,1.09a1.51,1.51,0,0,1,.7,1.15c0,.41-.32.57-.7.35l-1.88-1.09a1.47,1.47,0,0,1-.69-1.15C253.92,129.14,254.23,129,254.61,129.2Z"/><path class="cls-25" d="M254.61,129.2l1.88,1.09a1.51,1.51,0,0,1,.7,1.15c0,.41-.32.57-.7.35l-1.88-1.09a1.47,1.47,0,0,1-.69-1.15C253.92,129.14,254.23,129,254.61,129.2Z"/><path class="cls-3" d="M259.76,132.17l11.46,6.63a1.43,1.43,0,0,1,.7,1.15c0,.41-.31.57-.7.35l-11.46-6.62a1.51,1.51,0,0,1-.7-1.15C259.06,132.11,259.37,132,259.76,132.17Z"/><path class="cls-27" d="M259.76,132.17l11.46,6.63a1.43,1.43,0,0,1,.7,1.15c0,.41-.31.57-.7.35l-11.46-6.62a1.51,1.51,0,0,1-.7-1.15C259.06,132.11,259.37,132,259.76,132.17Z"/><path class="cls-3" d="M257.25,134.6l1.88,1.09a1.47,1.47,0,0,1,.69,1.15c0,.41-.31.57-.69.35l-1.88-1.09a1.47,1.47,0,0,1-.69-1.15C256.56,134.54,256.87,134.37,257.25,134.6Z"/><path class="cls-25" d="M257.25,134.6l1.88,1.09a1.47,1.47,0,0,1,.69,1.15c0,.41-.31.57-.69.35l-1.88-1.09a1.47,1.47,0,0,1-.69-1.15C256.56,134.54,256.87,134.37,257.25,134.6Z"/><path class="cls-3" d="M257.25,138.45l1.88,1.08a1.49,1.49,0,0,1,.69,1.16c0,.41-.31.57-.69.35L257.25,140a1.5,1.5,0,0,1-.69-1.15C256.56,138.37,256.87,138.23,257.25,138.45Z"/><path class="cls-25" d="M257.25,138.45l1.88,1.08a1.49,1.49,0,0,1,.69,1.16c0,.41-.31.57-.69.35L257.25,140a1.5,1.5,0,0,1-.69-1.15C256.56,138.37,256.87,138.23,257.25,138.45Z"/><path class="cls-3" d="M262.44,137.57l8.82,5.11a1.43,1.43,0,0,1,.7,1.15c0,.41-.31.57-.7.35l-8.82-5.11a1.46,1.46,0,0,1-.7-1.15C261.7,137.51,262,137.37,262.44,137.57Z"/><path class="cls-27" d="M262.44,137.57l8.82,5.11a1.43,1.43,0,0,1,.7,1.15c0,.41-.31.57-.7.35l-8.82-5.11a1.46,1.46,0,0,1-.7-1.15C261.7,137.51,262,137.37,262.44,137.57Z"/><path class="cls-3" d="M262.44,141.43l8.82,5.11a1.43,1.43,0,0,1,.7,1.15c0,.41-.31.57-.7.35l-8.82-5.11a1.51,1.51,0,0,1-.7-1.15C261.7,141.37,262,141.21,262.44,141.43Z"/><path class="cls-27" d="M262.44,141.43l8.82,5.11a1.43,1.43,0,0,1,.7,1.15c0,.41-.31.57-.7.35l-8.82-5.11a1.51,1.51,0,0,1-.7-1.15C261.7,141.37,262,141.21,262.44,141.43Z"/><path class="cls-3" d="M257.25,122.94l1.88,1.09a1.47,1.47,0,0,1,.69,1.15c0,.41-.31.57-.69.35l-1.88-1.09a1.47,1.47,0,0,1-.69-1.15C256.56,122.88,256.87,122.72,257.25,122.94Z"/><path class="cls-25" d="M257.25,122.94l1.88,1.09a1.47,1.47,0,0,1,.69,1.15c0,.41-.31.57-.69.35l-1.88-1.09a1.47,1.47,0,0,1-.69-1.15C256.56,122.88,256.87,122.72,257.25,122.94Z"/><path class="cls-3" d="M254.61,125.29l1.88,1.09a1.51,1.51,0,0,1,.7,1.15c0,.41-.32.57-.7.35l-1.88-1.09a1.47,1.47,0,0,1-.69-1.15C253.92,125.23,254.23,125.07,254.61,125.29Z"/><path class="cls-25" d="M254.61,125.29l1.88,1.09a1.51,1.51,0,0,1,.7,1.15c0,.41-.32.57-.7.35l-1.88-1.09a1.47,1.47,0,0,1-.69-1.15C253.92,125.23,254.23,125.07,254.61,125.29Z"/><path class="cls-3" d="M262.44,125.92l8.82,5.11a1.43,1.43,0,0,1,.7,1.15c0,.41-.31.57-.7.35l-8.82-5.11a1.46,1.46,0,0,1-.7-1.15C261.7,125.86,262,125.7,262.44,125.92Z"/><path class="cls-27" d="M262.44,125.92l8.82,5.11a1.43,1.43,0,0,1,.7,1.15c0,.41-.31.57-.7.35l-8.82-5.11a1.46,1.46,0,0,1-.7-1.15C261.7,125.86,262,125.7,262.44,125.92Z"/><path class="cls-3" d="M259.76,128.26l11.46,6.63a1.43,1.43,0,0,1,.7,1.15c0,.41-.31.57-.7.35l-11.46-6.62a1.53,1.53,0,0,1-.7-1.16C259.06,128.2,259.37,128,259.76,128.26Z"/><path class="cls-27" d="M259.76,128.26l11.46,6.63a1.43,1.43,0,0,1,.7,1.15c0,.41-.31.57-.7.35l-11.46-6.62a1.53,1.53,0,0,1-.7-1.16C259.06,128.2,259.37,128,259.76,128.26Z"/><path class="cls-3" d="M254.61,140.85l1.88,1.09a1.51,1.51,0,0,1,.7,1.15c0,.41-.32.57-.7.35l-1.88-1.07a1.47,1.47,0,0,1-.69-1.15C253.92,140.79,254.23,140.63,254.61,140.85Z"/><path class="cls-25" d="M254.61,140.85l1.88,1.09a1.51,1.51,0,0,1,.7,1.15c0,.41-.32.57-.7.35l-1.88-1.07a1.47,1.47,0,0,1-.69-1.15C253.92,140.79,254.23,140.63,254.61,140.85Z"/><path class="cls-3" d="M259.76,143.83l11.46,6.62a1.43,1.43,0,0,1,.7,1.15c0,.41-.31.57-.7.35l-11.46-6.58a1.51,1.51,0,0,1-.7-1.15C259.06,143.76,259.37,143.6,259.76,143.83Z"/><path class="cls-27" d="M259.76,143.83l11.46,6.62a1.43,1.43,0,0,1,.7,1.15c0,.41-.31.57-.7.35l-11.46-6.58a1.51,1.51,0,0,1-.7-1.15C259.06,143.76,259.37,143.6,259.76,143.83Z"/></g></g><g class="cls-28"><path class="cls-11" d="M366.22,159.66V236a3.5,3.5,0,0,0,1.59,2.75l43.88,25.32a1.2,1.2,0,0,0,.53.15h.42l.09-.06.09-.08a1.22,1.22,0,0,0,.29-.42,1.86,1.86,0,0,0,.17-.8v-76a3.5,3.5,0,0,0-1.59-2.75l-43.88-25.29a1.16,1.16,0,0,0-1.07-.14l-.13.08h0l-.11.1V159a.26.26,0,0,0-.05.09.54.54,0,0,0-.1.2.33.33,0,0,0,0,.14h0v.15C366.23,159.53,366.22,159.6,366.22,159.66Z"/></g><path class="cls-3" d="M366.74,158.61a1.16,1.16,0,0,1,1.07.14L411.69,184a3.5,3.5,0,0,1,1.59,2.75V192l2.53-1.46v-5.14a3.46,3.46,0,0,0-1.59-2.74l-43.88-25.26a1.09,1.09,0,0,0-1.15-.1C368.9,157.37,367.08,158.44,366.74,158.61Z"/><path class="cls-3" d="M366.23,159.65c0-1,.71-1.4,1.58-.9L411.69,184a3.5,3.5,0,0,1,1.59,2.75V192l-47-27.11Z"/><g class="cls-23"><path class="cls-16" d="M367.81,158.75,411.69,184a3.25,3.25,0,0,1,1.12,1.18l2.52-1.45a3.22,3.22,0,0,0-1.11-1.15l-43.88-25.25a1.09,1.09,0,0,0-1.15-.1c-.28.18-2.11,1.2-2.44,1.38A1.11,1.11,0,0,1,367.81,158.75Z"/></g><path class="cls-19" d="M415.81,190.52v-5.15a3.32,3.32,0,0,0-.48-1.59l-2.53,1.44a3.15,3.15,0,0,1,.48,1.58V192Z"/><path class="cls-11" d="M411,186.17a2.38,2.38,0,0,1,.9,1.9c0,.76-.4,1.15-.9.86a2.37,2.37,0,0,1-.9-1.89C410.07,186.27,410.44,185.89,411,186.17Z"/><path class="cls-11" d="M407.74,184.31a2.32,2.32,0,0,1,.9,1.89c0,.77-.4,1.15-.9.87a2.4,2.4,0,0,1-.89-1.9C406.85,184.37,407.25,184,407.74,184.31Z"/><path class="cls-11" d="M404.52,182.44a2.41,2.41,0,0,1,.92,1.93c0,.76-.4,1.15-.89.86a2.35,2.35,0,0,1-.9-1.9C403.62,182.54,404,182.16,404.52,182.44Z"/><g class="cls-29"><path class="cls-10" d="M412.7,264.11l.19-.11.49-.28h0a1.35,1.35,0,0,1,.26-.15h0l.42-.24.85-.48.2-.11a.9.9,0,0,0,.27-.21,1.15,1.15,0,0,0,.21-.33,1.88,1.88,0,0,0,.19-.84V190.51L413.25,192v70.81a2.49,2.49,0,0,1-.17.8,1.22,1.22,0,0,1-.29.42.24.24,0,0,1-.09.08Z"/></g><path class="cls-3" d="M369.87,173.62a.28.28,0,0,1,.08-.2l1.14-1h.05a.14.14,0,0,1,.09.11.22.22,0,0,1,0,.16v.79a.81.81,0,0,1,0,.22l-.08.12-.61.55.61,1.25c0,.08.06.15.08.22a1,1,0,0,1,0,.24V177a.08.08,0,0,1-.09,0h0l-.05-.07L370,174.55a.6.6,0,0,1-.08-.29Z"/><path class="cls-3" d="M374,172.52a.3.3,0,0,1,.09-.13h.17l.42.25a.14.14,0,0,1,.09.11.22.22,0,0,1,0,.16V173l-2,6.08a.26.26,0,0,1-.08.13h-.17l-.41-.24a.31.31,0,0,1-.09-.11.43.43,0,0,1,0-.16v-.07Z"/><path class="cls-3" d="M377.07,178.37a.25.25,0,0,1-.08.21l-1.14,1h-.06a.31.31,0,0,1-.09-.11.43.43,0,0,1,0-.16v-.79a.81.81,0,0,1,0-.22.35.35,0,0,1,.08-.13l.6-.55-.6-1.24a2,2,0,0,1-.08-.22,1,1,0,0,1,0-.24v-.8a.11.11,0,0,1,0-.11h.09a.13.13,0,0,1,.06.07l1.14,2.36a.61.61,0,0,1,.08.3Z"/><path class="cls-3" d="M380.24,181.48a.28.28,0,0,1,.11.13.67.67,0,0,1,0,.2v.87a.17.17,0,0,1,0,.14.08.08,0,0,1-.11,0l-.54-.31a.28.28,0,0,1-.11-.13.67.67,0,0,1,0-.2v-.81a.2.2,0,0,1,0-.15.08.08,0,0,1,.11,0Z"/><path class="cls-3" d="M382,182.52a.28.28,0,0,1,.11.13.67.67,0,0,1,0,.2v.87a.17.17,0,0,1,0,.14.11.11,0,0,1-.11,0l-.54-.31a.45.45,0,0,1-.11-.13.46.46,0,0,1-.05-.2v-.85a.25.25,0,0,1,.05-.15.08.08,0,0,1,.11,0Z"/><path class="cls-3" d="M383.84,183.56a.24.24,0,0,1,.11.13.67.67,0,0,1,0,.2v.87a.17.17,0,0,1,0,.14.11.11,0,0,1-.11,0l-.54-.31a.36.36,0,0,1-.11-.14.45.45,0,0,1-.05-.19v-.89a.24.24,0,0,1,.05-.14.08.08,0,0,1,.11,0Z"/><path class="cls-3" d="M370.35,180.54l26.36,15.22a1.2,1.2,0,0,1,.57.94c0,.34-.25.46-.57.28l-26.36-15.22a1.23,1.23,0,0,1-.56-.93C369.79,180.49,370,180.37,370.35,180.54Z"/><path class="cls-2" d="M378.81,200.08l26.36,15.22a1.18,1.18,0,0,1,.57.93c0,.34-.25.47-.57.29L378.81,201.3a1.22,1.22,0,0,1-.56-.94C378.25,200,378.5,199.9,378.81,200.08Z"/><path class="cls-2" d="M378.81,209.84l12.63,7.29a1.19,1.19,0,0,1,.56.94c0,.34-.25.46-.56.28l-12.62-7.29a1.22,1.22,0,0,1-.56-.93C378.25,209.79,378.5,209.66,378.81,209.84Z"/><path class="cls-3" d="M398.9,197l10.5,6a1.18,1.18,0,0,1,.57.93c0,.34-.26.47-.57.29l-10.5-6a1.22,1.22,0,0,1-.56-.93C398.34,197,398.59,196.84,398.9,197Z"/><path class="cls-3" d="M370.35,234.26l26.36,15.22a1.18,1.18,0,0,1,.57.93c0,.34-.25.47-.57.29l-26.36-15.22a1.22,1.22,0,0,1-.56-.94C369.79,234.2,370,234.08,370.35,234.26Z"/><path class="cls-3" d="M398.9,250.74l10.5,6a1.2,1.2,0,0,1,.57.94c0,.33-.26.46-.57.28l-10.5-6a1.22,1.22,0,0,1-.56-.94C398.34,250.69,398.59,250.56,398.9,250.74Z"/><path class="cls-3" d="M398.9,236.11l10.5,6a1.18,1.18,0,0,1,.57.93c0,.34-.26.47-.57.29l-10.5-6a1.22,1.22,0,0,1-.56-.94C398.34,236.06,398.59,235.93,398.9,236.11Z"/><path class="cls-3" d="M398.9,241l10.5,6a1.2,1.2,0,0,1,.57.93c0,.34-.26.47-.57.29l-10.5-6a1.22,1.22,0,0,1-.56-.94C398.34,240.94,398.59,240.82,398.9,241Z"/><path class="cls-3" d="M389.94,230.93l5.9,3.41a1.18,1.18,0,0,1,.57.93c0,.34-.25.47-.57.29l-5.9-3.41a1.22,1.22,0,0,1-.56-.94C389.38,230.88,389.63,230.75,389.94,230.93Z"/><path class="cls-3" d="M370.35,185.44l15.38,8.87a1.22,1.22,0,0,1,.56.93c0,.34-.25.47-.56.29l-15.38-8.87a1.22,1.22,0,0,1-.56-.94C369.79,185.37,370,185.26,370.35,185.44Z"/><path class="cls-25" d="M370.35,185.44l15.38,8.87a1.22,1.22,0,0,1,.56.93c0,.34-.25.47-.56.29l-15.38-8.87a1.22,1.22,0,0,1-.56-.94C369.79,185.37,370,185.26,370.35,185.44Z"/><path class="cls-3" d="M370.35,190.31l5.22,3a1.22,1.22,0,0,1,.56.93c0,.34-.25.47-.56.29l-5.22-3a1.23,1.23,0,0,1-.56-.93C369.79,190.26,370,190.13,370.35,190.31Z"/><path class="cls-25" d="M370.35,190.31l5.22,3a1.22,1.22,0,0,1,.56.93c0,.34-.25.47-.56.29l-5.22-3a1.23,1.23,0,0,1-.56-.93C369.79,190.26,370,190.13,370.35,190.31Z"/><path class="cls-3" d="M370.35,195.19l5.22,3a1.19,1.19,0,0,1,.56.94c0,.33-.25.46-.56.28l-5.22-3a1.19,1.19,0,0,1-.56-.93C369.79,195.14,370,195,370.35,195.19Z"/><path class="cls-25" d="M370.35,195.19l5.22,3a1.19,1.19,0,0,1,.56.94c0,.33-.25.46-.56.28l-5.22-3a1.19,1.19,0,0,1-.56-.93C369.79,195.14,370,195,370.35,195.19Z"/><path class="cls-3" d="M370.35,200.08l5.22,3a1.19,1.19,0,0,1,.56.93c0,.34-.25.47-.56.29l-5.22-3a1.22,1.22,0,0,1-.56-.94C369.79,200,370,199.9,370.35,200.08Z"/><path class="cls-25" d="M370.35,200.08l5.22,3a1.19,1.19,0,0,1,.56.94c0,.34-.25.46-.56.28l-5.22-3a1.22,1.22,0,0,1-.56-.94C369.79,200,370,199.9,370.35,200.08Z"/><path class="cls-30" d="M378.81,205l15.38,8.87a1.19,1.19,0,0,1,.56.94c0,.33-.25.46-.56.28l-15.38-8.87a1.22,1.22,0,0,1-.56-.94C378.25,204.91,378.5,204.78,378.81,205Z"/><path class="cls-30" d="M396.37,215.09l6.69,3.88a1.16,1.16,0,0,1,.56.93c0,.34-.25.47-.56.29l-6.69-3.88a1.23,1.23,0,0,1-.56-.93C395.81,215,396.06,214.91,396.37,215.09Z"/><path class="cls-25" d="M378.81,205l15.38,8.87a1.19,1.19,0,0,1,.56.94c0,.33-.25.46-.56.28l-15.38-8.87a1.22,1.22,0,0,1-.56-.94C378.25,204.91,378.5,204.78,378.81,205Z"/><path class="cls-25" d="M396.37,215.09l6.69,3.88a1.16,1.16,0,0,1,.56.93c0,.34-.25.47-.56.29l-6.69-3.88a1.23,1.23,0,0,1-.56-.93C395.81,215,396.06,214.91,396.37,215.09Z"/><path class="cls-3" d="M370.35,205l5.22,3a1.22,1.22,0,0,1,.56.93c0,.34-.25.47-.56.29l-5.22-3a1.23,1.23,0,0,1-.56-.93C369.79,204.91,370,204.78,370.35,205Z"/><path class="cls-25" d="M370.35,205l5.22,3a1.22,1.22,0,0,1,.56.93c0,.34-.25.47-.56.29l-5.22-3a1.23,1.23,0,0,1-.56-.93C369.79,204.91,370,204.78,370.35,205Z"/><path class="cls-3" d="M387.91,195.57l6.69,3.87a1.19,1.19,0,0,1,.56.94c0,.33-.25.46-.56.28l-6.69-3.87a1.22,1.22,0,0,1-.56-.94C387.35,195.52,387.6,195.37,387.91,195.57Z"/><path class="cls-25" d="M387.91,195.57l6.69,3.87a1.19,1.19,0,0,1,.56.94c0,.33-.25.46-.56.28l-6.69-3.87a1.22,1.22,0,0,1-.56-.94C387.35,195.52,387.6,195.37,387.91,195.57Z"/><path class="cls-16" d="M385.15,218.37l15.38,8.87a1.2,1.2,0,0,1,.57.94c0,.34-.26.46-.57.29l-15.38-8.88a1.23,1.23,0,0,1-.56-.93C384.59,218.37,384.84,218.2,385.15,218.37Z"/><path class="cls-16" d="M394,228.37l15.41,8.91a1.2,1.2,0,0,1,.57.94c0,.33-.26.46-.57.28l-15.37-8.87a1.2,1.2,0,0,1-.57-.94C393.44,228.37,393.71,228.23,394,228.37Z"/><path class="cls-16" d="M402.72,228.52l6.72,3.85a1.2,1.2,0,0,1,.57.93c0,.34-.26.47-.57.29l-6.68-3.87a1.2,1.2,0,0,1-.57-.94C402.15,228.46,402.44,228.37,402.72,228.52Z"/><path class="cls-2" d="M402.72,247.86l6.68,3.87a1.2,1.2,0,0,1,.57.94c0,.33-.26.46-.57.28l-6.68-3.87a1.2,1.2,0,0,1-.57-.94C402.15,247.81,402.44,247.68,402.72,247.86Z"/><path class="cls-3" d="M378.81,195.19l15.38,8.88a1.19,1.19,0,0,1,.56.93c0,.34-.25.47-.56.29l-15.38-8.92a1.19,1.19,0,0,1-.56-.93C378.25,195.14,378.5,195,378.81,195.19Z"/><path class="cls-25" d="M378.81,195.19l15.38,8.88a1.19,1.19,0,0,1,.56.93c0,.34-.25.47-.56.29l-15.38-8.92a1.19,1.19,0,0,1-.56-.93C378.25,195.14,378.5,195,378.81,195.19Z"/><path class="cls-3" d="M396.37,205.37l6.69,3.87a1.19,1.19,0,0,1,.56.94c0,.33-.25.46-.56.28l-6.69-3.87a1.22,1.22,0,0,1-.56-.94C395.81,205.27,396.06,205.15,396.37,205.37Z"/><path class="cls-25" d="M396.37,205.37l6.69,3.87a1.19,1.19,0,0,1,.56.94c0,.33-.25.46-.56.28l-6.69-3.87a1.22,1.22,0,0,1-.56-.94C395.81,205.27,396.06,205.15,396.37,205.37Z"/><ellipse class="cls-2" cx="396.34" cy="423.25" rx="37.1" ry="21.42"/><g id="freepik--Plant--inject-393"><g id="freepik--Pot--inject-393"><path class="cls-3" d="M385,420.89c-10.38-10.71-16.47-54.29-6.35-62.78h51.5c10.12,8.49,4,52.06-6.34,62.77l-.29.3c-.11.12-.23.24-.35.35-.3.29-.61.57-.94.84l-.25.2c-.25.2-.5.4-.78.6a11.81,11.81,0,0,1-1.34.87c-8.54,5-22.38,5-30.92,0h0c-.45-.26-.9-.56-1.35-.88-.26-.18-.49-.37-.73-.56l-.3-.24a11.47,11.47,0,0,1-.91-.81c-.14-.13-.28-.27-.41-.41A2.89,2.89,0,0,1,385,420.89Z"/><g class="cls-23"><path class="cls-16" d="M385,420.89c-10.38-10.71-16.47-54.29-6.35-62.78h51.5c10.12,8.49,4,52.06-6.34,62.77l-.29.3c-.11.12-.23.24-.35.35-.3.29-.61.57-.94.84l-.25.2c-.25.2-.5.4-.78.6a11.81,11.81,0,0,1-1.34.87c-8.54,5-22.38,5-30.92,0h0c-.45-.26-.9-.56-1.35-.88-.26-.18-.49-.37-.73-.56l-.3-.24a11.47,11.47,0,0,1-.91-.81c-.14-.13-.28-.27-.41-.41A2.89,2.89,0,0,1,385,420.89Z"/></g><path class="cls-3" d="M425.63,354.69c11.75,6.86,11.75,18,0,24.85s-30.81,6.86-42.56,0-11.75-18,0-24.85S413.88,347.83,425.63,354.69Z"/><g class="cls-31"><path class="cls-16" d="M425.63,354.69c11.75,6.86,11.75,18,0,24.85s-30.81,6.86-42.56,0-11.75-18,0-24.85S413.88,347.83,425.63,354.69Z"/></g><path class="cls-3" d="M420,358c8.63,5,8.63,13.21,0,18.25s-22.63,5-31.26,0-8.63-13.21,0-18.25S411.35,353,420,358Z"/><g class="cls-21"><path d="M420,358c8.63,5,8.63,13.21,0,18.25s-22.63,5-31.26,0-8.63-13.21,0-18.25S411.35,353,420,358Z"/></g><path class="cls-1" d="M388.72,366.65c8.63-5,22.63-5,31.26,0a14.37,14.37,0,0,1,5.16,4.79,14.15,14.15,0,0,1-5.16,4.8c-8.63,5-22.63,5-31.26,0a14.51,14.51,0,0,1-5.17-4.8A14.66,14.66,0,0,1,388.72,366.65Z"/><g id="freepik--Plants--inject-393"><path class="cls-3" d="M400.13,344.66a14.59,14.59,0,0,1-1.31-3.76c-.58-3.14.2-6.73,2.74-8.67,1-.76,2.33-1.33,2.76-2.53a4,4,0,0,0,0-2.07c-.47-2.68-1.37-5.44-.63-8.05a9,9,0,0,1,5-5.36,27.36,27.36,0,0,1,7.27-1.9,11.5,11.5,0,0,0,3.85-1.1c1.44-.81,1.89-2.23,2.78-3.48a24.79,24.79,0,0,1,3.54-3.77c2.62-2.34,5.9-4.27,9.53-4.11,7.58.33,7.36,6.85,5.18,11.79s-2.76,6.55,2,11.7,4.74,11.5-.91,15-9.32,4-7.08,10.86c2,6.11,3.23,11.32-2.41,17.85-3.65,4.22-8.64,7.23-14.88,7a24.91,24.91,0,0,1-7.31-1.68c-1.72-.85-.56-2.18-1.14-3.88l-3.74-10.92a80.66,80.66,0,0,0-3-8.62C401.68,347.46,400.84,346.09,400.13,344.66Z"/><g class="cls-17"><path d="M400.13,344.66a14.59,14.59,0,0,1-1.31-3.76c-.58-3.14.2-6.73,2.74-8.67,1-.76,2.33-1.33,2.76-2.53a4,4,0,0,0,0-2.07c-.47-2.68-1.37-5.44-.63-8.05a9,9,0,0,1,5-5.36,27.36,27.36,0,0,1,7.27-1.9,11.5,11.5,0,0,0,3.85-1.1c1.44-.81,1.89-2.23,2.78-3.48a24.79,24.79,0,0,1,3.54-3.77c2.62-2.34,5.9-4.27,9.53-4.11,7.58.33,7.36,6.85,5.18,11.79s-2.76,6.55,2,11.7,4.74,11.5-.91,15-9.32,4-7.08,10.86c2,6.11,3.23,11.32-2.41,17.85-3.65,4.22-8.64,7.23-14.88,7a24.91,24.91,0,0,1-7.31-1.68c-1.72-.85-.56-2.18-1.14-3.88l-3.74-10.92a80.66,80.66,0,0,0-3-8.62C401.68,347.46,400.84,346.09,400.13,344.66Z"/></g><path class="cls-16" d="M410.43,372.38a.53.53,0,0,0,.37-.53c-.32-37.42,20.31-59.76,20.52-60a.57.57,0,0,0,0-.8.57.57,0,0,0-.79,0c-.21.22-21.14,22.87-20.82,60.76a.55.55,0,0,0,.54.56h.18Z"/><path class="cls-16" d="M416.43,337.55l.12-.05c6.71-4.23,18.68-7.38,18.8-7.41a.57.57,0,0,0,.4-.69.55.55,0,0,0-.66-.4h0c-.5.13-12.26,3.22-19.11,7.54a.56.56,0,0,0-.19.76h0A.54.54,0,0,0,416.43,337.55Z"/><path class="cls-16" d="M418.51,332.38h0a.57.57,0,0,0,.31-.74,43.34,43.34,0,0,0-6.19-10.41.55.55,0,0,0-.77-.07h0a.58.58,0,0,0-.06.79,42.51,42.51,0,0,1,6,10.11.55.55,0,0,0,.71.32Z"/><path class="cls-3" d="M405.17,376.38a31.38,31.38,0,0,1-16.43.6c-9.42-2-15.19-10.84-15.19-10.84s10.2-4.08,16.14-4.48a52.72,52.72,0,0,0-17.85.38s-5.46-2-4.43-11.24c0,0,5.14-3.79,17-2.3,0,0-5.92-4.23-16.31-5.48-.82,0,.29-12,1.28-17.35s3-4.52,7.2-4.06,16.81,3.32,18.4,6.4S395,339,395,339a18,18,0,0,0,3.46-10.28s4.73,1.73,7.26,4a16.79,16.79,0,0,1,4.52,5.66c-.59,4.21-2.57,10.64-5.35,14.23,0,0,6.26-4.05,7.69-11.49a26,26,0,0,1,5,14.65C417.47,365.13,413.25,372.12,405.17,376.38Z"/><path class="cls-5" d="M405.17,376.38a31.38,31.38,0,0,1-16.43.6c-9.42-2-15.19-10.84-15.19-10.84s10.2-4.08,16.14-4.48a52.72,52.72,0,0,0-17.85.38s-5.46-2-4.43-11.24c0,0,5.14-3.79,17-2.3,0,0-5.92-4.23-16.31-5.48-.82,0,.29-12,1.28-17.35s3-4.52,7.2-4.06,16.81,3.32,18.4,6.4S395,339,395,339a18,18,0,0,0,3.46-10.28s4.73,1.73,7.26,4a16.79,16.79,0,0,1,4.52,5.66c-.59,4.21-2.57,10.64-5.35,14.23,0,0,6.26-4.05,7.69-11.49a26,26,0,0,1,5,14.65C417.47,365.13,413.25,372.12,405.17,376.38Z"/><path class="cls-16" d="M406.42,375.57a.52.52,0,0,1-.34-.46c-1.43-17.86-21.41-45.75-30.24-51.35a.57.57,0,0,1-.17-.75.56.56,0,0,1,.74-.17c9,5.69,29.29,34,30.73,52.18a.52.52,0,0,1-.47.58h0A.47.47,0,0,1,406.42,375.57Z"/></g></g></g><g id="freepik--speech-bubble--inject-393"><path class="cls-3" d="M83.7,98l-2.44-4.61,2-5.72V84.18l-6,3.49v3.5l2.6,4.5a.35.35,0,0,0,.18.16h0Z"/><path class="cls-8" d="M83.7,98l-2.44-4.61,2-5.72V84.18l-6,3.49v3.5l2.6,4.5a.35.35,0,0,0,.18.16h0Z"/><path class="cls-3" d="M98.14,56.4a4,4,0,0,0-1.82-3.14l-1.47-.85a4,4,0,0,0-3.63,0L68.57,65.51a4,4,0,0,0-1.81,3.15V93.59a4,4,0,0,0,1.81,3.14l1.48.85a4,4,0,0,0,3.63,0L81,93.37l2.6,4.51a.39.39,0,0,0,.7-.07L87,89.89l9.33-5.41a4,4,0,0,0,1.8-3.15Z"/><path class="cls-8" d="M66.76,93.59a4,4,0,0,0,1.81,3.14l1.48.85a4.05,4.05,0,0,0,3.32.15c-.85.32-1.51-.16-1.51-1.19V71.61a3.75,3.75,0,0,1,.54-1.79l-5.11-2.95a3.77,3.77,0,0,0-.53,1.79Z"/><path class="cls-6" d="M98.1,55.88c-.21-.77-.92-1-1.75-.53L73.68,68.46a3.56,3.56,0,0,0-1.28,1.36l-5.1-2.95a3.66,3.66,0,0,1,1.27-1.35L91.23,52.41a4,4,0,0,1,3.63,0l1.49.85A4,4,0,0,1,98.1,55.88Z"/><g id="freepik----inject-393"><path class="cls-16" d="M75.2,81.39a1.54,1.54,0,0,1,.09-.52,3.72,3.72,0,0,1,.27-.48l4.92-8,.08-.1.06,0a.15.15,0,0,1,.18,0,.32.32,0,0,1,.08.24v3.08a1.43,1.43,0,0,1-.15.64,3.09,3.09,0,0,1-.25.42l-2.54,3.87,2.54,1.17a1,1,0,0,1,.25.12c.1.06.15.22.15.47v2.18a.8.8,0,0,1-.08.33.49.49,0,0,1-.18.22h-.06a.11.11,0,0,1-.08,0l-4.92-2.25a.64.64,0,0,1-.27-.18.73.73,0,0,1-.09-.41Z"/><path class="cls-16" d="M85.94,69.09a2.6,2.6,0,0,1,.18-.49.91.91,0,0,1,.36-.39l1.65-1a.17.17,0,0,1,.19,0,.33.33,0,0,1,.08.25.6.6,0,0,1,0,.19L84.24,85.41a2,2,0,0,1-.18.48.82.82,0,0,1-.36.4l-1.62.93a.14.14,0,0,1-.19,0,.3.3,0,0,1-.08-.24V86.8Z"/><path class="cls-16" d="M95,72a1.33,1.33,0,0,1-.09.52c-.08.16-.17.33-.26.48l-4.94,8-.08.09-.05,0a.14.14,0,0,1-.19,0,.29.29,0,0,1-.07-.24V77.74a1.24,1.24,0,0,1,.14-.63,3.93,3.93,0,0,1,.25-.41l2.16-3.33-2.16-.83a.72.72,0,0,1-.25-.12c-.1-.07-.14-.23-.14-.48V68.87a.72.72,0,0,1,.07-.33.45.45,0,0,1,.19-.22h.13l4.93,2.25a.48.48,0,0,1,.35.56Z"/></g></g><g id="freepik--text-boxes--inject-393"><g id="freepik--text-box--inject-393"><g id="freepik--speach-bubble--inject-393"><path class="cls-9" d="M200,7,169.64,24.43a1.69,1.69,0,0,0-.75,1.3V42.66a1.66,1.66,0,0,0,.75,1.33l3,1.68a1.65,1.65,0,0,0,1.5,0l30.33-17.44a1.67,1.67,0,0,0,.75-1.3V10a1.67,1.67,0,0,0-.75-1.3l-3-1.68A1.67,1.67,0,0,0,200,7Z"/><path class="cls-11" d="M205.21,9.82c-.06-.38-.37-.52-.74-.3L174.15,27a1.5,1.5,0,0,0-.53.56L169.11,25a1.47,1.47,0,0,1,.52-.56L200,7a1.74,1.74,0,0,1,1.51,0l3,1.69A1.7,1.7,0,0,1,205.21,9.82Z"/><path class="cls-10" d="M204.47,9.52,174.14,27a1.66,1.66,0,0,0-.74,1.3v17c0,.48.33.67.74.43l30.33-17.44a1.69,1.69,0,0,0,.75-1.31V10C205.22,9.48,204.88,9.28,204.47,9.52Z"/></g><path class="cls-14" d="M180.89,31.33v2.55a3.35,3.35,0,0,0,.08.54,1,1,0,0,0,.22.43.58.58,0,0,0,.36.17,1.13,1.13,0,0,0,.57-.18,2,2,0,0,0,.56-.44,2.5,2.5,0,0,0,.56-1,2.93,2.93,0,0,0,.11-.45,2,2,0,0,1,.11-.4.52.52,0,0,1,.22-.22l1.23-.73a.12.12,0,0,1,.16,0,.32.32,0,0,1,.06.2,5.84,5.84,0,0,1-.24,1.56,7.17,7.17,0,0,1-1.6,2.87,4.86,4.86,0,0,1-1.18,1,2.46,2.46,0,0,1-1.25.4,1.38,1.38,0,0,1-.93-.33,2.09,2.09,0,0,1-.6-.94,5.28,5.28,0,0,1-.23-1.43V32.28a7.31,7.31,0,0,1,.23-1.68,8.67,8.67,0,0,1,.59-1.64,7.37,7.37,0,0,1,.94-1.41,4.66,4.66,0,0,1,1.25-1,2.58,2.58,0,0,1,1.18-.39,1.55,1.55,0,0,1,1,.23,1.71,1.71,0,0,1,.64.79,3.56,3.56,0,0,1,.24,1.29.88.88,0,0,1-.06.27.4.4,0,0,1-.16.18l-1.26.74c-.12.06-.19.07-.23,0a.63.63,0,0,1-.1-.27,3,3,0,0,0-.11-.32.61.61,0,0,0-.21-.26.54.54,0,0,0-.35-.09,1.15,1.15,0,0,0-.56.2,1.88,1.88,0,0,0-.56.45,2.83,2.83,0,0,0-.58,1.27A4.25,4.25,0,0,0,180.89,31.33Z"/><path class="cls-14" d="M189.13,22.45a2.48,2.48,0,0,1,1.12-.37,1.58,1.58,0,0,1,.9.19,1.45,1.45,0,0,1,.59.61,1.93,1.93,0,0,1,.23.85.63.63,0,0,1-.06.27.4.4,0,0,1-.14.18l-1.27.73a.29.29,0,0,1-.22.06.36.36,0,0,1-.17-.07l-.09-.1a.42.42,0,0,0-.18-.11.71.71,0,0,0-.29,0,1.08,1.08,0,0,0-.42.16,2.82,2.82,0,0,0-.36.24,1.64,1.64,0,0,0-.29.3,1.15,1.15,0,0,0-.22.35,1,1,0,0,0-.08.42.35.35,0,0,0,.4.42,2.62,2.62,0,0,0,.56-.09l.89-.23a2.94,2.94,0,0,1,.93-.12,1.15,1.15,0,0,1,.67.25,1.44,1.44,0,0,1,.4.67,4.18,4.18,0,0,1,.12,1.12,5,5,0,0,1-.21,1.49,6.56,6.56,0,0,1-.62,1.38,6,6,0,0,1-.95,1.19,6.37,6.37,0,0,1-1.2.92,3,3,0,0,1-1.2.42,1.59,1.59,0,0,1-.93-.17,1.4,1.4,0,0,1-.61-.64,2.06,2.06,0,0,1-.25-1,.52.52,0,0,1,.07-.27.31.31,0,0,1,.14-.18l1.26-.73a.44.44,0,0,1,.22-.07.3.3,0,0,1,.15.07l.12.12a.65.65,0,0,0,.21.16.59.59,0,0,0,.32.06,1.37,1.37,0,0,0,.49-.18,3.75,3.75,0,0,0,.86-.67,1.2,1.2,0,0,0,.35-.82.34.34,0,0,0-.13-.3.71.71,0,0,0-.38,0,3.44,3.44,0,0,0-.64.12l-.93.24a1.38,1.38,0,0,1-1.45-.26,2.62,2.62,0,0,1-.46-1.78,5,5,0,0,1,.18-1.33,7.25,7.25,0,0,1,.56-1.35,5.75,5.75,0,0,1,.87-1.2A4.65,4.65,0,0,1,189.13,22.45Z"/><path class="cls-14" d="M196.14,18.41a2.38,2.38,0,0,1,1.12-.38,1.67,1.67,0,0,1,.9.19,1.5,1.5,0,0,1,.56.61,2,2,0,0,1,.23.87.77.77,0,0,1-.07.27.42.42,0,0,1-.14.18l-1.27.73a.41.41,0,0,1-.22.07.38.38,0,0,1-.17-.08l-.09-.1a.42.42,0,0,0-.18-.11.48.48,0,0,0-.29,0,1.08,1.08,0,0,0-.42.16c-.12.07-.24.16-.36.24a2.13,2.13,0,0,0-.3.3,1.13,1.13,0,0,0-.21.35,1.2,1.2,0,0,0-.08.42.45.45,0,0,0,.09.32.42.42,0,0,0,.31.1,2.62,2.62,0,0,0,.56-.09l.89-.23a2.82,2.82,0,0,1,1-.15,1.14,1.14,0,0,1,.66.25,1.44,1.44,0,0,1,.4.67,4.28,4.28,0,0,1,.13,1.12,5,5,0,0,1-.23,1.49,5.36,5.36,0,0,1-.62,1.38,6.12,6.12,0,0,1-1,1.2,5.93,5.93,0,0,1-1.2.91,2.85,2.85,0,0,1-1.19.43,1.78,1.78,0,0,1-.94-.17,1.53,1.53,0,0,1-.62-.64,2.08,2.08,0,0,1-.23-1,.6.6,0,0,1,.06-.27.49.49,0,0,1,.14-.18l1.27-.73a.44.44,0,0,1,.21-.07.33.33,0,0,1,.16.07l.11.12a.65.65,0,0,0,.21.16.54.54,0,0,0,.33.05,1.25,1.25,0,0,0,.49-.17,3.75,3.75,0,0,0,.86-.67,1.15,1.15,0,0,0,.34-.82.28.28,0,0,0-.13-.29.59.59,0,0,0-.37-.06,3.29,3.29,0,0,0-.64.12l-.93.24a1.41,1.41,0,0,1-1.46-.25,2.72,2.72,0,0,1-.46-1.79,5.41,5.41,0,0,1,.19-1.33,6.11,6.11,0,0,1,.56-1.35,6.39,6.39,0,0,1,.87-1.21A4.67,4.67,0,0,1,196.14,18.41Z"/></g><path class="cls-9" d="M200,42.14,169.64,59.58a1.7,1.7,0,0,0-.75,1.31V77.81a1.67,1.67,0,0,0,.75,1.3l3,1.69a1.72,1.72,0,0,0,1.5,0l30.33-17.45a1.67,1.67,0,0,0,.75-1.3V45.11a1.64,1.64,0,0,0-.75-1.29l-3-1.69A1.71,1.71,0,0,0,200,42.14Z"/><path class="cls-11" d="M205.21,45c-.06-.37-.37-.51-.74-.29L174.15,62.14a1.5,1.5,0,0,0-.53.56l-4.51-2.58a1.58,1.58,0,0,1,.52-.54L200,42.14a1.67,1.67,0,0,1,1.51,0l3,1.69A1.63,1.63,0,0,1,205.21,45Z"/><path class="cls-10" d="M204.47,44.7,174.14,62.14a1.66,1.66,0,0,0-.74,1.3v17c0,.48.33.68.74.43l30.33-17.44a1.67,1.67,0,0,0,.75-1.3v-17C205.22,44.65,204.88,44.45,204.47,44.7Z"/><path class="cls-14" d="M181,62.45a.17.17,0,0,1,.19,0,.43.43,0,0,1,.08.24v9.63a.94.94,0,0,1-.08.33.45.45,0,0,1-.19.22l-1.26.73a.14.14,0,0,1-.19,0,.29.29,0,0,1-.08-.23V69.72L177.35,71v3.66a.78.78,0,0,1-.07.33.51.51,0,0,1-.19.22l-1.26.73a.14.14,0,0,1-.19,0,.3.3,0,0,1-.08-.24V66a.8.8,0,0,1,.08-.33.45.45,0,0,1,.19-.22l1.26-.73a.14.14,0,0,1,.19,0,.32.32,0,0,1,.07.23v3.59l2.15-1.24V63.74a.73.73,0,0,1,.08-.33.53.53,0,0,1,.19-.23Z"/><path class="cls-14" d="M188.11,58.37a.13.13,0,0,1,.18,0,.29.29,0,0,1,.08.23v1.59a.61.61,0,0,1-.08.32.42.42,0,0,1-.18.23l-1.69,1v7.65a.75.75,0,0,1-.07.33.51.51,0,0,1-.19.22l-1.26.74a.17.17,0,0,1-.19,0,.33.33,0,0,1-.08-.25V62.77l-1.69,1a.13.13,0,0,1-.18,0,.3.3,0,0,1-.07-.24V61.94a.8.8,0,0,1,.07-.34.49.49,0,0,1,.18-.22Z"/><path class="cls-14" d="M192.56,63.6a.79.79,0,0,1-.14-.17l-.9-1.93v4.93a.76.76,0,0,1-.08.33.41.41,0,0,1-.19.22l-1.26.73a.14.14,0,0,1-.19,0,.38.38,0,0,1-.08-.23V57.83a.89.89,0,0,1,.08-.32.48.48,0,0,1,.19-.23l1.12-.65c.13-.07.23-.07.29,0l.13.17L193.09,60l1.57-5a2.88,2.88,0,0,1,.13-.31.74.74,0,0,1,.29-.34l1.13-.64a.13.13,0,0,1,.18,0,.33.33,0,0,1,.07.24v9.63a.75.75,0,0,1-.07.33.56.56,0,0,1-.18.22l-1.28.74a.15.15,0,0,1-.18,0,.31.31,0,0,1-.07-.24V59.68l-.92,3a1.79,1.79,0,0,1-.13.32.49.49,0,0,1-.23.26l-.62.36C192.69,63.68,192.62,63.68,192.56,63.6Z"/><path class="cls-14" d="M203.06,57.79a.13.13,0,0,1,.18,0,.29.29,0,0,1,.08.23v1.59a.72.72,0,0,1-.08.32.46.46,0,0,1-.18.23l-4.5,2.59a.17.17,0,0,1-.19,0,.41.41,0,0,1-.08-.24V52.88a.89.89,0,0,1,.08-.32.43.43,0,0,1,.19-.23l1.26-.73a.14.14,0,0,1,.19,0,.33.33,0,0,1,.07.24v7.64Z"/><path class="cls-9" d="M200,77.31,169.64,94.78a1.67,1.67,0,0,0-.75,1.3V113a1.64,1.64,0,0,0,.75,1.29l3,1.69a1.65,1.65,0,0,0,1.5,0l30.33-17.47a1.67,1.67,0,0,0,.75-1.3V80.31a1.65,1.65,0,0,0-.75-1.3l-3-1.69A1.71,1.71,0,0,0,200,77.31Z"/><path class="cls-11" d="M205.21,80.16c-.06-.37-.37-.51-.74-.29L174.15,97.31a1.5,1.5,0,0,0-.53.56l-4.51-2.58a1.55,1.55,0,0,1,.52-.56L200,77.28a1.74,1.74,0,0,1,1.51,0l3,1.69A1.65,1.65,0,0,1,205.21,80.16Z"/><path class="cls-10" d="M204.47,79.87,174.14,97.31a1.69,1.69,0,0,0-.74,1.3v16.92c0,.49.33.68.74.44L204.47,98.5a1.67,1.67,0,0,0,.75-1.3V80.31C205.22,79.82,204.88,79.63,204.47,79.87Z"/><path class="cls-14" d="M181.48,101.33v2.55a3.1,3.1,0,0,0,.09.61.91.91,0,0,0,.21.43.52.52,0,0,0,.37.16,1,1,0,0,0,.56-.18,2.11,2.11,0,0,0,.56-.42,3.45,3.45,0,0,0,.35-.5,2.21,2.21,0,0,0,.21-.5,3.63,3.63,0,0,0,.1-.45,2.62,2.62,0,0,1,.11-.4.54.54,0,0,1,.23-.22l1.26-.73a.11.11,0,0,1,.15,0,.26.26,0,0,1,.07.19,5.6,5.6,0,0,1-.25,1.57,6.43,6.43,0,0,1-.64,1.53,6.93,6.93,0,0,1-1,1.34,4.86,4.86,0,0,1-1.19,1,2.49,2.49,0,0,1-1.24.4,1.43,1.43,0,0,1-.93-.33,2.17,2.17,0,0,1-.6-.95,5.71,5.71,0,0,1-.24-1.42v-2.65a8,8,0,0,1,.24-1.69,8.58,8.58,0,0,1,.59-1.63,6.66,6.66,0,0,1,.94-1.41,4.81,4.81,0,0,1,1.24-1,2.79,2.79,0,0,1,1.19-.39,1.55,1.55,0,0,1,1.59,1,3.37,3.37,0,0,1,.25,1.29.77.77,0,0,1-.07.26.4.4,0,0,1-.15.19l-1.26.73c-.12.06-.19.07-.23,0a.81.81,0,0,1-.11-.27,2.07,2.07,0,0,0-.1-.33.75.75,0,0,0-.21-.26.73.73,0,0,0-.35-.09,1.26,1.26,0,0,0-.56.2,1.8,1.8,0,0,0-.56.46,2.71,2.71,0,0,0-.58,1.27A3.74,3.74,0,0,0,181.48,101.33Z"/><path class="cls-14" d="M190.37,99.35v2.45a1,1,0,0,1-.08.34.55.55,0,0,1-.18.22l-1.22.7a.14.14,0,0,1-.19,0,.3.3,0,0,1-.08-.24v-2.46l-1.5.87a.13.13,0,0,1-.18,0,.31.31,0,0,1-.08-.24V99.46a.72.72,0,0,1,.08-.32.47.47,0,0,1,.18-.23l1.5-.87V95.58a.72.72,0,0,1,.08-.32.43.43,0,0,1,.19-.23l1.23-.7a.13.13,0,0,1,.18,0,.32.32,0,0,1,.08.23V97l1.49-.86a.13.13,0,0,1,.18,0,.29.29,0,0,1,.08.23v1.51a.76.76,0,0,1-.08.33.43.43,0,0,1-.18.22Z"/><path class="cls-14" d="M196.79,95.64V98.1a.89.89,0,0,1-.08.33.51.51,0,0,1-.19.22l-1.21.71a.17.17,0,0,1-.19,0,.31.31,0,0,1-.08-.24V96.66l-1.5.86a.13.13,0,0,1-.18,0,.29.29,0,0,1-.08-.23V95.75a.8.8,0,0,1,.08-.33.43.43,0,0,1,.18-.22l1.5-.87V91.87a.8.8,0,0,1,.08-.33.45.45,0,0,1,.19-.22l1.21-.71a.17.17,0,0,1,.19,0,.44.44,0,0,1,.08.25v2.45l1.49-.86a.15.15,0,0,1,.18,0,.38.38,0,0,1,.08.25v1.5a.72.72,0,0,1-.08.32.52.52,0,0,1-.18.23Z"/></g></svg>