<svg id="freepik_stories-stress" data-name="freepik stories-stress" xmlns="http://www.w3.org/2000/svg" viewBox="0 0 500 500"><defs><style>.cls-1{fill:#e0e0e0;}.cls-2{fill:#f5f5f5;}.cls-3{fill:#fff;}.cls-4{fill:#fafafa;}.cls-5{fill:#ebebeb;}.cls-6{fill:#dbdbdb;}.cls-7{fill:#c7c7c7;}.cls-8{fill:#263238;}.cls-9{fill:#ffbe9d;}.cls-10{fill:#eb996e;}.cls-11{opacity:0.78;}.cls-12{fill:#0966e5;}.cls-13{opacity:0.5;}.cls-14{opacity:0.6;}.cls-15{opacity:0.3;}.cls-16{fill:#455a64;}</style></defs><title>Course 06</title><g id="freepik--background-complete--inject-307"><rect class="cls-1" x="53.6" y="109" width="100.95" height="146.33"/><rect class="cls-2" x="48.54" y="109" width="100.95" height="146.33"/><rect class="cls-3" x="61.08" y="124.85" width="75.87" height="114.63"/><path class="cls-1" d="M137,239.49V231c0-5.51,0-13.51-.06-23.62,0-20.21-.08-48.83-.13-82.53l.26.25H61.16l.27-.27V239.49l-.22-.22,55.22.11h15.35l-15.21.05-55.36.12H61v-.22c0-31.51,0-71.39-.05-114.63v-.16h76.39v.25c0,33.79-.09,62.46-.13,82.72,0,10.09,0,18.07-.06,23.55v7.83A1,1,0,0,1,137,239.49Z"/><path class="cls-1" d="M149.77,109a18.09,18.09,0,0,1-1.79,2.62c-1.18,1.57-2.84,3.7-4.74,6s-3.68,4.35-5,5.8a18.15,18.15,0,0,1-2.2,2.27,17.52,17.52,0,0,1,1.93-2.52l4.86-5.9,4.82-5.94A18.74,18.74,0,0,1,149.77,109Z"/><path class="cls-3" d="M137.34,239.11a93,93,0,0,0,13.2,16.51"/><path class="cls-1" d="M150.56,255.66a14.74,14.74,0,0,1-2.3-2.1,70,70,0,0,1-5-5.62,73.27,73.27,0,0,1-4.4-6.11,13.24,13.24,0,0,1-1.54-2.72,22.5,22.5,0,0,1,1.86,2.5c1.1,1.56,2.67,3.7,4.5,6s3.56,4.27,4.84,5.7A22.76,22.76,0,0,1,150.56,255.66Z"/><path class="cls-3" d="M48.52,255.21l13.21-16.3"/><path class="cls-1" d="M61.74,238.91q-3,4.32-6.39,8.33a103.61,103.61,0,0,1-6.83,8,102.84,102.84,0,0,1,6.4-8.33A101.31,101.31,0,0,1,61.74,238.91Z"/><path class="cls-1" d="M48.54,109A94.55,94.55,0,0,1,55,116.71a86.6,86.6,0,0,1,6,8q-3.4-3.69-6.42-7.7A88.47,88.47,0,0,1,48.54,109Z"/><rect class="cls-1" x="87.91" y="148.12" width="25.41" height="72.13"/><polygon class="cls-2" points="320.74 455.42 320.74 493.98 377.11 493.98 439.29 493.98 439.29 455.42 320.74 455.42"/><polygon class="cls-1" points="315.77 444.65 315.77 455.42 443.43 455.42 443.43 444.65 377.11 444.65 315.77 444.65"/><polygon class="cls-1" points="379.6 493.98 439.29 493.98 439.29 455.42 443.43 455.42 443.43 444.65 377.11 444.65 377.11 454.43 379.6 493.98"/><rect class="cls-1" x="337.32" y="461.64" width="24.04" height="5.8"/><rect class="cls-3" x="334.23" y="474.7" width="30.87" height="12.25"/><path class="cls-1" d="M133.56,352.17v18.65H53.37A9.34,9.34,0,0,1,44,361.49h0a9.34,9.34,0,0,1,9.34-9.32"/><path class="cls-4" d="M103.64,356.08h29.91V366.9H103.64a1.92,1.92,0,0,1-1.92-1.92v-7A1.91,1.91,0,0,1,103.64,356.08Z"/><path class="cls-2" d="M133.56,333.51v18.7H53.37A9.33,9.33,0,0,1,44,342.88h0a9.34,9.34,0,0,1,9.34-9.33h0Z"/><path class="cls-1" d="M103.64,337.42h29.91v10.83H103.64a1.92,1.92,0,0,1-1.92-1.92v-7A1.92,1.92,0,0,1,103.64,337.42Z"/><rect class="cls-5" x="31.61" y="457.32" width="9.47" height="37.68"/><rect class="cls-5" x="151.2" y="457.32" width="9.47" height="37.68"/><rect class="cls-5" x="31.61" y="370.45" width="129.25" height="86.88"/><path class="cls-1" d="M148.65,411.58a1.93,1.93,0,0,1,0-.48v-1.41c0-1.27,0-3.08-.06-5.43,0-4.74-.06-11.62-.11-20.3l.21.21-104,.13L45,384h0v27.62l-.34-.33,74.21.15,21.86.09h8a2,2,0,0,1-.49,0h-7.32l-21.84.25-74.44.16h-.33V384h0l.35-.35,104,.14h.21V384c-.11,8.74-.11,15.68-.11,20.42v6.75A.66.66,0,0,1,148.65,411.58Z"/><path class="cls-1" d="M101.18,397.77a4.56,4.56,0,1,1-4.56-4.56,4.55,4.55,0,0,1,4.56,4.56Z"/><path class="cls-1" d="M148.65,444.54a2.09,2.09,0,0,1,0-.5v-1.41c0-1.26,0-3.08-.06-5.42,0-4.73-.06-11.61-.11-20.3l.21.2-104.07.14.34-.34h0v27.63l-.34-.35,74.21.16,21.85.1h6l-5.82.05-21.8.26-74.44.15h-.33v-28h0c.69-.7.19-.19.35-.34l104,.13h.21v.21c-.06,8.73-.09,15.66-.12,20.42v6.76C148.75,444.45,148.65,444.54,148.65,444.54Z"/><path class="cls-1" d="M101.18,430.72a4.56,4.56,0,1,1-4.56-4.56,4.56,4.56,0,0,1,4.56,4.56Z"/></g><rect class="cls-5" x="434.68" y="2.49" width="2.15" height="114.8"/><rect class="cls-6" x="429.78" y="107.72" width="11.94" height="8.07"/><rect class="cls-7" x="429.78" y="110.41" width="11.94" height="5.39"/><circle class="cls-5" cx="435.74" cy="169.22" r="9.19"/><polygon class="cls-6" points="465.67 169.23 405.83 169.23 416.67 150.03 425.51 114.36 446 114.36 454.84 150.03 465.67 169.23"/><rect class="cls-5" x="323.41" y="2.49" width="2.15" height="95.92"/><rect class="cls-6" x="318.53" y="88.84" width="11.94" height="8.07"/><rect class="cls-7" x="318.53" y="91.53" width="11.94" height="5.39"/><path class="cls-5" d="M333.69,150.35a9.2,9.2,0,1,1,0-.07Z"/><polygon class="cls-6" points="354.41 150.34 294.58 150.34 305.42 131.15 314.26 95.48 334.74 95.48 343.57 131.15 354.41 150.34"/><rect class="cls-5" x="216.7" y="2.49" width="2.15" height="76.19"/><rect class="cls-6" x="211.8" y="69.12" width="11.94" height="8.07"/><rect class="cls-7" x="211.8" y="71.8" width="11.94" height="5.39"/><path class="cls-5" d="M227,130.62a9.19,9.19,0,1,1-9.19-9.19h0A9.18,9.18,0,0,1,227,130.62Z"/><polygon class="cls-6" points="247.69 130.62 187.85 130.62 198.69 111.41 207.53 75.76 228.02 75.76 236.86 111.41 247.69 130.62"/><g id="freepik--Floor--inject-307"><path class="cls-8" d="M472.27,494.21c0,.15-102,.28-227.78.28s-227.78-.13-227.78-.28,102-.29,227.78-.29S472.27,494.05,472.27,494.21Z"/></g><g id="freepik--Character--inject-307"><path class="cls-8" d="M185.83,120.07a11.91,11.91,0,0,1,8.64-11c3.53-.93,7.7-.3,10.41-2.76,3-2.73,2.4-7.81,5.08-10.8,3.08-3.42,9.13-2.76,12.11-6.26,2.2-2.63,2-6.7,4-9.46s6.27-3.52,9-5.89c3-2.64,4.4-7.39,8.21-8.52A7.24,7.24,0,0,1,249.69,67,21.62,21.62,0,0,1,254,72.35l14.89,23.11a5.39,5.39,0,0,1,.93,2.07c.31,2.09-1.77,3.64-3.43,4.94a23.6,23.6,0,0,0-8.36,13c-.77,3.19-1.17,7-4,8.67-2.2,1.29-5.19.79-7.16,2.39-2.85,2.31-1.51,6.91-2.69,10.37-1.1,3.24-4.4,5.22-7.62,6.28s-6.72,1.47-9.82,2.94-5.83,4.41-5.62,7.85a66.14,66.14,0,0,1-14.78-13.85l5.27-5.65-8.38,3.65c-.74-1.93-2.62-3.15-4.12-4.61s-2.73-3.69-1.74-5.5c1.19-2.2,4.87-2.4,5.51-4.82a15.47,15.47,0,0,0-9.26,4.11,16.86,16.86,0,0,1-7.12-8.37"/><path class="cls-9" d="M199.12,81.65,186.93,27.73h-.06c0-2.5-.1-10.49-.54-11.45l-17.18-1.77s2.11,14,2.2,14.38c0,0,1.29,7.08,1.6,7.09h0l6.66,55.34a9.27,9.27,0,0,0,1.66,4.5l35.34,50.46,9.35-25.2Z"/><path class="cls-9" d="M169.07,15.64a.62.62,0,0,0,0,.33c.1,1.62,1.37,8.54,2.27,8.7s3.3-.77,3.3-1.72-1.83-8.65-1.83-8.65-.37-1.2-2.49-1.1C169,13.18,169.07,15.64,169.07,15.64Z"/><path class="cls-9" d="M172.81,12.41a1,1,0,0,0,0,.34c.1,1.62,1.38,8.53,2.28,8.68s3.3-.77,3.3-1.7-1.87-8.66-1.87-8.66-.37-1.2-2.48-1.1C172.69,10,172.81,12.41,172.81,12.41Z"/><path class="cls-9" d="M176.68,10.52v.33c.1,1.61,1.37,8.54,2.26,8.69s3.3-.77,3.3-1.72-1.87-8.65-1.87-8.65S180,8,177.89,8.07C176.56,8,176.68,10.52,176.68,10.52Z"/><path class="cls-9" d="M180.52,8.66V9c.1,1.62,1.37,8.54,2.26,8.69s3.3-.77,3.3-1.72-1.85-8.65-1.85-8.65-.38-1.19-2.5-1.1C180.41,6.19,180.52,8.66,180.52,8.66Z"/><path class="cls-10" d="M174.31,20.92a13.52,13.52,0,0,1-.9-3.31,13.6,13.6,0,0,1-.45-3.36,14,14,0,0,1,.89,3.3A13.23,13.23,0,0,1,174.31,20.92Z"/><path class="cls-10" d="M178.4,20.26a26.82,26.82,0,0,1-1.18-4.75,25.35,25.35,0,0,1-.77-4.82,26.64,26.64,0,0,1,1.19,4.73A27.39,27.39,0,0,1,178.4,20.26Z"/><g class="cls-11"><path class="cls-10" d="M182.5,19.21a25.93,25.93,0,0,1-1.2-4.74,29.15,29.15,0,0,1-.77-4.82,27.32,27.32,0,0,1,1.2,4.73A27.15,27.15,0,0,1,182.5,19.21Z"/></g><path class="cls-9" d="M183.17,28.63l2.64-5.17a9.92,9.92,0,0,0,.65-7.33l-.56-1.86-13.53,3s2,4.65,5.62,3.11l-3.4,4.19Z"/><path class="cls-10" d="M175.55,25.31c.07,0,.1-.66.54-1.69a6.34,6.34,0,0,1,3.11-3.22l1.32-.61-1.46.1-3.36.22h.07a3.73,3.73,0,0,1-3.23-2.41,3,3,0,0,1-.08-.32l-.26.36c3.86-.7,7.34-1.38,9.82-2,1.24-.31,2.21-.59,2.92-.81a3.82,3.82,0,0,0,1-.41,39.45,39.45,0,0,0-4,.78c-2.5.52-6,1.1-9.84,1.82l-.3,0v.3a2.16,2.16,0,0,0,.1.44,3.74,3.74,0,0,0,1.54,2,5.28,5.28,0,0,0,2.2.81h.08l3.35-.3-.13-.51a6.37,6.37,0,0,0-3.18,3.6A3.45,3.45,0,0,0,175.55,25.31Z"/><path class="cls-10" d="M173.74,19.2c-.13,0-.06.69-.44,1.55a1.21,1.21,0,0,1-1.16.74,1.81,1.81,0,0,1-1.24-1.3c-.47-1.48-1-2.83-1.27-3.8a6.34,6.34,0,0,0-.48-1.59,3.45,3.45,0,0,0,0,1.69,31.37,31.37,0,0,0,1.1,3.93A2.31,2.31,0,0,0,172,22.07a1.62,1.62,0,0,0,1.65-1.1,2.82,2.82,0,0,0,.15-1.29C173.83,19.35,173.78,19.2,173.74,19.2Z"/><path class="cls-10" d="M215.81,124.07a15.39,15.39,0,0,1-2.05,12.35,37.24,37.24,0,0,0,1.8-6A40.2,40.2,0,0,0,215.81,124.07Z"/><path class="cls-10" d="M219,117.88a.28.28,0,0,1-.22-.33.26.26,0,1,1,.22.33Z"/><path class="cls-12" d="M258.05,194.44c3.55,2.84,5.5,9.15,9.24,11.61s7.79,4.18,11.51,6.6a39.4,39.4,0,0,1,17.73,35.21,5.71,5.71,0,0,1-1.4,3.95,6,6,0,0,1-3.36,1.22l-22.84,3.45q-7.06-19.28-14.15-38.52"/><path class="cls-10" d="M268.39,134.76a.28.28,0,0,1-.22-.32h0a.29.29,0,0,1,.3-.25h0a.28.28,0,0,1,.22.33A.28.28,0,0,1,268.39,134.76Z"/><path class="cls-10" d="M245.84,129.16a.28.28,0,0,1-.23-.33.27.27,0,0,1,.31-.25h0a.28.28,0,0,1,.22.33A.28.28,0,0,1,245.84,129.16Z"/><path class="cls-12" d="M209.13,176.69c3.94,3.47,8,7,12.79,9.06,4,1.7,8.4,2.28,12.71,2.83s8.43,1.1,12.65,1.48a19.27,19.27,0,0,0,7.89-.35c2.53-.84,5.5-1.88,5.62-4.53s-2.54-6.24-4.69-8a31.82,31.82,0,0,0-22.71-6.82"/><g class="cls-13"><path d="M209.13,176.69c3.94,3.47,8,7,12.79,9.06,4,1.7,8.4,2.28,12.71,2.83s8.43,1.1,12.65,1.48a19.27,19.27,0,0,0,7.89-.35c2.53-.84,5.5-1.88,5.62-4.53s-2.54-6.24-4.69-8a31.82,31.82,0,0,0-22.71-6.82"/></g><path class="cls-9" d="M253.59,191.47l12.32-22.8A76.37,76.37,0,0,0,271.09,157c1.8-5.21,5.59-11.84,6.15-14.61,1.49-7.31-.36-22.37-45.54-23.26l-7.21.21-9.05,25.3s-3.17,8.61-3.15,11.82c0,5.85,7.43,11.92,2.47,28.81Z"/><path class="cls-12" d="M267.54,165.53l-7,20.91h0a38.89,38.89,0,0,0-24.06-7.36l-6.24.2a38.49,38.49,0,0,1-7.19-.44l-13.89-2.2c2.51-4.31,2-15.4,2.12-18.63a28.65,28.65,0,0,1,4.15-13.43l9.05-25.31h1.74l-7.31,23.11s6.9,14.54,18.08,14.4,22.75-8.24,22.75-8.24l7.61-23.11,1.46.78s-6.6,28.67-6.8,34.86,5.5,4.4,5.5,4.4"/><path class="cls-4" d="M211.2,160.68a2.88,2.88,0,0,0,2.92,2.12c.75-.07,1.52-.43,2.2-.18.94.35,1.39,1.64,2.38,1.7,1.32.09,2-2.14,3.3-2,.63.07,1.1.7,1.74.72.85,0,1.31-.91,1.85-1.55a2.46,2.46,0,0,1,2.72-.78,1.62,1.62,0,0,1,.77,2.15,2.07,2.07,0,0,1-.22.35c-.89.81-2.65.21-3.3,1.22-.41.64-.11,1.58-.59,2.2a1.7,1.7,0,0,1-1.64.39,4.64,4.64,0,0,0-1.74-.18c-.86.19-1.4,1-1.93,1.73s-1.34,1.43-2.2,1.2a3.11,3.11,0,0,1-1.32-1,1.55,1.55,0,0,0-1.5-.59c-.44.14-.72.63-1.17.78a1.18,1.18,0,0,1-1.18-.38,3.26,3.26,0,0,1-.6-1.17,17,17,0,0,1-.75-6.68"/><path class="cls-4" d="M245,165.36a1.1,1.1,0,0,0-1.39-.47,3.51,3.51,0,0,0-1.23,1,2.64,2.64,0,0,1-1.27,1c-1.1.31-2.44-.79-3.45-.18s-.75,1.93-1.51,2.63-1.79.39-2.74.51a2.49,2.49,0,0,0-2.12,1.53,1.62,1.62,0,0,0,1,2.07l.18.05c1,.12,1.78-.85,2.77-.93,1.61-.12,2.81,2.11,4.4,1.71a2.33,2.33,0,0,0,1.45-1.66,10.49,10.49,0,0,1,.72-2.2,1.67,1.67,0,0,1,1.91-.9c.43.18.73.6,1.1.72.87.25,1.57-.69,2.4-1a1.82,1.82,0,0,1,1.84,3.08c-.24.19-.54.36-.64.66-.34,1,2,1.41,1.65,2.41s-2.43,0-2.76,1c-.26.79,1.19,1.59.66,2.25-.27.35-.82.19-1.26.1s-1.1.15-1,.58a.77.77,0,0,0,.44.39l2.92,1.4a4.14,4.14,0,0,0,2.2.6c.78-.08,1.55-.77,1.4-1.54s-1-1.2-1.1-2a1.86,1.86,0,0,1,1.1-1.63,3.5,3.5,0,0,0,1.58-1.29,2.69,2.69,0,0,0-.52-2.47,3.84,3.84,0,0,1-.91-2.4c.12-1,1.1-1.81.83-2.77-.18-.79-1.1-1.19-1.88-1.33a4.89,4.89,0,0,1-2.32-.66c-.32-.27-.55-.63-.88-.88-1.1-.81-2.6-.1-3.73.6"/><path class="cls-4" d="M252.19,152.83a14.67,14.67,0,0,1-.08,2.2c-.13.72,0,1.64.65,1.93.38.15.84,0,1.24.18.87.3.93,1.48,1.34,2.3a2.52,2.52,0,0,0,3.43,1l.24-.15a1.75,1.75,0,0,0,.69-1.22,1.08,1.08,0,0,0-.75-1.1c-.51-.14-1.1.18-1.55-.12-.67-.49.08-1.67-.38-2.36a2.69,2.69,0,0,0-.8-.58,2.31,2.31,0,0,1-.73-2.37,6,6,0,0,1,1.28-2.06S252.54,152.68,252.19,152.83Z"/><path class="cls-4" d="M263.16,178.26c-.73-.3-1.58-.75-1.64-1.53,0-.6.4-1.15.35-1.76-.11-1.25-2.2-1.59-2.29-2.86,0-.59.43-1.1.42-1.72s-.74-1.31-.76-2a1.1,1.1,0,1,1,2.2.15c-.07.44-.41.86-.28,1.29s1.11.69,1.24,1.3-.39.92-.22,1.36a.85.85,0,0,0,.9.4,4.57,4.57,0,0,1,1-.14.6.6,0,0,1,.59.72"/><path class="cls-4" d="M213.78,147.76a3.51,3.51,0,0,1,1.25,2,8.34,8.34,0,0,0,.82,2.27,2,2,0,0,0,2,1c.49-.13,1-.56,1.47-.37s.57.91.7,1.46a2.57,2.57,0,0,0,2.11,1.9,2.28,2.28,0,0,0,2.36-1.47,2,2,0,0,0-1.1-2.48c-.63-.24-1.38-.15-1.9-.57a3.25,3.25,0,0,1-.71-2.09c-.08-.75-.51-1.65-1.27-1.65-.37,0-.7.23-1.1.27-.9.1-1.54-.95-1.49-1.86a24.73,24.73,0,0,1,.67-2.63c.17-.88-.14-2-1-2.2"/><path class="cls-4" d="M220,131.59a2.2,2.2,0,0,0,1.71.95c.4-1,.79-2,1.18-3a2.42,2.42,0,0,0,.2-.79,1,1,0,0,0-1-.93,1.36,1.36,0,0,0-.29.06,1.64,1.64,0,0,0-.62.78,30.88,30.88,0,0,0-1.34,3.2"/><path class="cls-10" d="M229.34,184.2c-.13-.07-.14-.28,0-.47s.31-.26.43-.19.14.29,0,.48S229.46,184.28,229.34,184.2Z"/><path class="cls-9" d="M355.58,42.87l-16.95-3.3c-.61.68-2.53,6.6-3.51,9.63l-.16-.11-27.51,48-38.68,29.71,3.08,27,48.58-37.89a9.23,9.23,0,0,0,2.88-3.83l25.1-54.18-.08-.05.95-1.82C349.47,55.6,355.58,42.87,355.58,42.87Z"/><path class="cls-9" d="M355.31,44a1.05,1.05,0,0,1-.07.33c-.57,1.51-3.81,7.7-4.71,7.63s-2.92-1.69-2.65-2.59,4.32-7.7,4.32-7.7.7-1,2.72-.37C356.16,41.64,355.31,44,355.31,44Z"/><path class="cls-9" d="M352.68,39.81a.72.72,0,0,1-.08.32c-.56,1.52-3.81,7.7-4.71,7.7s-2.92-1.7-2.66-2.61,4.33-7.7,4.33-7.7.7-1,2.72-.36C353.52,37.49,352.68,39.81,352.68,39.81Z"/><path class="cls-9" d="M349.56,36.83a.66.66,0,0,1-.09.33c-.56,1.52-3.81,7.7-4.71,7.63s-2.91-1.69-2.65-2.59,4.32-7.71,4.32-7.71.71-1,2.72-.37C350.4,34.51,349.56,36.83,349.56,36.83Z"/><path class="cls-9" d="M346.42,33.93a1.16,1.16,0,0,1-.08.32c-.58,1.52-3.81,7.71-4.71,7.65s-2.92-1.71-2.66-2.61,4.33-7.7,4.33-7.7.7-1,2.72-.37C347.26,31.61,346.42,33.93,346.42,33.93Z"/><path class="cls-10" d="M348.77,47.47a13.29,13.29,0,0,0,1.82-2.91A12.48,12.48,0,0,0,352,41.48a14.26,14.26,0,0,0-1.82,2.92A13.37,13.37,0,0,0,348.77,47.47Z"/><path class="cls-10" d="M345.05,45.63a26.84,26.84,0,0,0,2.54-4.17,28.43,28.43,0,0,0,2.15-4.4,27,27,0,0,0-2.55,4.18A27.82,27.82,0,0,0,345.05,45.63Z"/><g class="cls-11"><path class="cls-10" d="M341.44,43.43A26.84,26.84,0,0,0,344,39.26a26.69,26.69,0,0,0,2.14-4.4A29.67,29.67,0,0,0,343.58,39,29.68,29.68,0,0,0,341.44,43.43Z"/></g><path class="cls-9" d="M338,52.25l-1-5.73a9.89,9.89,0,0,1,1.51-7.18l1.1-1.62,12,6.85s-3.3,3.88-6.27,1.35l2,5Z"/><path class="cls-10" d="M346.3,51.3c-.07,0,.09-.65,0-1.76a6.29,6.29,0,0,0-2-4l-1.1-1,1.36.52,3.16,1.2h-.07a3.77,3.77,0,0,0,3.8-1.35,1.64,1.64,0,0,0,.16-.29l.15.42c-3.49-1.79-6.6-3.47-8.81-4.8-1.1-.67-1.95-1.23-2.54-1.64a3.84,3.84,0,0,1-.88-.68,31.94,31.94,0,0,1,3.66,1.93c2.2,1.23,5.38,2.82,8.87,4.61l.27.14-.12.27c-.07.14-.14.27-.22.4a3.85,3.85,0,0,1-2.07,1.49,5.34,5.34,0,0,1-2.35.11h-.07l-3.13-1.27.28-.45a6.34,6.34,0,0,1,2,4.4A3.52,3.52,0,0,1,346.3,51.3Z"/><path class="cls-10" d="M349.82,46c.12,0-.15.69,0,1.61a1.21,1.21,0,0,0,.91,1.1,1.79,1.79,0,0,0,1.56-.88c.88-1.27,1.77-2.41,2.32-3.25s.84-1.43.92-1.38-.06.67-.52,1.6a32.24,32.24,0,0,1-2.2,3.43,2.31,2.31,0,0,1-2.21,1.1,1.64,1.64,0,0,1-1.27-1.7,2.73,2.73,0,0,1,.24-1.26C349.69,46.11,349.78,46,349.82,46Z"/><path class="cls-10" d="M273.92,136.4a12.56,12.56,0,0,1-1.1,1.5,12.89,12.89,0,0,0-2.34,8.31,12.72,12.72,0,0,1,.17,1.85,4.32,4.32,0,0,1-.54-1.81,11.13,11.13,0,0,1,2.41-8.58A4.37,4.37,0,0,1,273.92,136.4Z"/><path class="cls-10" d="M272.6,128.41a.27.27,0,0,1-.23-.33.28.28,0,0,1,.31-.25h0a.3.3,0,0,1,.2.37.28.28,0,0,1-.29.21Z"/><path class="cls-10" d="M235.66,157.17c-.16,0,.18-1.59,0-3.48s-.86-3.3-.72-3.4a5.68,5.68,0,0,1,1.26,3.3A5.76,5.76,0,0,1,235.66,157.17Z"/><path class="cls-10" d="M230.36,122.68a.29.29,0,0,1-.22-.32h0a.29.29,0,0,1,.31-.25.28.28,0,0,1,.22.33.27.27,0,0,1-.29.25Z"/><path class="cls-10" d="M235.16,136.67a.27.27,0,0,1-.22-.3v0a.3.3,0,0,1,.31-.26.29.29,0,0,1,.22.33.28.28,0,0,1-.29.26Z"/><path class="cls-10" d="M237.87,142.73a.28.28,0,0,1-.23-.33.27.27,0,0,1,.32-.21.27.27,0,0,1-.09.54Z"/><path class="cls-10" d="M234.05,125.06a.29.29,0,0,1-.22-.33.28.28,0,0,1,.3-.26h0a.3.3,0,0,1-.09.59Z"/><path class="cls-10" d="M226,127.51a.29.29,0,0,1-.26-.31.3.3,0,0,1,.31-.26.28.28,0,0,1,.26.31v0A.29.29,0,0,1,226,127.51Z"/><path class="cls-10" d="M230.56,128.5a.28.28,0,0,1-.2-.36.27.27,0,0,1,.29-.22.28.28,0,0,1,.22.33.27.27,0,0,1-.29.25Z"/><path class="cls-8" d="M258.72,168.59a3.12,3.12,0,0,1-.65.76A13.65,13.65,0,0,1,256,171a16.11,16.11,0,0,1-17.06.46,14.68,14.68,0,0,1-2.2-1.57,3.11,3.11,0,0,1-.68-.72c.07-.07,1.1.91,3.07,2a16.64,16.64,0,0,0,16.67-.44C257.68,169.55,258.64,168.52,258.72,168.59Z"/><path class="cls-12" d="M279.55,338.84l23-1s8.73,23.11,13,23.3l-.3-44.69-35.93.06Z"/><g class="cls-14"><path class="cls-3" d="M300.55,324a1.81,1.81,0,0,1,2.11-1.3,1.76,1.76,0,0,1,1.29,2,1.93,1.93,0,0,1-2.2,1.34,1.82,1.82,0,0,1-1.1-2.28"/></g><g class="cls-14"><path class="cls-3" d="M315.27,316.44h-3.58l1.6,42.91s.88,2,2.28,1.75Z"/></g><path class="cls-8" d="M302.35,338.56c.22,0,.31-1.11,1-2.21s1.61-1.66,1.52-1.86-1.34.14-2.2,1.46S302.15,338.6,302.35,338.56Z"/><path class="cls-8" d="M304.32,343.23c.21,0,.57-.9,1.5-1.65s1.89-1,1.88-1.19-1.24-.34-2.38.61S304.11,343.22,304.32,343.23Z"/><path class="cls-8" d="M310,345.83c.05-.2-1.05-.5-2.21.08s-1.66,1.59-1.47,1.68.81-.55,1.79-1S309.93,346.07,310,345.83Z"/><path class="cls-8" d="M297.08,338.19c.2-.09-.11-1.1,0-2.32s.46-2.2.28-2.31-1,.81-1,2.28S296.92,338.3,297.08,338.19Z"/><path class="cls-8" d="M292.44,338.31a4.32,4.32,0,0,0,0-2.2A10.06,10.06,0,0,0,291,332.5a2.9,2.9,0,0,0-.53-.68,1,1,0,0,0-1.17-.09,1.25,1.25,0,0,0-.49,1,4.05,4.05,0,0,0,.12.84,8.49,8.49,0,0,0,.49,1.39,7.9,7.9,0,0,0,1.37,2.05c1,1,1.78,1.39,1.83,1.31s-.62-.6-1.42-1.65a9,9,0,0,1-1.1-2,8.29,8.29,0,0,1-.41-1.28c-.12-.47-.13-.88.08-1s.11-.05.25,0a2.07,2.07,0,0,1,.38.5,11.06,11.06,0,0,1,1.53,3.37A16.13,16.13,0,0,0,292.44,338.31Z"/><path class="cls-8" d="M292.76,338a3.59,3.59,0,0,0-2.2-.59,7.27,7.27,0,0,0-3.8.91,1.85,1.85,0,0,0-1.1,1.44,1,1,0,0,0,.63.92,3.33,3.33,0,0,0,.82.23,5.46,5.46,0,0,0,1.51,0,5,5,0,0,0,2.3-1c1.15-.88,1.41-1.79,1.34-1.8a8.38,8.38,0,0,1-1.64,1.36,5.27,5.27,0,0,1-2.1.73,4.64,4.64,0,0,1-1.29,0c-.47-.07-.86-.24-.81-.42a1.65,1.65,0,0,1,.72-.79,7.06,7.06,0,0,1,1.22-.56,7.43,7.43,0,0,1,2.2-.45C291.9,337.92,292.76,338.13,292.76,338Z"/><path class="cls-12" d="M183.11,286.65c-2,1.73-3.65,9.6-2.1,11.71s4.06,3.3,6.51,4.34c9.68,4.06,20.53,6.61,30.71,4.09,8.56-2.13,16.12-7.71,24.89-8.55,7.9-.78,15.6,2.33,23.43,3.72,4.23.76,8.74,1,12.71-.65,4.84-2,8.26-6.54,9.74-11.49a23,23,0,0,0-2.27-18.2,23.69,23.69,0,0,0-15.06-10.81c-5.5-1.2-11.12-.43-16.65.34-12.1,1.7-24.2,3.4-36,6.76s-24,5.5-33.28,13.29"/><g class="cls-15"><path d="M183.11,286.65c-2,1.73-3.65,9.6-2.1,11.71s4.06,3.3,6.51,4.34c9.68,4.06,20.53,6.61,30.71,4.09,8.56-2.13,16.12-7.71,24.89-8.55,7.9-.78,15.6,2.33,23.43,3.72,4.23.76,8.74,1,12.71-.65,4.84-2,8.26-6.54,9.74-11.49a23,23,0,0,0-2.27-18.2,23.69,23.69,0,0,0-15.06-10.81c-5.5-1.2-11.12-.43-16.65.34-12.1,1.7-24.2,3.4-36,6.76s-24,5.5-33.28,13.29"/></g><path class="cls-9" d="M206.27,225.89,175.46,312a22.41,22.41,0,0,0,4.66,22.81h0a22.44,22.44,0,0,0,17.61,7.16L285,336.16l.37-15.31L208.64,311l27.7-67.63Z"/><path class="cls-9" d="M238.44,247.63,260.2,429.37l17.44-4.24,2-181.45s-6.4-28.34-27-33Z"/><path class="cls-8" d="M253.59,191.47c21,22.55,33.18,64.06,36.24,89.7-5.76-9.07-14.57-22.39-27.05-15.87-13.59,7.11-11.66,23.11-26.54,26.72-6.78,1.65-14.58,1.38-20.27-2.69-4.48-3.2-7.9-7.91-13.93-9.05-11.51-2.2-16.26,2.52-21.34,10.63l34.63-108.17Z"/><path class="cls-10" d="M208.72,311.41a32.55,32.55,0,0,0-5,2.41,33.6,33.6,0,0,0-4.2,3.61,10.64,10.64,0,0,1,3.9-4.06A10.38,10.38,0,0,1,208.72,311.41Z"/><path class="cls-10" d="M251.34,352.87c-.14,0-1.37-8.75-2.72-19.57s-2.33-19.64-2.2-19.66,1.36,8.75,2.73,19.59S251.49,352.85,251.34,352.87Z"/><path class="cls-10" d="M278.14,363.81a2.25,2.25,0,0,1-.07-.52c0-.42-.07-.91-.11-1.52-.1-1.32-.19-3.23-.27-5.59-.16-4.72-.21-11.24-.05-18.45s.45-13.72.7-18.44c.14-2.29.27-4.18.35-5.58l.12-1.52a2.34,2.34,0,0,1,.08-.53,1.63,1.63,0,0,1,0,.54v1.52c0,1.4-.11,3.3-.17,5.59-.17,4.72-.4,11.23-.55,18.43s-.17,13.71-.1,18.43c0,2.3.06,4.2.08,5.59v1.52A1.35,1.35,0,0,1,278.14,363.81Z"/><path class="cls-12" d="M257,407.31l1.65,29.39-5.5,23.57a3,3,0,0,0,2.24,3.61l.22,0h0a2.94,2.94,0,0,0,2.63-.86c4.4-4.4,20.3-20.9,20.06-23-.28-2.48.38-31.11.38-31.11Z"/><g class="cls-14"><path class="cls-3" d="M255.6,464l22.62-25.87v1.25a4.49,4.49,0,0,1-1,3c-1.8,2.26-6.91,8.38-19,20.79a3,3,0,0,1-2.72.86Z"/></g><g class="cls-14"><path class="cls-3" d="M271.85,428.8a1.83,1.83,0,0,0-.43,2.4,1.77,1.77,0,0,0,2.38.44,1.94,1.94,0,0,0,.44-2.54,1.81,1.81,0,0,0-2.52-.19"/></g><path class="cls-8" d="M262,450.91a6.48,6.48,0,0,0-6.06-2.74c0-.07.33-.31,1-.43a4.78,4.78,0,0,1,4.67,2.12C262,450.44,262,450.88,262,450.91Z"/><path class="cls-8" d="M260,454.91a25.13,25.13,0,0,0-2.65-1.18,25.07,25.07,0,0,0-2.88-.28,3.34,3.34,0,0,1,3.05-.34C259.22,453.56,260.11,454.82,260,454.91Z"/><path class="cls-8" d="M265.67,445.73a30,30,0,0,0-4-2.1c-2.32-.85-4.4-.68-4.4-.88A8.27,8.27,0,0,1,265.67,445.73Z"/><path class="cls-8" d="M265.93,436.75c-.07.19-1.72-.44-3.83-.45s-3.79.55-3.85.37a5.79,5.79,0,0,1,3.85-1A5.88,5.88,0,0,1,265.93,436.75Z"/><path class="cls-8" d="M265.69,428.12a14.6,14.6,0,0,0-4-.59c-2.2.12-3.76,1.27-3.87,1.1s.26-.44.92-.84a6.54,6.54,0,0,1,5.9-.4C265.37,427.72,265.73,428.05,265.69,428.12Z"/><path class="cls-8" d="M261.7,425.88a2.72,2.72,0,0,1-.07-1.1,7.94,7.94,0,0,1,.79-2.94,3.53,3.53,0,0,1,1.42-1.68,1.2,1.2,0,0,1,1.37.23,1.94,1.94,0,0,1,.51,1.31,4.25,4.25,0,0,1-3.61,4.06,4.92,4.92,0,0,1-4.93-2.43,1.71,1.71,0,0,1-.13-1.43,1.17,1.17,0,0,1,1.22-.66,4.08,4.08,0,0,1,2,.95,8.22,8.22,0,0,1,2.08,2.2,2.33,2.33,0,0,1,.48,1,13.19,13.19,0,0,0-2.82-2.86,3.92,3.92,0,0,0-1.74-.78.6.6,0,0,0-.66.36,1.17,1.17,0,0,0,.13.93,4.4,4.4,0,0,0,4.3,2.06,3.7,3.7,0,0,0,3.12-3.4,1.41,1.41,0,0,0-.31-.93.66.66,0,0,0-.76-.14,3,3,0,0,0-1.23,1.4A11.54,11.54,0,0,0,261.7,425.88Z"/><path class="cls-16" d="M287.48,262.91a1.08,1.08,0,0,1-.24-.18l-.62-.6a22.19,22.19,0,0,0-4.66-3.38c-.39-.19-.79-.44-1.22-.63l-1.37-.6a26.42,26.42,0,0,0-6.78-1.63,24.45,24.45,0,0,0-8.39.65,22,22,0,0,0-8.56,4.4,51.39,51.39,0,0,0-7.29,7.89,67.44,67.44,0,0,1-7.71,8.74,20.55,20.55,0,0,1-10.29,5.4,19.47,19.47,0,0,1-10.69-1.65,56.3,56.3,0,0,1-8.56-4.83,72.25,72.25,0,0,0-7.31-4.4,20.72,20.72,0,0,0-11.86-2.38,15,15,0,0,0-4.29,1.34,1.22,1.22,0,0,1,.25-.17,8.24,8.24,0,0,1,.78-.41,12.55,12.55,0,0,1,3.22-1,20.42,20.42,0,0,1,12.11,2.2,72.49,72.49,0,0,1,7.38,4.31,56.74,56.74,0,0,0,8.52,4.74,18.87,18.87,0,0,0,10.42,1.59,20,20,0,0,0,10-5.27,69,69,0,0,0,7.71-8.67,51.92,51.92,0,0,1,7.31-7.87,22,22,0,0,1,8.81-4.4,24.56,24.56,0,0,1,8.54-.6,25.28,25.28,0,0,1,6.84,1.73l1.39.62c.43.21.83.45,1.22.67a19.35,19.35,0,0,1,2.06,1.31,18.31,18.31,0,0,1,2.54,2.2l.6.63A1.43,1.43,0,0,1,287.48,262.91Z"/><path class="cls-8" d="M277.26,71c-.54,2.43.75,4.86,2.11,6.93s2.87,4.25,2.86,6.74c0,4.4-4.83,7.7-4.6,12.11.12,2.35,1.71,4.46,1.7,6.81s-1.53,4.28-3.3,5.75a65.58,65.58,0,0,0-5.34,4.26,40.06,40.06,0,0,0-4.08,5.91,11.19,11.19,0,0,1-5.21,4.76c-3.39,1.24-7.71-.22-10.47,2s-2.66,7-5.81,8.46"/><path class="cls-8" d="M239.13,69.11c.27-2.2,2.58-3.63,4.77-4.13s4.52-.47,6.6-1.44c1.8-.84,3.15-2.39,4.73-3.58a13.8,13.8,0,0,1,22,9.7c.32,3.3-.77,6.92-3.57,8.65-3.31,2-7.47.83-11-.49s-7.7-2.69-11.08-1c-2.06,1-3.44,3-4.87,4.81s-3.17,3.6-5.44,4-5-1.29-4.74-3.58"/><path class="cls-9" d="M247.81,70.87a3.77,3.77,0,0,0-3.88,3.3h0l-5.28,50.44c-.79,5.93,7.35,10.55,13.71,11.35h0c6.43.81,7.1-2.3,8-7.92,1.54-9.39,2.06-12.92,2.06-12.86s8.28-.15,11.51-10.46c1.61-5.12,2.61-13.76,3.2-20.91.54-6.38-2.51-14.76-8.91-15Z"/><path class="cls-8" d="M274,90.24c-.19.15-1.1-.74-2.57-.92s-2.63.41-2.77.21.15-.39.65-.66a3.82,3.82,0,0,1,2.2-.39,3.62,3.62,0,0,1,2,1C273.94,89.83,274.05,90.17,274,90.24Z"/><path class="cls-8" d="M260,87.73c-.18.14-1.1-.76-2.56-1s-2.63.36-2.76.16.15-.39.67-.65a3.72,3.72,0,0,1,2.2-.35,3.56,3.56,0,0,1,2,1C260,87.31,260.14,87.67,260,87.73Z"/><path class="cls-8" d="M264,97.78a9.41,9.41,0,0,1,2.43-.08c.38,0,.74,0,.84-.25a1.88,1.88,0,0,0-.09-1.1c-.21-1-.44-1.95-.68-3a51.07,51.07,0,0,1-1.38-7.76,47.88,47.88,0,0,1,2,7.63l.62,3a2.1,2.1,0,0,1,0,1.48.88.88,0,0,1-.68.45,2.36,2.36,0,0,1-.65,0A9.47,9.47,0,0,1,264,97.78Z"/><path class="cls-10" d="M262.44,115.15a27.08,27.08,0,0,1-13.58-5.84s2.36,7.7,13.06,8.32Z"/><path class="cls-10" d="M262.84,101.2a2.65,2.65,0,0,0-2.2-1.32,2.41,2.41,0,0,0-1.79.64,1.52,1.52,0,0,0-.37,1.71,1.81,1.81,0,0,0,1.84.78,5.7,5.7,0,0,0,2-.84,1.51,1.51,0,0,0,.49-.38.47.47,0,0,0,.07-.53"/><path class="cls-8" d="M259.54,98.15c.24,0,0,1.61,1.2,2.93s2.89,1.4,2.87,1.62-.42.25-1.1.16a3.92,3.92,0,0,1-2.41-1.26,3.44,3.44,0,0,1-.91-2.44C259.19,98.49,259.43,98.13,259.54,98.15Z"/><path class="cls-8" d="M261.31,83.75c-.2.37-1.63,0-3.37-.08s-3.19.22-3.36-.16c-.07-.19.22-.53.83-.83a5.5,5.5,0,0,1,2.59-.49,5.39,5.39,0,0,1,2.54.68C261.13,83.21,261.4,83.57,261.31,83.75Z"/><path class="cls-8" d="M274.72,83.75c-.31.28-1.26-.2-2.46-.4s-2.26-.1-2.45-.48c-.07-.19.14-.5.63-.74a3.31,3.31,0,0,1,2.08-.24,3.41,3.41,0,0,1,1.87.94C274.77,83.24,274.85,83.61,274.72,83.75Z"/><path class="cls-8" d="M235.25,104.48a9.48,9.48,0,0,0,12.69-8.69c.06-2.64-.94-5.51.33-7.81,1.67-3,6.36-3.37,8-6.43,1-1.77.69-4.07,1.75-5.79s3-2.34,4.86-2.72a18.52,18.52,0,0,0,5.5-1.47c1.66-.94,2.91-3,2.2-4.76A102,102,0,0,0,246.74,69a9,9,0,0,0-5,2.27c-1.32,1.45-1.58,3.56-1.78,5.5Q238.5,91.09,237,105.39"/><path class="cls-8" d="M228.25,112.39v-.19a4.51,4.51,0,0,1,0-.52,5.62,5.62,0,0,1,.72-1.94,8.41,8.41,0,0,1,2.2-2.44,14.19,14.19,0,0,1,3.83-2c1.49-.57,3.18-1.1,4.89-1.74a11.12,11.12,0,0,0,4.75-3.3,5.92,5.92,0,0,0,1.24-2.8,16.54,16.54,0,0,0,0-3.3,9.1,9.1,0,0,1,.31-3.56,4.06,4.06,0,0,1,1-1.59,4.87,4.87,0,0,1,1.61-1,32.21,32.21,0,0,1,3.48-1,5.15,5.15,0,0,0,2.8-1.68,6.88,6.88,0,0,0,1.2-3c.21-1.1.3-2.14.47-3.19a9.54,9.54,0,0,1,.94-3,5.17,5.17,0,0,1,2.13-2.09A13.35,13.35,0,0,1,265,73a11.65,11.65,0,0,0,4.12-.88,4.71,4.71,0,0,0,2.2-2.14,3.34,3.34,0,0,0,.35-1.94c-.08-.45-.19-.68-.16-.69a2,2,0,0,1,.27.67,3.37,3.37,0,0,1-.27,2,5,5,0,0,1-2.29,2.33,12.32,12.32,0,0,1-4.22,1,13.21,13.21,0,0,0-5,1.1,4.64,4.64,0,0,0-1.93,1.92,8.93,8.93,0,0,0-.85,2.85c-.17,1-.26,2.11-.47,3.21a7.54,7.54,0,0,1-1.28,3.21,5.93,5.93,0,0,1-3.07,1.87c-1.1.34-2.35.54-3.43,1a3.83,3.83,0,0,0-2.34,2.28,8.74,8.74,0,0,0-.27,3.3,16.2,16.2,0,0,1,0,3.41,6.51,6.51,0,0,1-1.36,3,11.88,11.88,0,0,1-5,3.4c-1.76.69-3.45,1.1-4.93,1.67a14.12,14.12,0,0,0-3.78,1.9,9.08,9.08,0,0,0-2.2,2.3A7.4,7.4,0,0,0,228.25,112.39Z"/><path class="cls-8" d="M257.91,124.23a17.6,17.6,0,0,0,2.06.42,9.72,9.72,0,0,0,5.5-1,9,9,0,0,0,3-2.42,12.45,12.45,0,0,0,1.93-4,15,15,0,0,1,2.12-4.63c1.1-1.47,2.89-2.2,4.4-3.24a7.32,7.32,0,0,0,2.91-8.8,22.62,22.62,0,0,1-1.61-4.29,9.57,9.57,0,0,1,.19-4A20.12,20.12,0,0,1,280.74,87c.35-.58.64-1,.84-1.32a2,2,0,0,1,.33-.44,2.23,2.23,0,0,1-.24.49l-.74,1.38a21.09,21.09,0,0,0-2.2,5.26,9.21,9.21,0,0,0-.12,3.84,23.23,23.23,0,0,0,1.62,4.2,7.7,7.7,0,0,1,.24,5.1,7.86,7.86,0,0,1-3.31,4.4c-1.56,1-3.24,1.77-4.28,3.11a14.94,14.94,0,0,0-2.06,4.41,12.46,12.46,0,0,1-2.06,4.12A9.2,9.2,0,0,1,265.6,124a9.61,9.61,0,0,1-5.68.89,5.42,5.42,0,0,1-.89-.19,3.88,3.88,0,0,1-.63-.21A2.23,2.23,0,0,1,257.91,124.23Z"/><path class="cls-8" d="M250.3,64.48a11,11,0,0,0,5.86-5.7,7.42,7.42,0,0,0-1.3-7.81,5.66,5.66,0,0,0-7.56-.45,14.66,14.66,0,0,0-6.46-1.86,7.94,7.94,0,0,0-6.11,2.44,5.49,5.49,0,0,0-.82,6.29,4.17,4.17,0,0,0-6.23,4.6,5.67,5.67,0,0,0,4.19,3.74,17,17,0,0,0,5.86.15l13.2-1.23"/><path class="cls-8" d="M246.33,56.22a5.39,5.39,0,0,1-.55-1.1A10.08,10.08,0,0,1,245,51.7a5.49,5.49,0,0,1,.43-2.43,4.49,4.49,0,0,1,1.94-2.1,6.15,6.15,0,0,1,3-.75,10,10,0,0,1,3.3.64,14.56,14.56,0,0,1,3,1.45,4.13,4.13,0,0,1,1.77,2.61,5.89,5.89,0,0,1-1.58,4.93,13.33,13.33,0,0,1-2.71,2.2,6.1,6.1,0,0,1-1.11.63,6.46,6.46,0,0,1,1-.8,15.41,15.41,0,0,0,2.55-2.29A5.49,5.49,0,0,0,258,51.21a3.6,3.6,0,0,0-1.58-2.28,14.89,14.89,0,0,0-2.88-1.37,9.46,9.46,0,0,0-3.11-.62,5.55,5.55,0,0,0-2.79.66,4,4,0,0,0-1.78,1.84,5.71,5.71,0,0,0-.47,2.2,11.58,11.58,0,0,0,.65,3.3A7,7,0,0,1,246.33,56.22Z"/><path class="cls-8" d="M208.17,82.9a17.8,17.8,0,0,0,1.34,1.26,6.43,6.43,0,0,0,9-1.14,6.3,6.3,0,0,0,1-1.89A16.66,16.66,0,0,1,221.44,77a4.41,4.41,0,0,1,2-1.47,8.86,8.86,0,0,1,2.45-.47,9.23,9.23,0,0,0,4.46-1,2.78,2.78,0,0,0,1.21-1.64,8.77,8.77,0,0,0,.28-2.1,7,7,0,0,1,.39-2.09,3.71,3.71,0,0,1,1.29-1.61,7.71,7.71,0,0,1,3.39-1.1c1.1-.13,2-.18,2.87-.32a7.34,7.34,0,0,0,2-.61,4.72,4.72,0,0,0,1.45-1.1,1.25,1.25,0,0,1-.26.41,3.75,3.75,0,0,1-1.1.88,7.16,7.16,0,0,1-2.1.72c-.84.17-1.82.24-2.87.39a7.55,7.55,0,0,0-3.18,1.1,3.34,3.34,0,0,0-1.1,1.42,6.83,6.83,0,0,0-.34,2,10.19,10.19,0,0,1-.27,2.2,3.38,3.38,0,0,1-1.41,1.94,9.68,9.68,0,0,1-4.72,1.1,8.59,8.59,0,0,0-2.3.44,3.84,3.84,0,0,0-1.76,1.29A17.73,17.73,0,0,0,220,81.32a7.26,7.26,0,0,1-2.46,3.3,6.82,6.82,0,0,1-3.3,1.26,6.59,6.59,0,0,1-4.82-1.53,4.89,4.89,0,0,1-1-1A1.67,1.67,0,0,1,208.17,82.9Z"/><path class="cls-12" d="M253.58,60.23a7,7,0,0,1-3.51,3,7.18,7.18,0,0,1-4.55.71,22.45,22.45,0,0,0,4.33-1.21A21.94,21.94,0,0,0,253.58,60.23Z"/><path class="cls-10" d="M253.89,90.77a.27.27,0,0,1-.23-.3,0,0,0,0,0,0,0,.27.27,0,0,1,.31-.25.28.28,0,0,1,.22.33.27.27,0,0,1-.3.25Z"/><path class="cls-10" d="M256.82,91.13a.29.29,0,0,1-.28-.31.29.29,0,0,1,.31-.28.3.3,0,0,1,.28.31v0a.28.28,0,0,1-.3.25Z"/><path class="cls-10" d="M255,93.05a.3.3,0,0,1,.09-.59.31.31,0,0,1,.21.37A.31.31,0,0,1,255,93.05Z"/><path class="cls-10" d="M258.9,93.33a.28.28,0,0,1-.26-.31.29.29,0,0,1,.31-.26.3.3,0,0,1,.26.31v0A.29.29,0,0,1,258.9,93.33Z"/><path class="cls-10" d="M260.32,91.33a.28.28,0,0,1-.22-.33.26.26,0,0,1,.3-.23.28.28,0,0,1,.23.31.29.29,0,0,1-.3.25Z"/><path class="cls-10" d="M263.77,88.91a.29.29,0,0,1-.2-.37.27.27,0,0,1,.29-.21.29.29,0,0,1,.21.36A.31.31,0,0,1,263.77,88.91Z"/><path class="cls-10" d="M269.26,92.09a.29.29,0,0,1-.22-.33.27.27,0,1,1,.24.33Z"/><path class="cls-10" d="M271.85,92.23a.28.28,0,0,1-.22-.33.29.29,0,0,1,.31-.25.27.27,0,0,1,.22.32v0a.28.28,0,0,1-.31.24Z"/><path class="cls-10" d="M273.2,95.26a.29.29,0,0,1-.22-.33.29.29,0,0,1,.3-.26h0a.28.28,0,0,1,.22.33.27.27,0,0,1-.29.25Z"/><path class="cls-10" d="M263.66,92.82a.27.27,0,0,1-.22-.3v0a.28.28,0,0,1,.3-.26h0a.29.29,0,0,1,.22.33.28.28,0,0,1-.29.26Z"/><path class="cls-10" d="M263.78,84.89a.29.29,0,0,1-.23-.33.28.28,0,0,1,.28-.27.27.27,0,0,1,.27.27.22.22,0,0,1,0,.08.27.27,0,0,1-.29.25Z"/><path class="cls-10" d="M266.66,85a.28.28,0,0,1-.26-.31.28.28,0,0,1,.31-.26.29.29,0,0,1,.26.31v0A.28.28,0,0,1,266.66,85Z"/><path class="cls-10" d="M270.08,94.79a.29.29,0,0,1-.22-.33.27.27,0,0,1,.3-.25h0a.31.31,0,0,1,.24.33A.3.3,0,0,1,270.08,94.79Z"/><path class="cls-10" d="M263.24,81a.3.3,0,0,1-.22-.33.28.28,0,0,1,.28-.28.27.27,0,0,1,.27.28.17.17,0,0,1,0,.07A.3.3,0,0,1,263.24,81Z"/><path class="cls-10" d="M265.75,82.74a.3.3,0,0,1-.2-.37.29.29,0,0,1,.29-.22.29.29,0,0,1,.22.33.28.28,0,0,1-.29.26Z"/><path class="cls-10" d="M267.59,80.63a.28.28,0,0,1-.23-.33.29.29,0,0,1,.32-.25h0a.3.3,0,0,1,.21.37.29.29,0,0,1-.3.21Z"/><path class="cls-16" d="M246.28,65a3.2,3.2,0,0,1-.09,1,14.32,14.32,0,0,1-.75,2.55c-.39,1-.95,2.27-1.36,3.65a7.73,7.73,0,0,0-.16,4.59,8,8,0,0,0,2.55,3.86,9.58,9.58,0,0,0,3.37,1.7,23.41,23.41,0,0,0,3.53.58,2.49,2.49,0,0,1-1,.1,10.41,10.41,0,0,1-2.66-.32A9.57,9.57,0,0,1,246.14,81a8.23,8.23,0,0,1-2.78-4,7.94,7.94,0,0,1,.2-4.89c.46-1.43,1.1-2.63,1.48-3.65C246,66.33,246.19,65,246.28,65Z"/><path class="cls-16" d="M274.05,69.71s.08-.48.13-1.32a8.78,8.78,0,0,0-.54-3.52,7.91,7.91,0,0,0-9.35-5.15,8,8,0,0,0-3,1.31,13.47,13.47,0,0,0-2.2,2.2c-1.3,1.54-2.81,2.89-4.4,3.12a3.13,3.13,0,0,1-2.12-.34,3,3,0,0,1-1.17-1.1,2,2,0,0,1-.27-1,.83.83,0,0,1,.05-.35,2.74,2.74,0,0,0,2.93,2.51,4.34,4.34,0,0,0,.52-.09,5.09,5.09,0,0,0,2.2-1.1,14.69,14.69,0,0,0,2-2,14.24,14.24,0,0,1,2.3-2.29,8.47,8.47,0,0,1,13.13,4.17,8.31,8.31,0,0,1,.38,3.67,5.63,5.63,0,0,1-.21,1C274.16,69.63,274.12,69.72,274.05,69.71Z"/><path class="cls-8" d="M276.6,102.56c1.68,1,1.69,3.5,1,5.33s-2,3.49-2.2,5.44c-.16,1.6.41,3.19.48,4.79a8.16,8.16,0,0,1-2.86,6.61c-1.88,1.57-4.4,2.2-6.43,3.55a18.74,18.74,0,0,0-5.37,6.11,46.46,46.46,0,0,1-4.53,6.77,10.46,10.46,0,0,1-7,3.79,14.78,14.78,0,0,1-5.88-1.35,5.43,5.43,0,0,1-3.14-2.2,4.17,4.17,0,0,1,0-3.18,9.43,9.43,0,0,1,5.5-5.75,31,31,0,0,1,5.81-1.1,8.5,8.5,0,0,0,5.24-2.51c1.63-1.93,1.6-4.69,1.85-7.21s1-5.74,3.4-6.54c0,0,2.31,3.3,6.37-.21S276.6,102.56,276.6,102.56Z"/><path class="cls-12" d="M235.54,199.37a4.82,4.82,0,0,0-5.23,1.1,4.13,4.13,0,0,0-.31,5.2,4.73,4.73,0,0,0,2.35,1.51,3.65,3.65,0,0,0,2.64-.12,4.19,4.19,0,0,0,1.77-2.39,5.06,5.06,0,0,0,.3-2.9c-.26-1-.59-2.38-1.58-2.39"/><path class="cls-12" d="M232.31,206.65c.49,6.49,2.2,13.11,6.43,18.09s11.16,8,17.41,6.12c4-1.19,7.31-4.17,11.28-5.58a15.76,15.76,0,0,1,14.88,2.53c.33-2.4,1.61-4.54,2.58-6.77s1.65-4.78.76-7a8.66,8.66,0,0,0-4.28-4.16,18.49,18.49,0,0,0-16.74.09c-3.7,1.94-6.74,5.16-10.77,6.25a12.47,12.47,0,0,1-11.26-2.86,15.79,15.79,0,0,1-5.06-10.66"/><path class="cls-12" d="M231.06,204.16c-5.89,2.58-9.49,15.78-9.36,22.21s2.35,12.61,3.31,19,.39,13.51-4.06,18.13c0,0,17.66-4,18.82-4.64,4.78-2.6,3.3-13.2,2-18.49s-5.44-9.4-7.88-14.3a23.65,23.65,0,0,1,1.1-22.65"/><path class="cls-12" d="M213.66,187.79a14.87,14.87,0,0,0-3.23,4.28,5,5,0,0,0,.44,5.12,7.24,7.24,0,0,0,2.41,1.63,84,84,0,0,0,18.61,6.43,16.49,16.49,0,0,0-6.53-11.34,32.5,32.5,0,0,0-11.7-6.12"/><path class="cls-12" d="M233.91,205a6.27,6.27,0,0,1,3-5.64,17,17,0,0,1,6.5-1.87c4.27-.62,10.36-2.47,14.62-3.09l5.19,8.14S234.23,209.91,233.91,205Z"/><path class="cls-8" d="M229.69,205c-.05,0-.25-.27-.39-.8a4.51,4.51,0,0,1,1.16-4.07c.41-.39.73-.53.77-.48a11.43,11.43,0,0,0-1.34,2.51A11.75,11.75,0,0,0,229.69,205Z"/><path class="cls-8" d="M232.86,211.14a8.23,8.23,0,0,1-.61-2.59,18.42,18.42,0,0,1-.2-2.88q0-.82.06-1.71a2.48,2.48,0,0,1,.24-1,2,2,0,0,1,.71-.77,2.63,2.63,0,0,1,1.95-.36,3.23,3.23,0,0,1,1.56.94,7.19,7.19,0,0,1,1.39,2.6,14.76,14.76,0,0,1,.83,2.51,12.64,12.64,0,0,1-1.2-2.38,7.4,7.4,0,0,0-1.37-2.39,2.84,2.84,0,0,0-1.32-.76,2,2,0,0,0-1.54.29,1.55,1.55,0,0,0-.54.57,2,2,0,0,0-.18.76c0,.58-.09,1.1-.1,1.67a27.13,27.13,0,0,0,.08,2.85C232.74,210.14,233,211.13,232.86,211.14Z"/><path class="cls-8" d="M235.4,202.14c-.13.1-.88-.89-2.2-1.54s-2.55-.67-2.55-.84a3.44,3.44,0,0,1,2.8.35C234.92,200.84,235.54,202.1,235.4,202.14Z"/><path class="cls-8" d="M237.74,205.91c-.07,0,.14-.4.33-1a4.88,4.88,0,0,0-.89-4.63c-.41-.5-.73-.76-.69-.83s.44.09,1,.56a4.39,4.39,0,0,1,1.3,2.37,4.31,4.31,0,0,1-.33,2.67C238.13,205.66,237.8,206,237.74,205.91Z"/><path class="cls-8" d="M232.58,203.88c0,.15-.91,0-1.85.39s-1.53,1-1.65.9.33-1,1.46-1.4S232.63,203.75,232.58,203.88Z"/><path class="cls-8" d="M248.82,200.81a41.09,41.09,0,0,0-5.32.11,38.42,38.42,0,0,0-5.14,1.33,12.57,12.57,0,0,1,10.46-1.44Z"/><path class="cls-8" d="M244.54,203.76a5,5,0,0,1-3.16.48,5.15,5.15,0,0,1-3-1.1c.07-.15,1.38.36,3.07.51S244.5,203.6,244.54,203.76Z"/><path class="cls-8" d="M230,202.21c-.07,0-.3-.4-.81-1a8.15,8.15,0,0,0-2.34-1.83,22.19,22.19,0,0,0-2.8-1.19c-.74-.26-1.2-.46-1.18-.54a3.13,3.13,0,0,1,1.29.18,12.41,12.41,0,0,1,2.94,1.1,6.83,6.83,0,0,1,2.4,2.07A3.19,3.19,0,0,1,230,202.21Z"/><path class="cls-8" d="M225.63,231.62a4.3,4.3,0,0,1-.36-1.1,12.21,12.21,0,0,1-.31-1.33,16.57,16.57,0,0,1-.28-1.79,28.5,28.5,0,0,1-.26-4.71,35.7,35.7,0,0,1,.68-5.73,35,35,0,0,1,1.71-5.5,29.06,29.06,0,0,1,2.15-4.19,16.16,16.16,0,0,1,1-1.52c.29-.42.58-.8.81-1.1a5.32,5.32,0,0,1,.78-.86c.09.06-1,1.35-2.26,3.65a36.74,36.74,0,0,0-2,4.2,38.27,38.27,0,0,0-1.64,5.44,36.85,36.85,0,0,0-.71,5.64,34.21,34.21,0,0,0,.13,4.64C225.32,230,225.74,231.6,225.63,231.62Z"/><path class="cls-8" d="M254.39,225.59a4.4,4.4,0,0,1-1.3.14,11.89,11.89,0,0,1-3.51-.47,17.8,17.8,0,0,1-9.33-6.83,32.17,32.17,0,0,1-4.65-10.67c-.37-1.45-.61-2.63-.77-3.44a6.16,6.16,0,0,1-.17-1.29,6.69,6.69,0,0,1,.37,1.23c.22.81.52,2,.94,3.39a34.47,34.47,0,0,0,4.72,10.47,16.31,16.31,0,0,0,13.7,7.47Z"/><path class="cls-8" d="M286.15,215.75a3.93,3.93,0,0,1,0,1.28,16.89,16.89,0,0,1-.57,3.46,18.45,18.45,0,0,1-.78,2.31,10.14,10.14,0,0,1-1.34,2.49,2.94,2.94,0,0,1-1.33.92,3.67,3.67,0,0,1-1.68,0c-1.1-.24-2.06-.63-3.16-.86a19.68,19.68,0,0,0-6.21-.47,18.3,18.3,0,0,0-5,1.11,37.68,37.68,0,0,0-4.28,2.1,7.1,7.1,0,0,1,1-.8,18.73,18.73,0,0,1,3.09-1.66,17.72,17.72,0,0,1,5.06-1.26,19.21,19.21,0,0,1,6.37.44c1.1.22,2.2.64,3.16.86a2.85,2.85,0,0,0,1.42,0,2.39,2.39,0,0,0,1.1-.75,9.61,9.61,0,0,0,1.31-2.34c.34-.79.61-1.54.83-2.2A36.22,36.22,0,0,0,286.15,215.75Z"/><path class="cls-8" d="M264,202.59a4.21,4.21,0,0,1-1,.39c-.64.22-1.55.5-2.69.82a82.1,82.1,0,0,1-18.36,2.9c-1.19,0-2.2.05-2.82,0a4,4,0,0,1-1-.08,32.84,32.84,0,0,1,3.83-.35c2.36-.19,5.62-.51,9.2-1.1s6.77-1.26,9.08-1.81A36.65,36.65,0,0,1,264,202.59Z"/><path class="cls-4" d="M241.36,200.82c-.09,0-.15-.67-.46-1.42s-.75-1.27-.69-1.33.64.38,1,1.2A2,2,0,0,1,241.36,200.82Z"/><path class="cls-4" d="M244.6,206.08a10.45,10.45,0,0,0,.2-2.73,11.42,11.42,0,0,0-.77-2.62,4.1,4.1,0,0,1,1.1,2.59A4.05,4.05,0,0,1,244.6,206.08Z"/><path class="cls-4" d="M250.63,205.43a9.31,9.31,0,0,0-2.35-8.89,3.79,3.79,0,0,1,1.1,1,7.85,7.85,0,0,1,1.56,3.07,8.13,8.13,0,0,1,.17,3.47A3.4,3.4,0,0,1,250.63,205.43Z"/><path class="cls-4" d="M258.06,203.68a11.39,11.39,0,0,0-3.3-8.67,4.28,4.28,0,0,1,1.1.93,9.13,9.13,0,0,1,1.81,2.94,9.33,9.33,0,0,1,.61,3.39A4,4,0,0,1,258.06,203.68Z"/><path class="cls-4" d="M226,198.71a1.89,1.89,0,0,1,.07-1.67c.38-.9,1.1-1.28,1.16-1.19a9.07,9.07,0,0,0-.86,1.32A9.88,9.88,0,0,0,226,198.71Z"/><path class="cls-4" d="M221.34,201.84a2.94,2.94,0,0,1,.28-2.28,3,3,0,0,1,1.59-1.66,10.05,10.05,0,0,0-1.3,1.8A9.94,9.94,0,0,0,221.34,201.84Z"/><path class="cls-4" d="M215.61,199.55a3.87,3.87,0,0,1,0-1.59,8.38,8.38,0,0,1,4.1-6.3,4.27,4.27,0,0,1,1.49-.59,13.25,13.25,0,0,0-1.37.79,9,9,0,0,0-4,6.13C215.64,199,215.66,199.55,215.61,199.55Z"/><path class="cls-4" d="M211.33,198.16a1.26,1.26,0,0,1-.16-.42,10.1,10.1,0,0,1-.22-1.2,10.2,10.2,0,0,1,.43-4,9.74,9.74,0,0,1,2-3.47,8.63,8.63,0,0,1,.87-.84,1.78,1.78,0,0,1,.36-.25s-.44.45-1.1,1.24a10.85,10.85,0,0,0-2.33,7.27C211.23,197.53,211.33,198.13,211.33,198.16Z"/><path class="cls-4" d="M227.62,209.55a5.14,5.14,0,0,1-.59-.32c-.31-.17-.59-.26-.58-.35s.36-.15.73,0S227.7,209.5,227.62,209.55Z"/><path class="cls-4" d="M231.86,211.21a3.09,3.09,0,0,1-2.29.78,3,3,0,0,1-2.28-.85,7.79,7.79,0,0,0,2.28.52A8.16,8.16,0,0,0,231.86,211.21Z"/><path class="cls-4" d="M225.76,214c-.08,0-.24-.31-.64-.47s-.75-.06-.8-.13.38-.4.93-.17S225.86,214,225.76,214Z"/><path class="cls-4" d="M231.24,216.76s-.35-.15-.92-.33a4.3,4.3,0,0,0-2.28-.07,4.17,4.17,0,0,0-2,1.1c-.41.42-.6.76-.65.72a1.78,1.78,0,0,1,.48-.88,3.92,3.92,0,0,1,4.49-1.1A1.86,1.86,0,0,1,231.24,216.76Z"/><path class="cls-4" d="M224.09,222.45a1.38,1.38,0,0,1-1.35-.11c-.73-.37-1-1-.89-1a9.14,9.14,0,0,0,1,.75C223.5,222.35,224.08,222.35,224.09,222.45Z"/><path class="cls-4" d="M232.5,224.39a10.93,10.93,0,0,0-4.07.19,11.37,11.37,0,0,0-3.59,1.9,7.06,7.06,0,0,1,7.7-2.09Z"/><path class="cls-4" d="M235.92,230.53a1.12,1.12,0,0,1-.2.53,3.78,3.78,0,0,1-1,1.16,5.85,5.85,0,0,1-2.08,1,12.5,12.5,0,0,1-2.79.32h-2.78a9.74,9.74,0,0,0-2.2.37,9.08,9.08,0,0,0-1.85.91,1.9,1.9,0,0,1,.41-.39,4.58,4.58,0,0,1,1.38-.73,8.21,8.21,0,0,1,2.2-.46c.87-.08,1.8-.06,2.79-.08a11.8,11.8,0,0,0,2.72-.28,5.78,5.78,0,0,0,2-.9A5.07,5.07,0,0,0,235.92,230.53Z"/><path class="cls-4" d="M240.64,238.07a2.88,2.88,0,0,1-.43.56,10.6,10.6,0,0,1-1.35,1.33,15.42,15.42,0,0,1-11.75,3.53,9.83,9.83,0,0,1-1.87-.37,3,3,0,0,1-.66-.23c0-.06,1,.23,2.55.37a16.62,16.62,0,0,0,11.63-3.49C239.94,238.79,240.59,238,240.64,238.07Z"/><path class="cls-4" d="M242,246.93a2.18,2.18,0,0,1-.44.57,16.55,16.55,0,0,1-1.36,1.42,10.81,10.81,0,0,1-5.74,3,11.45,11.45,0,0,1-3.6-.21c-1.1-.2-2.05-.4-2.86-.48a11.92,11.92,0,0,0-2.67,0A2.58,2.58,0,0,1,226,251a8.2,8.2,0,0,1,2,0c.84.07,1.81.24,2.89.43a12.08,12.08,0,0,0,3.5.17,11,11,0,0,0,5.64-2.83C241.27,247.66,242,246.88,242,246.93Z"/><path class="cls-4" d="M235.84,207.28c0,.1-.82-.07-1.8.12s-1.68.6-1.74.53A3.28,3.28,0,0,1,235.84,207.28Z"/><path class="cls-4" d="M239.94,209.38c.09,0-.23.84-1.17,1.23a1.7,1.7,0,0,1-1.69,0,5.21,5.21,0,0,0,1.56-.31A7.5,7.5,0,0,0,239.94,209.38Z"/><path class="cls-4" d="M238.33,215.6a3.09,3.09,0,0,0-3.7,2.31,1.56,1.56,0,0,1,.07-.75,2.72,2.72,0,0,1,1.1-1.44,2.66,2.66,0,0,1,1.78-.39C238.09,215.4,238.34,215.55,238.33,215.6Z"/><path class="cls-4" d="M245.37,215a4.08,4.08,0,0,1-4.4,3,7.21,7.21,0,0,0,2.57-1A7.5,7.5,0,0,0,245.37,215Z"/><path class="cls-4" d="M245.83,223.29a6.85,6.85,0,0,0-.91.1,3.6,3.6,0,0,0-1.76,1.19,6.4,6.4,0,0,0-1.29,1.75,2.17,2.17,0,0,0,0,.88,1,1,0,0,1-.18-.94,5,5,0,0,1,1.26-1.91,3.51,3.51,0,0,1,2-1.2C245.5,223.07,245.85,223.26,245.83,223.29Z"/><path class="cls-4" d="M253.62,217.38a2.89,2.89,0,0,1,.38,1.25,5.92,5.92,0,0,1-2.4,5.65,2.84,2.84,0,0,1-1.18.58,9.39,9.39,0,0,0,1-.77,6.43,6.43,0,0,0,1.84-2.42,6.56,6.56,0,0,0,.48-3C253.71,217.88,253.56,217.4,253.62,217.38Z"/><path class="cls-4" d="M261.59,226.19s.26-.73.47-1.95a10.47,10.47,0,0,0-2.63-8.93c-.85-.91-1.5-1.35-1.47-1.4a1.83,1.83,0,0,1,.49.28,9.11,9.11,0,0,1,1.1,1,9.79,9.79,0,0,1,2.2,10.56C261.7,226,261.62,226.21,261.59,226.19Z"/><path class="cls-4" d="M272.65,223.69a22.38,22.38,0,0,1,.27-2.45,21.15,21.15,0,0,0,0-5.84,9.33,9.33,0,0,0-2.61-5.08,9.7,9.7,0,0,0-2-1.38,1.69,1.69,0,0,1,.62.21,5.69,5.69,0,0,1,1.52,1,9.21,9.21,0,0,1,2.78,5.2,18.5,18.5,0,0,1-.08,5.94c-.11.74-.23,1.35-.32,1.77A2.94,2.94,0,0,1,272.65,223.69Z"/><path class="cls-4" d="M267.17,205.83a2.48,2.48,0,0,1-1.1.41c-.61.15-1.18.2-1.2.11s.49-.27,1.1-.41S267.15,205.74,267.17,205.83Z"/><path class="cls-4" d="M292.32,228.28a3,3,0,0,1-.55.41,10.27,10.27,0,0,1-1.62.9,14.24,14.24,0,0,1-5.95,1.3,14.59,14.59,0,0,1-6-1.24,11.62,11.62,0,0,1-1.62-.89,2.71,2.71,0,0,1-.55-.41s.84.5,2.27,1.1a15.38,15.38,0,0,0,11.73,0C291.48,228.78,292.27,228.23,292.32,228.28Z"/><path class="cls-4" d="M294.51,239.09h-2a30.38,30.38,0,0,0-4.86.33,29.12,29.12,0,0,0-4.72,1.19,18.16,18.16,0,0,1-1.93.67,1.69,1.69,0,0,1,.47-.27,14.11,14.11,0,0,1,1.38-.61,22.44,22.44,0,0,1,4.75-1.3,23.85,23.85,0,0,1,4.92-.24A10,10,0,0,1,294,239,2,2,0,0,1,294.51,239.09Z"/><path class="cls-4" d="M284.48,221.21c-.05,0,.12-.69.12-1.81a12.59,12.59,0,0,0-.78-4.25,28,28,0,0,0-1.85-4,11.66,11.66,0,0,1-.81-1.62,10.19,10.19,0,0,1,1,1.51,22.49,22.49,0,0,1,1.95,4,11.18,11.18,0,0,1,.71,4.4,7.57,7.57,0,0,1-.18,1.34A1.33,1.33,0,0,1,284.48,221.21Z"/><path class="cls-4" d="M296.39,247.16a3.94,3.94,0,0,1-.45.3,11.91,11.91,0,0,1-1.33.68,17.77,17.77,0,0,1-4.75,1.28,16.91,16.91,0,0,1-4.92-.1,10.4,10.4,0,0,1-1.45-.31,2,2,0,0,1-.52-.19c0-.06.77.13,2,.28a19.91,19.91,0,0,0,9.54-1.21C295.67,247.48,296.37,247.11,296.39,247.16Z"/><g class="cls-15"><path d="M284.42,254.25a18.46,18.46,0,0,0,2.05-17.31,23.08,23.08,0,0,0-12.42-12.55A251.16,251.16,0,0,0,284,254.3"/></g><g class="cls-15"><path d="M235,203.88a26.3,26.3,0,0,0,5.8,11.1,18,18,0,0,0,10.89,5.9,9.14,9.14,0,0,1,3,.6A2.27,2.27,0,0,1,256,224c-.38,1.23-2,1.51-3.3,1.41a18.12,18.12,0,0,1-12.29-6.6,21.57,21.57,0,0,1-4.68-13.28"/></g><g class="cls-15"><path d="M235.26,202.29a2,2,0,0,1,2.13-.47,5.52,5.52,0,0,1,1.9,1.27,6.41,6.41,0,0,0,1.89,1.29c.56.2,1.3.36,1.41.94a.9.9,0,0,1-.5.9,2.73,2.73,0,0,1-1.1.26,4.59,4.59,0,0,1-2.69-.27,5.74,5.74,0,0,1-1.63-1.77,2.81,2.81,0,0,0-1.93-1.33"/></g><g class="cls-15"><path d="M229.29,204.49a30.27,30.27,0,0,0-6.23,26.69,1.69,1.69,0,0,0,.66,1.1,1.23,1.23,0,0,0,1.56-.71v0a3.83,3.83,0,0,0,0-2,32.28,32.28,0,0,1,6.47-24.7"/></g></g><g id="freepik--Plant--inject-307"><path class="cls-12" d="M443.66,417c1.1-3.65,3.31-7.19,6.82-8.7s7.85-.67,11.57.68,7.39,3.16,11.34,3.41,8.41-1.64,9.6-5.41c1.1-3.55-1-7.35-3.72-9.9a23.42,23.42,0,0,0-38.44,9.16"/><g class="cls-13"><path d="M443.66,417c1.1-3.65,3.31-7.19,6.82-8.7s7.85-.67,11.57.68,7.39,3.16,11.34,3.41,8.41-1.64,9.6-5.41c1.1-3.55-1-7.35-3.72-9.9a23.42,23.42,0,0,0-38.44,9.16"/></g><path class="cls-12" d="M412.28,432.89c-5.8-5.5-5.5-15.1-2.62-22.57s9.21-13.2,16.27-16.95a51.46,51.46,0,0,1,44.89-1.47A21.32,21.32,0,0,0,453.59,402c-3.18,5.27-3.88,11.68-6.51,17.26a27.19,27.19,0,0,1-34.8,13.6"/><path class="cls-12" d="M409.49,399.78c-6.42-7.58-7.28-19.75-6.33-29.64s3.23-19.81,1.67-29.66c-.92-5.82-3.18-11.36-3.94-17.21s.32-12.43,4.84-16.2c5.21-4.33,13.38-3.3,18.8.75s8.54,10.46,10.83,16.83c5,14,6.87,29.5,2.75,43.77s-13.83,27.05-28.06,31.36"/><path class="cls-8" d="M406.41,462a6.31,6.31,0,0,1,0-.87v-2.51c.08-2.2.29-5.33.78-9.19A125.61,125.61,0,0,1,409.67,436a62.29,62.29,0,0,1,6.14-15.56,65,65,0,0,1,10-13.41,63.84,63.84,0,0,1,10.52-8.74c1.59-1.1,3.14-1.95,4.49-2.73s2.56-1.31,3.54-1.78l2.31-1a5.73,5.73,0,0,1,.82-.3,5.13,5.13,0,0,1-.77.4l-2.27,1.1c-1,.5-2.14,1.1-3.49,1.85a43.76,43.76,0,0,0-4.4,2.78,66.44,66.44,0,0,0-20.28,22.13c-5.91,10.34-7.53,21.2-8.69,28.81-.54,3.84-.81,7-.95,9.14-.07,1-.11,1.89-.14,2.5A5.72,5.72,0,0,1,406.41,462Z"/><path class="cls-12" d="M351,369.93c-11.88,7.16-11.85,13.69-9.9,19.81s9.29,10.44,15.33,8.13c3.42-1.3,5.89-4.27,8-7.25s4.1-6.19,7.06-8.33,7.26-3,10.24-.84"/><g class="cls-13"><path d="M351,369.93c-11.88,7.16-11.85,13.69-9.9,19.81s9.29,10.44,15.33,8.13c3.42-1.3,5.89-4.27,8-7.25s4.1-6.19,7.06-8.33,7.26-3,10.24-.84"/></g><path class="cls-12" d="M342.11,377.73c3.1-4.29,10.78-5.5,15.64-3.39s8.39,6.4,11.57,10.63,6.26,8.72,10.68,11.67,10.54,4,14.93,1.1a12.86,12.86,0,0,0,5.07-8.81,29.14,29.14,0,0,0-.69-10.36c-1.05-5-2.76-10.18-6.75-13.35-4.4-3.53-10.62-3.7-16.28-3.51-6.52.21-13.12.69-19.24,3s-12.33,7.13-14.93,13.1"/><path class="cls-8" d="M396.53,452.46a1.22,1.22,0,0,1,0-.27v-.75c0-.72,0-1.71-.09-2.95-.08-2.61-.19-6.31-.32-10.85s-.33-10-.66-16.08-.78-12.69-1.71-19.61a62.43,62.43,0,0,0-2-10,52.72,52.72,0,0,0-3.64-8.71,50.31,50.31,0,0,0-4.6-7.21,46.65,46.65,0,0,0-5-5.5,36.75,36.75,0,0,0-8.89-6.07c-.58-.26-1.1-.52-1.54-.7l-1.24-.47-.71-.3a1.28,1.28,0,0,1-.24-.11.72.72,0,0,1,.25.07l.74.23,1.18.4c.46.18,1,.42,1.57.68a35.23,35.23,0,0,1,9.06,6,46.77,46.77,0,0,1,5.12,5.5A51.16,51.16,0,0,1,388.5,383a53.19,53.19,0,0,1,3.71,8.81,61.5,61.5,0,0,1,2,10c.93,6.95,1.36,13.6,1.67,19.66s.46,11.51.55,16.08.13,8.29.15,10.85v3.72A.69.69,0,0,1,396.53,452.46Z"/><path class="cls-8" d="M400.8,457.84a34.44,34.44,0,0,1-1.29-5.11,53.12,53.12,0,0,1-.55-14.3,95.49,95.49,0,0,1,4.53-20.8c2.44-7.65,5.74-15.82,8.57-24.61a112.8,112.8,0,0,0,3.42-13,118.2,118.2,0,0,0,1.69-12.43,181.38,181.38,0,0,0,.37-21.24c-.2-6.06-.53-10.94-.73-14.31l-.23-3.89v-1a1.93,1.93,0,0,1,0-.34,1.93,1.93,0,0,1,0,.34c0,.26.06.59.1,1,.08.92.19,2.2.33,3.88.27,3.38.64,8.27.89,14.3a174.17,174.17,0,0,1-.26,21.31,106.67,106.67,0,0,1-5.07,25.56c-2.84,8.8-6.16,17-8.63,24.61a96.9,96.9,0,0,0-4.62,20.67,55.75,55.75,0,0,0,.37,14.31c.3,1.66.56,3,.81,3.8.1.42.17.74.23,1A1.43,1.43,0,0,1,400.8,457.84Z"/><polygon class="cls-16" points="430.27 463.21 374.47 463.21 373.19 452.47 430.27 452.47 430.27 463.21"/><polygon class="cls-16" points="380.46 461.99 387.43 494.21 417.75 494.21 424.28 461.99 380.46 461.99"/><path class="cls-16" d="M430.27,463.21c0,.14-12.27.23-27.4.19s-27.4-.2-27.4-.34,12.26-.24,27.4-.19S430.27,463.07,430.27,463.21Z"/><path class="cls-8" d="M420.69,479.11a22.58,22.58,0,0,0-4.91-2.82,17.74,17.74,0,0,0-6-1.2,21,21,0,0,0-7.36,1.36c-2.54.86-4.91,1.86-7.22,2.41A17.12,17.12,0,0,1,389,479a13.19,13.19,0,0,1-4-1.26,7.59,7.59,0,0,1-1-.62,1.57,1.57,0,0,1-.31-.26s.49.27,1.37.69a14.1,14.1,0,0,0,4,1.1,17.57,17.57,0,0,0,6.09-.28c2.2-.57,4.61-1.58,7.17-2.45a21,21,0,0,1,7.53-1.33,17.05,17.05,0,0,1,6.1,1.34,15.54,15.54,0,0,1,3.63,2.12,7.81,7.81,0,0,1,.87.75Q420.71,479.1,420.69,479.11Z"/><path class="cls-3" d="M420.27,481.27a25.48,25.48,0,0,0-4.72-2.79,16.3,16.3,0,0,0-5.77-1.19,21.08,21.08,0,0,0-7.11,1.29c-2.45.82-4.76,1.77-7,2.37a18.46,18.46,0,0,1-6,.67,10,10,0,0,1-3.93-1.1,5.76,5.76,0,0,1-.94-.6c-.2-.15-.3-.24-.29-.25s.46.27,1.32.66a10.49,10.49,0,0,0,3.86.87,18.45,18.45,0,0,0,5.86-.77c2.2-.6,4.4-1.57,6.93-2.4a20.55,20.55,0,0,1,7.28-1.26,15.38,15.38,0,0,1,5.9,1.33,15.87,15.87,0,0,1,3.49,2.1,8.28,8.28,0,0,1,.83.74A2.28,2.28,0,0,1,420.27,481.27Z"/><path class="cls-3" d="M421.24,477a26.94,26.94,0,0,0-5-3,18.83,18.83,0,0,0-6.13-1.47,20,20,0,0,0-7.58,1.33,66.07,66.07,0,0,1-7.48,2.46,19.46,19.46,0,0,1-6.46,0,14.32,14.32,0,0,1-4.14-1.33,7,7,0,0,1-1-.61c-.22-.17-.32-.25-.31-.28s.48.29,1.41.71a15.82,15.82,0,0,0,4.11,1.1,19.64,19.64,0,0,0,6.31-.12,73.79,73.79,0,0,0,7.4-2.47A19.71,19.71,0,0,1,410.1,472a18.86,18.86,0,0,1,10,3.85,10.92,10.92,0,0,1,.89.77C421.16,476.85,421.26,477,421.24,477Z"/><path class="cls-8" d="M430.76,463.25c0,.16-12.55.27-28,.27s-28-.11-28-.27,12.56-.26,28-.26S430.76,463.11,430.76,463.25Z"/></g></svg>