<svg id="freepik_stories-stress" data-name="freepik stories-stress" xmlns="http://www.w3.org/2000/svg" viewBox="0 0 500 500"><defs><style>.cls-1{fill:#e0e0e0;}.cls-2{fill:#fafafa;}.cls-3{fill:#ebebeb;}.cls-4{fill:#f5f5f5;}.cls-10,.cls-5{fill:#263238;}.cls-6{fill:#0966e5;}.cls-7{opacity:0.3;}.cls-8{fill:#fff;}.cls-9{opacity:0.2;}.cls-10{font-size:11.64px;font-family:Pacifico-Regular, Pacifico;}.cls-11{fill:#ffbe9d;}.cls-12{fill:#eb996e;}.cls-13{opacity:0.78;}.cls-14{opacity:0.6;}.cls-15{fill:#455a64;}</style></defs><title>Life coaching 04</title><g id="freepik--background-complete--inject-286"><rect class="cls-1" x="413.12" y="153.38" width="45.87" height="47.82"/><rect class="cls-2" x="410.01" y="153.38" width="45.87" height="47.82"/><path class="cls-1" d="M455.91,201.21H410V153.37h45.91Zm-45.83,0h45.83V153.4H410.08Z"/><rect class="cls-2" x="416.18" y="159.8" width="33.54" height="34.96"/><path class="cls-1" d="M416.18,195a4.73,4.73,0,0,1-.82,1c-.54.57-1.3,1.34-2.18,2.19s-1.62,1.57-2.18,2.09a5.29,5.29,0,0,1-1,.81,4.91,4.91,0,0,1,.81-1c.54-.57,1.29-1.33,2.19-2.18l2.18-2.1A5,5,0,0,1,416.18,195Z"/><path class="cls-1" d="M449.72,194.92a5.46,5.46,0,0,1,1,.83c.56.53,1.32,1.28,2.18,2.18l2.1,2.18a5.79,5.79,0,0,1,.81,1,4.74,4.74,0,0,1-1-.82c-.56-.54-1.33-1.3-2.18-2.18s-1.58-1.63-2.1-2.18A5.78,5.78,0,0,1,449.72,194.92Z"/><path class="cls-1" d="M449.63,159.9a5.84,5.84,0,0,1,.83-1l2.13-2.18c.84-.85,1.62-1.57,2.18-2.11a5.73,5.73,0,0,1,1-.8,5.84,5.84,0,0,1-.83,1c-.53.57-1.28,1.33-2.12,2.18s-1.63,1.57-2.19,2.09A5.08,5.08,0,0,1,449.63,159.9Z"/><path class="cls-1" d="M416.09,160a5.84,5.84,0,0,1-1-.83c-.57-.53-1.33-1.29-2.18-2.18s-1.57-1.63-2.1-2.18a5.73,5.73,0,0,1-.8-1,5.22,5.22,0,0,1,.95.81c.56.54,1.33,1.3,2.18,2.19s1.57,1.62,2.09,2.18A4.8,4.8,0,0,1,416.09,160Z"/><path class="cls-1" d="M449.63,194.77V185.1c0-6.12,0-14.84-.06-25.3l.13.14H416.26l.15-.16v35l-.13-.13,24.22.07h0l-24.3.06h-.12V159.52h33.65v.13c0,10.49-.05,19.24-.06,25.38v9.43A1.83,1.83,0,0,0,449.63,194.77Z"/><rect class="cls-3" x="427.36" y="171.7" width="11.19" height="11.19"/><rect class="cls-1" x="427.57" y="64.03" width="67.43" height="70.29"/><rect class="cls-2" x="423.01" y="64.03" width="67.43" height="70.29"/><path class="cls-1" d="M490.46,134.34H423V64h67.47Zm-67.43,0h67.39V64.05H423Z"/><rect class="cls-2" x="432.08" y="73.48" width="49.31" height="51.39"/><path class="cls-1" d="M432.08,125.22a8.63,8.63,0,0,1-1.23,1.4c-.78.83-1.88,2-3.13,3.18s-2.38,2.31-3.27,3.09a8.14,8.14,0,0,1-1.43,1.19,7.77,7.77,0,0,1,1.21-1.41c.79-.83,1.9-2,3.14-3.19s2.39-2.31,3.28-3.08A6.47,6.47,0,0,1,432.08,125.22Z"/><path class="cls-1" d="M481.37,125.09a7.16,7.16,0,0,1,1.42,1.22c.83.78,1.95,1.89,3.18,3.13s2.31,2.38,3.08,3.22a7.67,7.67,0,0,1,1.18,1.43,9,9,0,0,1-1.41-1.21c-.82-.79-1.95-1.9-3.17-3.15s-2.32-2.39-3.1-3.27A8.13,8.13,0,0,1,481.37,125.09Z"/><path class="cls-1" d="M481.24,73.62a7.46,7.46,0,0,1,1.21-1.42c.8-.83,1.9-2,3.14-3.17s2.38-2.32,3.22-3.09a9,9,0,0,1,1.42-1.19A7.46,7.46,0,0,1,489,66.17c-.78.83-1.89,2-3.13,3.17s-2.39,2.33-3.27,3.09A8.67,8.67,0,0,1,481.24,73.62Z"/><path class="cls-1" d="M432,73.74a7.77,7.77,0,0,1-1.41-1.21c-.84-.79-2-1.9-3.19-3.14s-2.3-2.38-3.07-3.28a7.73,7.73,0,0,1-1.19-1.42,7.45,7.45,0,0,1,1.41,1.22c.83.78,2,1.88,3.18,3.13s2.32,2.39,3.09,3.27A8.09,8.09,0,0,1,432,73.74Z"/><path class="cls-1" d="M481.24,124.87v-3.74c0-2.44,0-6-.05-10.48,0-9-.06-21.82-.1-37.17l.19.18H432.12l.22-.22v51.4l-.19-.19,35.59.1h10l-10,0-35.71.09h-.2V73.08h49.57v.19c0,15.41-.06,28.27-.1,37.3v13.86A1.41,1.41,0,0,1,481.24,124.87Z"/><rect class="cls-3" x="448.5" y="90.95" width="16.45" height="16.45"/><path class="cls-3" d="M66.88,373.92c5.61-2.9,12.23-3.27,18.47-2.25,3.35.56,6.84,1.56,9.12,4.08s2.72,6.94.1,9.12c-1.56,1.28-3.73,1.48-5.75,1.45-4.89-.06-10.31-.92-14.19,2-2.18,1.67-3.71,4.46-6.37,5.28s-5.54-.73-6.92-3.08a10.71,10.71,0,0,1-.78-7.93A12.11,12.11,0,0,1,66.88,373.92Z"/><path class="cls-3" d="M54,349.08c3.44,4.9,10.11,3.27,13.21.28s4.37-7.33,5.6-11.48c2.72-9.46,5.46-19.37,3.44-29A16.12,16.12,0,0,0,72.54,301a8.44,8.44,0,0,0-8-2.65c-3.36.88-5.45,4.19-7,7.32a69.16,69.16,0,0,0-6.83,29.68c0,4.78.55,9.82,3.27,13.75"/><path class="cls-3" d="M44.56,356.12c3.73-4.43,4.44-10.92,2.78-16.44s-5.45-10.26-9.73-14.12a52.12,52.12,0,0,0-17.46-10.27A18.54,18.54,0,0,0,12.32,314a8.23,8.23,0,0,0-6.55,4c-1.83,3.5-.07,7.74,1.83,11.2A132.44,132.44,0,0,0,19,346.59c3.44,4.42,7.37,8.78,12.59,10.78s10.66,1.77,13.43-1.87"/><path class="cls-1" d="M53.77,423.1a11.29,11.29,0,0,0,.31-2.24c.16-1.61.36-3.65.6-6.08A86.91,86.91,0,0,1,56,405.86a70.26,70.26,0,0,1,3.27-10.54,39.3,39.3,0,0,1,5.38-9.53,20.14,20.14,0,0,1,6.81-5.66,18.63,18.63,0,0,1,5.73-1.78,8.92,8.92,0,0,0,2.18-.33,12.19,12.19,0,0,0-2.26,0,17.52,17.52,0,0,0-6,1.56,19.92,19.92,0,0,0-7.17,5.7A38.11,38.11,0,0,0,58.43,395a63.65,63.65,0,0,0-3.27,10.71,74.13,74.13,0,0,0-1.19,9c-.2,2.59-.26,4.68-.31,6.12A11.08,11.08,0,0,0,53.77,423.1Z"/><path class="cls-1" d="M54.19,418.42a4.44,4.44,0,0,0,.06-1.09v-3c0-2.58,0-6.29.13-10.91.23-9.18,1-19,2.54-33,1.46-13.1,3.39-28.37,5.46-38.25.44-2.25.88-4.28,1.3-6.05s.73-3.28,1.09-4.55l.6-2.75a3.89,3.89,0,0,0,.17-1,4.93,4.93,0,0,0-.36,1c-.21.75-.5,1.68-.85,2.84s-.74,2.66-1.14,4.47-.95,3.8-1.43,6.05A334.69,334.69,0,0,0,56,367.68c-1.53,14-2.18,26.66-2.28,35.85,0,4.61,0,8.33.16,10.92.08,1.21.13,2.18.19,2.95A3.91,3.91,0,0,0,54.19,418.42Z"/><path class="cls-1" d="M54.25,393.91a19.92,19.92,0,0,0,0-3.09c-.12-2-.39-4.85-1-8.38a110.51,110.51,0,0,0-2.71-12.19,102.31,102.31,0,0,0-5.11-14.44,77.12,77.12,0,0,0-15-23.33,37.54,37.54,0,0,0-3.52-3.27c-.55-.46-1-.92-1.51-1.28L24.06,327a19.62,19.62,0,0,0-2.61-1.67c-.15.2,3.69,2.46,8.54,7.64a81.24,81.24,0,0,1,14.65,23.22,115.28,115.28,0,0,1,5.13,14.29c1.33,4.49,2.18,8.61,2.89,12.08s1,6.33,1.23,8.29A19.78,19.78,0,0,0,54.25,393.91Z"/><polygon class="cls-1" points="30.56 437.13 33.02 470.77 76.24 470.77 78.69 437.13 30.56 437.13"/><rect class="cls-1" x="26.4" y="423.87" width="57.46" height="13.26"/><polygon class="cls-3" points="26.39 469.48 26.39 473.16 29.09 473.16 82.89 473.16 82.89 469.48 26.39 469.48"/><polygon class="cls-1" points="31.74 479.63 29.09 473.16 80.84 473.16 77.75 479.63 31.74 479.63"/><path class="cls-4" d="M77.88,448.13s0,.11-.19.3l-.65.87-2.52,3.27-.11.14-.1-.15L68.12,444h.36l-6.1,8.63-.19.27-.21-.26-7.22-8.58h.42l-.41.5-6.45,8.1-.21.27-.2-.29L41.81,444h.36l-7.5,8.56-.14.15-.1-.17c-1-1.66-1.77-3-2.35-3.95l-.6-1.09a3.24,3.24,0,0,1-.19-.37,2,2,0,0,1,.26.32l.66,1,2.47,3.87h-.23c1.92-2.25,4.43-5.18,7.37-8.65l.19-.22.17.24,6.15,8.58h-.42l6.45-8.11.39-.49.21-.26.21.25,7.2,8.61H62l6.15-8.59.17-.25.19.25,6,8.65h-.21c1.09-1.32,2-2.37,2.61-3.14l.71-.81C77.79,448.2,77.87,448.12,77.88,448.13Z"/><path class="cls-4" d="M79.29,436.91c0,.15-10.82.27-24.18.27s-24.19-.12-24.19-.27,10.83-.27,24.19-.27S79.29,436.73,79.29,436.91Z"/><path class="cls-4" d="M81.47,473.52c0,.15-11.76.27-26.28.27s-26.29-.12-26.29-.27,11.78-.26,26.29-.26S81.47,473.38,81.47,473.52Z"/></g><g id="freepik--Floor--inject-286"><path class="cls-5" d="M488.06,479.63c0,.15-107.67.28-240.47.28S7.1,479.78,7.1,479.63s107.65-.29,240.49-.29S488.06,479.47,488.06,479.63Z"/></g><g id="freepik--Device--inject-286"><path class="cls-5" d="M350.75,480.05l-144.91-.66a31.58,31.58,0,0,1-31.43-31.71v0L175.94,84.3a31.57,31.57,0,0,1,31.72-31.43h0l144.92.67A31.57,31.57,0,0,1,384,85.28v0l-1.54,363.34A31.57,31.57,0,0,1,350.75,480.05Z"/><path class="cls-2" d="M352.33,66.15,324.23,66a7,7,0,0,0-6.85,7.09v5.11a7,7,0,0,1-6.85,7.11l-54.77-.27A7,7,0,0,1,249,77.9h0V72.8a7,7,0,0,0-6.8-7.17h-9.88l-24.59-.12a22.12,22.12,0,0,0-22.21,22h0L184,442.14a22.11,22.11,0,0,0,22,22.19l144.63.68a22.13,22.13,0,0,0,22.21-22l1.5-354.61a22.1,22.1,0,0,0-22-22.23Z"/><path class="cls-5" d="M358.94,105.18a1.09,1.09,0,1,1-1.14-1h.11A1,1,0,0,1,358.94,105.18Z"/><path class="cls-5" d="M358.93,108.92a1,1,0,1,1-1-1,1,1,0,0,1,1,1Z"/><path class="cls-5" d="M358.87,112.67a.9.9,0,1,1-1.09-1A1.07,1.07,0,0,1,358.87,112.67Z"/><rect class="cls-4" x="211.25" y="161.13" width="154.16" height="97.81" rx="4.69"/><rect class="cls-1" x="207.02" y="154.77" width="154.16" height="97.81" rx="4.69"/><path class="cls-5" d="M323.78,134.92h-1.47l-.27.67h-.75l1.4-3.16h.73l1.42,3.16h-.77Zm-.22-.56-.51-1.21-.5,1.21Z"/><path class="cls-5" d="M325.17,132.43h1.44a1.59,1.59,0,1,1,.37,3.16,1.15,1.15,0,0,1-.37,0h-1.44Zm1.41,2.56a1,1,0,0,0,0-2h-.67v2Z"/><path class="cls-5" d="M328.92,132.43h1.44a1.59,1.59,0,0,1,.38,3.16,1.21,1.21,0,0,1-.38,0h-1.44Zm1.4,2.56a1,1,0,0,0,0-2h-.66v2Z"/><path class="cls-5" d="M336.83,135.58v-1.9l-.93,1.56h-.33l-.93-1.51v1.85H334v-3.16h.6l1.19,2,1.17-2h.6v3.16Z"/><path class="cls-5" d="M338.08,134a1.73,1.73,0,1,1,1.83,1.64h-.1a1.65,1.65,0,0,1-1.73-1.56Zm2.73,0a1,1,0,1,0-1,1,1,1,0,0,0,1-.95Z"/><path class="cls-5" d="M344.13,135.58l-.61-.88h-.67v.88h-.73v-3.16h1.36c.85,0,1.37.43,1.37,1.09a1.07,1.07,0,0,1-.64,1l.71,1Zm-.68-2.57h-.6v1.09h.6c.44,0,.66-.21.66-.56s-.22-.52-.66-.52Z"/><path class="cls-5" d="M347.9,135v.58h-2.46v-3.16h2.4V133h-1.67v.68h1.48v.57h-1.48V135Z"/><path class="cls-5" d="M350.46,134.28h-.79v.78h-.62v-.78h-.78v-.54h.78V133h.58v.78h.8Z"/><path class="cls-5" d="M201.93,109.65a4,4,0,0,1,6.91-2.46l-1.09,1a2.28,2.28,0,0,0-1.81-.86,2.32,2.32,0,1,0,0,4.63,2.27,2.27,0,0,0,1.81-.85l1.09,1a4,4,0,0,1-6.91-2.45Z"/><path class="cls-5" d="M214.72,110.09v3.18h-1.51v-.7a1.81,1.81,0,0,1-1.69.78c-1.31,0-2.08-.72-2.08-1.68s.7-1.67,2.39-1.67h1.28c0-.69-.41-1.09-1.28-1.09a2.66,2.66,0,0,0-1.61.51l-.57-1.09a4.24,4.24,0,0,1,2.4-.68C213.76,107.62,214.72,108.41,214.72,110.09Zm-1.61,1.42V111H212c-.75,0-1,.27-1,.64s.35.68.92.68A1.18,1.18,0,0,0,213.11,111.51Z"/><path class="cls-5" d="M219.63,107.62v1.49h-.36a1.38,1.38,0,0,0-1.49,1.25,1.5,1.5,0,0,0,0,.3v2.63h-1.6v-5.56h1.54v.73A2.23,2.23,0,0,1,219.63,107.62Z"/><path class="cls-5" d="M226.2,105.6v7.64h-1.53v-.57a2.12,2.12,0,0,1-1.74.72,2.87,2.87,0,0,1,0-5.73,2.18,2.18,0,0,1,1.67.68v-2.7Zm-1.53,4.89a1.42,1.42,0,1,0-1.41,1.54,1.4,1.4,0,0,0,1.42-1.38A.81.81,0,0,0,224.67,110.49Z"/><path class="cls-5" d="M227.15,112.76l.53-1.17a3.81,3.81,0,0,0,1.94.54c.75,0,1-.19,1-.51,0-.9-3.36,0-3.36-2.18,0-1.09,1-1.8,2.57-1.8a4.56,4.56,0,0,1,2.18.49l-.53,1.15a3.21,3.21,0,0,0-1.6-.42c-.72,0-1,.23-1,.53,0,.94,3.35,0,3.35,2.18,0,1-1,1.77-2.62,1.77A5,5,0,0,1,227.15,112.76Z"/><path class="cls-5" d="M266.05,343.75h-1.87v-1.36h5.45v1.36h-1.86v4.74H266Z"/><path class="cls-5" d="M269.88,345.43a3.41,3.41,0,1,1,3.63,3.17h-.23a3.2,3.2,0,0,1-3.39-3A1.09,1.09,0,0,0,269.88,345.43Zm5.05,0a1.65,1.65,0,0,0-1.75-1.54,1.65,1.65,0,1,0,1.75,1.67Z"/><path class="cls-5" d="M278.79,343.75h-1.88v-1.36h5.46v1.36H280.5v4.74h-1.71Z"/><path class="cls-5" d="M286.86,347.31h-2.58l-.48,1.18H282l2.69-6.1h1.71l2.69,6.1h-1.79Zm-.51-1.28-.79-1.95-.78,1.95Z"/><path class="cls-5" d="M289.57,342.39h1.72v4.73h2.92v1.37h-4.64Z"/><path class="cls-5" d="M252.06,372v1.89h-.82V372a6.18,6.18,0,0,1-3.94-1.5l.48-.94a5.59,5.59,0,0,0,3.46,1.38v-4.36c-1.81-.45-3.66-1-3.66-3.18,0-1.58,1.09-2.94,3.66-3.14v-1.9h.82v1.88a6.54,6.54,0,0,1,3.33,1l-.41,1a6,6,0,0,0-2.92-1v4.36c1.85.44,3.82,1,3.82,3.17C255.88,370.44,254.67,371.82,252.06,372Zm-.82-6.55v-4.11c-1.7.15-2.46,1-2.46,2.06,0,1.28,1.1,1.74,2.46,2.09Zm3.43,3.46c0-1.31-1.2-1.74-2.61-2.09v4.11c1.81-.1,2.61-.94,2.61-2Z"/><rect class="cls-6" x="211.23" y="389.55" width="147.41" height="38.69" rx="17.76"/><g class="cls-7"><rect x="211.23" y="389.55" width="147.41" height="38.69" rx="17.76"/></g><rect class="cls-6" x="205.5" y="389.55" width="147.41" height="38.69" rx="17.76"/><path class="cls-8" d="M274.77,406.76c0,2-1.43,3.19-3.81,3.19H268.7v2.77h-1.3v-9.14H271C273.34,403.58,274.77,404.78,274.77,406.76Zm-1.3,0c0-1.31-.88-2.05-2.55-2.05h-2.18v4.11h2.18C272.59,408.82,273.47,408.07,273.47,406.76Z"/><path class="cls-8" d="M282.07,410.44h-4.86l-1,2.28h-1.34l4.15-9.14h1.31l4.15,9.14H283.1Zm-.46-1.09-2-4.48-2,4.58Z"/><path class="cls-8" d="M288.76,409.56v3.16h-1.3v-3.18l-3.63-6h1.4l2.93,4.82,2.94-4.82h1.29Z"/><path class="cls-6" d="M299.87,326.7a10.88,10.88,0,0,0,2-.35,7.53,7.53,0,0,0,4.36-3.7,7.61,7.61,0,0,0,.67-1.91,11.92,11.92,0,0,0,.12-2.23v-5.14c0-3.7,0-7.9-.09-12.54s-.05-9.73-.09-15.2v-4.17a7.26,7.26,0,0,0-1-4,7,7,0,0,0-3.07-2.87,8.64,8.64,0,0,0-4.37-.71l-40,.15a7.17,7.17,0,0,0-4.65,1.76,7,7,0,0,0-2.36,4.31,15.3,15.3,0,0,0-.09,2.53v35.87a8.2,8.2,0,0,0,.73,4.08,7,7,0,0,0,2.68,2.94c2.27,1.53,5.06,1,7.57,1.09h35.27l-6,.08-22,.16H258.49a7.62,7.62,0,0,1-3.94-1.09,7.52,7.52,0,0,1-2.85-3.14,8.57,8.57,0,0,1-.8-4.29v-9c0-6.14-.05-12.59-.08-19.28v-7.61a19.07,19.07,0,0,1,.09-2.62,7.64,7.64,0,0,1,2.55-4.65,7.76,7.76,0,0,1,5-1.9l40-.11A9,9,0,0,1,303,274a7.63,7.63,0,0,1,3.27,3.07,7.81,7.81,0,0,1,1,4.25v37a11.66,11.66,0,0,1-.16,2.29,8.48,8.48,0,0,1-.7,2,7.59,7.59,0,0,1-4.59,3.71,8,8,0,0,1-1.54.24Z"/><path class="cls-6" d="M288.61,308.18h-1.46l-4,.06-13.47.12h-.11v-.11c-.11-.71-.22-1.46-.33-2.18-.94-6.55-1.77-12.35-2.31-16.16l.08.06h-4.55a.91.91,0,0,1-.33,0h1.28l3.59-.06h.07V290c.57,3.8,1.43,9.63,2.4,16.15.11.77.22,1.52.33,2.18l-.13-.1h18.57Z"/><path class="cls-6" d="M269.1,304.38h1.46l4.06-.07,14-.12-.12.1c.4-2.36.83-4.9,1.27-7.54.24-1.35.46-2.69.68-3.95l.13.14-16.47.06H269.2l4.87-.07,16.48-.14h.14v.14c-.22,1.28-.43,2.61-.67,4-.45,2.64-.89,5.18-1.29,7.54v.1H269.2Z"/><path class="cls-6" d="M274.43,313.43a1.55,1.55,0,0,0-.1-.45,2,2,0,0,0-.7-1,1.79,1.79,0,0,0-2.12,2.89,1.67,1.67,0,0,0,.44.23,1.83,1.83,0,0,0,1.69-.25,1.9,1.9,0,0,0,.69-1c.08-.28.08-.46.1-.46a1,1,0,0,1,0,.48,1.8,1.8,0,0,1-.67,1.09,2,2,0,0,1-1.88.33,2,2,0,0,1-1.38-1.9,2,2,0,0,1,1.33-1.89,1.93,1.93,0,0,1,2.49,1.12c0,.09.06.19.08.28A.91.91,0,0,1,274.43,313.43Z"/><path class="cls-6" d="M286.62,313.34a1.37,1.37,0,0,0-.11-.45,1.87,1.87,0,0,0-.7-1,1.79,1.79,0,0,0-2.84,1.46,1.76,1.76,0,0,0,1.16,1.65,1.81,1.81,0,0,0,1.7-.24,2,2,0,0,0,.69-1c.08-.28.08-.45.1-.45a.94.94,0,0,1,0,.47,1.86,1.86,0,0,1-.67,1.09,2,2,0,0,1-2.82-.25,2.07,2.07,0,0,1-.46-1.31,2,2,0,0,1,1.33-1.89,2,2,0,0,1,1.89.3,1.92,1.92,0,0,1,.69,1.09A1.07,1.07,0,0,1,286.62,313.34Z"/><path class="cls-6" d="M294.9,290.83a5.46,5.46,0,1,1-5.53-5.37h.08A5.45,5.45,0,0,1,294.9,290.83Z"/><path class="cls-8" d="M290.14,288.78v4.11h-.95v-3.34h-.82v-.77Z"/><rect class="cls-6" x="202.13" y="149.49" width="154.16" height="97.81" rx="4.69"/><path class="cls-8" d="M227.51,171.84c0,1.25-1,2-2.89,2h-3.75v-7.23h3.54c1.81,0,2.74.75,2.74,1.88a1.75,1.75,0,0,1-1,1.59A1.79,1.79,0,0,1,227.51,171.84Zm-5-4v1.71h1.66c.82,0,1.27-.3,1.27-.86s-.45-.85-1.27-.85Zm3.28,3.83c0-.62-.47-.91-1.34-.91h-1.95v1.79h1.95c.88,0,1.35-.26,1.35-.88Z"/><path class="cls-8" d="M233.54,172.27h-3.36l-.64,1.54h-1.72l3.28-7.23h1.64l3.28,7.23h-1.76ZM233,171l-1.15-2.77L230.78,171Z"/><path class="cls-8" d="M243.33,166.58v7.19H242l-3.61-4.36v4.36h-1.67v-7.23h1.39l3.59,4.36v-4.36Z"/><path class="cls-8" d="M247.67,171l-1,1v1.79H245v-7.23h1.66v3.37l3.21-3.37h1.85l-3,3.27,3.18,4h-2Z"/><path class="cls-8" d="M226.15,201.93h-1.33v1.75h-.67v-1.75h-3.76v-.49l3.53-4.36h.76l-3.4,4.28h2.89v-1.53h.65v1.53h1.33Z"/><path class="cls-8" d="M231,201.77c0,1.09-.81,2-2.41,2a3.43,3.43,0,0,1-2.39-.85l.34-.54a2.91,2.91,0,0,0,2.05.77c1.09,0,1.71-.51,1.71-1.34s-.56-1.32-1.8-1.32h-.47V200l1.85-2.3H226.5V197h4.28v.5l-1.88,2.35C230.32,200,231,200.71,231,201.77Z"/><path class="cls-8" d="M236.41,201.72c0,1.1-.8,2-2.41,2a3.43,3.43,0,0,1-2.39-.85l.34-.54a2.89,2.89,0,0,0,2,.77c1.09,0,1.72-.56,1.72-1.36s-.53-1.39-2.18-1.39h-1.41l.34-3.33h3.63v.61h-3l-.23,2.12h.85C235.65,199.76,236.41,200.55,236.41,201.72Z"/><path class="cls-8" d="M242.26,201.69a2.07,2.07,0,0,1-2.1,2.05H240c-1.77,0-2.72-1.22-2.72-3.27s1.23-3.44,3-3.44a3.1,3.1,0,0,1,1.57.36l-.28.55a2.38,2.38,0,0,0-1.28-.31c-1.44,0-2.36.92-2.36,2.72a4.86,4.86,0,0,0,0,.54,2.12,2.12,0,0,1,2-1.09,2,2,0,0,1,2.25,1.73A1,1,0,0,1,242.26,201.69Zm-.68,0c0-.87-.64-1.43-1.67-1.43a1.53,1.53,0,0,0-1.69,1.34.45.45,0,0,0,0,.11c0,.74.6,1.42,1.75,1.42a1.45,1.45,0,0,0,1.61-1.26.81.81,0,0,0,0-.16Z"/><path class="cls-8" d="M256.62,203.68l-1.6-2.09-1.59,2.09h-.75l2-2.57-1.88-2.42h.76l1.49,1.95,1.51-1.95h.74l-1.89,2.42,2,2.57Z"/><path class="cls-8" d="M261.68,203.68l-1.58-2.09-1.61,2.09h-.76l2-2.57-1.87-2.42h.76l1.5,1.95,1.49-1.95h.74l-1.87,2.42,2,2.57Z"/><path class="cls-8" d="M266.75,203.68l-1.59-2.09-1.59,2.09h-.71l2-2.57-2-2.42h.76l1.5,1.95,1.5-1.95h.74l-1.88,2.42,2,2.57Z"/><path class="cls-8" d="M271.82,203.68l-1.59-2.09-1.59,2.09h-.76l2-2.57L268,198.69h.75l1.5,1.95,1.5-1.95h.74l-1.88,2.42,2,2.57Z"/><path class="cls-8" d="M289.32,203.68l-1.6-2.09-1.59,2.09h-.75l2-2.57-1.88-2.42h.76l1.49,1.95,1.51-1.95H290l-1.89,2.42,2,2.57Z"/><path class="cls-8" d="M294.38,203.68l-1.58-2.09-1.57,2.09h-.77l2-2.57-1.88-2.42h.75l1.51,1.95,1.49-1.95h.75l-1.88,2.42,2,2.57Z"/><path class="cls-8" d="M299.44,203.68l-1.58-2.09-1.59,2.09h-.77l2-2.57-1.89-2.42h.76l1.5,1.95,1.51-1.95h.73l-1.88,2.42,2,2.57Z"/><path class="cls-8" d="M304.52,203.68l-1.59-2.09-1.6,2.09h-.75l2-2.57-1.89-2.42h.77l1.5,1.95,1.5-1.95h.74l-1.88,2.42,2,2.57Z"/><path class="cls-8" d="M320.23,197v6.65h-.63v-6H318V197Z"/><path class="cls-8" d="M326.21,201.77c0,1.09-.81,2-2.41,2a3.43,3.43,0,0,1-2.39-.85l.32-.54a3,3,0,0,0,2.07.77c1.09,0,1.7-.51,1.7-1.34s-.56-1.32-1.79-1.32h-.47V200l1.83-2.3h-3.39V197H326v.5l-1.88,2.35C325.5,200,326.21,200.71,326.21,201.77Z"/><path class="cls-8" d="M332.81,201.93h-1.33v1.75h-.68v-1.75h-3.75v-.49l3.52-4.36h.75l-3.39,4.28h2.88v-1.53h.67v1.53h1.33Z"/><path class="cls-8" d="M337.94,203.07v.61h-4.66v-.45l2.76-2.71c.75-.74.89-1.18.89-1.64,0-.77-.54-1.25-1.56-1.25a2.27,2.27,0,0,0-1.81.75l-.49-.42a3,3,0,0,1,2.36-1c1.35,0,2.18.69,2.18,1.79a2.7,2.7,0,0,1-1.09,2.08l-2.26,2.19Z"/><path class="cls-8" d="M217,217.47a1.73,1.73,0,0,1,1.81-1.66,1.71,1.71,0,0,1,1.21.57l-.46.43a1,1,0,0,0-1.82.65,1,1,0,0,0,1.82.63l.46.44a1.61,1.61,0,0,1-1.3.57,1.64,1.64,0,0,1-1.72-1.54Z"/><path class="cls-8" d="M222.49,218.38H221l-.28.67H220l1.42-3.17h.72l1.41,3.17h-.77Zm-.24-.56-.5-1.22-.51,1.22Z"/><path class="cls-8" d="M225.94,219.05l-.62-.88h-.65v.88h-.73v-3.17h1.36c.85,0,1.39.44,1.39,1.15a1.11,1.11,0,0,1-.66,1l.71,1Zm-.69-2.57h-.58v1.09h.6c.45,0,.68-.21.68-.55S225.7,216.48,225.25,216.48Z"/><path class="cls-8" d="M227,218.74l.25-.55a2,2,0,0,0,1.1.33c.43,0,.61-.14.61-.34,0-.6-1.85-.19-1.85-1.37,0-.54.44-1,1.34-1a2,2,0,0,1,1.1.29l-.22.55a2,2,0,0,0-.89-.25c-.43,0-.6.16-.6.37,0,.58,1.85.18,1.85,1.34,0,.53-.44,1-1.34,1A2.37,2.37,0,0,1,227,218.74Z"/><path class="cls-8" d="M234.33,215.88v3.17h-.74v-1.3h-1.44v1.3h-.73v-3.17h.73v1.25h1.44v-1.25Z"/><path class="cls-8" d="M234.89,217.47a1.74,1.74,0,1,1,1.83,1.63h-.09a1.64,1.64,0,0,1-1.73-1.54A.34.34,0,0,1,234.89,217.47Zm2.72,0a1,1,0,1,0-1,1,1,1,0,0,0,1-.93Z"/><path class="cls-8" d="M238.92,215.88h.73v2.63h1.59v.6h-2.32Z"/><path class="cls-8" d="M241.66,215.88h1.44a1.59,1.59,0,1,1,.26,3.17h-1.7Zm1.39,2.57a1,1,0,1,0,0-2h-.66v2Z"/><path class="cls-8" d="M247.86,218.51v.59H245.4v-3.18h2.4v.59h-1.67v.69h1.45v.57h-1.47v.74Z"/><path class="cls-8" d="M250.46,219.05l-.61-.88h-.67v.88h-.74v-3.17h1.38c.84,0,1.37.44,1.37,1.15a1.08,1.08,0,0,1-.65,1l.71,1Zm-.68-2.57h-.6v1.09h.58c.45,0,.68-.21.68-.55s-.22-.54-.68-.54Z"/><path class="cls-8" d="M216.66,229.85l.79-.93a1.39,1.39,0,0,0,1.09.66c.57,0,.86-.34.86-1v-2.92h-2.18v-1.09h3.54v4a2,2,0,0,1-1.65,2.25,1.88,1.88,0,0,1-.53,0A2.44,2.44,0,0,1,216.66,229.85Z"/><path class="cls-8" d="M221.76,229.85a.82.82,0,0,1,.79-.84h0a.83.83,0,0,1,.85.79v0a.83.83,0,0,1-.81.85h0a.8.8,0,0,1-.84-.79Z"/><path class="cls-8" d="M233.4,224.53l-2,6.11h-1.53l-1.34-4.14-1.38,4.14h-1.51l-2-6.11h1.47l1.38,4.3,1.44-4.3h1.3l1.4,4.36,1.43-4.36Z"/><path class="cls-8" d="M234,224.53a.85.85,0,0,1,.94-.75.76.76,0,1,1-.19,1.5A.85.85,0,0,1,234,224.53Zm.16,1.42h1.36v4.69h-1.36Z"/><path class="cls-8" d="M236.76,224.17h1.35v6.47h-1.35Z"/><path class="cls-8" d="M239.38,224.17h1.36v6.47h-1.36Z"/><path class="cls-8" d="M241.83,224.53a.78.78,0,0,1,.8-.76h.05a.76.76,0,0,1,.84.68v0a.85.85,0,0,1-.94.75.87.87,0,0,1-.75-.75ZM242,226h1.36v4.69H242Z"/><path class="cls-8" d="M248.77,228v2.67h-1.26v-.59a1.5,1.5,0,0,1-1.43.65c-1.09,0-1.76-.61-1.76-1.41s.58-1.41,2-1.41h1.09c0-.58-.35-.92-1.09-.92a2.14,2.14,0,0,0-1.34.44l-.5-1a3.72,3.72,0,0,1,2-.57C247.94,225.87,248.77,226.54,248.77,228Zm-1.35,1.19v-.48h-.93c-.63,0-.84.24-.84.55s.3.57.78.57a1,1,0,0,0,1-.64Z"/><path class="cls-8" d="M257.93,228v2.69h-1.36v-2.48c0-.76-.35-1.09-.89-1.09s-1,.39-1,1.23v2.36h-1.36v-2.48c0-.76-.32-1.09-.89-1.09s-1,.4-1,1.24v2.35H250V226h1.3v.54a2,2,0,0,1,1.48-.62,1.74,1.74,0,0,1,1.53.78,2.21,2.21,0,0,1,1.71-.78,1.84,1.84,0,0,1,1.92,1.72C257.94,227.74,257.94,227.85,257.93,228Z"/><path class="cls-8" d="M258.69,230.2l.46-1a3.29,3.29,0,0,0,1.62.45c.64,0,.87-.16.87-.43,0-.76-2.84,0-2.84-1.85,0-.9.81-1.53,2.18-1.53a3.75,3.75,0,0,1,1.8.42l-.46,1a2.54,2.54,0,0,0-1.34-.35c-.61,0-.87.18-.87.43,0,.8,2.82,0,2.82,1.88,0,.87-.8,1.48-2.18,1.48A4,4,0,0,1,258.69,230.2Z"/><path class="cls-8" d="M313.44,227.77c0-2,1.09-3.15,2.62-3.15s2.62,1.09,2.62,3.15-1.09,3.16-2.62,3.16S313.44,229.79,313.44,227.77Zm3.81,0c0-1.39-.48-2-1.19-2s-1.19.57-1.19,2,.49,2,1.19,2,1.19-.57,1.19-2Z"/><path class="cls-8" d="M324.4,228.89a2.1,2.1,0,0,1-2.14,2.05h-.17c-1.69,0-2.73-1.09-2.73-3a3,3,0,0,1,2.66-3.26,2.34,2.34,0,0,1,.46,0,3.27,3.27,0,0,1,1.7.41l-.53,1.09a2,2,0,0,0-1.14-.3,1.62,1.62,0,0,0-1.73,1.51,2.43,2.43,0,0,0,0,.27,2.09,2.09,0,0,1,1.52-.55,1.94,1.94,0,0,1,2.09,1.76A.17.17,0,0,0,324.4,228.89ZM323,229a.92.92,0,0,0-.93-.92H322a1,1,0,0,0-1.09.82.34.34,0,0,1,0,.1c0,.52.4.91,1.1.91a.91.91,0,0,0,1-.79.49.49,0,0,0,0-.12Z"/><path class="cls-8" d="M327.23,223.48h1.22l-2.88,8.22h-1.21Z"/><path class="cls-8" d="M333,229.67v1.15h-4.65v-.91l2.36-2.18c.55-.52.64-.83.64-1.1,0-.48-.33-.76-1-.76a1.49,1.49,0,0,0-1.26.61l-1-.65a2.78,2.78,0,0,1,2.42-1.09c1.37,0,2.27.69,2.27,1.8a2.44,2.44,0,0,1-1,1.93l-1.41,1.32Z"/><path class="cls-8" d="M339.06,229.54h-1v1.28h-1.38v-1.28h-3.27v-.95l2.88-3.88h1.48l-2.67,3.68h1.65v-1.16h1.33v1.15h1Z"/><g class="cls-9"><path class="cls-8" d="M313.47,176.7a9.56,9.56,0,0,0-10-7,12.11,12.11,0,0,0-4.07,1c-3.18,1.42-5.39,5.19-4.37,8.5.86,2.71,3.49,4.43,6.1,5.57s5.92,2,8.62.71a7.5,7.5,0,0,0,4-7.08A8,8,0,0,0,313.47,176.7Z"/></g><g class="cls-9"><path class="cls-8" d="M351.24,149.49h-144a5.1,5.1,0,0,0-5.1,5.11h0v25.82c9.08,6.35,21.58,7.46,32.66,5.15,13.1-2.74,24.89-9.42,37.1-14.9s25.54-9.82,38.69-7.63c12.42,2.12,23,9.82,34.22,15.58a66.07,66.07,0,0,0,11.52,4.64V154.61A5.12,5.12,0,0,0,351.24,149.49Z"/></g><text class="cls-10" transform="translate(258.69 370.9)">X X X X</text></g><g id="freepik--Character--inject-286"><path class="cls-11" d="M37.74,63.1v.33c.26,1.56,2.18,8.17,3.1,8.23s3.11-1.1,3-2-2.67-8.26-2.67-8.26-.49-1.09-2.54-.86C37.37,60.71,37.74,63.1,37.74,63.1Z"/><path class="cls-11" d="M41.06,59.6a.62.62,0,0,0,0,.33c.27,1.57,2.18,8.17,3.1,8.23s3.12-1.09,3-2-2.69-8.24-2.69-8.24S44,56.83,42,57.06C40.69,57.22,41.06,59.6,41.06,59.6Z"/><path class="cls-11" d="M44.64,57.33v.33c.26,1.56,2.18,8.17,3.1,8.22s3.12-1.09,3-2-2.71-8.24-2.71-8.24-.48-1.09-2.54-.86C44.26,54.94,44.64,57.33,44.64,57.33Z"/><path class="cls-11" d="M48.18,55.13a.86.86,0,0,0,0,.32c.27,1.57,2.19,8.17,3.1,8.24s3.12-1.09,3-2-2.7-8.24-2.7-8.24-.49-1.09-2.55-.87C47.81,52.75,48.18,55.13,48.18,55.13Z"/><path class="cls-12" d="M43.38,67.71a13.68,13.68,0,0,1-1.21-3.15,12.83,12.83,0,0,1-.8-3.17,13.6,13.6,0,0,1,1.21,3.14A12.9,12.9,0,0,1,43.38,67.71Z"/><path class="cls-12" d="M47.3,66.64a27.82,27.82,0,0,1-1.66-4.49,26.46,26.46,0,0,1-1.23-4.62A27.44,27.44,0,0,1,46.06,62,28.11,28.11,0,0,1,47.3,66.64Z"/><g class="cls-13"><path class="cls-12" d="M51.19,65.2a24.69,24.69,0,0,1-1.66-4.49,25.63,25.63,0,0,1-1.24-4.62,27.44,27.44,0,0,1,1.65,4.49A28.14,28.14,0,0,1,51.19,65.2Z"/></g><path class="cls-11" d="M41.29,75.78C41.18,75.39,37.7,62,37.7,62H54.61c.63,1.09,1.78,11.8,1.78,11.8l-.84,3.52s-11.68,5.18-12,5.2S41.29,75.78,41.29,75.78Z"/><path class="cls-11" d="M52.8,74.32l2-5.29a9.71,9.71,0,0,0-.11-7.21L54,60.07,41.13,64.43s2.43,4.37,5.78,2.47L44,71.33Z"/><path class="cls-12" d="M45,71.84a12.35,12.35,0,0,1,.35-1.68,6.13,6.13,0,0,1,2.7-3.46L49.32,66l-1.41.24-3.27.57h.06a3.66,3.66,0,0,1-3.33-2,1.76,1.76,0,0,1-.1-.3l-.22.36c3.69-1.09,7-2.08,9.36-3,1.17-.44,2.12-.81,2.75-1.09a3.46,3.46,0,0,0,1-.51,37.51,37.51,0,0,0-3.87,1.18c-2.37.76-5.7,1.7-9.4,2.76l-.28.09.07.28a2.16,2.16,0,0,0,.14.43,3.65,3.65,0,0,0,1.67,1.84,5.17,5.17,0,0,0,2.18.55h.06L48,66.76l-.18-.49a6.2,6.2,0,0,0-2.7,3.85A3.14,3.14,0,0,0,45,71.84Z"/><path class="cls-12" d="M42.64,66.09c-.12,0,0,.68-.26,1.55a1.18,1.18,0,0,1-1.09.84A1.76,1.76,0,0,1,40,67.39c-.62-1.38-1.26-2.65-1.63-3.56s-.53-1.53-.63-1.5A3.29,3.29,0,0,0,37.91,64a30.5,30.5,0,0,0,1.48,3.71,2.28,2.28,0,0,0,2,1.35,1.63,1.63,0,0,0,1.49-1.28,2.73,2.73,0,0,0,0-1.27C42.75,66.23,42.69,66.08,42.64,66.09Z"/><path class="cls-5" d="M144.58,175.52c-.11,0-.82-2.08-2.46-5.24a16.44,16.44,0,0,0-3.77-4.88,10.1,10.1,0,0,0-3.12-1.79,17.82,17.82,0,0,0-3.83-.84c-2.68-.34-5.37-.51-7.64-1.49a10.25,10.25,0,0,1-6-8.24,7.49,7.49,0,0,1,0-1.16c0-.27,0-.4.06-.4s0,.56.18,1.54a10.56,10.56,0,0,0,1.46,3.88,9.81,9.81,0,0,0,4.59,3.95c2.18.91,4.75,1.09,7.47,1.41a18.36,18.36,0,0,1,3.95.88,10.53,10.53,0,0,1,3.27,1.91,16.37,16.37,0,0,1,3.79,5.1,34,34,0,0,1,1.65,3.93A7.7,7.7,0,0,1,144.58,175.52Z"/><path class="cls-5" d="M97.94,109.81a19.51,19.51,0,0,1,22.46,4.27c2.76,3,4.58,7,7.95,9.39,4.14,2.89,9.61,2.66,14.66,2.82s10.76,1.19,13.51,5.45c1.28,2,1.7,4.37,2.39,6.65s1.8,4.58,3.88,5.69a14.54,14.54,0,0,0,5.12,1.09c1.74.23,3.61.79,4.54,2.27a58.66,58.66,0,0,1-10.61,18.69l-3.54-1.82.27,4.21a31.67,31.67,0,0,0-8.52,6.93l-6.55-8c-1.92-2.32-3.94-4.73-6.67-6-2.55-1.18-5.46-1.24-8.22-1.56s-5.73-1-7.64-3.06c-1.54-1.67-2.18-4-3.52-5.83a9.06,9.06,0,0,0-8.12-3.56"/><path class="cls-6" d="M111.26,145.82c-.5,2.18,1.09,4.36,3.07,5.23a14.69,14.69,0,0,0,6.43.9,13.85,13.85,0,0,1,6.43,1c3.27,1.61,4.8,5.46,7.64,7.69a9.67,9.67,0,0,0,15.54-6.17,9.71,9.71,0,0,1-11.72.06c-2.65-2.07-4.16-5.52-7.18-7s-6.55-.51-9.82-.23-7.39-.65-8.37-3.83l-.71.12Z"/><g class="cls-7"><path d="M112.05,149.17c-.17.25,2.29,2.18,2.28,1.88,0,0,1.66-.92,1.92-1.85a3.22,3.22,0,0,0-.48-2.91,4.46,4.46,0,0,1-2.41-3h-.75l-.56,5.86"/></g><path class="cls-2" d="M118.69,147.2a6.19,6.19,0,0,1-.25,2.38,11.5,11.5,0,0,1-.69,2.3,14.45,14.45,0,0,1,.46-2.34C118.53,148.26,118.65,147.2,118.69,147.2Z"/><path class="cls-2" d="M128.94,146.81a22.16,22.16,0,0,0-1.9,2.52,15.39,15.39,0,0,0-1.18,2.92,2.42,2.42,0,0,1,.13-.92,8,8,0,0,1,.85-2.11,9.32,9.32,0,0,1,1.38-1.81A3.48,3.48,0,0,1,128.94,146.81Z"/><path class="cls-2" d="M137.94,154.26a3.41,3.41,0,0,1-.6.81,11.58,11.58,0,0,1-1.79,1.64,11.82,11.82,0,0,1-2.09,1.23,3.06,3.06,0,0,1-.93.34,30.52,30.52,0,0,0,2.89-1.76A26.93,26.93,0,0,0,137.94,154.26Z"/><path class="cls-2" d="M144.94,161.66c-.06,0,.07-1.19.08-2.64a23.25,23.25,0,0,1,0-2.64,12.31,12.31,0,0,1,.19,2.64A8.39,8.39,0,0,1,144.94,161.66Z"/><polygon class="cls-11" points="179.91 349.83 219.94 334.77 214.37 317.06 171.05 327.09 179.91 349.83"/><path class="cls-6" d="M214.72,336.9l1.18-.35s14.11,17.59,18,16.65l-12.24-39.7-13.1,4.61A23.78,23.78,0,0,1,214.72,336.9Z"/><g class="cls-14"><path class="cls-8" d="M214,320.83a1.72,1.72,0,0,1,1.51-1.69,1.64,1.64,0,0,1,1.69,1.48,1.78,1.78,0,0,1-1.6,1.78,1.68,1.68,0,0,1-1.59-1.73"/></g><g class="cls-14"><path class="cls-8" d="M221.63,313.5l-3.14,1.09,12.88,37.64s1.32,1.53,2.5.95Z"/></g><path class="cls-5" d="M216.05,336.65c.2-.07,0-1.09.32-2.18s1-1.91.85-2.06-1.16.48-1.54,1.87S215.94,336.75,216.05,336.65Z"/><path class="cls-5" d="M219.06,340.28c.2,0,.27-.95.89-1.86s1.42-1.37,1.36-1.56-1.2,0-1.95,1.18S218.88,340.34,219.06,340.28Z"/><path class="cls-5" d="M224.77,341.11c0-.18-1.09-.16-2,.67s-1.09,1.86-.87,1.9.59-.71,1.34-1.38S224.81,341.31,224.77,341.11Z"/><polygon class="cls-11" points="87.52 428.14 99.19 469.3 117.3 465.21 110.9 421.21 87.52 428.14"/><path class="cls-6" d="M97.5,463.9l.25,1.22s-18.7,12.59-18.08,16.52l40.58-8.91-3.51-13.39A23.73,23.73,0,0,1,97.5,463.9Z"/><g class="cls-14"><path class="cls-8" d="M113.57,464.57a1.69,1.69,0,0,1,1.56,1.65,1.65,1.65,0,0,1-1.61,1.56,1.79,1.79,0,0,1-1.64-1.75,1.69,1.69,0,0,1,1.86-1.44"/></g><g class="cls-14"><path class="cls-8" d="M120.25,472.73l-.85-3.22-38.58,9.77s-1.64,1.19-1.09,2.41Z"/></g><path class="cls-5" d="M97.64,465.26c0,.19,1.1.07,2.19.49s1.81,1.09,2,1-.38-1.2-1.74-1.68S97.56,465.09,97.64,465.26Z"/><path class="cls-5" d="M93.74,468c0,.21.93.35,1.79,1.09s1.24,1.53,1.44,1.48.07-1.2-1-2S93.74,467.77,93.74,468Z"/><path class="cls-5" d="M92.47,473.58c.19,0,.24-1.09-.5-2s-1.77-1.2-1.81-1,.64.63,1.25,1.44S92.26,473.6,92.47,473.58Z"/><path class="cls-5" d="M66.46,253S65,331.54,72.67,384.64l17.72,57.54,24-4.84s-9.21-59.59-10.49-83.91S103.51,240,103.51,240Z"/><path class="cls-5" d="M82.39,245.93l23.28,89.83a33.54,33.54,0,0,0,40.87,24.05l1.15-.32,53.17-15.81-7.64-22.92-49.74,8.34-6.67-51.84s-9.25-38.71-21.58-38.7C112.57,238.56,82.39,245.93,82.39,245.93Z"/><path class="cls-11" d="M55.33,76.5l-.1,4.88s-2,37.71-1.86,43.35,19,38,19,38L60.85,181.64,34.78,134.72a10.28,10.28,0,0,1-1.24-6.31l6.23-50.12L39.94,77"/><path class="cls-6" d="M53.56,125.87l20.31,26.88c3.83,5.06,10.42,7.93,16.28,10.35h0c14.56.71,32.24-1.21,39.5,10.63a8.13,8.13,0,0,1,.86,6.61c-3.14,10.31-13.53,44.64-13.92,49,0,0,4.52,4.67,3.51,7.55s-4.87,1.65-4.87,1.65l-47.9,14.18s-2.18-1.09-2-2.68a76.56,76.56,0,0,1,3.44-10.35,36.14,36.14,0,0,0,1-22.72,80.86,80.86,0,0,1-2.18-9.07l-1.18-17.11C59.8,179.74,44.91,163.54,37.27,141Z"/><path class="cls-11" d="M115,128.74a16.73,16.73,0,0,0-14.52-18.66l-.51,0c-8.9-.85-16.82,5.78-18.17,14.63-1.16,7.76-2.18,15.59-2.18,18.43.11,8.58,5.13,11.91,7.17,12.92a12.37,12.37,0,0,0,2.25.57h0a.06.06,0,0,1,0,.06l-1.91,9.82c-.86,6.45,2.74,12.21,9.17,13.15s11.53-4,12.51-10.48Z"/><path class="cls-5" d="M83.32,129.68c.14.2,1.27-.41,2.73-.2s2.41,1.09,2.58.94,0-.4-.45-.81a3.64,3.64,0,0,0-2-1A3.59,3.59,0,0,0,84,129C83.45,129.29,83.24,129.58,83.32,129.68Z"/><path class="cls-5" d="M96.24,132.47c.14.2,1.27-.4,2.72-.18s2.4,1.09,2.59.94,0-.42-.45-.82a3.64,3.64,0,0,0-2-1,3.58,3.58,0,0,0-2.18.37C96.37,132.09,96.16,132.39,96.24,132.47Z"/><path class="cls-5" d="M91.21,139.34a9.8,9.8,0,0,0-2.29-.77c-.38-.1-.71-.22-.74-.48a2,2,0,0,1,.41-1.09l1.5-2.66a48.23,48.23,0,0,0,3.55-7,51.45,51.45,0,0,0-4.1,6.73c-.5.94-1,1.83-1.46,2.69a2.15,2.15,0,0,0-.41,1.43,1,1,0,0,0,.54.62,2.52,2.52,0,0,0,.61.18A9.18,9.18,0,0,0,91.21,139.34Z"/><path class="cls-12" d="M89.18,156.59s5.53,1.27,13.16-1.92c0,0-3.28,7.09-13.68,4.57Z"/><path class="cls-6" d="M91.32,142.93a2.63,2.63,0,0,1,2.48-.64,2.43,2.43,0,0,1,1.52,1.09,1.57,1.57,0,0,1-.13,1.76,1.79,1.79,0,0,1-2,.2,5.53,5.53,0,0,1-1.7-1.38,1.9,1.9,0,0,1-.35-.49.51.51,0,0,1,.09-.54"/><path class="cls-5" d="M95.34,141c-.24,0-.47,1.53-2,2.46s-3.17.5-3.21.72.33.36,1.09.48a3.88,3.88,0,0,0,2.66-.52A3.38,3.38,0,0,0,95.46,142C95.56,141.39,95.45,141,95.34,141Z"/><path class="cls-5" d="M97.23,127.75c.09.41,1.57.43,3.27.89s3,1.09,3.28.8c.12-.15-.07-.56-.56-1a5.7,5.7,0,0,0-2.34-1.21,5.49,5.49,0,0,0-2.61-.07C97.56,127.29,97.2,127.55,97.23,127.75Z"/><path class="cls-5" d="M84.78,125.2c.21.37,1.27.17,2.47.33s2.18.55,2.47.23c.12-.15,0-.5-.39-.88a3.41,3.41,0,0,0-1.91-.83,3.35,3.35,0,0,0-2.06.38C84.88,124.67,84.69,125,84.78,125.2Z"/><path class="cls-6" d="M84.46,221.12a12,12,0,0,1-12-12V209a69.18,69.18,0,0,1,2.25-14.94l18.55,4.11h0l4.91-8.12s10.34-20.1,20.14-21.42c8.84-1.2,13.75,5.14,11.88,13.94s-15,25.88-26.18,32.82A38.29,38.29,0,0,1,84.46,221.12Z"/><path class="cls-5" d="M119.72,200.32a3.42,3.42,0,0,1-.4.66c-.28.44-.71,1.05-1.27,1.84a60.9,60.9,0,0,1-5.23,6.32,44.76,44.76,0,0,1-9.43,7.7,33.22,33.22,0,0,1-14.09,4.73,26.53,26.53,0,0,1-7.75-.48A14.84,14.84,0,0,1,75,218a11.78,11.78,0,0,1-3.47-5.56,16.69,16.69,0,0,1-.59-5.67,32,32,0,0,1,1.76-8c.32-.92.58-1.61.75-2.1a5,5,0,0,1,.31-.72,4.05,4.05,0,0,1-.2.76c-.16.54-.38,1.25-.64,2.18a33.34,33.34,0,0,0-1.58,8A16.65,16.65,0,0,0,72,212.4a11.2,11.2,0,0,0,3.35,5.29,14.5,14.5,0,0,0,6.33,2.91,26.72,26.72,0,0,0,7.57.45,33.05,33.05,0,0,0,13.88-4.62,45.58,45.58,0,0,0,9.42-7.53,72.76,72.76,0,0,0,5.33-6.17l1.36-1.77A3.75,3.75,0,0,1,119.72,200.32Z"/><path class="cls-5" d="M121.65,200.87a5.32,5.32,0,0,1-2.24,2.64,5.39,5.39,0,0,1-3.27,1.27c0-.16,1.41-.65,2.9-1.73S121.51,200.78,121.65,200.87Z"/><path class="cls-5" d="M91.7,205.77a8.88,8.88,0,0,1,.16-3.7A9.14,9.14,0,0,1,93,198.54a18.57,18.57,0,0,1-.59,3.63A18.27,18.27,0,0,1,91.7,205.77Z"/><path class="cls-5" d="M95.06,207.05a12.68,12.68,0,0,1-2.33-8.84c.17,0,.24,2.06.89,4.5S95.21,207,95.06,207.05Z"/><path class="cls-5" d="M105,179.23a20.83,20.83,0,0,1-1.62,2.92c-1.1,1.77-2.57,4.19-4.25,6.84s-3.27,5-4.36,6.77a21.78,21.78,0,0,1-2,2.71,20.28,20.28,0,0,1,1.62-2.92c1.09-1.78,2.56-4.2,4.25-6.85s3.28-5,4.37-6.77A19.15,19.15,0,0,1,105,179.23Z"/><path class="cls-5" d="M69.56,212a5.53,5.53,0,0,1-.54-1.09,33.87,33.87,0,0,1-1.09-3.27A41.17,41.17,0,0,1,68,185.28,29.15,29.15,0,0,1,69.1,182a5.53,5.53,0,0,1,.54-1.09c.09,0-.55,1.7-1.26,4.47a45.45,45.45,0,0,0-.09,22.11C69,210.3,69.66,212,69.56,212Z"/><path class="cls-5" d="M107,226.49a6.7,6.7,0,0,1-.81,1.09,31.61,31.61,0,0,1-2.51,2.79A40.52,40.52,0,0,1,99.52,234a46.69,46.69,0,0,1-5.74,3.69,48.93,48.93,0,0,1-6.26,2.72,41.85,41.85,0,0,1-5.38,1.44,30.68,30.68,0,0,1-3.71.53,6.27,6.27,0,0,1-1.37,0c0-.11,1.94-.27,5-1a46.37,46.37,0,0,0,5.29-1.54,45.29,45.29,0,0,0,11.86-6.33,46,46,0,0,0,4.23-3.53C105.74,227.94,106.94,226.43,107,226.49Z"/><path class="cls-5" d="M113.93,222.59a14.5,14.5,0,0,1,1.88,3.54,14.17,14.17,0,0,1,1.35,3.79,14.41,14.41,0,0,1-1.87-3.56A14.92,14.92,0,0,1,113.93,222.59Z"/><path class="cls-15" d="M104.41,330.89c-.15,0-3.78-14.74-8.1-33s-7.7-33.08-7.55-33.11,3.78,14.73,8.1,33S104.56,330.89,104.41,330.89Z"/><path class="cls-15" d="M125.76,246a3.32,3.32,0,0,1-.65.7,15.58,15.58,0,0,1-2.1,1.58,16.93,16.93,0,0,1-16.62.74,15.16,15.16,0,0,1-2.18-1.39c-.49-.37-.73-.61-.71-.64a28.7,28.7,0,0,0,3.11,1.67,17.75,17.75,0,0,0,16.24-.73C124.69,246.81,125.69,245.86,125.76,246Z"/><path class="cls-15" d="M92.06,280.83a3.83,3.83,0,0,1-1-.88,11.92,11.92,0,0,1-2-3.14,44.62,44.62,0,0,1-1.82-5.17l-2-6.38c-1.4-4.55-2.62-8.66-3.48-11.65-.4-1.41-.74-2.6-1-3.55a6.06,6.06,0,0,1-.28-1.33A7,7,0,0,1,81,250c.32.92.71,2.1,1.17,3.49,1,2.95,2.25,7.06,3.64,11.6l1.93,6.4a49.48,49.48,0,0,0,1.71,5.16A13.9,13.9,0,0,0,92.06,280.83Z"/><path class="cls-15" d="M85.25,250.34c-.07,0,.22-.53,1-.49a1.43,1.43,0,0,1,1.09.66,1.47,1.47,0,0,1-1.75,2.07,1.41,1.41,0,0,1-.83-1,1,1,0,0,1,.33-1.1,1.72,1.72,0,0,0,0,1,1.15,1.15,0,0,0,.63.65,1,1,0,0,0,1.12-1.32,1.09,1.09,0,0,0-.74-.53C85.63,250.15,85.3,250.41,85.25,250.34Z"/><path class="cls-15" d="M88.28,255.27a.49.49,0,0,1,.35-.2,1.23,1.23,0,0,1,1,.36,1.33,1.33,0,0,1,.12,1.65,1.65,1.65,0,0,1-1.91.63,2,2,0,0,1-1.28-1.54,2.05,2.05,0,0,1,.32-1.58,1.09,1.09,0,0,1,1-.51c.29,0,.36.21.34.22a1.63,1.63,0,0,1-.34,0,1,1,0,0,0-.64.53,1.71,1.71,0,0,0,.73,2.31l.08,0a1.08,1.08,0,0,0,1.29-.38.86.86,0,0,0,0-1.09,1,1,0,0,0-.72-.41C88.39,255.27,88.28,255.31,88.28,255.27Z"/><path class="cls-15" d="M71.42,253.58a5.73,5.73,0,0,1,.65,2.24,13.05,13.05,0,0,1-.47,5.59,13.25,13.25,0,0,1-2.77,4.88,5.68,5.68,0,0,1-1.8,1.47A21.51,21.51,0,0,1,68.52,266a14.62,14.62,0,0,0,3.15-10.15C71.57,254.51,71.33,253.62,71.42,253.58Z"/><path class="cls-15" d="M144.88,328.37a34.58,34.58,0,0,1-4.16,4.56,33.46,33.46,0,0,1-4.57,4.17,34,34,0,0,1,4.17-4.56A33.38,33.38,0,0,1,144.88,328.37Z"/><path class="cls-15" d="M141.21,338.43a36.5,36.5,0,0,1,2.18-8.73,32.88,32.88,0,0,1-2.18,8.73Z"/><g class="cls-7"><path d="M75.19,217.83a11.47,11.47,0,0,0,5.87,7.22,16.83,16.83,0,0,0,9.36,1.65,22.36,22.36,0,0,0,18.39-13.9c-4.87,3.38-10.25,6.55-16.08,7.95A23.26,23.26,0,0,1,75,218.17"/></g><path class="cls-11" d="M91.46,172,75.29,194.32l17.91,3.87,7.34-20.44,5.22-4.68-1.85.38c3.56-1.12-.68,1.16-3.45-1.33l.49-1,3.27-3.47A11.68,11.68,0,0,0,91.46,172Z"/><path class="cls-12" d="M114.33,170.63a1.93,1.93,0,0,1-.53-.11l-1.46-.42c-1.26-.37-3.1-.91-5.38-1.53a34.24,34.24,0,0,0-3.74-.84,14.48,14.48,0,0,0-4.36,0,9.92,9.92,0,0,0-4.37,1.77,15.66,15.66,0,0,0-3.44,3.82A149.76,149.76,0,0,1,80.38,188.4c-1.49,1.84-2.75,3.28-3.64,4.27a9.17,9.17,0,0,1-1.09,1.09,1.85,1.85,0,0,1-.38.36,14.12,14.12,0,0,1,1.25-1.61c.83-1,2-2.51,3.49-4.37A181.61,181.61,0,0,0,90.53,173a15.51,15.51,0,0,1,3.58-3.95,10.53,10.53,0,0,1,4.63-1.85,14.69,14.69,0,0,1,4.49,0,30.66,30.66,0,0,1,3.78.93c2.27.67,4.09,1.28,5.33,1.71l1.43.52A3.2,3.2,0,0,1,114.33,170.63Z"/><path class="cls-12" d="M101,176.24a13,13,0,0,1-.82,2.94,13.28,13.28,0,0,1-1,2.89,9.89,9.89,0,0,1,1.79-5.83Z"/><path class="cls-5" d="M90.52,110.78C85.74,112,79.7,117,81.94,124c5.87-1.44,11.18-5.69,15.94-9.41,1,5.46,1.71,8.15,4.46,13.19,1.09,1.94,10,9.76,11.26,10.37s1.93-5.34.75-7.64C114.35,130.57,108.75,106.06,90.52,110.78Z"/><path class="cls-6" d="M90.52,110.78a26.21,26.21,0,0,1,15.83,8.57,37.23,37.23,0,0,1,7.42,17.72c5.25-6.63,3.27-18.67-2.18-24s-14.45-5.92-21.09-2.29"/><path class="cls-5" d="M149.1,122a1.78,1.78,0,0,1,.26.58,3.47,3.47,0,0,1,0,1.81,4.7,4.7,0,0,1-1.56,2.41,8.61,8.61,0,0,1-3.44,1.63,32.69,32.69,0,0,1-4.51.77,16.71,16.71,0,0,1-5.28-.25,11,11,0,0,1-5.2-2.69,12.92,12.92,0,0,1-3-5.46A52.73,52.73,0,0,0,124.4,115a10.55,10.55,0,0,0-3.52-4.31A16.1,16.1,0,0,0,111.8,108a43.46,43.46,0,0,0-6.55.48l-1.78.24a3.21,3.21,0,0,1-.62,0,2.43,2.43,0,0,1,.6-.17l1.77-.33a36.82,36.82,0,0,1,6.54-.67,16.49,16.49,0,0,1,9.4,2.68,10.9,10.9,0,0,1,3.71,4.52,49.24,49.24,0,0,1,2,5.9,12.5,12.5,0,0,0,2.88,5.27,10.46,10.46,0,0,0,4.92,2.58,22.28,22.28,0,0,0,9.58-.41,8.37,8.37,0,0,0,3.34-1.47,4.52,4.52,0,0,0,1.54-2.23A3.83,3.83,0,0,0,149.1,122Z"/><path class="cls-5" d="M106.77,130.13a17.62,17.62,0,0,0,3,10.59c2.18,3,6.13,4.93,9.76,4.07l-2.87-3.14a6.8,6.8,0,0,0,7-.43,25.43,25.43,0,0,1-16-12.36"/><path class="cls-5" d="M109.62,118.3a9.49,9.49,0,0,1,1.43,2.33,29.09,29.09,0,0,1,3.06,12.76,10,10,0,0,1-.22,2.73A57.67,57.67,0,0,0,112.8,127,58.23,58.23,0,0,0,109.62,118.3Z"/><path class="cls-5" d="M114.1,120.42a7.76,7.76,0,0,1,.5,2.28,36.48,36.48,0,0,1,.38,5.63,39.14,39.14,0,0,1-.41,5.62,8.57,8.57,0,0,1-.52,2.28c-.17,0,.36-3.55.36-7.91S113.92,120.44,114.1,120.42Z"/><path class="cls-2" d="M113.25,115.18a7.66,7.66,0,0,1-1.24.28c-.76.16-1.81.4-2.94.73s-2.18.7-2.87,1a8.45,8.45,0,0,1-1.19.43,5.46,5.46,0,0,1,1.09-.59,24.2,24.2,0,0,1,2.87-1.09,23.33,23.33,0,0,1,3-.67A7,7,0,0,1,113.25,115.18Z"/><path class="cls-2" d="M107.4,110.18a12.87,12.87,0,0,1-1.38.25,23,23,0,0,0-6.36,2.18,9.75,9.75,0,0,1-1.24.65,2.21,2.21,0,0,1,.29-.23c.2-.13.51-.34.88-.56a18.15,18.15,0,0,1,3.08-1.39,17.64,17.64,0,0,1,3.28-.8c.34,0,.68-.09,1-.11S107.4,110.16,107.4,110.18Z"/><path class="cls-2" d="M97.56,108.6c0,.07-1.27.49-2.83,1.09-.66.26-1.32.56-2,.88a5,5,0,0,1-.8.41,7.88,7.88,0,0,1,2.66-1.5c.79-.31,1.52-.55,2-.72A3.33,3.33,0,0,1,97.56,108.6Z"/><path class="cls-2" d="M111.77,123.81a2.45,2.45,0,0,1-1.15.32,2.7,2.7,0,0,1-1.2-.06,4.67,4.67,0,0,1,1.18-.17A3.83,3.83,0,0,1,111.77,123.81Z"/><path class="cls-2" d="M114.38,125.65a1.46,1.46,0,0,1-.77.13c-.44,0-.79,0-.79-.08s.35-.12.78-.13S114.37,125.59,114.38,125.65Z"/><path class="cls-2" d="M116.52,123.44a2.31,2.31,0,0,1-1,0,2.23,2.23,0,0,1-1-.21,2,2,0,0,1,1,0A2.28,2.28,0,0,1,116.52,123.44Z"/><g class="cls-7"><path d="M113.87,136.67a34.89,34.89,0,0,0-2-13.09,1.85,1.85,0,0,1-.08-1.64,1.27,1.27,0,0,1,1.79,0,1.22,1.22,0,0,1,.15.17,3.61,3.61,0,0,1,.57,2.19,1.45,1.45,0,0,1,.7-1.22A14,14,0,0,1,114,136.2"/></g><rect class="cls-5" x="35.23" y="57.34" width="32.99" height="16.09" rx="2.44" transform="translate(-24.64 31.92) rotate(-27.99)"/><path class="cls-2" d="M68.05,63l-1-1.92a.54.54,0,0,0-.74-.21l-.35.18a.54.54,0,0,1-.73-.2l-2-3.75a.54.54,0,0,1,.24-.73l.35-.18a.56.56,0,0,0,.24-.72l-.32-.67-.89-1.68a1.73,1.73,0,0,0-2.32-.71L36.27,65.33a1.7,1.7,0,0,0-.72,2.29v0l5.25,9.89a1.7,1.7,0,0,0,2.3.71h0L67.34,65.35a1.7,1.7,0,0,0,.72-2.3Z"/><path class="cls-5" d="M65.63,64.91a.08.08,0,0,1-.11,0,.11.11,0,0,1,0-.11.08.08,0,0,1,.11,0h0a.08.08,0,0,1,0,.11Z"/><path class="cls-5" d="M65.37,65a.08.08,0,0,1-.11,0h0a.08.08,0,0,1,0-.11.11.11,0,0,1,.11,0,.08.08,0,0,1,0,.11Z"/><path class="cls-5" d="M65.13,65.18a.08.08,0,0,1-.11,0,.07.07,0,0,1,0-.1h0a.09.09,0,0,1,.11,0h0A.09.09,0,0,1,65.13,65.18Z"/><path class="cls-5" d="M62.33,63.57v-.1h.27l-.17.22v0Zm0,0,.06-.08h-.08Z"/><path class="cls-5" d="M62.54,63.57v.1a.13.13,0,0,1,0,.18.12.12,0,0,1-.17-.06h0l-.06-.1Zm-.12.2a.08.08,0,0,0,.1,0h0a.08.08,0,0,0,0-.11h0l-.14.07Z"/><path class="cls-5" d="M62.69,63.86V64a.12.12,0,0,1,0,.17h0a.13.13,0,0,1-.16,0s0,0,0,0V64Zm-.14.19a.08.08,0,0,0,.11,0h0a.05.05,0,0,0,0-.07l0,0h0l-.13.08Z"/><path class="cls-5" d="M62.75,64.52l.13-.08h-.14l.08-.12-.13.07h0l.2-.12h0l-.08.15H63l-.21.12Z"/><path class="cls-5" d="M62.9,64.54a.14.14,0,0,1,.17,0s0,0,0,0a.11.11,0,0,1,0,.17h0a.13.13,0,0,1-.18,0,.13.13,0,0,1-.06-.17A.11.11,0,0,1,62.9,64.54Zm.11.19a.09.09,0,0,0,0-.1.07.07,0,0,0-.11,0,.07.07,0,0,0,0,.1.09.09,0,0,0,.12,0Z"/><path class="cls-5" d="M63,65v-.07H63l.22-.12v.1a.09.09,0,0,1,0,.13h0a.09.09,0,0,1-.1,0v.09Zm.16-.14H63.1s.09,0,.09,0Z"/><path class="cls-5" d="M63.19,65.25h0l-.09-.16.22-.12.09.16h0V65h0v.1h0V65h0Z"/><path class="cls-5" d="M63.34,65.4v-.05h0Z"/><path class="cls-5" d="M59.58,54.37a.3.3,0,0,1,.41.13.31.31,0,0,1,0,.25h-.11a.15.15,0,0,0,0-.16.16.16,0,0,0-.22-.08h0a.19.19,0,0,0-.08.24h0a.18.18,0,0,0,.13.09V55a.26.26,0,0,1-.2-.15.3.3,0,0,1,0-.42Z"/><path class="cls-5" d="M60,55.26l-.22.12,0-.1h0a.16.16,0,0,1-.12-.09.13.13,0,0,1,0-.18v0a.19.19,0,0,1,.2.1v0a.38.38,0,0,0-.09-.09l.17-.12A.27.27,0,0,1,60,55C60.15,55.1,60.13,55.2,60,55.26Zm-.16,0h0v-.08h-.08a.06.06,0,0,0,0,.08h0a.08.08,0,0,0,.11,0,.06.06,0,0,0,0-.07Z"/><path class="cls-5" d="M60.36,55.51h-.1a.1.1,0,0,0-.16,0l-.18.1V55.5l.38-.2.06.1h0A.11.11,0,0,1,60.36,55.51Z"/><path class="cls-5" d="M60.74,55.93l-.52.29v-.11h0a.2.2,0,0,1-.11-.09.21.21,0,0,1,.07-.29h0a.22.22,0,0,1,.3.07.17.17,0,0,1,0,.14l.19-.09Zm-.39,0c.07,0,.09-.1,0-.15a.11.11,0,1,0,0,.15Z"/><path class="cls-5" d="M60.3,56.21h.09a.38.38,0,0,0,0,.15s0,.06.07,0-.12-.23,0-.3.15,0,.22.11a.43.43,0,0,1,0,.16h-.1a.24.24,0,0,0,0-.12s-.06-.07-.08,0,.13.22,0,.31-.15,0-.22-.12A.31.31,0,0,1,60.3,56.21Z"/><path class="cls-5" d="M46,67.32l-.07-.13H46l.2.37h-.1L46,67.43l-.31.18-.07-.12Z"/><path class="cls-5" d="M46,67.64a.25.25,0,0,1,.33.09v0a.26.26,0,0,1-.08.35h0A.27.27,0,0,1,45.9,68a.25.25,0,0,1,.09-.34Zm.19.35a.17.17,0,0,0,0-.19.12.12,0,0,0-.17,0h0A.14.14,0,0,0,46,68h0a.13.13,0,0,0,.19,0A.1.1,0,0,0,46.19,68Z"/><path class="cls-5" d="M46.44,68.19l-.07-.14h.09l.21.38h-.1l-.07-.14-.32.18v-.12Z"/><path class="cls-5" d="M46.49,68.86l-.09-.17h-.1l-.07-.12h.51l.07.12-.32.34-.06-.12Zm.07-.07.11-.14H46.5Z"/><path class="cls-5" d="M46.93,68.87,47,69l-.33.17.11.2h-.1l-.16-.31Z"/><path class="cls-5" d="M43.55,67.4l-.13.07h0l.12-.07a.47.47,0,0,1,0-.33h0a.48.48,0,0,0,0,.29l.29-.16c0-.14-.06-.28.08-.37a.26.26,0,0,1,.34.11,0,0,0,0,0,0,0l.13-.07h0l-.13.07a.5.5,0,0,1,0,.27h0a.49.49,0,0,0,0-.24l-.29.16c0,.14.06.29-.08.37A.27.27,0,0,1,43.55,67.4Zm.41-.29.29-.16c-.08-.11-.17-.13-.23-.08s-.09.13-.07.24Zm-.11.36c.09,0,.08-.15,0-.26l-.27.15c.11.12.2.14.26.11Z"/><path class="cls-5" d="M44.8,67.86l-.78.41V68.2l.72-.39-.11-.18h.07Z"/><path class="cls-5" d="M44.64,69c-.14.08-.29,0-.39-.19s-.08-.35.06-.42a.2.2,0,0,1,.27,0,.22.22,0,0,1,.11-.22c.13-.07.26,0,.36.16s.07.32-.06.39a.21.21,0,0,1-.24,0A.22.22,0,0,1,44.64,69Zm0-.09c.1,0,.11-.16,0-.3s-.19-.19-.29-.13-.1.16,0,.3S44.52,68.92,44.64,68.86Zm.1-.34c.06.12.16.17.25.12s.1-.15,0-.27-.16-.16-.24-.12-.11.15,0,.27Z"/><path class="cls-5" d="M44.9,69a.37.37,0,0,1,.56.09.42.42,0,0,1-.23.53.4.4,0,0,1-.57-.1A.36.36,0,0,1,44.9,69Zm.28.54c.22-.12.28-.27.21-.41s-.24-.17-.45,0-.28.27-.2.4.24.07.44,0Z"/><path class="cls-5" d="M45,70h-.08v-.08a.07.07,0,0,1,.09,0A.06.06,0,0,1,45,70Z"/><path class="cls-5" d="M45.39,70.65h-.07l-.3-.53h0l.51.15a.36.36,0,0,0,.25,0c.09,0,.11-.14,0-.26a.34.34,0,0,0-.21-.18v-.07a.4.4,0,0,1,.26.21c.09.16.07.31-.07.38a.34.34,0,0,1-.31,0l-.41-.12Z"/><path class="cls-5" d="M45.73,70.57a.4.4,0,0,1,.57.1c.1.18,0,.4-.23.54a.4.4,0,0,1-.57-.1C45.4,70.94,45.51,70.72,45.73,70.57Zm.29.55c.21-.11.28-.27.2-.4s-.24-.18-.45,0-.27.26-.2.4.27.09.49,0Z"/><rect class="cls-6" x="40.73" y="65.29" width="2.99" height="11.4" rx="1.37" transform="translate(-28.58 28.45) rotate(-28.26)"/><g class="cls-7"><rect x="40.73" y="65.29" width="2.99" height="11.4" rx="1.37" transform="translate(-28.58 28.45) rotate(-28.26)"/></g><rect class="cls-6" x="40.53" y="64.9" width="2.99" height="11.4" rx="1.37" transform="translate(-28.42 28.31) rotate(-28.26)"/><path class="cls-8" d="M42,70.23a.27.27,0,0,1-.35-.13v0l-.08-.15-.18.11v-.1L42,69.6l.13.24A.35.35,0,0,1,42,70.23Zm0-.1c.09,0,.11-.13,0-.24l-.08-.16-.28.16.07.14c.07.09.16.15.24.09Z"/><path class="cls-8" d="M42,70.85l-.19-.33h-.18v-.09h.77v.09l-.48.62V71Zm0-.07.23-.29h-.38Z"/><path class="cls-8" d="M42.33,71.27l-.22.12v-.08l.2-.12.28-.47,0,.1-.22.38h.44v.08Z"/><path class="cls-6" d="M48.35,69l.1.13a.61.61,0,0,0,.4.19.58.58,0,0,0,.32,0l.35-.2.85-.46,1-.56.28-.15a.82.82,0,0,0,.25-.21.6.6,0,0,0,0-.63c-.45-.84-1-1.74-1.47-2.7a.62.62,0,0,0-.66-.31.71.71,0,0,0-.18.08l-.17.08-.34.19-1.31.71-.61.33a.67.67,0,0,0-.25.19.74.74,0,0,0-.12.29.71.71,0,0,0,0,.29c0,.09.09.18.13.26l.27.49c.33.64.6,1.09.8,1.5l.22.4V69h0v-.1l-.23-.4L47.19,67l-.27-.5a1.69,1.69,0,0,1-.13-.27.55.55,0,0,1,0-.31.56.56,0,0,1,.12-.3.71.71,0,0,1,.27-.21l.6-.34,1.31-.69.34-.19.17-.1a.62.62,0,0,1,.19-.07.68.68,0,0,1,.72.32c.51,1,1,1.87,1.46,2.71a.64.64,0,0,1,0,.68.75.75,0,0,1-.26.21l-.28.16-1,.55-.85.45a3.9,3.9,0,0,1-.35.19.53.53,0,0,1-.33.06.61.61,0,0,1-.4-.19A.59.59,0,0,1,48.35,69Z"/><path class="cls-6" d="M49.22,67.55h0v-.07l-.22-.3-.5-.9h0l.14-.1,1-.76h0l-.13-.25v-.06h0v.06l.13.24h0l-1,.76-.13.11h0c.2.36.37.67.49.91l.16.28v.07Z"/><path class="cls-6" d="M48.77,66.08h0v.07l.16.27.51,1h0l.57-.19.29-.1h0L49.7,66l-.18-.32v-.1h0l0,.08.19.34.61,1.09h0l-.3.1-.55.2h0L49,66.46l-.15-.27v-.08h0Z"/><path class="cls-6" d="M48.35,66.78h0a.14.14,0,0,0,0-.09.13.13,0,0,0,0-.12.14.14,0,0,0-.15,0,.13.13,0,0,0-.08.14.15.15,0,0,0,.08.11h.13a.17.17,0,0,1-.1,0,.11.11,0,0,1-.09-.12.14.14,0,0,1,.08-.15.14.14,0,0,1,.17,0,.15.15,0,0,1,0,.13.14.14,0,0,1,0,.09Z"/><path class="cls-6" d="M48.8,67.61h0v-.09a.24.24,0,0,0,0-.12.15.15,0,0,0-.16,0,.13.13,0,0,0-.06.14.12.12,0,0,0,.07.11h.09a.09.09,0,0,1-.1,0,.15.15,0,0,1-.06-.2.11.11,0,0,1,.06-.07.15.15,0,0,1,.18,0,.12.12,0,0,1,0,.14.14.14,0,0,1,0,.09Z"/><path class="cls-6" d="M50.64,67.35a.42.42,0,0,1-.56-.17.41.41,0,1,1,.72-.4A.43.43,0,0,1,50.64,67.35Z"/><path class="cls-8" d="M50.61,67l-.29.14V67l.23-.12h0Z"/><rect class="cls-6" x="52.58" y="56.93" width="7.57" height="11.93" rx="1.75" transform="translate(-23.06 34.19) rotate(-28.26)"/><path class="cls-8" d="M56.28,58.4a.22.22,0,0,1-.24-.13L55.9,58l.49-.27.13.24c.07.12,0,.21,0,.26a.17.17,0,0,1-.14,0A.14.14,0,0,1,56.28,58.4Zm.09-.49-.12.06.06.11s.07.08.11,0,0,0,0-.11Zm-.14.37v-.13L56.16,58l-.12.06.07.13C56.15,58.28,56.18,58.3,56.23,58.28Z"/><path class="cls-8" d="M56.47,58.82l-.12-.23h-.13v-.12h.61v.11l-.37.49L56.39,59Zm.07-.08.14-.18h-.22Z"/><path class="cls-8" d="M57.22,59.28l-.49.26v-.09l.16-.41-.29.17-.07-.11.5-.28v.1l-.16.41.29-.17Z"/><path class="cls-8" d="M57.08,59.74H57l-.12.07-.07-.11.5-.28v.12l-.22.12.34.1.07.12-.33-.07-.15.36L56.91,60Z"/><path class="cls-8" d="M54.17,59.4v-.09l-.12.07h.12L54,59.12h0l.43.07v.06L54,59.17l.1.2.11-.06h-.1v.09Z"/><path class="cls-8" d="M54.37,59.73a.25.25,0,0,1-.23-.09.31.31,0,0,1,0-.19h0a.25.25,0,0,0,0,.17.12.12,0,0,0,.15.07.14.14,0,0,0,0-.18h.23l-.06-.24h0l.15.3h-.23C54.46,59.62,54.46,59.7,54.37,59.73Z"/><path class="cls-8" d="M54.57,60.09a.24.24,0,0,1-.23-.09.21.21,0,0,1,0-.19h0a.22.22,0,0,0,0,.16c0,.08.1.1.16.06s.07-.08,0-.19v-.1l.24-.1.13.25h0l-.11-.2h-.15v.06C54.68,60,54.64,60.06,54.57,60.09Z"/><path class="cls-8" d="M54.79,60.49a.15.15,0,0,1-.21-.05v0c-.07-.12,0-.23.12-.31a.23.23,0,0,1,.32,0l0,0a.24.24,0,0,1,0,.12h0a.17.17,0,0,0,0-.1.19.19,0,0,0-.25-.08h0a.23.23,0,0,1,.16.1.18.18,0,0,1-.05.23Zm0,0a.11.11,0,0,0,0-.15h0c0-.08-.11-.1-.17-.07s-.07.09,0,.18a.11.11,0,0,0,.13,0Z"/><path class="cls-8" d="M55.18,61.54l.07-.18h.06l.1-.21h0l-.08.17.22.07h-.23l-.11.23Z"/><path class="cls-8" d="M55.36,61.89l.08-.19h-.2v-.05h.25l.1-.22h0l-.07.18h0l-.11.23Z"/><path class="cls-8" d="M55.55,62.24l.08-.19h0l.1-.21h0L55.7,62h.2v.05h-.23l-.11.23Z"/><path class="cls-8" d="M55.73,62.58l.08-.19h.06l.09-.21h0l-.08.18h0l-.11.23Z"/><path class="cls-8" d="M56.37,63.78l.09-.19h0l.1-.22h0l-.08.17h-.05l-.1.23Z"/><path class="cls-8" d="M56.55,64.12l.09-.19h.06l.09-.22h0l-.07.18h-.06l-.1.23Z"/><path class="cls-8" d="M56.74,64.46l.09-.18h-.2v-.06h.25L57,64h0l-.08.17h0l-.1.23Z"/><path class="cls-8" d="M56.92,64.8l.09-.17h.06l.09-.22h0l-.07.16h.18v.06H57l-.09.23Z"/><path class="cls-8" d="M58,65.63l-.46.25v0l.42-.22-.07-.11h0Z"/><path class="cls-8" d="M57.85,66.22a.15.15,0,0,1-.21-.09h0a.31.31,0,0,1,0-.19h.06a.15.15,0,0,0,0,.16.1.1,0,0,0,.13.07h0a.14.14,0,0,0,0-.17h.22L58,65.75h0l.15.3H57.9A.16.16,0,0,1,57.85,66.22Z"/><path class="cls-8" d="M58.08,66.67v-.09l-.12.07h0l.12-.07-.14-.26h0l.42.08h0L58,66.32l.1.2h0v.08Z"/><path class="cls-8" d="M58.19,67.06h0L58,66.75h0l.28.08a.17.17,0,0,0,.14,0,.11.11,0,0,0,0-.15.17.17,0,0,0-.12-.1h0a.19.19,0,0,1,.15.12.14.14,0,0,1,0,.2l0,0a.17.17,0,0,1-.17,0l-.24-.08Z"/><path class="cls-8" d="M52.79,59.35a.13.13,0,0,1,.17,0v.11h0a0,0,0,0,0,0-.06.08.08,0,0,0-.1,0h0a.06.06,0,0,0,0,.09h.06a.16.16,0,0,1-.09-.07A.13.13,0,0,1,52.79,59.35Z"/><path class="cls-8" d="M52.92,59.76v-.1h.2l-.17.22h0Zm0,0,.07-.07h-.1Z"/><path class="cls-8" d="M53,60V60h-.07l.22-.12v.1a.08.08,0,0,1,0,.12h0a.09.09,0,0,1-.1,0v.08Zm.14-.14h0S53.17,59.9,53.15,59.87Z"/><path class="cls-8" d="M53.06,60.08h0v.07h0V60s.09,0,.12.05a.14.14,0,0,1,0,.09h0a.06.06,0,0,0,0-.06h0v.17c0,.05-.09,0-.12,0A.38.38,0,0,1,53.06,60.08Z"/><path class="cls-8" d="M53.53,60.47l-.22.12h.1l0-.19h-.09l.22-.12h-.08v.09h.09Z"/><path class="cls-8" d="M53.44,60.57a.15.15,0,0,1,.18,0,.17.17,0,0,1,0,.19.14.14,0,0,1-.18-.07h0A.13.13,0,0,1,53.44,60.57Zm.1.19a.08.08,0,0,0,0-.11h0a.08.08,0,0,0-.11,0,.06.06,0,0,0,0,.09h0a.08.08,0,0,0,.11,0Z"/><path class="cls-8" d="M53.69,60.79h0l-.18.1.06.11h0l-.08-.17Z"/><path class="cls-8" d="M53.79,61v.1a.12.12,0,0,1,0,.17h0a.13.13,0,0,1-.17-.06v-.1Zm-.12.19a.08.08,0,0,0,.15,0,.08.08,0,0,0,0,0h0l-.13.08Z"/><path class="cls-8" d="M53.85,61.49h0l-.13-.1.21-.12.09.16h0v-.11H54l.05.1h0v-.1H54Z"/><path class="cls-8" d="M53.9,61.69v-.07h0l.22-.12v.1a.08.08,0,0,1,0,.12h0a.07.07,0,0,1-.09,0v.07Zm.15-.14Z"/><path class="cls-8" d="M51.93,59.78H52a.11.11,0,0,0,0,.11.06.06,0,0,0,.09,0h0l.21-.11,0-.11h.07l.13.24-.26.15A.16.16,0,0,1,52,60l0,0A.18.18,0,0,1,51.93,59.78Z"/><path class="cls-8" d="M52.11,60.12a.08.08,0,0,1,.09,0,.06.06,0,0,1,0,.08h0a.06.06,0,0,1-.08,0h0A.08.08,0,0,1,52.11,60.12Z"/><path class="cls-8" d="M52.9,60.72l-.48.09-.07-.1.24-.25-.34.07v-.11l.35-.36v.09l-.24.26h.35v.08l-.24.25h.35Z"/><path class="cls-8" d="M52.92,60.77H53m0,.07a.05.05,0,0,1-.08,0h0a.09.09,0,0,1,0-.07Zm-.18,0v.09l-.32.17V61Z"/><path class="cls-8" d="M53.05,60.94l.06.1-.45.23v-.09Z"/><path class="cls-8" d="M53.15,61.12v.09l-.44.24v-.09Z"/><path class="cls-8" d="M53.21,61.3a.06.06,0,0,1,.08,0,.06.06,0,1,1-.09.09.06.06,0,0,1,0-.08Zm-.08.07v.08l-.32.18v-.09Z"/><path class="cls-8" d="M53.24,61.9l-.19.1v-.09h0a.12.12,0,0,1-.1-.07.31.31,0,0,1,0-.17s.12,0,.18.08v0a.32.32,0,0,0-.09-.08v-.07a.25.25,0,0,1,.11.12C53.37,61.77,53.37,61.85,53.24,61.9Zm-.13,0h0v-.06H53s0,0,0,.06,0,0,.08,0Z"/><path class="cls-8" d="M53.56,62.48l-.17.1v-.09l.17-.1a.07.07,0,0,0,0-.1.11.11,0,0,0-.13,0l-.15.09v-.1l.17-.08a.08.08,0,0,0,0-.11h-.13l-.15.08v-.08l.32-.18V62h0a.16.16,0,0,1,.1.08.15.15,0,0,1,0,.13.21.21,0,0,1,.11.08C53.68,62.39,53.66,62.48,53.56,62.48Z"/><path class="cls-8" d="M53.44,62.65h.09a.28.28,0,0,0,0,.13h.07c.06,0-.11-.19,0-.26s.13,0,.18.09a.33.33,0,0,1,0,.14h-.07a.17.17,0,0,0,0-.1h0s.09.19,0,.27-.14,0-.18-.1A.46.46,0,0,1,53.44,62.65Z"/><path class="cls-8" d="M55.61,66.3a.22.22,0,0,1,.3,0v0c.07.1,0,.22-.11.3a.27.27,0,0,1-.32-.07A.22.22,0,0,1,55.61,66.3Zm.15.26a.1.1,0,0,0,.08-.15s-.08-.07-.17,0-.12.11-.1.15S55.66,66.61,55.76,66.56Z"/><path class="cls-8" d="M55.94,67.08a.15.15,0,0,1-.22-.06h0a.21.21,0,0,1,.08-.28l0,0a.22.22,0,0,1,.31,0l0,0a.29.29,0,0,1,0,.13h-.09a.14.14,0,0,0,0-.09.13.13,0,0,0-.18,0h0s.06,0,.1.09A.14.14,0,0,1,55.94,67.08Zm0-.08a.07.07,0,0,0,0-.1s-.06-.07-.1,0,0,0,0,.11h.1Z"/><path class="cls-8" d="M56.41,67.08v.09l-.66.1v-.08Z"/><path class="cls-8" d="M56.2,67.71h-.08L56,67.4H56l.24.08h.1s0,0,0-.1a.13.13,0,0,0-.09-.07v-.08a.17.17,0,0,1,.16.12v.21s-.07,0-.16,0h-.14Z"/><path class="cls-8" d="M56.43,68.11V68h-.08V68h.08l-.12-.22h.44v.1H56.4V68h.08V68H56.4v.07Z"/><g class="cls-9"><path class="cls-8" d="M59.1,64.43a.74.74,0,0,0,.1-.94.69.69,0,0,0-.21-.24.56.56,0,0,0-.73,0,1,1,0,0,0,.1,1.24.6.6,0,0,0,.63,0Z"/></g><g class="cls-9"><path class="cls-8" d="M62.34,66l-5.28-9.82a.4.4,0,0,0-.53-.16h0l-1.76,1a3.31,3.31,0,0,0,.85,2.41,13.87,13.87,0,0,0,2.37,2,5.13,5.13,0,0,1,1.93,2.34,9.49,9.49,0,0,1,.2,2.91,6.15,6.15,0,0,0,.11,1l2-1.1A.4.4,0,0,0,62.34,66Z"/></g><path class="cls-11" d="M51.77,81.36l4.43-3.61a9.65,9.65,0,0,0,3.52-6.28l.19-1.87L46.66,66.91s-1.25,4,3.76,5c-4.44,1.92-6.1,6-7.31,10.3Z"/><path class="cls-12" d="M46.3,75.33A14.8,14.8,0,0,1,47.45,74a6.18,6.18,0,0,1,4.06-1.63h1.43l-1.34-.49-3.1-1.09h.07a3.69,3.69,0,0,1-1.93-3.45,1.8,1.8,0,0,1,.06-.32l-.38.21c3.73.93,7.11,1.7,9.59,2.18,1.23.21,2.18.36,2.93.44a3.38,3.38,0,0,0,1.1,0A38.57,38.57,0,0,0,56,69c-2.45-.53-5.8-1.37-9.53-2.3l-.28-.08-.09.29a2,2,0,0,0-.1.42,3.71,3.71,0,0,0,.58,2.43,5,5,0,0,0,1.66,1.61h0l3.12,1.09.09-.5a6.21,6.21,0,0,0-4.28,1.94A3.38,3.38,0,0,0,46.3,75.33Z"/></g><g id="freepik--Plant--inject-286"><path class="cls-6" d="M423.35,391.37a40.8,40.8,0,0,0-13.62-38.58s-3.16-1.16-2.89,2.38c.16,2.11-1.87,5.1-3.56,3.8-2.93-2.25-2-6.86-3.27-10.34-1.47-4.08-5.82-6.25-9.82-8-7.33-3.22-14.79-6.32-22.66-7.75s-16.28-1.1-23.47,2.47c1.74,3.52,3.49,7,5.22,10.53a3.69,3.69,0,0,0,4.65,2.35h0l9.54-.7c1.39-.1,3.19.06,3.58,1.38.46,1.51-1.34,2.63-2.82,3.16l-10,3.59a32.24,32.24,0,0,0,13.23,11A97.29,97.29,0,0,0,384,372.35a9.77,9.77,0,0,0,5.46.42c2.91-.94,4.93-4.59,8-4.14a12.73,12.73,0,0,1-4.69,8.61c11.79,4.63,20,10.29,30.55,14.18"/><path class="cls-5" d="M433.46,443.74a.84.84,0,0,0-.09-.3l-.19-.91c-.18-.83-.43-2-.73-3.48-.62-3.07-1.5-7.43-2.58-12.82-.53-2.71-1.09-5.67-1.75-8.85-.31-1.59-.64-3.27-1-4.94l-.5-2.58c-.13-.88-.25-1.78-.38-2.68-1.09-7.18-2.4-15.19-5.9-22.83s-9.21-13.53-14.61-18.35a124.61,124.61,0,0,0-15.55-11.5c-4.65-3-8.51-5.19-11.17-6.76L376,345.92l-.79-.48c-.18-.1-.27-.17-.26-.18l.29.13.82.44,3.11,1.71c2.69,1.52,6.6,3.7,11.28,6.62a121.93,121.93,0,0,1,15.68,11.45,75.73,75.73,0,0,1,8.07,8.15,47,47,0,0,1,6.71,10.35c3.54,7.74,4.82,15.8,5.89,23,.13.91.25,1.79.37,2.68s.34,1.73.5,2.58l.94,4.93c.6,3.19,1.17,6.16,1.69,8.87,1,5.39,1.82,9.82,2.4,12.86.26,1.48.46,2.65.62,3.49.06.38.11.67.15.91A1.17,1.17,0,0,1,433.46,443.74Z"/><path class="cls-6" d="M452,311.55c-2.58,3.78-9.77,1.95-10.22-2.6s6.26-7.75,9.52-4.53a107.59,107.59,0,0,0-4-39.66,20.69,20.69,0,0,1-3.72,7.24c-1.84,2-4.81,3.28-7.37,2.3-3.46-1.29-4.49-6-3.05-9.44s4.56-5.77,7.54-8a37.15,37.15,0,0,0-23.06-18.39c-3.84,6.22-7.74,12.55-9.46,19.64s-.95,15.18,3.78,20.73c2,2.35,4.68,4.2,6.24,6.88s1.46,6.8-1.29,8.24c-3.28,1.7-6.89-1.51-8.73-4.66s-3.71-7-7.32-7.64c-2.19,25.18,10.85,51.1,32.39,64.38l-.37-.35A100.91,100.91,0,0,0,452,311.55Zm-16.59-27.88a17.4,17.4,0,0,1,6.71-3.84,2.56,2.56,0,0,1,2.89.76,3.82,3.82,0,0,1,.74,3,7.21,7.21,0,0,1-1.28,2.9,9.67,9.67,0,0,1-3.87,3.42,6,6,0,0,1-5.07,0,3.51,3.51,0,0,1-2-2.84A4.78,4.78,0,0,1,435.38,283.67Z"/><path class="cls-5" d="M438.22,443.74a1.27,1.27,0,0,1,0-.39,9,9,0,0,0-.06-1.17c0-1.09-.09-2.56-.17-4.47-.15-3.93-.37-9.54-.65-16.47-.62-13.9-1.59-33.09-3.16-54.26s-3.37-40.3-4.89-54.13c-.73-6.91-1.41-12.5-1.88-16.36-.22-1.91-.4-3.41-.52-4.45l-.12-1.16a2.81,2.81,0,0,1,0-.41,1.37,1.37,0,0,1,.09.4A9.51,9.51,0,0,0,427,292c.14,1.1.34,2.54.61,4.43.53,3.87,1.27,9.44,2.06,16.37,1.62,13.81,3.52,32.95,5.06,54.13s2.48,40.37,3,54.28c.25,7,.4,12.58.48,16.48,0,1.92,0,3.42.06,4.48v1.16A1.8,1.8,0,0,1,438.22,443.74Z"/><polygon class="cls-15" points="397.48 420.34 407.64 463.43 460.87 463.43 472.13 420.34 397.48 420.34"/><path class="cls-15" d="M414.22,454.37c0,.82,4.12,25.52,4.12,25.52h32.38l3.57-25.52Z"/><path class="cls-5" d="M459.4,463.23c0,.15-11.62.28-25.95.28s-25.95-.13-25.95-.28,11.61-.29,25.95-.29S459.4,463.06,459.4,463.23Z"/><path class="cls-5" d="M464.94,445.86c0,.15-13.7.28-30.55.28s-30.61-.13-30.61-.28,13.71-.29,30.61-.29S464.94,445.69,464.94,445.86Z"/><path class="cls-5" d="M462.53,451.86c0,.15-12.9.28-28.81.28s-28.8-.13-28.8-.28,12.9-.28,28.8-.28S462.53,451.7,462.53,451.86Z"/><path class="cls-5" d="M462.37,457.86c0,.15-12.44.28-27.77.28s-27.78-.13-27.78-.28,12.44-.28,27.78-.28S462.37,457.7,462.37,457.86Z"/><path class="cls-5" d="M466.48,440c0,.15-14.32.28-32,.28s-32-.1-32-.28,14.31-.3,32-.3S466.48,439.87,466.48,440Z"/><path class="cls-5" d="M467.5,435.23c0,.15-14.57.28-32.56.28s-32.57-.13-32.57-.28,14.57-.28,32.57-.28S467.5,435.07,467.5,435.23Z"/></g><g id="freepik--speech-bubble--inject-286"><path class="cls-5" d="M111.87,18.57a4.81,4.81,0,0,0,.62-.06l1.82-.13c.4,0,.85-.08,1.34-.07l1.61.07a12.49,12.49,0,0,1,1.89.1l2.18.29a34.38,34.38,0,0,1,21.74,12.81l1.25,1.64c.39.57.75,1.19,1.09,1.8a33.08,33.08,0,0,1,2.06,3.85,37,37,0,0,1,3,13.79c0,.83,0,1.67-.07,2.51v1.26a9.24,9.24,0,0,1-.18,1.27,33.28,33.28,0,0,1-2.92,10.1A35,35,0,0,1,132,84a34.06,34.06,0,0,1-11.35,3.72,33.69,33.69,0,0,1-12.3-.32c-.52-.11-1.09-.23-1.56-.36h.22l-16.2,10.1-.57.36.15-.66,3.64-16.26.09.28a34.78,34.78,0,0,1-13-21.51,27,27,0,0,1-.5-3.9V51.67a34.81,34.81,0,0,1,25.19-32l2.57-.65,1.91-.28,1.17-.15a2.54,2.54,0,0,1,.39,0l-.39.08-1.16.14-1.9.31-2.54.69a36,36,0,0,0-6.69,2.8A35,35,0,0,0,84.47,38.2,34.39,34.39,0,0,0,81.2,51.68a13,13,0,0,0,0,1.87c.09.64.08,1.27.11,1.9a26.11,26.11,0,0,0,.46,3.85A34.14,34.14,0,0,0,94.65,80.42l.14.09v.18C93.62,85.9,92.41,91.34,91.16,97l-.42-.3,16.19-10.11h.23c.5.13,1,.25,1.54.36A35.25,35.25,0,0,0,132,83.56,34.66,34.66,0,0,0,147,67.6a33,33,0,0,0,2.89-9.95c.05-.42.13-.83.17-1.25l.07-1.25c0-.83.11-1.65.07-2.47a35.22,35.22,0,0,0-.42-4.81A33,33,0,0,0,145,35.2c-.37-.6-.73-1.21-1.09-1.78l-1.23-1.63A34.37,34.37,0,0,0,121.24,19l-2.11-.33c-.67-.08-1.3-.08-1.88-.12l-1.61-.09h-1.33l-1.83.07A2.51,2.51,0,0,1,111.87,18.57Z"/></g><path class="cls-11" d="M121.28,170.59c-1,0-1.69,1-2.09,1.89-.28.59-.85,1.93-.85,1.93-.89.14-5.49.2-5.49.2a25.28,25.28,0,0,0,3.26-1.16,3.26,3.26,0,0,0,2.28-2.56,18.43,18.43,0,0,0,.8-5c0-.64-1.48-.25-2.07,1.34-.37,1-.65,2.85-1.41,3.2s-3.63,1.13-3.63,1.13,3.55-1.85,3.78-2.72a14.1,14.1,0,0,0-.12-3.89c-.15-.84-.95-.7-1.35.32-.24.56-.21,2.53-.52,2.7a7.31,7.31,0,0,1-3.39.91,12,12,0,0,1-2.61-.31c-.8-.17-1.43-.23-2.23-.41a12.57,12.57,0,0,0-4.42-.47c0,3.42-.31,5.35-.59,8.76,2.08-.25,4.52,1.19,6.61,1.4a71,71,0,0,0,9.34,0c2.11-.18,3.3-.5,3.6-1a50,50,0,0,0,1.63-4.83C122.31,170.33,121.28,170.59,121.28,170.59Z"/><path class="cls-11" d="M103,176.49c1,.13,3.15,2.76,4.55,3.32s4.31.63,6,1.54,2.34.68,2.28.09a4.84,4.84,0,0,0-2.41-3.06C111.94,177.82,103,176.49,103,176.49Z"/><path class="cls-5" d="M104.3,50.51a3.55,3.55,0,0,1-4.22,4.72,3.5,3.5,0,0,1-2.53-2.68,3.54,3.54,0,0,1,3.56-4.26h0A3.45,3.45,0,0,1,104.3,50.51Z"/><path class="cls-5" d="M118.46,50.94a3.55,3.55,0,0,1-4.22,4.72A3.5,3.5,0,0,1,111.71,53a3.54,3.54,0,0,1,3.56-4.26h0A3.45,3.45,0,0,1,118.46,50.94Z"/><path class="cls-5" d="M132.76,51A3.53,3.53,0,1,1,128,49.58l0,0A3.49,3.49,0,0,1,132.76,51Z"/></svg>