<svg id="freepik_stories-stress" data-name="freepik stories-stress" xmlns="http://www.w3.org/2000/svg" viewBox="0 0 500 500"><defs><style>.cls-1{fill:#ebebeb;}.cls-2{fill:#e0e0e0;}.cls-3{fill:#f5f5f5;}.cls-4{fill:#263238;}.cls-5{fill:#0966e5;}.cls-6{fill:#ffbe9d;}.cls-7{fill:#eb996e;}.cls-8{fill:#d1734a;}.cls-9{fill:#455a64;}.cls-10,.cls-16{fill:#fff;}.cls-11{fill:#a36957;}.cls-12{fill:#7c3b29;}.cls-13{opacity:0.2;}.cls-14{fill:#fbfbfb;}.cls-15,.cls-16{opacity:0.6;}.cls-16{isolation:isolate;}.cls-17{fill:#fafafa;}</style></defs><title>Live help 03</title><g id="freepik--background-complete--inject-22"><path class="cls-1" d="M320.68,115.72l-3.09.5-8.28-8.32-1-6.18s-4.83.48-3,8.48.93,6,.93,6-10.16,1.68-10.86,2.7c-.5.75.84,10.88,1.62,16.38a6,6,0,0,0,5.18,5.28,4,4,0,0,0,1.09,0c2.53-.42,15.15-4.57,15.15-4.57l5.35-.87Z"/><polygon class="cls-1" points="329.28 112.59 330.8 134.08 325.5 134.93 322.14 114.18 329.28 112.59"/><rect class="cls-2" x="426.1" y="27.32" width="8.74" height="43.47" transform="translate(-0.26 2.33) rotate(-0.31)"/><rect class="cls-1" x="350.36" y="27.47" width="22.62" height="24" transform="matrix(1, -0.01, 0.01, 1, -0.21, 1.96)"/><rect class="cls-3" x="372.89" y="27.35" width="22.62" height="24" transform="translate(-0.21 2.08) rotate(-0.31)"/><path class="cls-2" d="M350.33,34.18c15,.12,30.11,0,45.14-.21a.24.24,0,0,0,.24-.24.24.24,0,0,0-.24-.24q-22.56-.14-45.15.28a.21.21,0,1,0,0,.41h0Z"/><rect class="cls-1" x="336.24" y="51.12" width="41.1" height="19.55" transform="translate(-0.32 1.93) rotate(-0.31)"/><rect class="cls-3" x="377.16" y="50.89" width="41.1" height="19.55" transform="matrix(1, -0.01, 0.01, 1, -0.32, 2.15)"/><path class="cls-2" d="M336.22,56.7c27.3.3,54.71,0,82-.41a.24.24,0,0,0,0-.48h0c-27.31-.14-54.71-.13-82,.47a.21.21,0,0,0-.21.21.21.21,0,0,0,.21.21Z"/><rect class="cls-2" x="320.85" y="70.81" width="159.26" height="7"/><rect class="cls-2" x="346.91" y="74.18" width="6.47" height="23.9"/><rect class="cls-2" x="443.42" y="74.18" width="6.47" height="23.9"/><rect class="cls-1" x="434.67" y="11.1" width="8.74" height="59.79" transform="translate(-0.22 2.38) rotate(-0.31)"/><rect class="cls-3" x="443.44" y="22.24" width="13.58" height="48.46" transform="translate(-0.24 2.44) rotate(-0.31)"/><path class="cls-2" d="M456.8,31.57a48,48,0,0,1-6.78.23,48.26,48.26,0,0,1-6.8-.23A96.17,96.17,0,0,1,456.8,31.57Z"/><path class="cls-2" d="M456.8,29.5a48,48,0,0,1-6.78.24,48.26,48.26,0,0,1-6.8-.24A102.57,102.57,0,0,1,456.8,29.5Z"/><path class="cls-2" d="M456.8,63.4a99.26,99.26,0,0,1-13.58,0A96.17,96.17,0,0,1,456.8,63.4Z"/><path class="cls-2" d="M456.8,61.36a99.26,99.26,0,0,1-13.58,0A102.57,102.57,0,0,1,456.8,61.36Z"/><path class="cls-2" d="M450.24,56.9c-.13,0-.24-4.88-.24-11s.11-11,.24-11,.23,4.89.23,11S450.36,56.9,450.24,56.9Z"/><rect class="cls-1" x="456.95" y="34.14" width="14.77" height="36.58"/><path class="cls-2" d="M441.26,21.32a2.52,2.52,0,1,1-2.53-2.51h0a2.5,2.5,0,0,1,2.52,2.49Z"/><rect class="cls-2" x="437.97" y="28.22" width="1.56" height="35.57"/></g><g id="freepik--Floor--inject-22"><path class="cls-4" d="M490.47,480.81c0,.17-107.67.29-240.46.29S9.53,481,9.53,480.81s107.64-.28,240.48-.28S490.47,480.66,490.47,480.81Z"/></g><g id="freepik--Reviews--inject-22"><rect class="cls-3" x="50" y="232.6" width="232.95" height="91.84"/><path class="cls-4" d="M283,324.44V299.82c0-15.83-.07-38.77-.11-67.22l.2.2-232.95.09h0l.29-.29v91.84l-.28-.28,166.9.18,48.47.08h.16l-48.41.07L50,324.63h-.28V232.27h.3l232.94.09h.2v.2c0,28.49-.08,51.51-.1,67.34,0,7.9,0,14-.05,18.19v4.72A11.45,11.45,0,0,1,283,324.44Z"/><path class="cls-4" d="M182.24,281.59c0,.16-24.94.29-55.71.29s-55.71-.13-55.71-.29,24.93-.29,55.71-.29S182.24,281.47,182.24,281.59Z"/><path class="cls-4" d="M182.56,292.75c0,.17-25.09.29-56,.29s-56-.12-56-.29,25.09-.28,56-.28S182.56,292.55,182.56,292.75Z"/><polygon class="cls-5" points="77.85 249.34 80.34 254.39 85.92 255.2 81.89 259.13 82.84 264.67 77.85 262.05 72.88 264.67 73.82 259.13 69.8 255.2 75.37 254.39 77.85 249.34"/><polygon class="cls-5" points="96.29 249.34 98.78 254.39 104.35 255.2 100.31 259.13 101.27 264.67 96.29 262.05 91.3 264.67 92.26 259.13 88.22 255.2 93.79 254.39 96.29 249.34"/><polygon class="cls-5" points="114.72 249.34 117.2 254.39 122.78 255.2 118.75 259.13 119.7 264.67 114.72 262.05 109.74 264.67 110.68 259.13 106.66 255.2 112.23 254.39 114.72 249.34"/><polygon class="cls-5" points="133.14 249.34 135.64 254.39 141.21 255.2 137.17 259.13 138.13 264.67 133.14 262.05 128.16 264.67 129.12 259.13 125.08 255.2 130.65 254.39 133.14 249.34"/><polygon class="cls-2" points="151.57 249.34 154.06 254.39 159.64 255.2 155.61 259.13 156.56 264.67 151.57 262.05 146.6 264.67 147.54 259.13 143.52 255.2 149.09 254.39 151.57 249.34"/><path class="cls-2" d="M110.36,307.47c0,.17-8.6.29-19.22.29s-19.23-.12-19.23-.29,8.62-.28,19.23-.28S110.36,307.32,110.36,307.47Z"/><circle class="cls-5" cx="237.82" cy="282.16" r="31.48" transform="translate(-78.79 471.72) rotate(-80.78)"/><path class="cls-4" d="M230.41,247c.67-3.21,3-4.91,6-6.15a10.23,10.23,0,0,1,9.39,1c1.83,1.23,3.29,3.08,5.42,3.68,3.47,1,7.32-1.8,10.67-.46a4.65,4.65,0,0,1-1.69,9c2.27.68,3.15,3.82,2,5.87A6.18,6.18,0,0,1,256,262.5a13,13,0,0,1-6.33-3.07c-1.85-1.48-3.53-3.18-5.48-4.5a10.19,10.19,0,0,0-6.67-2c-3.19.36-5.79,2.94-7,5.89a23.58,23.58,0,0,0-1.38,9.46,38.89,38.89,0,0,1-.64,9.57,1.14,1.14,0,0,1-.58.91c-.51.2-1-.32-1.27-.78a47.23,47.23,0,0,1-6.41-17.19c-.57-3.52-.67-6.88,1.1-10s6.57-5.57,9.09-3.83"/><path class="cls-6" d="M225.1,262.16l.46,36c.07,6.11,1.44,15.09,11.11,14.52h0c8.35-1.1,10.38-9.11,10.29-14.82v-5.25s9.16-1,9.69-10.05c.27-4.39.08-13.47-.19-21.68a16.92,16.92,0,0,0-16.13-16.34h-.87C229.94,244.59,224.79,252.7,225.1,262.16Z"/><path class="cls-7" d="M246.94,292.48a21.14,21.14,0,0,1-11.68-3.93s2.49,6.67,11.59,6.28Z"/><path class="cls-4" d="M252.76,266.36a1.3,1.3,0,0,1-1.31,1.25,1.26,1.26,0,0,1-1.29-1.22v0a1.33,1.33,0,0,1,1.32-1.25,1.25,1.25,0,0,1,1.28,1.22Z"/><path class="cls-4" d="M254.25,265.25c-.17.16-1.09-.61-2.51-.68s-2.45.58-2.59.41.1-.37.57-.68a3.53,3.53,0,0,1,2.08-.54,3.36,3.36,0,0,1,2,.76C254.2,264.86,254.38,265.15,254.25,265.25Z"/><path class="cls-4" d="M239.34,265.9a1.29,1.29,0,0,1-1.31,1.25,1.23,1.23,0,0,1-1.28-1.17v-.06a1.29,1.29,0,0,1,1.3-1.25,1.23,1.23,0,0,1,1.28,1.17A.13.13,0,0,1,239.34,265.9Z"/><path class="cls-4" d="M240.52,264.86c-.17.15-1.1-.62-2.51-.68s-2.46.59-2.6.4.11-.37.57-.68a3.62,3.62,0,0,1,2.08-.53,3.47,3.47,0,0,1,2,.75C240.48,264.47,240.61,264.78,240.52,264.86Z"/><path class="cls-4" d="M245.09,275.45a9.36,9.36,0,0,1,2.29-.31c.35,0,.7-.07.77-.31a1.79,1.79,0,0,0-.19-1.09L247,271a47.06,47.06,0,0,1-2-7.21,46.48,46.48,0,0,1,2.61,7l.88,2.77a2.1,2.1,0,0,1,.12,1.42,1,1,0,0,1-.62.49,3,3,0,0,1-.6,0A9.32,9.32,0,0,1,245.09,275.45Z"/><path class="cls-4" d="M240.1,277.89c.2-.12.91,1.23,2.57,1.57s3-.56,3.1-.38-.18.43-.77.76a3.71,3.71,0,0,1-2.55.39,3.24,3.24,0,0,1-2.06-1.35C240,278.34,240,277.93,240.1,277.89Z"/><path class="cls-4" d="M241.06,262.62c-.17.37-1.55.12-3.19.24s-3,.51-3.19.16c-.1-.17.15-.52.7-.86a5.63,5.63,0,0,1,4.87-.31C240.84,262.13,241.12,262.45,241.06,262.62Z"/><path class="cls-4" d="M253.92,261.19c-.25.3-1.2-.08-2.35-.15s-2.19.11-2.36-.23c-.09-.16.08-.47.53-.75a3.43,3.43,0,0,1,3.79.29C253.92,260.7,254,261,253.92,261.19Z"/><path class="cls-6" d="M225.51,268.92c-.15-.07-6.14-2.13-6.24,4.08s6.17,5,6.18,4.86S225.51,268.92,225.51,268.92Z"/><path class="cls-7" d="M223.59,275.47a2.21,2.21,0,0,1-.3.15,1.13,1.13,0,0,1-.81,0,2.73,2.73,0,0,1-1.21-2.42,3.8,3.8,0,0,1,.33-1.56,1.27,1.27,0,0,1,.83-.81.55.55,0,0,1,.64.31c.08.17,0,.29.07.3s.14-.09.08-.36a.68.68,0,0,0-.23-.39.86.86,0,0,0-.6-.17,1.51,1.51,0,0,0-1.1,1,3.7,3.7,0,0,0-.4,1.73,2.84,2.84,0,0,0,1.53,2.71,1.18,1.18,0,0,0,1-.15C223.57,275.62,223.61,275.48,223.59,275.47Z"/><path class="cls-4" d="M258.43,259.09a13.14,13.14,0,0,1-11.53-3.18c-2.12-2-3.7-4.75-6.42-5.74a7.48,7.48,0,0,0-5.68.5,14.34,14.34,0,0,0-4.46,3.73c1.53,4.7.11,9.8-1.32,14.53a2.47,2.47,0,0,1-.79,1.4,2,2,0,0,1-2.44-.66,7.63,7.63,0,0,1-1.49-4.13,25.75,25.75,0,0,1,.53-10.08,17.51,17.51,0,0,1,5.2-8.54,16.54,16.54,0,0,1,11.76-3.82,20.28,20.28,0,0,1,11.5,4.76,11.83,11.83,0,0,1,3.6,4.57"/><rect class="cls-3" x="50.15" y="9.95" width="232.95" height="91.84"/><path class="cls-4" d="M283.1,101.84V77.22C283.1,61.4,283,38.46,283,10l.2.2-232.95.09h0l.29-.29v91.84l-.27-.27,167,.12,48.48.08h.17l-48.41.07L50.31,102H50V9.66h.29l232.77.11h.2V10c0,28.5-.08,51.52-.11,67.34v22.91A11.2,11.2,0,0,1,283.1,101.84Z"/><path class="cls-4" d="M182.24,57.1c0,.17-24.94.29-55.71.29s-55.71-.12-55.71-.29,24.93-.28,55.71-.28S182.24,56.9,182.24,57.1Z"/><path class="cls-4" d="M182.56,68.23c0,.16-25.09.28-56,.28s-56-.12-56-.28,25.09-.29,56-.29S182.56,68.07,182.56,68.23Z"/><polygon class="cls-5" points="77.85 24.81 80.34 29.86 85.92 30.68 81.89 34.6 82.84 40.15 77.85 37.53 72.88 40.15 73.82 34.6 69.8 30.68 75.37 29.86 77.85 24.81"/><polygon class="cls-5" points="96.29 24.81 98.78 29.86 104.35 30.68 100.31 34.6 101.27 40.15 96.29 37.53 91.3 40.15 92.26 34.6 88.22 30.68 93.79 29.86 96.29 24.81"/><polygon class="cls-5" points="114.72 24.81 117.2 29.86 122.78 30.68 118.75 34.6 119.7 40.15 114.72 37.53 109.74 40.15 110.68 34.6 106.66 30.68 112.23 29.86 114.72 24.81"/><polygon class="cls-5" points="133.14 24.81 135.64 29.86 141.21 30.68 137.17 34.6 138.13 40.15 133.14 37.53 128.16 40.15 129.12 34.6 125.08 30.68 130.65 29.86 133.14 24.81"/><polygon class="cls-5" points="151.57 24.81 154.06 29.86 159.64 30.68 155.61 34.6 156.56 40.15 151.57 37.53 146.6 40.15 147.54 34.6 143.52 30.68 149.09 29.86 151.57 24.81"/><path class="cls-2" d="M110.36,83c0,.15-8.6.28-19.22.28S71.91,83.1,71.91,83s8.62-.29,19.23-.29S110.36,82.79,110.36,83Z"/><circle class="cls-5" cx="237.82" cy="57.64" r="31.48" transform="translate(142.83 283.16) rotate(-80.78)"/><path class="cls-7" d="M222.07,36l2.47,39.46A11.58,11.58,0,0,0,236.1,86.3h0a11.6,11.6,0,0,0,11.58-11.6v-.07c0-4.83-.09-9.28-.09-9.28s9.07-1.41,9.18-10.48c.06-4.3-.54-13.08-1.18-21.13a17.42,17.42,0,0,0-17.35-16h-.42A16.8,16.8,0,0,0,222,35.5Z"/><path class="cls-8" d="M247.61,65.26a21.19,21.19,0,0,1-11.86-3.37s2.81,6.58,11.85,5.71Z"/><path class="cls-4" d="M253.46,39.59c-.16.17-1.09-.56-2.54-.55s-2.41.7-2.56.52.08-.38.53-.7a3.56,3.56,0,0,1,4.07,0C253.4,39.21,253.54,39.51,253.46,39.59Z"/><path class="cls-4" d="M239.89,39.59c-.16.17-1.09-.55-2.53-.55s-2.42.7-2.57.52.08-.37.53-.7a3.55,3.55,0,0,1,2.06-.63,3.47,3.47,0,0,1,2,.65C239.83,39.21,240,39.51,239.89,39.59Z"/><path class="cls-4" d="M245,48.35a10.1,10.1,0,0,1,2.26-.4c.36,0,.69-.11.75-.35a1.77,1.77,0,0,0-.24-1.1c-.33-.86-.68-1.76-1.09-2.7a46.58,46.58,0,0,1-2.37-7.1,47.56,47.56,0,0,1,2.94,6.89c.35.95.69,1.85,1,2.73a2.09,2.09,0,0,1,.19,1.39.92.92,0,0,1-.59.52,2.47,2.47,0,0,1-.6.08A8.08,8.08,0,0,1,245,48.35Z"/><path class="cls-4" d="M240.26,32.56c-.15.37-1.54.2-3.17.4s-3,.64-3.18.3c-.09-.16.14-.52.67-.89a5.21,5.21,0,0,1,2.36-.82,5.33,5.33,0,0,1,2.47.29C240,32.08,240.31,32.37,240.26,32.56Z"/><path class="cls-4" d="M253.08,33.72c-.24.32-1.19,0-2.36,0s-2.12.21-2.35-.12,0-.48.48-.78a3.32,3.32,0,0,1,1.92-.51,3.24,3.24,0,0,1,1.88.63C253.06,33.25,253.19,33.57,253.08,33.72Z"/><path class="cls-4" d="M231.93,26h0a7.13,7.13,0,0,0-2.75,4.65v.18c-.36,2.59-.3,5.22-.67,7.81a11.86,11.86,0,0,1-3.19,7c-.79.73-2.2,1.24-2.82.37a2.21,2.21,0,0,1-.33-1.18c-.48-6.25-2.19-11.8-2.19-18.33a5.53,5.53,0,0,1,2.29-4.48c1.37-1,3-2,4.56-1.27s3.48,3.56,4.67,4.77"/><path class="cls-7" d="M225.13,40.09c-.15-.07-6.22-1.85-6,4.38s6.38,4.73,6.39,4.55S225.13,40.09,225.13,40.09Z"/><path class="cls-8" d="M223.52,46.7a3.11,3.11,0,0,1-.29.18,1.13,1.13,0,0,1-.81,0,2.69,2.69,0,0,1-1.31-2.36,3.63,3.63,0,0,1,.25-1.56,1.21,1.21,0,0,1,.79-.85.55.55,0,0,1,.65.27c.08.18,0,.3.08.31s.14-.11.08-.36a.75.75,0,0,0-.26-.39.88.88,0,0,0-.61-.13,1.51,1.51,0,0,0-1.09,1,3.56,3.56,0,0,0-.32,1.73,2.8,2.8,0,0,0,1.67,2.63,1.07,1.07,0,0,0,1-.2C223.51,46.85,223.54,46.71,223.52,46.7Z"/><path class="cls-4" d="M226.65,21.73c-1.53-2.48,2.66-6,5.71-7s7.11.52,10.14,1.53c1.93.64,3.85,1.54,5.87,1.45a13.69,13.69,0,0,0,3.93-1,10,10,0,0,1,4-.79A3.74,3.74,0,0,1,259.56,18a2.35,2.35,0,0,1-1.27,3.07l-.3.1a3,3,0,1,1,.81,5.65c.88-.67,2.19.42,2.13,1.53a3.23,3.23,0,0,1-2.16,2.35,11.53,11.53,0,0,1-8.28-.14c-2.67-.89-5.16-2.3-7.81-3.28s-7.1-2.71-9.77-1.77c-2,.69-3.29,3.06-4.38,2.53a3.74,3.74,0,0,1-2-2.78,10.52,10.52,0,0,1,.12-3.54"/><path class="cls-9" d="M258.77,21c-.06,0-.32.46-1,1.18a8.45,8.45,0,0,1-3.44,2.19,7.83,7.83,0,0,1-5.92-.23c-2.1-.95-3.91-2.84-6-4.62a12.8,12.8,0,0,0-7-3.29,7.13,7.13,0,0,0-5.93,2.05,5.37,5.37,0,0,0-1.45,4,4.56,4.56,0,0,0,.26,1.09c.11.24.19.36.21.35a8.36,8.36,0,0,1-.23-1.5,5.3,5.3,0,0,1,1.47-3.65,6.8,6.8,0,0,1,5.56-1.78A12.56,12.56,0,0,1,242,20c2,1.75,3.9,3.69,6.16,4.67a8.39,8.39,0,0,0,9.76-2.34,5.3,5.3,0,0,0,.65-1C258.68,21.13,258.77,21,258.77,21Z"/><path class="cls-9" d="M223.55,39.82a1.65,1.65,0,0,0,.51-.67,4.12,4.12,0,0,0,.3-2.19c-.13-2-1.9-4.15-2.12-6.9a6,6,0,0,1,.69-3.7,4.63,4.63,0,0,1,2.3-2,4.18,4.18,0,0,1,2.07-.28,5.24,5.24,0,0,0,.79.15,1.89,1.89,0,0,0-.75-.38,3.87,3.87,0,0,0-2.26.11,5,5,0,0,0-2.65,2.11,6.65,6.65,0,0,0-.81,4.05,11.63,11.63,0,0,0,1.2,3.9,11.61,11.61,0,0,1,1.09,3A4.73,4.73,0,0,1,223.55,39.82Z"/><path class="cls-10" d="M240.26,50.06a6.1,6.1,0,0,0,1.91,3.56,3.84,3.84,0,0,0,3.88.69,6.26,6.26,0,0,0,2.49-2.56Z"/><rect class="cls-3" x="50.15" y="121.18" width="232.95" height="91.84"/><path class="cls-4" d="M283.1,213V188.4c0-15.84-.07-38.77-.11-67.22l.2.19-232.95.09h0l.29-.28V213l-.27-.27,167,.13,48.48.08h.17l-48.41.07-167.18.14H50V120.76h.29l233,.08h.19v.2c0,28.5-.07,51.52-.11,67.35v22.89A5,5,0,0,1,283.1,213Z"/><path class="cls-4" d="M182.24,170.13c0,.15-24.94.28-55.71.28s-55.71-.13-55.71-.28,24.93-.29,55.71-.29S182.24,170,182.24,170.13Z"/><path class="cls-4" d="M182.56,181.24c0,.16-25.09.28-56,.28s-56-.12-56-.28,25.09-.29,56-.29S182.56,181.09,182.56,181.24Z"/><polygon class="cls-5" points="77.85 137.84 80.34 142.88 85.92 143.69 81.89 147.61 82.84 153.16 77.85 150.55 72.88 153.16 73.82 147.61 69.8 143.69 75.37 142.88 77.85 137.84"/><polygon class="cls-5" points="96.29 137.84 98.78 142.88 104.35 143.69 100.31 147.61 101.27 153.16 96.29 150.55 91.3 153.16 92.26 147.61 88.22 143.69 93.79 142.88 96.29 137.84"/><polygon class="cls-5" points="114.72 137.84 117.2 142.88 122.78 143.69 118.75 147.61 119.7 153.16 114.72 150.55 109.74 153.16 110.68 147.61 106.66 143.69 112.23 142.88 114.72 137.84"/><polygon class="cls-5" points="133.14 137.84 135.64 142.88 141.21 143.69 137.17 147.61 138.13 153.16 133.14 150.55 128.16 153.16 129.12 147.61 125.08 143.69 130.65 142.88 133.14 137.84"/><polygon class="cls-5" points="151.57 137.84 154.06 142.88 159.64 143.69 155.61 147.61 156.56 153.16 151.57 150.55 146.6 153.16 147.54 147.61 143.52 143.69 149.09 142.88 151.57 137.84"/><path class="cls-2" d="M110.36,196c0,.16-8.6.28-19.22.28s-19.23-.12-19.23-.28,8.62-.29,19.23-.29S110.36,195.81,110.36,196Z"/><circle class="cls-5" cx="237.83" cy="170.66" r="31.48" transform="translate(-10.41 325.78) rotate(-67.66)"/><path class="cls-4" d="M270.23,166.77c-.85-.69-2.07-.78-3-1.44-1.81-1.36-1.29-4.15-1.68-6.37-.42-2.44-2.07-4.44-3.39-6.58s-2.84-5.12-1.86-7.39l-17.72,32.48h27.79s.84-5.11,1-6.58S271.41,167.7,270.23,166.77Z"/><path class="cls-4" d="M233.43,134.52c.85-2.61,3.7-4.09,6.43-4.39s4.07.79,6.75.19c3.7-.84,5.83-2.09,8.28-1.69a11.19,11.19,0,0,1,7,3.35c1.46,1.68,1.51,5.64.9,7.79-.55,1.95-2.07,3.56-2.48,5.55s.25,3.73.66,5.57c1.23,5.54.27,11.73-3.39,16.05s-10.27,6.22-15.34,3.68"/><path class="cls-11" d="M248.47,188.24l-.16-8.07s8-1.19,9.87-11.61c.92-5.17.81-13.7.49-20.67-.29-6.27-6.93-12.65-13.15-12.06l-20.32,3.5v3.36l.56,45.95a11.35,11.35,0,0,0,11.35,11.22h0a11.38,11.38,0,0,0,11.36-11.39Z"/><path class="cls-4" d="M255.21,154.24a1.35,1.35,0,0,1-1.33,1.33,1.28,1.28,0,0,1-1.36-1.2v0a1.35,1.35,0,0,1,1.32-1.33,1.28,1.28,0,0,1,1.36,1.21Z"/><path class="cls-4" d="M256.75,152.26c-.16.18-1.17-.59-2.61-.61s-2.51.68-2.66.5.1-.39.56-.72a3.62,3.62,0,0,1,2.14-.62,3.49,3.49,0,0,1,2.08.72C256.69,151.89,256.84,152.26,256.75,152.26Z"/><path class="cls-4" d="M241.23,154a1.33,1.33,0,0,1-1.31,1.33,1.29,1.29,0,0,1-1.36-1.2v0a1.35,1.35,0,0,1,1.31-1.34,1.29,1.29,0,0,1,1.36,1.21Z"/><path class="cls-4" d="M242.58,152.26c-.18.18-1.17-.59-2.62-.61s-2.51.68-2.66.49.1-.38.57-.71a3.75,3.75,0,0,1,2.13-.63,3.63,3.63,0,0,1,2.08.72C242.51,151.91,242.66,152.26,242.58,152.26Z"/><path class="cls-4" d="M247.62,163.09a8.88,8.88,0,0,1,2.35-.38c.37,0,.72-.1.79-.36a2,2,0,0,0-.23-1.09l-1.05-2.82a50,50,0,0,1-2.31-7.37,48.37,48.37,0,0,1,2.91,7.16c.34,1,.68,1.94,1,2.84a2.2,2.2,0,0,1,.18,1.45,1,1,0,0,1-.63.54,2.14,2.14,0,0,1-.62.06A9.4,9.4,0,0,1,247.62,163.09Z"/><path class="cls-12" d="M248.31,180.17a26.63,26.63,0,0,1-13.92-4s3.29,7.23,13.74,6.44Z"/><path class="cls-12" d="M246.94,166.51a2.6,2.6,0,0,0-2.3-1,2.29,2.29,0,0,0-1.65.86,1.48,1.48,0,0,0-.15,1.71,1.73,1.73,0,0,0,1.88.51,5.49,5.49,0,0,0,1.86-1.1,1.86,1.86,0,0,0,.42-.42.48.48,0,0,0,0-.54"/><path class="cls-4" d="M243.36,164c.23,0,.21,1.56,1.53,2.69s3,1,3,1.21-.37.3-1.09.31a3.93,3.93,0,0,1-2.5-.92,3.44,3.44,0,0,1-1.18-2.26C243.07,164.38,243.25,164,243.36,164Z"/><path class="cls-4" d="M243.05,146.66c-.15.39-1.59.17-3.29.35s-3.08.61-3.29.26c-.08-.17.16-.53.72-.91a5.7,5.7,0,0,1,5-.46C242.81,146.17,243.12,146.47,243.05,146.66Z"/><path class="cls-4" d="M256.29,148.11c-.25.31-1.24,0-2.43-.08s-2.19.19-2.44-.16c-.1-.17.07-.5.51-.79a3.25,3.25,0,0,1,2-.51,3.46,3.46,0,0,1,1.94.69C256.28,147.61,256.41,148,256.29,148.11Z"/><path class="cls-4" d="M237.24,130.77a14.53,14.53,0,0,1-4.66,20l-.47.28a8.17,8.17,0,0,0-3.19,2.36c-.9,1.44-.51,3.29-.35,5a17.4,17.4,0,0,1-4,12.8c-2-3.88-4-7.81-4.88-12a39.51,39.51,0,0,0-1.38-6.46c-.46-1.23-1.15-2.37-1.55-3.62a11.47,11.47,0,0,1,.3-7.07,16.7,16.7,0,0,1,21.05-10.46"/><path class="cls-4" d="M219.08,138c-4.7,6.88-2.41,11.37-4.24,14.9-1.32,2.55-4.39,3.57-6.58,5.48-3,2.55-4.16,6.69-4,10.61s1.37,7.67,2.62,11.4l25.28.12c1.95-6.16-2.93-12.84-1.37-19.11.54-2.19,1.81-4.12,1.89-6.32a17.19,17.19,0,0,0-.77-4.33A19.43,19.43,0,0,1,233,138.63"/><path class="cls-9" d="M262.79,135a5.55,5.55,0,0,0-.57-.86,6,6,0,0,0-2.19-1.67,8.82,8.82,0,0,0-4-.73,17.5,17.5,0,0,0-4.95,1.1c-1.71.59-3.28,1.23-4.87,1.61a12.59,12.59,0,0,1-4.19.37,7.44,7.44,0,0,1-2.73-.77,5.59,5.59,0,0,1-.66-.41l-.21-.17a9.9,9.9,0,0,0,.91.48,7.66,7.66,0,0,0,2.7.67,12.41,12.41,0,0,0,4.11-.42c1.52-.39,3.13-1,4.86-1.64a18,18,0,0,1,5-1.09,8.76,8.76,0,0,1,4.12.81,5.83,5.83,0,0,1,2.19,1.78,5,5,0,0,1,.38.67A.79.79,0,0,1,262.79,135Z"/><path class="cls-9" d="M259.14,152.67l.23.16a2,2,0,0,1,.28.23,2.67,2.67,0,0,1,.31.36,5.85,5.85,0,0,1,1.1,2.83,13.49,13.49,0,0,1,.15,2.1v2.4a10.41,10.41,0,0,0,.3,2.61,4.82,4.82,0,0,0,1.35,2.38,13.15,13.15,0,0,0,2.39,1.5,5,5,0,0,1,1.93,1.89,6.49,6.49,0,0,1,.46,4.46,15.34,15.34,0,0,1-1,2.87l-.37.75a.89.89,0,0,1-.14.25.66.66,0,0,1,.1-.28,7.25,7.25,0,0,0,.31-.76,17.16,17.16,0,0,0,.93-2.87,6.76,6.76,0,0,0,.14-2.05,5.21,5.21,0,0,0-.64-2.25,4.61,4.61,0,0,0-1.84-1.77,13.12,13.12,0,0,1-2.43-1.54,4.94,4.94,0,0,1-1.42-2.51,11,11,0,0,1-.3-2.68c0-.84,0-1.65.05-2.4a12.1,12.1,0,0,0-.12-2.08,5.91,5.91,0,0,0-1-2.78C259.45,152.92,259.12,152.7,259.14,152.67Z"/><path class="cls-9" d="M216.11,179.41l-.08-.13a3.11,3.11,0,0,1-.18-.4,15,15,0,0,1-.61-1.57,16.6,16.6,0,0,1-.6-2.6,11.67,11.67,0,0,1,0-3.54,9.52,9.52,0,0,1,1.6-4,17.2,17.2,0,0,1,3.63-3.29,10.79,10.79,0,0,0,1.9-1.8,6,6,0,0,0,1.16-2.42,13.7,13.7,0,0,0-.27-5.7,23.51,23.51,0,0,1-.81-5.79,7.75,7.75,0,0,1,.62-2.72,7.17,7.17,0,0,1,1.58-2.2,13.25,13.25,0,0,1,4.19-2.55c1.42-.59,2.78-1.1,4-1.6a13,13,0,0,0,3-1.79,7.94,7.94,0,0,0,1.73-2,5.42,5.42,0,0,0,.67-1.52c.1-.38.12-.57.13-.57a2.87,2.87,0,0,1-.07.58,5.62,5.62,0,0,1-.63,1.57,7.84,7.84,0,0,1-1.73,2,12.8,12.8,0,0,1-3,1.86c-1.19.54-2.55,1-3.95,1.62a13.43,13.43,0,0,0-4.11,2.53,6.79,6.79,0,0,0-1.5,2.1,7.13,7.13,0,0,0-.58,2.65,22.47,22.47,0,0,0,.8,5.7,13.65,13.65,0,0,1,.25,5.83,6.16,6.16,0,0,1-1.22,2.52,11.67,11.67,0,0,1-1.94,1.84,17,17,0,0,0-3.6,3.29,9.37,9.37,0,0,0-1.6,3.87,13.25,13.25,0,0,0,.49,6.06c.21.7.41,1.22.55,1.59l.16.4Z"/><path class="cls-9" d="M237.48,133.27h-.67c-.43,0-1.09-.11-1.92-.15a21.5,21.5,0,0,0-7,.77,14.07,14.07,0,0,0-4.38,2.19,11.4,11.4,0,0,0-3.49,4.27,14,14,0,0,0-1,6,33.07,33.07,0,0,1-.23,6.67,9.49,9.49,0,0,1-1.18,3.21,7.78,7.78,0,0,1-2.35,2.36c-1.82,1.2-3.8,1.93-5.3,3.2a8.07,8.07,0,0,0-2.7,4.71,11.35,11.35,0,0,0,.11,4.82,16,16,0,0,0,1.43,3.75,28.64,28.64,0,0,0,1.57,2.61c.47.69.86,1.22,1.1,1.57l.29.4.09.16-.12-.13-.32-.39a18.11,18.11,0,0,1-1.09-1.55,25,25,0,0,1-1.63-2.59,15.94,15.94,0,0,1-1.47-3.78,11.3,11.3,0,0,1-.15-4.91,8.35,8.35,0,0,1,2.75-4.88c1.55-1.3,3.54-2,5.32-3.22a7.53,7.53,0,0,0,2.26-2.27A9.13,9.13,0,0,0,218.6,153a33.68,33.68,0,0,0,.23-6.58,14.35,14.35,0,0,1,1-6.15,11.22,11.22,0,0,1,3.58-4.38,13.65,13.65,0,0,1,4.38-2.19,20.79,20.79,0,0,1,7.06-.7,13.61,13.61,0,0,1,1.92.19l.5.08Z"/><path class="cls-9" d="M224.16,180.51a6.71,6.71,0,0,0,1.65-1.2,7,7,0,0,0,1.34-2,9.33,9.33,0,0,0,.74-3.07,12.06,12.06,0,0,0-.37-3.83,42.54,42.54,0,0,0-1.37-4.23,32.26,32.26,0,0,1-1.47-4.72,11.94,11.94,0,0,1,0-5.32,7.73,7.73,0,0,1,1.1-2.47,12.11,12.11,0,0,1,1.73-2c1.27-1.17,2.64-2.1,3.89-3.06a17.62,17.62,0,0,0,3.29-3,13,13,0,0,0,2-3.29,13.72,13.72,0,0,0,1-5.48,3.87,3.87,0,0,0-.06-.87,3.49,3.49,0,0,0-.06-.65l-.06-.4v-.13a10.13,10.13,0,0,1,.29,2,13.68,13.68,0,0,1-.94,5.48,13.53,13.53,0,0,1-2,3.39,18,18,0,0,1-3.28,3.06,47.37,47.37,0,0,0-3.86,3.06,11.59,11.59,0,0,0-1.69,1.94,7.65,7.65,0,0,0-1.1,2.39,11.33,11.33,0,0,0,0,5.18,34.8,34.8,0,0,0,1.44,4.69,39.74,39.74,0,0,1,1.35,4.26,12.48,12.48,0,0,1,.35,3.9,9.7,9.7,0,0,1-.8,3.12,7,7,0,0,1-1.4,2,5.21,5.21,0,0,1-1.24.91l-.36.17Z"/><path class="cls-4" d="M238.57,137.77c2.67,1.87,5.63,3.83,8.89,3.6a24.21,24.21,0,0,0,5.54-1.65c1.84-.61,4-.9,5.63.12,1.09-.09,1.56-1.53,1.09-2.5a4.16,4.16,0,0,0-2.53-1.82c-5.85-2-11.69.27-18.27.69"/><path class="cls-9" d="M262.55,139.48a3.42,3.42,0,0,0,.22-1.1,2.82,2.82,0,0,0-1.38-2.37,3.82,3.82,0,0,0-1.89-.56,5.71,5.71,0,0,0-2.24.37c-1.55.51-3,1.63-4.8,2.38a11.53,11.53,0,0,1-2.69.79,12,12,0,0,1-2.61.19,12.54,12.54,0,0,1-4.32-.86,11,11,0,0,1-2.61-1.42,7.14,7.14,0,0,1-.62-.5,1,1,0,0,1-.21-.2,14.7,14.7,0,0,0,3.52,1.93,13.22,13.22,0,0,0,6.8.59,12.78,12.78,0,0,0,2.63-.77c1.74-.74,3.22-1.86,4.82-2.38a6.06,6.06,0,0,1,2.35-.36,4.23,4.23,0,0,1,2,.62,3,3,0,0,1,1.09,1.29,3,3,0,0,1,.26,1.28,2.29,2.29,0,0,1-.19.78A1,1,0,0,1,262.55,139.48Z"/></g><g id="freepik--Character--inject-22"><path class="cls-4" d="M387.87,189.77a11.87,11.87,0,0,0,15-11.72c-.08-3.44-1.63-7-.56-10.21.73-2.25,2.62-4,3.29-6.29.94-3.39-1.1-6.83-3.08-9.76a22.77,22.77,0,0,0-4.3-5.23,7.78,7.78,0,0,0-6.3-1.86"/><path class="cls-4" d="M356.12,145c.2,2.6-1.52,4.93-3.29,6.88s-3.66,4-4,6.57c-.66,4.57,3.81,8.77,2.89,13.34-.49,2.42-2.48,4.39-2.84,6.82s.93,4.69,2.51,6.5,3.49,3.29,4.88,5.25c0,0,2.89,4.76,11.83,1.71"/><path class="cls-4" d="M396.06,149c.07-2.35-2.1-4.17-4.31-5s-4.62-1.19-6.57-2.51c-1.74-1.16-2.9-3-4.39-4.47a14.51,14.51,0,0,0-24.4,6.66c-.84,3.36-.27,7.33,2.38,9.55,3.07,2.6,7.62,2,11.55,1.22s8.39-1.6,11.68.7c2,1.4,3.11,3.66,4.33,5.76s2.73,4.23,5,5,5.39-.57,5.48-3"/><path class="cls-6" d="M386.77,149.47a3.91,3.91,0,0,1,3.52,4h0L388,206.72c-.1,6.29-9.3,9.87-16,9.67h0c-6.8-.15-7-3.5-7.11-9.48-.14-10-.12-13.75-.13-13.69s-8.59-1.45-10.35-12.66c-.86-5.58-.57-14.72-.07-22.19.43-6.72,4.91-15,11.6-14.25Z"/><path class="cls-4" d="M356.32,165.17a1.45,1.45,0,0,0,1.39,1.46,1.39,1.39,0,0,0,1.48-1.28h0a1.44,1.44,0,0,0-1.38-1.46,1.38,1.38,0,0,0-1.49,1.26Z"/><path class="cls-4" d="M356.22,162.4c.17.19,1.26-.61,2.8-.6s2.69.77,2.85.59-.09-.42-.59-.78a3.87,3.87,0,0,0-2.28-.71,3.66,3.66,0,0,0-2.19.72C356.32,162,356.13,162.32,356.22,162.4Z"/><path class="cls-4" d="M371.77,165.63a1.44,1.44,0,0,0,1.38,1.46,1.38,1.38,0,0,0,1.49-1.26v0a1.44,1.44,0,0,0-1.39-1.46,1.38,1.38,0,0,0-1.48,1.25Z"/><path class="cls-4" d="M371.42,163.45c.18.19,1.27-.61,2.82-.6s2.68.78,2.85.59-.1-.43-.59-.79a4,4,0,0,0-2.28-.7,3.76,3.76,0,0,0-2.25.71C371.5,163,371.33,163.36,371.42,163.45Z"/><path class="cls-4" d="M365.78,174.92a9.41,9.41,0,0,0-2.51-.46c-.4,0-.77-.13-.84-.4a2.09,2.09,0,0,1,.27-1.17l1.18-3a54,54,0,0,0,2.64-7.85c-.17-.07-1.64,3.35-3.29,7.67-.38,1.09-.76,2.06-1.09,3a2.21,2.21,0,0,0-.21,1.55,1,1,0,0,0,.65.58,2.93,2.93,0,0,0,.66.1A10.79,10.79,0,0,0,365.78,174.92Z"/><path class="cls-7" d="M364.67,193.22a28.57,28.57,0,0,0,15-4s-3.81,7.67-15,6.58Z"/><path class="cls-7" d="M366.42,178.64a2.81,2.81,0,0,1,2.51-1,2.58,2.58,0,0,1,1.76,1,1.61,1.61,0,0,1,.12,1.84,1.9,1.9,0,0,1-2,.5,5.82,5.82,0,0,1-2-1.18,1.6,1.6,0,0,1-.44-.46.53.53,0,0,1,0-.57"/><path class="cls-4" d="M370.73,160.74c.15.42,1.7.22,3.51.45s3.29.72,3.53.34c.11-.17-.15-.58-.74-1a6.14,6.14,0,0,0-5.37-.62C371,160.21,370.66,160.54,370.73,160.74Z"/><path class="cls-4" d="M356.79,158.65c.27.35,1.34,0,2.62,0s2.37.24,2.62-.13c.11-.18,0-.53-.54-.86a3.56,3.56,0,0,0-2.13-.58,3.67,3.67,0,0,0-2.09.7C356.82,158.12,356.67,158.47,356.79,158.65Z"/><path class="cls-4" d="M394.6,186.35a10,10,0,0,1-11.72-7.81,10.1,10.1,0,0,1-.13-3.15c.35-2.75,1.83-5.55.88-8.16-1.26-3.45-6.09-4.5-7.38-7.94-.74-2-.07-4.39-.92-6.3s-2.73-2.9-4.61-3.58-3.9-1.1-5.48-2.39-2.57-3.55-1.55-5.27a105.89,105.89,0,0,1,24.5,5.95c1.83.68,3.75,1.5,4.83,3.12s1.1,4,1,6L392.61,187"/><path class="cls-9" d="M400.52,149.91a.92.92,0,0,1,.19.47,1.68,1.68,0,0,1-.43,1.34,2.79,2.79,0,0,1-2,1,6.47,6.47,0,0,1-2.84-.85,8,8,0,0,0-3.28-1,17.54,17.54,0,0,0-4,.36,26.15,26.15,0,0,1-4.48.57,6.43,6.43,0,0,1-4.58-1.66,13.4,13.4,0,0,1-2.66-4.1,19.55,19.55,0,0,0-2.13-3.85,6.28,6.28,0,0,0-6.47-2.37,6.6,6.6,0,0,0-3.9,2.9,12.67,12.67,0,0,0-.82,1.65,1.15,1.15,0,0,1,.07-.48,6.68,6.68,0,0,1,.55-1.29,6.44,6.44,0,0,1,7.6-3.1,6.74,6.74,0,0,1,3.39,2.35,21.11,21.11,0,0,1,2.2,3.94,13.12,13.12,0,0,0,2.53,3.92,5.84,5.84,0,0,0,4.2,1.52,27,27,0,0,0,4.38-.52,16.91,16.91,0,0,1,4.08-.32,8.19,8.19,0,0,1,3.42,1.1,6.38,6.38,0,0,0,2.65.9,2.68,2.68,0,0,0,1.84-.84,1.61,1.61,0,0,0,.49-1.19A3.37,3.37,0,0,0,400.52,149.91Z"/><path class="cls-4" d="M394.24,146.69a8.23,8.23,0,0,1,.41-16.12,5,5,0,0,1,4.92,1.54c1,1.4,1,3.49,2.27,4.63s3.55.69,5.37,1.1a6.09,6.09,0,0,1,4.38,6.57,8.25,8.25,0,0,1-5.18,6.39,13,13,0,0,1-8.47.17,31.8,31.8,0,0,1-7.73-3.76"/><path class="cls-9" d="M407.72,138.59a5,5,0,0,1-.82,2,11.5,11.5,0,0,1-8.85,5.48,5.07,5.07,0,0,1-2.19-.16c0-.1.85,0,2.19-.24a13.31,13.31,0,0,0,4.83-1.79,12.9,12.9,0,0,0,3.71-3.54A20.9,20.9,0,0,1,407.72,138.59Z"/><path class="cls-5" d="M401.78,151a17.68,17.68,0,0,0-12.06-6.91,5.5,5.5,0,0,1,2.14,0,14,14,0,0,1,4.87,1.7,13.6,13.6,0,0,1,3.92,3.36A5.05,5.05,0,0,1,401.78,151Z"/><path class="cls-4" d="M371.76,177.27a7,7,0,0,1-2.81,2.27,7.8,7.8,0,0,1-3.4,1.2,21.49,21.49,0,0,1,3.13-1.7A30.31,30.31,0,0,1,371.76,177.27Z"/><path class="cls-5" d="M400.73,149.7a1.26,1.26,0,0,1,.42-.16,8.42,8.42,0,0,1,1.23-.27,13,13,0,0,1,4.66.15,10.38,10.38,0,0,1,3.06,1.15,1.92,1.92,0,0,1,.88,1.75,1.5,1.5,0,0,1-.57.94,2.56,2.56,0,0,1-1,.41,6.41,6.41,0,0,1-2.05,0,14.55,14.55,0,0,1-2.08-.34,13.56,13.56,0,0,1-2.08-.65,4.43,4.43,0,0,1-1.9-1.38,3,3,0,0,1-.45-2.32c.13-.75.33-1.42.49-2.11a13.7,13.7,0,0,1,1.5-3.85,2.57,2.57,0,0,1,1.63-1.23,1.6,1.6,0,0,1,1.77.81,2.48,2.48,0,0,1-.08,1.8,12.05,12.05,0,0,1-.68,1.4,11,11,0,0,1-3.15,3.5,11.12,11.12,0,0,1-1.1.67c-.26.12-.4.19-.41.16s.51-.32,1.36-1a11.58,11.58,0,0,0,2.89-3.49,9.86,9.86,0,0,0,.61-1.37,2,2,0,0,0,.08-1.45,1.09,1.09,0,0,0-1.26-.5,2,2,0,0,0-1.28,1,14.31,14.31,0,0,0-1.39,3.69c-.28,1.34-1,2.86-.11,4a6.46,6.46,0,0,0,3.64,1.82,17.08,17.08,0,0,0,2,.35,6.65,6.65,0,0,0,1.89,0c.59-.11,1.09-.43,1.16-.92a1.45,1.45,0,0,0-.66-1.28,9.54,9.54,0,0,0-2.87-1.1,13.94,13.94,0,0,0-4.55-.33C401.33,149.6,400.74,149.75,400.73,149.7Z"/><path class="cls-9" d="M389.2,143.49a.63.63,0,0,1-.16.33,3.28,3.28,0,0,1-.72.77,4.91,4.91,0,0,1-3.7.82,9.36,9.36,0,0,1-4.86-2.89c-1.52-1.48-2.93-3.39-5-4.56a8.78,8.78,0,0,0-6.43-.81,8.39,8.39,0,0,0-4.49,2.9,9.16,9.16,0,0,0-1.71,3.29c-.24.84-.3,1.34-.34,1.34s0-.14,0-.37a5.21,5.21,0,0,1,.14-1,8.94,8.94,0,0,1,6.28-6.63,9.19,9.19,0,0,1,6.85.84c2.19,1.26,3.62,3.22,5.09,4.68A9.1,9.1,0,0,0,384.7,145a4.74,4.74,0,0,0,3.51-.61A6.21,6.21,0,0,0,389.2,143.49Z"/><path class="cls-5" d="M346.39,214.43s-7.89,4.95-8.83,17.29-3.64,38.1-3.64,38.1l-30.1,7.39,3.35,18.06,49.67-13.85Z"/><path class="cls-5" d="M389,200.09l4.92,5.6s12.82,3,15.6,4.23-4.38,27.4-4.38,27.4l1.09,53.88a6.79,6.79,0,0,1-6.64,6.92c-.25,0-.51,0-.76,0l-48.67-4.33L346,233l.42-18.56,11.61-4,6.7-6.65L370,215.68Z"/><path class="cls-5" d="M409.54,209.92s9.92,3.81,10.76,18.77c.56,9.86,4,26.66,6.32,37a22.26,22.26,0,0,1-3,16.9h0a22.33,22.33,0,0,1-17.81,10.25l-21.09.93-8.9-14.17,23.65-6.88,5.61-34.1Z"/><path class="cls-4" d="M413.8,280.88c-.12-.54-.22-1.08-.29-1.63a19.78,19.78,0,0,0-1.25-4.32,11.76,11.76,0,0,0-4-5.11,8.47,8.47,0,0,0-3.53-1.44,11.77,11.77,0,0,0-4.14.19,126,126,0,0,0-14.39,3.95L381.88,274a10.48,10.48,0,0,1-1.61.46,8.35,8.35,0,0,1,1.53-.67l4.23-1.63A106.81,106.81,0,0,1,400.45,268a12.46,12.46,0,0,1,4.39-.18,8.87,8.87,0,0,1,3.74,1.58,11.82,11.82,0,0,1,4.1,5.38,17.81,17.81,0,0,1,1.09,4.44A5.77,5.77,0,0,1,413.8,280.88Z"/><path class="cls-4" d="M400.48,238.67a3.77,3.77,0,0,1,.17,1.1c.08.71.14,1.75.21,3,.12,2.69.29,6.15.45,10a75.87,75.87,0,0,0,1.1,9.86c.48,2.5,1,4,.89,4a3.88,3.88,0,0,1-.43-1,9.6,9.6,0,0,1-.41-1.25c-.15-.48-.31-1.1-.45-1.68a59.43,59.43,0,0,1-1.28-9.94c-.21-3.91-.24-7.45-.28-10v-3A4.88,4.88,0,0,1,400.48,238.67Z"/><path class="cls-4" d="M421.51,286.12a8.17,8.17,0,0,1-1.1,1.1,27.26,27.26,0,0,1-3.48,2.55A29.7,29.7,0,0,1,403.39,294a28.44,28.44,0,0,1-7.86-.59c-2.37-.5-4.38-1.36-6.13-1.76a26.5,26.5,0,0,0-4.25-.59,5.86,5.86,0,0,1-1.55-.32s.57,0,1.58.1a23,23,0,0,1,4.3.41c1.81.37,3.83,1.19,6.16,1.65a29.56,29.56,0,0,0,7.68.53,31.1,31.1,0,0,0,13.37-4Q419.18,287.89,421.51,286.12Z"/><path class="cls-4" d="M393.67,257.14a7.86,7.86,0,0,1-.93,1.22,38.84,38.84,0,0,1-2.84,3,51.55,51.55,0,0,1-4.67,4.07A55.5,55.5,0,0,1,372.05,273a53.27,53.27,0,0,1-5.9,1.89,37.92,37.92,0,0,1-4.08.86,8.63,8.63,0,0,1-1.52.17,7.5,7.5,0,0,1,1.48-.39c1-.2,2.33-.54,4-1a59.5,59.5,0,0,0,5.81-2,65,65,0,0,0,6.77-3.28,68.69,68.69,0,0,0,6.29-4.12c1.83-1.4,3.43-2.74,4.72-3.93s2.28-2.19,2.94-2.92A8.49,8.49,0,0,1,393.67,257.14Z"/><g class="cls-13"><path d="M363.58,274.82c-1.36-1.1-.52-3.51,1-4.38s3.41-.66,5.17-.71a19.72,19.72,0,0,0,12-4.49c2.48-2.06,4.72-4.87,7.92-5.29-.73,2.62-3.89,5.17-6.12,6.74-6.45,4.56-13.56,6.27-21.06,8.86"/></g><path class="cls-4" d="M392.86,206.31a4.48,4.48,0,0,1-.76.81c-.51.49-1.26,1.18-2.19,2-1.87,1.71-4.48,4-7.38,6.57a21.64,21.64,0,0,1-4.38,3.29,6.9,6.9,0,0,1-2.35.72,5.1,5.1,0,0,1-2.12-.25,4,4,0,0,1-2.37-1.89,2.1,2.1,0,0,1-.26-.79.76.76,0,0,1,0-.3c.05,0,.11.4.46,1a4,4,0,0,0,2.3,1.62,5,5,0,0,0,2,.16,6.49,6.49,0,0,0,2.19-.72,22.33,22.33,0,0,0,4.26-3.29c2.9-2.54,5.55-4.82,7.49-6.45,1-.82,1.76-1.46,2.32-1.9A4.08,4.08,0,0,1,392.86,206.31Z"/><path class="cls-4" d="M368.57,216.23a5.61,5.61,0,0,1-1.6,1.89,10.29,10.29,0,0,1-2.19,1.51,2.16,2.16,0,0,1-1.71.32,2.48,2.48,0,0,1-1.2-1.42c-1-2.1-1.82-4-2.41-5.41a9.35,9.35,0,0,1-.85-2.3,10.25,10.25,0,0,1,1.21,2.14c.68,1.35,1.6,3.29,2.58,5.33.23.51.49,1,.87,1.09a1.67,1.67,0,0,0,1.28-.27,12.7,12.7,0,0,0,2.19-1.36C367.9,216.93,368.49,216.16,368.57,216.23Z"/><path class="cls-4" d="M368.65,240.57c-.16,0,0-5.56.34-12.4s.75-12.38.91-12.37,0,5.56-.34,12.39S368.8,240.58,368.65,240.57Z"/><path class="cls-4" d="M347.67,238.05a20.84,20.84,0,0,1,0-6.87A20.84,20.84,0,0,1,347.67,238.05Z"/><path class="cls-14" d="M390.36,216.57l.1.05A.12.12,0,0,0,390.36,216.57Z"/><path class="cls-14" d="M392.28,217.09h0c.1,0,0,0,.11.07s.14,0,.17,0h.13a8.33,8.33,0,0,0,1.1.16h0a.11.11,0,0,1,.12.09H395c.22,0,.43-.06.65-.11h.07v.09h1.1s0,.05,0,.05h.09v-.07h-.07s0-.07.11-.06h.38a.66.66,0,0,0,.29-.06,4.26,4.26,0,0,0,.08-1h-.22c-.09,0-.14.05-.22,0H397l-1.26.06H394a6.65,6.65,0,0,1-1.09-.15h-.3c-.1,0-.64-.13-.75-.14h0c-.09,0-.07,0-.15-.07s-.09.06-.12,0h0a1,1,0,0,1-.24,0h0a1,1,0,0,1-.24,0,1.48,1.48,0,0,0-.41-.12l-.07-.1h0s-.38.77-.22,1h.08s0,0,.06.05a6.82,6.82,0,0,0,.88.26h.26A3.55,3.55,0,0,1,392.28,217.09Z"/><path class="cls-14" d="M391,221.2h0Z"/><path class="cls-14" d="M392.39,221.56h0c.06,0,0,.06.07,0s.1,0,.13,0h0a4.11,4.11,0,0,0,.78.07h0a.1.1,0,0,1,.1.08h.8a1.21,1.21,0,0,0,.45-.16h.06v.09l.76-.11v.06h.07v-.07h.17a.07.07,0,0,1,.08-.07,1.31,1.31,0,0,0,.28,0h0s.14,0,.19-.08a4.62,4.62,0,0,0-.11-1h-.07c-.07,0-.09.07-.16,0h-.19c-.16,0-.72.15-.87.16h0a7.28,7.28,0,0,0-.91.11h-.25a2.83,2.83,0,0,1-.77-.05h-.21l-.51-.07h-.11c-.05,0-.07.06-.09.06h-.33s-.19-.1-.28-.09l-.06-.08h0s-.31.79-.21,1h.08a3.66,3.66,0,0,0,.65.17h.18A1.43,1.43,0,0,1,392.39,221.56Z"/><path class="cls-14" d="M389.29,228.63a0,0,0,0,0,.07,0Z"/><path class="cls-14" d="M390.81,228.67h1c.07,0,.08,0,.1.07h.16c.17,0,.11-.06.16,0h.49a1.39,1.39,0,0,0,.48-.14h0v.1s.73-.07.82-.06m0,.06h.07v-.08h.06s0-.06.08,0h.29a.48.48,0,0,0,.22-.05,5.43,5.43,0,0,0,.07-1h-.62c-.18,0-.86.08-1,.09h0a7.19,7.19,0,0,0-1.1.11.19.19,0,0,0-.15,0h-.14a6.61,6.61,0,0,1-.89,0h-1c-.06,0-.05.06-.08.07h0a.7.7,0,0,1-.19.06h-.19a.69.69,0,0,0-.35,0l-.08-.07h0s-.07.85.09,1h1a1.23,1.23,0,0,1,.7-.19Z"/><path class="cls-14" d="M390.29,235.43h.07S390.29,235.42,390.29,235.43Z"/><path class="cls-14" d="M391.58,235.3h.18s.59-.08.7-.11,0,0-.06,0h0a.13.13,0,0,1,.11.06h0c.12-.05,0,0,.14,0s.09-.06.13-.05h.06c.05,0,.06,0,0-.06s.06,0,0,0H393a.24.24,0,0,0,.14,0h0a.93.93,0,0,0,.38-.2h0V235a6,6,0,0,1,.7-.13h.06v-.08h.05a.06.06,0,0,1,.07-.06h.24s.13,0,.17-.08a4.67,4.67,0,0,0-.07-1h-.09c-.07,0-.09.07-.15,0h-.21a8.26,8.26,0,0,0-.86.2h0c-.3.06-.59.13-.89.22h-.13l-.11.05a3.88,3.88,0,0,1-.75.11c-.06.06-.15,0-.2.08h0a2.47,2.47,0,0,0-.52.09h-.11c-.05,0,0,.07-.06.09h0l-.15.08h0a.58.58,0,0,1-.17.06.45.45,0,0,0-.28,0l-.08-.06h0s0,.84.22,1h0a0,0,0,0,1,0,0h0a4.07,4.07,0,0,0,.61-.08h.16A1.38,1.38,0,0,1,391.58,235.3Z"/><path class="cls-14" d="M389.64,242.3h.06A.06.06,0,0,0,389.64,242.3Z"/><path class="cls-14" d="M390.92,242.27h.82a.13.13,0,0,1,.1,0H392c.14,0,.09-.06.12,0h.39c.05-.06.35-.12.39-.18h0v.09s.6-.09.69-.09m0,.06h.06v-.08h0s0-.07.06-.07h.24s.15,0,.19-.06a8.18,8.18,0,0,0,0-1h-.48c-.16,0-.72.11-.87.13h0a4.25,4.25,0,0,0-.91.16h-.24a3.21,3.21,0,0,1-.76.06.25.25,0,0,0-.19.06h0a1.84,1.84,0,0,0-.52,0H390s0,.08-.06.09h0l-.16.07h0a.43.43,0,0,1-.16,0,.48.48,0,0,0-.29,0l-.07-.07h0a2.79,2.79,0,0,0,.15,1h.05q.3,0,.6,0h.16a1,1,0,0,1,.67-.24Z"/><path class="cls-14" d="M389.78,248.12h0Z"/><path class="cls-14" d="M391.12,248.47h0c.05,0,0,.06.06.06h.12a4.62,4.62,0,0,0,.74.15v-.05h0s.06,0,.07.08h1.18v.08a5.83,5.83,0,0,1,.74.13c.1,0,0,0,0,.06s0,0,.07,0h0v-.08h0s0-.06.09,0h.47A5.77,5.77,0,0,0,395,248h-.05c-.08,0,0,0,0-.06s-.06,0-.08,0h-.37l-.92-.12h0a7.79,7.79,0,0,0-1-.12.21.21,0,0,0-.13,0h-.14a5.29,5.29,0,0,1-.79-.17h-.22c-.08,0-.47-.1-.55-.1h0c-.07,0-.06,0-.12-.05s-.06.06-.09.06h-.17a.31.31,0,0,1-.19,0,.72.72,0,0,0-.29-.06v-.09h0s-.27.8-.16,1h.07a6.23,6.23,0,0,0,.62.15h.18A1.12,1.12,0,0,1,391.12,248.47Z"/><path class="cls-14" d="M390.61,254.29a.11.11,0,0,0,.08,0Z"/><path class="cls-14" d="M392,254.19h1c.07,0,.07,0,.09.07h.15c.16,0,.11-.06.14,0h.32a.33.33,0,0,0,.14,0h0c.07,0,.4,0,.46-.09h0v.09a3.85,3.85,0,0,1,.76.09v.05h.07v-.08h0s0,0,.08,0l.27.06h.21l.34-.93H396s0,0,0-.06-.06,0-.1,0h-.4c-.18,0-.86-.08-1-.1h0a10.09,10.09,0,0,0-1.1,0h-.28a6.61,6.61,0,0,1-.89,0,.31.31,0,0,0-.24.07h0a4.22,4.22,0,0,0-.61.07h-.13c-.05,0,0,.07-.07.08h0a.81.81,0,0,1-.18.08h0a.41.41,0,0,1-.19,0,.86.86,0,0,0-.32,0h-.09s.06.85.25,1h.11a2.29,2.29,0,0,0,.64-.08h.17A1.07,1.07,0,0,1,392,254.19Z"/><path class="cls-14" d="M391.69,263.83h0Z"/><path class="cls-14" d="M392.85,263.28h.07c.08,0,.09,0,.09-.08h0s.53-.26.62-.33,0,0-.08,0h.11c.1-.08,0,0,.12-.07s.07-.1.1-.1h0s.06,0,0-.06.06,0,0,0h0s.09,0,.1-.06h.07a.2.2,0,0,0,.11-.09h0c0-.07.28-.24.3-.32h0v.09a5.68,5.68,0,0,1,.6-.35h0v-.06h0l-.06-.05h0v-.09l.22-.11h0s.12-.07.14-.14a5.5,5.5,0,0,0-.4-.9h0v-.05h-.06c-.06,0-.05.08-.12.08h-.18c-.13.07-.62.39-.74.46h0c-.18.14-.59.36-.76.51s-.09,0-.13,0h0l-.09.09a4.32,4.32,0,0,1-.67.36c0,.06-.12.07-.16.12h0a5,5,0,0,1-.46.25h0c0,.06-.05,0-.11,0s0,.09,0,.1h0a.69.69,0,0,1-.11.13h0a.3.3,0,0,1-.13.09.71.71,0,0,0-.26.13h-.1s.32.78.53.88h.05a4.53,4.53,0,0,0,.54-.27h0l.14-.1h0Z"/><path class="cls-14" d="M392.59,268h0c0-.06.06,0,.06,0h.44l.07.06h.08c.09,0,0-.05.08,0h.2s.22-.08.24-.14h0V268a1.62,1.62,0,0,1,.44,0h0v-.08h0v-.06h.48a.14.14,0,0,0,.12-.07c0-.06,0-.92,0-1h-.22c-.1,0-.45.07-.54.08h0a3.66,3.66,0,0,0-.56.1h-.15a1.24,1.24,0,0,1-.47,0h-.51a.06.06,0,0,1,0,.08h0l-.09.06H392l-.05-.06h0a3.45,3.45,0,0,0,.12,1h.48A.33.33,0,0,1,392.59,268Z"/><g class="cls-15"><path class="cls-10" d="M376.59,224.23h0Z"/><path class="cls-10" d="M377.61,224.28h0s0,.06.07,0,.06,0,.08,0h0a2.44,2.44,0,0,0,.54,0h-.05s.05,0,.08.07h.11c.1,0,.06-.07.09,0h0s.06,0,0-.06h.16a.14.14,0,0,0,.1,0h0c0-.06.25-.14.27-.21h0v.09c.08,0,.45-.17.52-.18h0v-.06h0v-.08l.18-.06h0a.12.12,0,0,0,.12-.09,6.46,6.46,0,0,0-.3-.94h0m0-.05h0s0,.07-.09,0h-.13l-.56.23h0c-.15.07-.46.14-.62.21s0,0-.08,0H378a1.57,1.57,0,0,1-.53,0s-.1,0-.13.05h-.44c-.08,0,0,.07,0,.08h0a.18.18,0,0,1-.12.05h-.12c-.05,0-.13-.05-.21,0v-.06h0a3.42,3.42,0,0,0,0,1h0a3.68,3.68,0,0,0,.47,0h.14l.54.05Z"/></g><g class="cls-15"><path class="cls-10" d="M377,229h0s.06,0,.08,0h0a1.85,1.85,0,0,0,.47.08V229h0l.05.08h.27a.09.09,0,0,0,.1,0h0s.25,0,.28-.08h0v.08h.47v.06h0v-.08h0s0-.06.06,0h.29a6.31,6.31,0,0,0,.18-1h-.89a3.21,3.21,0,0,0-.62,0h-.18a1.69,1.69,0,0,1-.5-.08h-.15s-.29-.05-.35,0h-.07a.09.09,0,0,1-.06.07h-.11a.2.2,0,0,1-.11,0c-.05,0-.13-.07-.19,0V228h0a3.43,3.43,0,0,0-.09,1h0a2.88,2.88,0,0,0,.4.09h.11Z"/></g><g class="cls-15"><path class="cls-10" d="M377.44,233.74h.05A0,0,0,0,0,377.44,233.74Z"/><path class="cls-10" d="M378.47,233.81h.15a2.62,2.62,0,0,0,.56,0h-.05a.08.08,0,0,1,.07.06h0c.1-.05,0,0,.11,0s.07-.05.1,0h.25a1.47,1.47,0,0,0,.3-.18h0v-.32a3.05,3.05,0,0,1,.54-.14v.05h0v-.08h0v-.06l.19-.06h0s.1,0,.12-.08a5.25,5.25,0,0,0-.22-1h0V232c0-.06,0,0,0,0h0s0,.06-.09.05h-.15l-.6.19h0c-.15.05-.48.11-.64.17s-.06,0-.09,0h-.09a2.53,2.53,0,0,1-.55,0h-.61a.11.11,0,0,1,0,.08h0l-.12.07h-.33l-.06-.07h0a3.49,3.49,0,0,0,0,1h.66Z"/></g><g class="cls-15"><path class="cls-10" d="M377.21,241.9a.09.09,0,0,0-.07,0Z"/><path class="cls-10" d="M378.24,241.6h.15a3,3,0,0,0,.6-.2h0c.1-.07,0,0,.12,0s.06-.07.1-.07h0s.06,0,0-.06.06,0,0,0h0s.08,0,.09-.05h.08l.1-.07h0c0-.05.27-.19.31-.25h0V241a3.22,3.22,0,0,1,.59-.22h0v-.07h0v-.07l.21-.07h0a.14.14,0,0,0,.14-.11,6.73,6.73,0,0,0-.24-1h0v-.05c0-.05-.06,0-.06,0h0s0,.05-.05,0h0c-.07,0-.07.07-.13.05h-.18a5,5,0,0,0-.72.31h0c-.26.1-.51.21-.76.33h-.11l-.08.07a3,3,0,0,1-.65.2c0,.06-.12.06-.17.1h0a3.47,3.47,0,0,0-.43.16h-.11c-.06,0,0,.07,0,.08h0l-.12.1h0l-.14.08a.47.47,0,0,0-.25.07h-.07a3,3,0,0,0,.38.94h.05l.52-.14h0l.13-.07h0A1.49,1.49,0,0,1,378.24,241.6Z"/></g><g class="cls-15"><path class="cls-10" d="M376.21,249.66h0Z"/><path class="cls-10" d="M377.7,249.81h0c.07,0,0,.05.09,0s.11,0,.12,0h0a4.54,4.54,0,0,0,.82-.07h0c.05,0,.08,0,.11.06h0c.14-.07,0,0,.16,0s.11-.07.16-.06h.43c.06-.05.39-.16.44-.23h0v.09l.77-.22v.06l.06-.06h0v-.06h.05a.08.08,0,0,1,.07-.08l.26-.09h0a.66.66,0,0,0,.19-.12,4.39,4.39,0,0,0-.25-1h-.05c-.06,0,0,0,0-.06s-.06,0-.06,0h0s0,.06-.07,0h0c-.07,0-.08.08-.14.07h-.2c-.16,0-.73.26-.88.29h0l-.94.26a.15.15,0,0,0-.13,0h-.12a3.16,3.16,0,0,1-.81.06.29.29,0,0,0-.21.06h-.67c-.06,0,0,.06-.08.06h0a.49.49,0,0,1-.17.06h-.19a.81.81,0,0,0-.31,0l-.06-.08h0s-.17.83,0,1h.07c.23,0,.45.05.69.05h.2A2.17,2.17,0,0,1,377.7,249.81Z"/></g><g class="cls-15"><path class="cls-10" d="M376.1,257.24h0Z"/><path class="cls-10" d="M377.35,257.48h.24l.68.12,0-.06c-.06-.07,0,0,0,0s.07,0,.08.08h.34s0,0,0,.06h.11a.06.06,0,0,1,.06.05h.5v.09a4.86,4.86,0,0,1,.66.15V258h.07v-.09h.05s0-.05.09,0l.23.08h.2l.41-.9h0c-.07,0,0,0,0-.06s-.07,0-.09,0h-.34c-.14,0-.74-.16-.89-.18h0a7.62,7.62,0,0,0-.94-.14h-.25a6.53,6.53,0,0,1-.77-.14h-.22c-.07,0-.46-.06-.54-.05h-.11s-.06.07-.09.07h-.33a.76.76,0,0,0-.3,0l-.07-.07h0a2.86,2.86,0,0,0,0,1h.06l.57.06h.16A1,1,0,0,1,377.35,257.48Z"/></g><g class="cls-15"><path class="cls-10" d="M378.47,262.31h0Z"/><path class="cls-10" d="M379.6,262.3h.7s.05,0,.08.07h0c.1-.06,0,0,.12,0s.07-.07.11-.06h.1m.07,0h0a.13.13,0,0,0,.12,0h0a.78.78,0,0,0,.35-.15h0v.1c.2,0,.4-.06.6-.08v.06h0v-.07h0a.06.06,0,0,1,.07-.06h.21s.12,0,.16-.07a6.54,6.54,0,0,0,0-1h0m-.05,0h-.42c-.13,0-.62.1-.75.12h0a6.88,6.88,0,0,0-.79.15h-.21a3.64,3.64,0,0,1-.66,0,.23.23,0,0,0-.17.05h-.55c-.05,0,0,.07-.06.08h0a.59.59,0,0,1-.14.06h0a.17.17,0,0,1-.14,0,.53.53,0,0,0-.25,0l-.07-.06h0a3.16,3.16,0,0,0,.14,1h0a4.51,4.51,0,0,0,.52,0h.14a.77.77,0,0,1,.77-.16Z"/></g><g class="cls-15"><path class="cls-10" d="M375.48,274.43h.11A.11.11,0,0,0,375.48,274.43Z"/><path class="cls-10" d="M377.38,274.16h.11c.11,0,.13,0,.16-.06h.05a5.2,5.2,0,0,0,1-.27c.14-.06-.07,0-.1,0h.22c.18-.09,0,0,.2-.07s.12-.1.17-.1h.08s.1,0,.06-.06.09,0,.06,0h.05c.08,0,.14,0,.18-.06h.12l.18-.09h0c.06-.07.47-.25.52-.33h.06v.1s.82-.36.95-.41h0v-.05h0l0-.05h.06a.11.11,0,0,1,.08-.1l.34-.15h.05a.67.67,0,0,0,.23-.16,3.42,3.42,0,0,0-.29-.94h-.09c-.07,0,0,0,.06-.07s-.07,0-.08,0h0s0,.07-.09.07h0c-.09,0-.1.1-.19.11h-.26c-.19.07-.92.44-1.1.51h0l-1.2.48h-.18l-.16.08a4.8,4.8,0,0,1-1,.26c-.08.07-.19.07-.28.11h0a5.57,5.57,0,0,0-.72.16h-.16c-.08,0-.06.07-.09.08h0a1.07,1.07,0,0,1-.22.1h0a1,1,0,0,1-.23.06,1.4,1.4,0,0,0-.41.05l-.11-.05h0s0,.84.2,1h.21a6.64,6.64,0,0,0,.88-.12h0l.24-.08h0A3.05,3.05,0,0,1,377.38,274.16Z"/></g><path class="cls-14" d="M360.41,271.13l.08.05A.09.09,0,0,0,360.41,271.13Z"/><path class="cls-14" d="M362.15,271.73h0c.07,0,0,0,.09.07h.28c.32.11.64.21,1,.29a.07.07,0,0,1-.07-.06c0-.07.06,0,.09,0s.07,0,.09.11h.55s.08,0,0,.05h0c.08,0,.11.07.17,0h0s.08,0,.08.05h.19c.09,0,.52.07.6,0h.07s-.06.09-.07.08.86.21,1,.26,0,.06,0,.06h.09v-.08h.18a1.64,1.64,0,0,1,.34.11h0a.39.39,0,0,0,.28,0,4.82,4.82,0,0,0,.41-.9h-.08s0,0,0,0-.07,0-.1,0h-.53l-1.21-.3h0c-.31-.07-.94-.25-1.27-.3a.48.48,0,0,0-.16-.08h-.18a9.59,9.59,0,0,1-1-.32h-.28a7.21,7.21,0,0,1-.72-.21h0c-.09,0-.07,0-.14-.07s-.09.05-.12,0h-.47a1.36,1.36,0,0,0-.4-.14l-.07-.08h0s-.37.76-.23,1h.1s0,0,0,.06a6.83,6.83,0,0,0,.8.27h.24A2.27,2.27,0,0,1,362.15,271.73Z"/><path class="cls-14" d="M361.34,267.52h0Z"/><path class="cls-14" d="M362.53,267.71h.18s.56.07.65.06,0,0,0,0h0a.09.09,0,0,1,.08.07H364a.13.13,0,0,0,.12,0h0a1.38,1.38,0,0,0,.39-.09h0v.09q.33,0,.66,0v.06s0,0,.05,0h0v-.08h0s0-.06.08,0h.41a5.45,5.45,0,0,0,.16-1h0s0,0,0-.06,0,0-.08,0h-2.22a2.72,2.72,0,0,1-.7-.06H362c-.1,0-.06.06-.08.06h-.31a.62.62,0,0,0-.27,0v-.06h0a2.91,2.91,0,0,0,0,1h0a4.86,4.86,0,0,0,.55.07h.15A.9.9,0,0,1,362.53,267.71Z"/><path class="cls-14" d="M361,261.48h0Z"/><path class="cls-14" d="M362.15,261.23h.16a4.61,4.61,0,0,0,.64-.16h0c.1-.07,0,0,.12,0s.07-.08.11-.07h.11m.08,0h.11c0-.06.29-.16.32-.23h0v.09a4.48,4.48,0,0,1,.62-.2v0h0v-.06h0s0-.07.05-.08l.22-.05h0a.18.18,0,0,0,.16-.09,6.3,6.3,0,0,0-.2-1h-.12c-.07,0-.08.07-.13.06h-.19a6.32,6.32,0,0,0-.76.27h0c-.19.08-.6.2-.8.3h-.11l-.09.06a3.19,3.19,0,0,1-.67.19c0,.06-.12,0-.18.09h0a2.92,2.92,0,0,0-.46.13h-.11s0,.08,0,.09h0l-.13.09h0s-.11,0-.13.06a.48.48,0,0,0-.26.07h-.08a2.74,2.74,0,0,0,.33,1h.05a3.53,3.53,0,0,0,.54-.13h0l.14-.07h0l.64-.39Z"/><path class="cls-14" d="M361.67,255.34h0Z"/><path class="cls-14" d="M362.89,254.75H363c.09,0,.09,0,.09-.07h0s.56-.21.66-.27,0,0-.08,0h.11c.11-.09,0,0,.13-.06s.08-.08.11-.08h.05c.06,0,.07,0,0-.06s.07,0,0,0h.19l.12-.06h0c0-.06.33-.18.37-.23h0v.1a4.39,4.39,0,0,1,.69-.18h0v-.07h0a.07.07,0,0,1,.07-.07h.25s.15,0,.19-.07v-1h-.22c-.08,0-.1,0-.16,0h-.23a8,8,0,0,0-1,.25h0a6.48,6.48,0,0,0-1,.35h-.15l-.12.08a6.71,6.71,0,0,1-.78.32c-.06.06-.15.08-.2.14h0c-.07.05-.45.22-.53.27h0c-.05.07-.06,0-.13,0s0,.09,0,.1h0l-.13.14h0a.36.36,0,0,1-.14.11,1.05,1.05,0,0,0-.29.17h-.11s.4.74.62.81h.05c.18-.09.36-.18.54-.29h0l.14-.11h0A1.71,1.71,0,0,1,362.89,254.75Z"/><path class="cls-14" d="M358.28,247.46h.09A.14.14,0,0,0,358.28,247.46Z"/><path class="cls-14" d="M359.91,247.7h.34a4.51,4.51,0,0,0,.9,0h0a.11.11,0,0,1,.11.07h.19c.18,0,.1-.07.16,0h.55a1.74,1.74,0,0,0,.5-.2h.06v.1l.86-.18v0h.07v-.07h.05s0-.06.08-.06l.31-.08h0a.28.28,0,0,0,.22-.1,3.86,3.86,0,0,0-.15-1h-.07s0,.05-.08,0h0c-.09,0-.1.06-.18.05h-.24c-.16,0-.82.22-1,.24h0l-1.1.2a.33.33,0,0,0-.14,0h-.14a4.51,4.51,0,0,1-.9,0h-1c-.05,0-.06.07-.09.07h-.39a1.05,1.05,0,0,0-.34-.29l-.07-.08h0s-.24.81-.1,1h.08s0,0,0,.06a6.32,6.32,0,0,0,.76.11h.21A3.12,3.12,0,0,1,359.91,247.7Z"/><path class="cls-14" d="M361.73,240.92a.11.11,0,0,0,.08,0A.06.06,0,0,0,361.73,240.92Z"/><path class="cls-14" d="M363.1,240.81h.19a4.53,4.53,0,0,0,.74-.09h0c.06,0,.07,0,.1.07h.15c.16,0,.09-.07.13,0h.28a.31.31,0,0,0,.13-.06h0c.06,0,.36-.13.42-.19h0v.08a6.93,6.93,0,0,1,.73-.12c.1,0,0,.06,0,.06H366v-.08h0a.06.06,0,0,1,.06-.06h.26s.15,0,.2-.08a5.46,5.46,0,0,0,0-1h0c-.06,0,0,0,.06,0s-.06,0-.06,0H366l-.9.18h0c-.23.06-.71.14-.94.2h-.27a4.17,4.17,0,0,1-.78.1c-.07.05-.16,0-.21.07h0c-.07,0-.46,0-.54.08h-.12c-.06,0,0,.08-.07.09h0l-.16.08h-.18a.76.76,0,0,0-.3,0l-.08-.06h0s0,.85.19,1h.05a4.5,4.5,0,0,0,.63-.07h.17A2.84,2.84,0,0,1,363.1,240.81Z"/><path class="cls-14" d="M360.82,235.3h.08A.06.06,0,0,0,360.82,235.3Z"/><path class="cls-14" d="M361.87,234.75H362c.08,0,.07,0,.07-.08h0a6.32,6.32,0,0,0,.56-.33h0c.07-.08,0,0,.1-.07s.05-.09.08-.1h.11s.08,0,.08-.07h.08a.2.2,0,0,0,.09-.09h0c0-.06.24-.24.25-.3h0v0a6.06,6.06,0,0,1,.53-.35h-.05v-.08l.2-.12h0s.1-.07.12-.13a6.53,6.53,0,0,0-.45-.87h-.06c-.05,0,0,.05,0,.05h0c-.06,0-.05.08-.12.09h-.16c-.11.06-.54.38-.65.46h0c-.16.13-.51.35-.68.5H362l-.07.09a3,3,0,0,1-.6.35c0,.07-.11.09-.14.13h0l-.4.25h0c0,.06-.06,0-.1,0a.09.09,0,0,1,0,.1h0l-.1.12h0l-.12.1s-.18.06-.23.13h-.09s.37.76.57.85h0a2.27,2.27,0,0,0,.48-.27h0l.12-.09h0A1.72,1.72,0,0,1,361.87,234.75Z"/><path class="cls-14" d="M360.83,228.7a.11.11,0,0,0,.08,0A.06.06,0,0,0,360.83,228.7Z"/><path class="cls-14" d="M362.09,228h.09c.09,0,.09,0,.09-.09h0s.58-.33.68-.4-.06,0-.09,0H363c.1-.11,0,0,.13-.1s.07-.1.11-.11h0s.07,0,0-.07.08,0,0,0h0s.1,0,.11-.09h.09a.21.21,0,0,0,.11-.1h0c0-.06.29-.28.32-.35h0v0s.56-.39.65-.43h0l-.06-.06h0v-.08l.24-.15h0s.13-.08.15-.15a6,6,0,0,0-.42-.89h-.07v-.06c0-.07-.07,0-.07,0h0s0,.06,0,.06h0c-.08,0-.08.09-.14.1h0a.13.13,0,0,0-.1.06h-.11c-.14.07-.67.46-.8.56h0c-.2.14-.63.42-.82.59s-.1,0-.14.05h0l-.09.1a4.16,4.16,0,0,1-.73.44c0,.08-.13.1-.17.15h0c0,.06-.42.25-.48.31h0c-.06.07-.07,0-.13,0s0,.09,0,.1h0a.67.67,0,0,1-.13.14h0l-.14.11a1,1,0,0,0-.28.16h-.1s.35.77.58.84h0v-.06h.05a5.45,5.45,0,0,0,.58-.33h0l.16-.12h0Z"/><path class="cls-14" d="M363.08,222.88Z"/><path class="cls-14" d="M363.65,222.54h0v-.07h0a2,2,0,0,0,.28-.2h0c0-.08,0,0,.05-.06s0-.08,0-.08h0s.06,0,0,0h.06V222h0a.7.7,0,0,0,.07-.23h0s.06.08,0,.08a1.55,1.55,0,0,1,.27-.24h-.06v-.07l.1-.07h0s.05,0,0-.1-.55-.74-.59-.78h0v.05h-.06l-.3.32h0a3.51,3.51,0,0,0-.33.34h-.07v.07a1,1,0,0,1-.31.23.12.12,0,0,1-.05.09h0a1.17,1.17,0,0,0-.21.16h-.06a.11.11,0,0,1,0,.08h0V222h0v.07c0,.07-.1,0-.12.09h-.07a4.79,4.79,0,0,0,.67.75h0a1.32,1.32,0,0,0,.25-.16h0l.05-.07h0Z"/><path class="cls-14" d="M380.36,213.56h0Z"/><path class="cls-14" d="M381.53,212.87h.08c.09,0,.09,0,.09-.1h0s.54-.33.63-.4,0,0-.08,0h.11c.09-.11,0,0,.12-.1s0-.1.1-.11h0s.05,0,0-.07.06,0,0,0h0s.09,0,.1-.08h.08a.35.35,0,0,0,.1-.11h0c0-.07.28-.28.3-.35h0v.08a5.08,5.08,0,0,1,.61-.42h0v-.07h0v-.09l.23-.14h0s.12-.09.14-.15a6.14,6.14,0,0,0-.46-.88h-.11s0,0,0-.07,0,0,0,0h0a.07.07,0,0,1-.07.07h0c-.07,0,0,.09-.12.1h0a.14.14,0,0,0-.1.05h-.11c-.13.08-.61.46-.74.56h0c-.2.14-.61.43-.79.59a.16.16,0,0,0-.12.06h0l-.09.1a5.28,5.28,0,0,1-.68.44c0,.07-.12.09-.17.15h0s-.39.25-.46.31h0c0,.06,0,0-.11,0s0,.08,0,.09h0a.4.4,0,0,1-.1.15h0a.44.44,0,0,1-.15.12.61.61,0,0,0-.26.15h-.1s.37.76.59.82h0v0c0-.06,0,0,.07,0a3,3,0,0,0,.54-.33h0l.13-.12h0Z"/><path class="cls-14" d="M379.56,210.24Z"/><path class="cls-14" d="M380.07,210h.05a1.2,1.2,0,0,0,.26-.18h0v-.06h0s.07-.16,0-.21h0s.05.07,0,.07a1.06,1.06,0,0,1,.23-.19h-.06v-.07a.2.2,0,0,0,.09-.06h0v-.09a6.76,6.76,0,0,0-.59-.79h0m0-.06h0v.06h0c-.06,0-.22.23-.26.27h0a2,2,0,0,0-.28.3h0v0a.86.86,0,0,1-.27.2v.08h0a1.53,1.53,0,0,0-.17.14H379a.11.11,0,0,1,0,.08h0v.07h0s-.1,0-.11.07h-.06a6.18,6.18,0,0,0,.66.78h0l.23-.13h0v-.07h0l.37-.26Z"/><g class="cls-15"><path class="cls-10" d="M361.8,213a0,0,0,0,0,0,.05Z"/><path class="cls-10" d="M362.2,213.86h0v.06c0,.07,0,.06.08,0h0a1.76,1.76,0,0,0,.32.4v-.07h0v.1h0c.08,0,0,0,.07.07s.08,0,.09,0h.06a0,0,0,0,0,.06.05h0v.07H363c.07,0,.24.12.31.11h0l-.07,0a3.74,3.74,0,0,1,.38.31h.06v-.07h.08s.08.07.13.11h0a.1.1,0,0,0,.13,0l.6-.78h0c0-.05-.08,0-.09,0h0v-.05h0l-.44-.31h0c-.11-.07-.32-.27-.44-.35s0,0,0-.06h-.07a1.52,1.52,0,0,1-.3-.37c-.05,0-.05-.06-.1-.07h0a2.08,2.08,0,0,0-.18-.26h0v-.08c0-.08-.08,0-.09,0h0a.24.24,0,0,1-.11-.06h0l-.07-.07a.2.2,0,0,0-.09-.17v-.06h0a4.21,4.21,0,0,0-.85.54h0V213a2.71,2.71,0,0,0,.21.37h0l.09.09h0Z"/></g><g class="cls-15"><path class="cls-10" d="M364.38,210.67a0,0,0,0,0,0,.05S364.39,210.68,364.38,210.67Z"/><path class="cls-10" d="M364.8,211.63h0v.07c0,.06,0,.06.08,0h0a2.25,2.25,0,0,0,.34.47v-.08h0v.11h0c.08.06,0,0,.07.08s.1,0,.11.05h.06c.05,0,0,.06,0,0h0s0,.07.09.06h0v.07h.08c.07,0,.28.13.34.12h0s-.07.06-.07,0,.39.28.45.34h0v-.07h.08c.07,0,.11.07.16.11h.14a5.54,5.54,0,0,0,.57-.81h.06v-.06h-.1V212h0c-.08-.06-.41-.25-.48-.32h0l-.48-.38v-.08h0c0-.07,0,0-.08,0a1.6,1.6,0,0,1-.3-.42c-.06,0-.06-.07-.11-.08h0a3.3,3.3,0,0,0-.19-.31h0v-.08a.07.07,0,0,1-.09,0h0a.11.11,0,0,1-.1-.07h0l-.07-.09s0-.14-.07-.19V210h0a3.12,3.12,0,0,0-.91.46h0a1.89,1.89,0,0,0,.19.44h0l.09.1h0Z"/></g><g class="cls-15"><path class="cls-10" d="M347.18,224.34a0,0,0,0,0,0,0S347.2,224.34,347.18,224.34Z"/><path class="cls-10" d="M348.06,225h0v.07c0,.06.07,0,.1,0h0a4.32,4.32,0,0,0,.5.33v-.07h0v.11h.28s0,.06,0,.06H349v.05h.11c.06,0,.29.1.36.08h0l-.07.06a5.48,5.48,0,0,1,.52.31H350v-.08h.08a1.6,1.6,0,0,1,.19.11h0s.11.06.16,0l.58-.8h0s0,0,0-.05,0,0-.06,0h0c0-.06-.09,0-.12-.06h-.07l0-.06h0c-.1-.07-.54-.29-.65-.34h0a5.58,5.58,0,0,0-.69-.35s-.06,0-.08-.08h-.11a2.32,2.32,0,0,1-.53-.35.22.22,0,0,1-.17,0h0c-.05,0-.31-.21-.37-.23h0c-.07,0,0,0-.07-.07a.09.09,0,0,1-.1,0h-.14a.24.24,0,0,1-.13-.07.53.53,0,0,0-.2-.14v-.09h0a3.34,3.34,0,0,0-.5.88h0a3.08,3.08,0,0,0,.41.3h.13Z"/></g><g class="cls-15"><path class="cls-10" d="M350.44,221.73h.08a2.18,2.18,0,0,0,.44.11v-.06h0v.08h.31s.25,0,.29-.07h0v.08a3.12,3.12,0,0,1,.44.09v0h0v-.07h0s0-.06.05,0h.29a6.93,6.93,0,0,0,.27-1h0v0h-.21a5,5,0,0,0-.54-.08h0l-.6-.06h-.14a2,2,0,0,1-.48-.14h-.13l-.33-.07h-.33s-.11-.08-.19-.07v-.08h0a3.83,3.83,0,0,0-.18,1h0a2.29,2.29,0,0,0,.37.12H350Z"/></g><g class="cls-15"><path class="cls-10" d="M350.24,217.05h.07A.15.15,0,0,0,350.24,217.05Z"/><path class="cls-10" d="M351.26,216.86h.15a3.18,3.18,0,0,0,.53-.14h0c.08-.07,0,0,.1,0s.06-.07.09-.07h.26c0-.05.26-.15.28-.22h0v.09a5.52,5.52,0,0,1,.54-.16h0v-.07h0v-.06l.18-.06h0a.16.16,0,0,0,.14-.09,6.05,6.05,0,0,0-.2-1h0c-.06,0-.06.06-.11,0h-.17a5,5,0,0,0-.65.23h0a5.54,5.54,0,0,0-.68.25h-.1l-.09.06a2.25,2.25,0,0,1-.58.15c0,.05-.11,0-.14.08h0a2.79,2.79,0,0,0-.41.12h-.09a0,0,0,0,1,0,.07h0l-.11.09h0a.14.14,0,0,1-.12.06.4.4,0,0,0-.23.05l-.06-.05h0a3,3,0,0,0,.32,1h0a4.6,4.6,0,0,0,.47-.1h.12S351.26,216.85,351.26,216.86Z"/></g><g class="cls-15"><path class="cls-10" d="M349,234.71h0Z"/><path class="cls-10" d="M350.05,234.63h.14a3.45,3.45,0,0,0,.55-.07h-.06a.1.1,0,0,1,.09.07h0c.09-.06,0,0,.11,0s.07-.07.1-.06h0s0,0,0,0h.25a1.28,1.28,0,0,0,.29-.18h0v.1a3,3,0,0,1,.52-.1h0v-.07h0v-.07h.2a.14.14,0,0,0,.13-.08,7.77,7.77,0,0,0-.09-1h0v-.06c0-.05,0,0,0,0h-.06c-.05,0-.06.06-.11,0h-.15a4,4,0,0,0-.66.16h0a5.78,5.78,0,0,0-.69.17h-.18a2.89,2.89,0,0,1-.58.08.27.27,0,0,0-.16.05h0s-.34,0-.39.07h-.09a.06.06,0,0,1,0,.08h0l-.12.06h-.42a3.78,3.78,0,0,0,.2,1h0a3.53,3.53,0,0,0,.46,0h.13Z"/></g><g class="cls-15"><path class="cls-10" d="M351.14,238.43Z"/><path class="cls-10" d="M351.66,238.32h0a.82.82,0,0,0,.26-.1h0l.06.06h0v-.06h0s.1-.13.1-.18h0v.08a1,1,0,0,1,.25-.12h0V238h.1v-.08c0-.07-.34-.85-.37-.91h0a1.83,1.83,0,0,0-.3.18h0a2,2,0,0,0-.31.2h-.07a.66.66,0,0,1-.28.09l-.06.07h0s-.17,0-.19.08h-.06a0,0,0,0,1,0,.07h0v.08h-.17a7,7,0,0,0,.42.92h0a1.83,1.83,0,0,0,.25-.06h0Z"/></g><g class="cls-15"><path class="cls-10" d="M351.41,246.29h0s0,0,.06,0h0a1.34,1.34,0,0,0,.36.14v-.05h0v.07H352v.06h.39v.08a2.72,2.72,0,0,1,.38.11v.05h0v-.08h0s0-.06.06,0l.12.06h.12a5.5,5.5,0,0,0,.34-.92h-.14a4,4,0,0,1-.47-.11h0a2.88,2.88,0,0,0-.49-.11h-.15a1.82,1.82,0,0,1-.39-.14h-.12a1.43,1.43,0,0,0-.28-.1h-.05a0,0,0,0,1,0,.05h-.19s-.09-.07-.15-.06v-.08h0a4.06,4.06,0,0,0-.27,1h0l.29.14h.09Z"/></g><g class="cls-15"><path class="cls-10" d="M351.3,254.52Z"/><path class="cls-10" d="M352.06,254.32h.06c.05,0,0,0,0,0h0a2.67,2.67,0,0,0,.4-.13h0l.08.05h0c.06-.06,0,0,.08,0s0-.06.05-.05h.12l.07-.06h0c0-.05.17-.15.19-.2h0V254a2.3,2.3,0,0,1,.39-.17v0h0v-.06h0v-.07h.14a.09.09,0,0,0,.09-.09,7.24,7.24,0,0,0-.31-.93h0v0h0s0,.06-.07,0h-.14l-.48.24h0c-.17.08-.33.17-.49.26h-.08c-.06,0,0,0-.06.06a1.76,1.76,0,0,1-.44.15.11.11,0,0,0-.1.08h0l-.3.11h-.07a.06.06,0,0,1,0,.08h0l-.07.09h0a.11.11,0,0,0-.09.06c0,.05-.12,0-.16,0h-.07a4.74,4.74,0,0,0,.4.93h0a2,2,0,0,0,.35-.1h0l.09-.06h0S352.05,254.31,352.06,254.32Z"/></g><g class="cls-15"><path class="cls-10" d="M353.11,259.2h.1a1.52,1.52,0,0,0,.43-.12h0c.07-.06,0,0,.09,0s0-.08.06-.06H354c0-.06.17-.17.17-.23h0v.08a2.53,2.53,0,0,1,.36-.23h-.06v-.07l.13-.09h0a.07.07,0,0,0,0-.11c-.07-.06-.54-.75-.59-.79H354c-.06,0-.25.22-.32.25h0c-.09.07-.28.17-.37.24s0,0-.06,0h0v.06a.79.79,0,0,1-.35.1.09.09,0,0,0-.08,0h0s-.21,0-.25.06h-.06c-.07,0,0,.07,0,.07h0l-.07.07h-.22v-.07h0a4.88,4.88,0,0,0,.11,1h0a1.21,1.21,0,0,0,.38,0h.09Z"/></g><g class="cls-15"><path class="cls-10" d="M351.84,267.35h0v0c0,.06.06,0,.08,0h0a3.13,3.13,0,0,0,.36.19v-.06h0v.09h.17v.05h.06a.06.06,0,0,0,.08,0h.26v.08a2.5,2.5,0,0,1,.38.15V268h0v-.08h0l.13.07h.11a6,6,0,0,0,.45-.88h0V267c0-.06,0,0-.05,0h-.09l-.47-.17h0a5,5,0,0,0-.51-.16h-.13a1.11,1.11,0,0,1-.39-.2h-.12a1.29,1.29,0,0,0-.28-.12h0l-.05-.05a.08.08,0,0,1-.07.05h-.21s-.07-.09-.14-.09v-.07h0a4.3,4.3,0,0,0-.38.94h0a1.22,1.22,0,0,0,.29.17h.1Z"/></g><g class="cls-15"><path class="cls-10" d="M353.8,273.6h.11a1.48,1.48,0,0,0,.42,0h0v.07h.31s.2-.11.22-.16h0v.08a2.83,2.83,0,0,1,.42-.07h0v-.08h.15a.12.12,0,0,0,.11-.07,7.77,7.77,0,0,0-.1-1h-.22a4.21,4.21,0,0,0-.51.12h0a2,2,0,0,0-.54.14.11.11,0,0,0-.08,0H354a1.22,1.22,0,0,1-.46.06.14.14,0,0,0-.11,0h-.4a.08.08,0,0,1,0,.09h0a.15.15,0,0,1-.09.06h-.27v-.06h0a4.31,4.31,0,0,0,.19,1h.46A4.83,4.83,0,0,1,353.8,273.6Z"/></g><g class="cls-15"><path class="cls-10" d="M353.91,281.22h0A0,0,0,0,0,353.91,281.22Z"/><path class="cls-10" d="M354.63,281.14h0c0-.05.05,0,.05,0h0a1.34,1.34,0,0,0,.4,0h0l.05.07h.08c.08,0,0,0,.07,0h.06a.11.11,0,0,0,.08,0h0a.88.88,0,0,0,.23-.14h0v.09a1.34,1.34,0,0,1,.4,0v0h0v-.08h0v-.05h.26l.15-1h-.8a2.9,2.9,0,0,0-.59.09h-.16a2,2,0,0,1-.49,0c0,.06-.09,0-.12.07h0s-.28,0-.33.06h-.08a.08.08,0,0,1,0,.09h0l-.08.08h-.29l-.06-.06h0a4.71,4.71,0,0,0,.32,1h0a1.82,1.82,0,0,0,.33,0h.09Z"/></g><g class="cls-15"><path class="cls-10" d="M402.83,212.9a.06.06,0,0,0,.08,0A.2.2,0,0,0,402.83,212.9Z"/><path class="cls-10" d="M404.1,212.54h.09c.09,0,.09,0,.1,0h0c.23-.06.46-.13.68-.21h.09c.11-.08,0,0,.14-.07s.07-.07.11-.07h.06s.08,0,.1-.06h.08a.24.24,0,0,0,.11-.06h0a1.64,1.64,0,0,0,.35-.26h0v.1a5,5,0,0,1,.67-.24h0v-.06h0s0-.07.06-.08l.24-.08h0a.17.17,0,0,0,.16-.11,5.21,5.21,0,0,0-.22-1h0v-.06c0-.05-.05,0-.05,0h0s0,.06-.07,0h0c-.06,0-.08.08-.14.07h-.2a4.69,4.69,0,0,0-.82.33h0c-.21.09-.65.24-.86.35a.28.28,0,0,0-.13,0h0l-.11.08a6.18,6.18,0,0,1-.73.23.24.24,0,0,0-.19.1h0a2.6,2.6,0,0,0-.49.17H403c-.06,0,0,.09,0,.1h0l-.14.11h0a.44.44,0,0,1-.16.06,1.29,1.29,0,0,0-.28.08h-.09s.18.83.36,1h.11a3.83,3.83,0,0,0,.58-.16h0l.16-.08h0A2.57,2.57,0,0,1,404.1,212.54Z"/></g><g class="cls-15"><path class="cls-10" d="M405.9,215.26a.09.09,0,0,0,.07,0Z"/><path class="cls-10" d="M407.12,215.16h.16a3.74,3.74,0,0,0,.66-.09h0c.05,0,.05,0,.09.06h0c.11-.06,0,0,.13,0s.08-.07.12-.06h.05c.06,0,.07,0,0,0s.07,0,0,0h.31a1.59,1.59,0,0,0,.36-.19h0v.1c.22-.05.43-.09.65-.12h0v-.06h.05s0-.08.06-.07H410s.12,0,.16-.08a5.16,5.16,0,0,0-.06-1H410s0,0,.06-.06-.06,0-.06,0h-.39l-.71.07h0a8.71,8.71,0,0,0-.85.2h-.23a5.36,5.36,0,0,1-.7.1.22.22,0,0,0-.18.06h0c-.06,0-.42,0-.49.08h-.11a.08.08,0,0,1-.05.09h0l-.14.07h0a.22.22,0,0,1-.16,0h-.27l-.08-.05h0a2.77,2.77,0,0,0,.2,1h.05a3.43,3.43,0,0,0,.56-.05h.16A.79.79,0,0,1,407.12,215.16Z"/></g><g class="cls-15"><path class="cls-10" d="M410.21,220.94h.13a3.59,3.59,0,0,0,.47-.12h-.05l.07.05h.09c.09,0,.06-.06.08-.06h0v-.06h.22c0-.05.22-.13.25-.18h0v.08a3.55,3.55,0,0,1,.47-.09m0,.05h0v-.08h0v-.06h.17a.14.14,0,0,0,.12-.07c0-.06,0-.92,0-1h-.11c-.06,0-.08.05-.12,0h.13a5.28,5.28,0,0,0-.66.16h0a3.37,3.37,0,0,0-.68.22.14.14,0,0,0-.09,0h-.07a2.73,2.73,0,0,1-.56.15.18.18,0,0,0-.15.09h0s-.32.1-.37.13h-.09a.09.09,0,0,1,0,.1h0l-.09.1h0a.48.48,0,0,0-.1.08.37.37,0,0,0-.21.06H409a3.89,3.89,0,0,0,.46.91h0a2.67,2.67,0,0,0,.4-.13h0l.1-.07h0s.26-.28.27-.28Z"/></g><g class="cls-15"><path class="cls-10" d="M409.92,226.24a.06.06,0,0,0,.08,0A.11.11,0,0,0,409.92,226.24Z"/><path class="cls-10" d="M411.2,226h.17a5.15,5.15,0,0,0,.68-.15h.08c.11-.06,0,0,.13,0s.08-.07.12-.06h.24l.12-.07h0s.33-.16.37-.22h0v.1a5.48,5.48,0,0,1,.67-.17v.05h0v-.07h.06v-.06l.25-.06h0a.18.18,0,0,0,.16-.09,4.45,4.45,0,0,0-.13-1h-.05s0,.05-.07,0h0c-.06,0-.09.07-.14.05h-.21l-.82.26h0a7.25,7.25,0,0,0-.87.27h-.12l-.11.07a3.64,3.64,0,0,1-.73.15.19.19,0,0,0-.19.09h0l-.5.11h-.12c-.06,0,0,.08-.06.08h0a.55.55,0,0,1-.14.09h-.15a.71.71,0,0,0-.29,0h-.09s.1.85.28,1h.11a3.91,3.91,0,0,0,.58-.1h.16Z"/></g><g class="cls-15"><path class="cls-10" d="M411.05,230.53h0Z"/><path class="cls-10" d="M412.43,230.38h.2s.64-.08.76-.11-.06,0-.08,0h0a.15.15,0,0,1,.11,0h0c.12-.06,0,0,.14,0s.1-.06.15,0h.05c.06,0,.08,0,.06,0s.06,0,0,0h.35a1.23,1.23,0,0,0,.41-.21h0v.1a6.08,6.08,0,0,1,.74-.16h.05v-.07h0a.07.07,0,0,1,.07-.07h.26s.15,0,.2-.09a2.92,2.92,0,0,0-.07-1h-.46c-.15,0-.75.17-.91.2h0a4.32,4.32,0,0,0-1,.23h-.13l-.12.06a5.6,5.6,0,0,1-.82.13.23.23,0,0,0-.2.07h0a3.76,3.76,0,0,0-.55.1h-.13c-.07,0,0,.07-.07.08h0a.6.6,0,0,1-.16.08h-.17a.86.86,0,0,0-.32,0h-.07s0,.84.22,1h.26a1.79,1.79,0,0,0,.64-.08h0l.18-.05h0A2,2,0,0,1,412.43,230.38Z"/></g><g class="cls-15"><path class="cls-10" d="M412.22,236.31h.06A0,0,0,0,0,412.22,236.31Z"/><path class="cls-10" d="M413.37,236.28h.82c.05,0,.05,0,.09.07h.13c.13,0,.09-.07.12-.06h.16m.07,0h.12a1.79,1.79,0,0,0,.37-.16h0v.09c.22,0,.43-.06.65-.08h0v-.08h0s0-.06.05,0h.24s.14,0,.18-.06a8.18,8.18,0,0,0,0-1H416l-.81.12h0a6.17,6.17,0,0,0-.84.15h-.23a4.21,4.21,0,0,1-.71,0c-.06.05-.12,0-.19.05h-.59c-.06,0,0,.08-.07.08h0a.59.59,0,0,1-.14.06h-.15a.66.66,0,0,0-.28,0l-.06-.06h0a2.76,2.76,0,0,0,.14,1h0a2.62,2.62,0,0,0,.56,0h.15l.62-.12Z"/></g><g class="cls-15"><path class="cls-10" d="M414.23,240.9h.18s.53.25.64.28,0,0,0-.07,0,0,.07,0,.05,0,0,.11h0c.13,0,0,0,.13.05s.11,0,.13,0h.07v.06h0a.08.08,0,0,0,.12,0h0s.05,0,0,.06h0a.15.15,0,0,0,.13,0h0c.07,0,.35.11.43.1h.05l-.06.07a3.81,3.81,0,0,1,.61.37h.07v-.08h.08l.21.15h0a.43.43,0,0,0,.19.08l.68-.71h.09c.08,0,0-.06-.07,0s0,0,0-.06a.08.08,0,0,1-.09,0h0c0-.06-.11,0-.15-.09h0a.09.09,0,0,1-.08-.07h0a.25.25,0,0,1-.07-.09h0c-.14-.1-.71-.4-.86-.48h0a9.65,9.65,0,0,0-.92-.43l-.12-.07h-.14c-.26-.1-.52-.21-.77-.33h-.22c-.06,0-.46-.17-.55-.18h0c-.07,0,0,0-.11-.06s-.06,0-.1,0h-.17a.54.54,0,0,1-.18,0,.55.55,0,0,0-.3-.09l-.07-.09h0s-.27.79-.17,1H413c.07,0,0,0,0,0l.58.19h.17A1.08,1.08,0,0,1,414.23,240.9Z"/></g><g class="cls-15"><path class="cls-10" d="M413.51,245.14a0,0,0,0,0,.05,0Z"/><path class="cls-10" d="M414.6,245.42h0c.06,0,0,.06.07,0s.08,0,.1,0h0a2.47,2.47,0,0,0,.6.13l-.05-.06c-.06-.05,0,0,.05,0s0,0,.07.09h.29s0,0,0,0H416s.32,0,.38-.06h0v.08q.3,0,.6.09v.06h0v-.08h0s0-.05.08,0h.39a6,6,0,0,0,.24-.95h0s0,0,0-.06,0,0-.06,0h-.31l-.77-.07h0c-.2,0-.59-.08-.8-.07h-.21a2.34,2.34,0,0,1-.64-.12h-.19c-.05,0-.38-.08-.45-.08h-.09c-.08,0-.05.07-.07.07h-.3a.72.72,0,0,0-.25-.07v-.07h0a2.81,2.81,0,0,0-.13,1h.05c.06,0,0,0,0,.06l.51.11h.14Z"/></g><g class="cls-15"><path class="cls-10" d="M416,254.31h0Z"/><path class="cls-10" d="M416.91,253.94H417c.08,0,.06,0,.06-.06h0a2.69,2.69,0,0,0,.48-.24h0c.07-.07,0,0,.09,0s0-.09.08-.09h0v-.05c0-.06,0,0,0,0h.06a.2.2,0,0,0,.08-.08h0c0-.05.2-.2.21-.26h0v.09a4.25,4.25,0,0,1,.46-.27h0v-.05h0v-.07l.16-.09h0s.09-.05.1-.11a8.6,8.6,0,0,0-.39-.89h0v-.06s-.06,0,0,0h0c-.06,0,0,.07-.1.07h-.14l-.56.36h0c-.15.1-.45.26-.59.37h-.09l-.07.07a2.41,2.41,0,0,1-.51.25c0,.06-.1.06-.12.11h0a2.11,2.11,0,0,0-.35.19h-.09a.06.06,0,0,1,0,.08h0a.62.62,0,0,1-.09.11h0l-.11.08s-.15,0-.2.09h-.07a3.28,3.28,0,0,0,.5.87h0a2,2,0,0,0,.42-.18h0l.11-.08h0A1.24,1.24,0,0,1,416.91,253.94Z"/></g><g class="cls-15"><path class="cls-10" d="M417.26,260.16h.07A0,0,0,0,0,417.26,260.16Z"/><path class="cls-10" d="M418.45,259.84h.08c.08,0,.09,0,.1-.07h0a3.69,3.69,0,0,0,.64-.21h0c.1-.07,0,0,.12-.05s.07-.09.11-.08h0s.06,0,0-.06,0,0,0,0h0a.13.13,0,0,0,.11-.06h.07a.24.24,0,0,0,.11-.06h0c0-.06.3-.19.33-.26h0v.09a4.82,4.82,0,0,1,.63-.23h0v-.06h0v-.08l.23-.08h0a.16.16,0,0,0,.15-.11,5.07,5.07,0,0,0-.24-.95h0m-.06,0h0s0,.05-.06,0h0c-.07,0-.08.06-.13.05h-.19a5.1,5.1,0,0,0-.77.33h0c-.19.09-.6.24-.8.35h-.12l-.1.08a3.26,3.26,0,0,1-.69.22c0,.06-.13,0-.17.1h0a2.8,2.8,0,0,0-.46.16h-.11s0,.09,0,.1h0a1,1,0,0,1-.13.1h0l-.15.08a.48.48,0,0,0-.26.07h-.09a2.91,2.91,0,0,0,.38,1h.05a5,5,0,0,0,.55-.17h0l.14-.08h0a1.17,1.17,0,0,1,.69-.07Z"/></g><g class="cls-15"><path class="cls-10" d="M418.71,265.15h0v.06c0,.05,0,0,.08,0h0a2.75,2.75,0,0,0,.41.24v-.07h0v.1h.18v.06h0s0,0,.08,0h0v0h0a.14.14,0,0,0,.09,0h.29l-.06.07a4.25,4.25,0,0,1,.43.21v.05h0v-.08h0s0,0,.06,0l.15.08h.14l.51-.84h.06V265H421l-.54-.23h0a5.65,5.65,0,0,0-.57-.23l-.05-.05h-.09a2,2,0,0,1-.44-.26h-.13a2.15,2.15,0,0,0-.31-.16h0s0,0,0-.07a.06.06,0,0,1-.08,0h-.08s-.1-.09-.16-.09v-.09h0a3.89,3.89,0,0,0-.44.92h0v.05a2.39,2.39,0,0,0,.34.21h.11Z"/></g><g class="cls-15"><path class="cls-10" d="M419.27,271.58Z"/><path class="cls-10" d="M419.57,272.23h0v.06h0a1.63,1.63,0,0,0,.19.34v-.06h0v.08h0c.07,0,0,0,.05.07s.08,0,.07,0h.05v0H420c.05,0,.17.12.23.12h-.09a1.9,1.9,0,0,1,.22.33h0l0-.05h.07l.06.12h0s0,.06.1.06l.86-.47h0m.05,0h0s-.06,0-.05-.07h0v-.05h0v-.05h0l-.3-.39h0a4.16,4.16,0,0,0-.32-.39c-.09-.09,0-.06,0-.08h-.05a1.36,1.36,0,0,1-.21-.37c-.05,0-.05-.06-.09-.08h0a1.79,1.79,0,0,0-.15-.24h0v-.07a.11.11,0,0,1-.08,0h0a.17.17,0,0,1-.1,0h0a.06.06,0,0,0-.06-.06c-.07,0,0-.12-.07-.16v-.06h0a4.72,4.72,0,0,0-.84.56h0a1.38,1.38,0,0,0,.14.3h0a.07.07,0,0,0,.07.07h0l.14.49Z"/></g><g class="cls-15"><path class="cls-10" d="M417.78,276.93V277A0,0,0,0,0,417.78,276.93Z"/><path class="cls-10" d="M418,278.11h0v.16h0a4.56,4.56,0,0,0,.14.64v-.07h0v.1h0c.07.11,0,0,0,.13s.08.08.07.11h0v.06c0,.05,0,0,.05,0s0,.05,0,0h0v.1h0v.07h0a.24.24,0,0,0,.06.11h0a1.47,1.47,0,0,0,.21.33h-.1a4.5,4.5,0,0,1,.17.63h.14a.48.48,0,0,0,0,.22h0a.18.18,0,0,0,.09.16l1-.16h0m0-.06h0v-.05c0-.06,0,0,.06.05s0-.07,0-.07h0v-.06h0c0-.07-.06-.08,0-.13h0v-.09h0v-.09h0a5.62,5.62,0,0,0-.25-.76h0a7.92,7.92,0,0,0-.28-.82v-.11h0l-.05-.09a3.2,3.2,0,0,1-.16-.68c-.05-.06,0-.14-.08-.18h0a3.25,3.25,0,0,0-.12-.47h0V277s-.08,0-.09-.05h0a.92.92,0,0,1-.08.27h0s0-.12-.05-.14a.66.66,0,0,0-.06-.27l.06-.07h0s-.84.12-1,.28h0v.06a4.51,4.51,0,0,0,.1.53h0v.15h0a1.09,1.09,0,0,1,.12.36Z"/></g><g class="cls-15"><path class="cls-10" d="M416.75,282.55h0v.05h0a.86.86,0,0,0-.18.2h0v.07h0v.19h0l-.06-.06a1.37,1.37,0,0,1-.15.21h.06v.05a.1.1,0,0,1-.06.08h0v.07l.74.64h0V284h0l.17-.28h0c0-.08.14-.21.17-.3h0v-.05a.51.51,0,0,1,.2-.21v-.09h0s.12-.12.12-.15h0a.09.09,0,0,1,0-.07h0v-.08h0v-.07c0-.07.09,0,.09-.08h.07a7.8,7.8,0,0,0-.81-.61h0c-.06,0-.12.1-.17.15h0v.07h0Z"/></g><g class="cls-15"><path class="cls-10" d="M412.62,284.2h0Z"/><path class="cls-10" d="M412.13,285.15h-.07c-.06,0,0,.06,0,.08h0a5.05,5.05,0,0,0-.24.53h.07c.06,0,0,0,0,.05s0,0-.1,0h0V286h0v.06h-.06s-.05,0,0,.09h-.05a.2.2,0,0,0,0,.11h0v.36h0l-.08-.06a2.24,2.24,0,0,1-.21.54h0v.05h.08s0,0,0,.08l-.09.19h0v.16l.88.44h0v0c0-.05,0,0,.05,0s0,0,0-.06h0v-.12h0v-.08h0v-.07h0a6,6,0,0,1,.22-.68h0c0-.17.19-.52.22-.71a.13.13,0,0,0,.07-.09h0v-.1a2.06,2.06,0,0,1,.25-.57v-.16h0c0-.05.15-.33.16-.39h0c0-.07,0,0,.07-.08s-.05-.07,0-.08h0v-.14h0v-.13s.11-.13.11-.22h.09a3.55,3.55,0,0,0-.94-.35h0v0h0a2.58,2.58,0,0,0-.22.44h0a.33.33,0,0,0,0,.14h0S412.14,285.15,412.13,285.15Z"/></g><g class="cls-15"><path class="cls-10" d="M407.83,285.54a.06.06,0,0,0-.06,0Z"/><path class="cls-10" d="M406.86,286.68h-.09s-.07.08,0,.12h0v.06h0v.05h0a6.2,6.2,0,0,0-.47.67h.08c.09,0,0,0,0,.06s-.05,0-.12,0h0c0,.15,0,0-.08.15s0,.13,0,.15h0v.12h-.06s-.08.07-.06.12h0a.06.06,0,0,1-.07.06h0a.24.24,0,0,0-.05.14h0c0,.08-.15.39-.14.47h0v.07s-.07-.08-.06-.08-.31.63-.37.72-.06,0-.06,0v.07h.08v.05h0v.11c-.05.08-.09.17-.13.25h0s-.06.15,0,.22l.84.52h0v-.06h0v0c0-.07,0,0,0,0s0-.07,0-.09h0c.06,0,0-.12.06-.17h0a.09.09,0,0,1,.05-.08h0a.1.1,0,0,1,.07-.09h0l.41-.88h0c.09-.22.35-.67.46-.9a.79.79,0,0,0,.08-.11h0v-.13a3.75,3.75,0,0,1,.49-.69c0-.09.07-.14.09-.21h0c0-.06.31-.38.34-.46h0c0-.07.06,0,.11-.07s0-.09,0-.11h0a1.07,1.07,0,0,1,.07-.19h0a.4.4,0,0,1,.1-.15c0-.07.17-.14.22-.25h.1s-.57-.61-.82-.61h0v.08h0c-.16.16-.31.34-.46.52h0a1.51,1.51,0,0,0-.09.18h0A2.82,2.82,0,0,1,406.86,286.68Z"/></g><g class="cls-15"><path class="cls-10" d="M402.57,285.4h-.09A.14.14,0,0,0,402.57,285.4Z"/><path class="cls-10" d="M401.42,286.61h0c-.06.06-.06,0-.1,0s-.08.09-.07.14h0v.05h0s-.52.57-.6.69.06,0,.09,0,0,0,0,.07-.07.05-.12,0h0c-.08.15,0,0-.11.15s0,.13-.09.15h0v.06s-.06.06,0,.08h-.06c0,.05-.09.06-.09.12h0s0,.06-.09.05h0a.46.46,0,0,0-.09.15h0c0,.09-.24.41-.24.5h0v0s-.48.62-.57.7h0v.07h.08v.11l-.21.26v-.07h0c0-.06-.11.14-.12.22l.66.73h0v.09s.06,0,.05-.07,0,0,.06,0,0-.07.05-.08h0c.08,0,0-.12.12-.17h0s0,0,.09-.08h0s0-.07.1-.09h0c.13-.14.58-.75.69-.9h0c.17-.23.56-.69.72-.94l.12-.11h0l.08-.13a5.83,5.83,0,0,1,.65-.75c0-.09.11-.14.14-.23h0c0-.08.37-.44.43-.52h0c0-.07.06,0,.12-.08s0-.1,0-.12h0a1.6,1.6,0,0,1,.08-.2h0l.13-.18a1.11,1.11,0,0,0,.26-.27h.1s-.56-.64-.81-.63h0a.08.08,0,0,1,0,.07h-.07c-.07,0-.36.36-.53.56h0l-.13.17h0A1.66,1.66,0,0,1,401.42,286.61Z"/></g><g class="cls-15"><path class="cls-10" d="M395.77,286.47h-.06c-.07,0,0,0,0,.08h0a3,3,0,0,0-.36.35h0c0,.1,0,0-.06.09s0,.08,0,.08h0v.06c0,.05-.06,0,0,0h0s-.06,0,0,.07h-.07a.22.22,0,0,0-.05.08h0c0,.07-.12.24-.11.31h0s-.06-.09,0-.08c-.11.13-.23.26-.35.38h0v.05h.06V288l-.12.12h0a.21.21,0,0,0-.06.13,5.61,5.61,0,0,0,.67.72h0v.07c0,.06,0,0,0,0h0V289h0s0-.07.06-.08h.13c.08-.08.34-.41.41-.5h0a5.4,5.4,0,0,0,.43-.52.09.09,0,0,0,.07,0h0v-.09a2.05,2.05,0,0,1,.4-.38c0-.06.06-.08.07-.14h0a3.12,3.12,0,0,0,.27-.26h0s0,0,.07,0a.07.07,0,0,1,0-.09h0v-.12h0a.39.39,0,0,1,.08-.1s.13-.06.15-.14h.09s-.56-.63-.75-.68h0a2.28,2.28,0,0,0-.33.29h0l-.07.1h0Z"/></g><g class="cls-15"><path class="cls-10" d="M392.72,285.54s0,0,0,0Z"/><path class="cls-10" d="M392.14,286.15h-.07c-.07,0,0,0,0,.08h0a2.82,2.82,0,0,0-.33.36h0c0,.09,0,0-.06.08s0,.09,0,.1h0s-.06,0,0,.07h-.06a.14.14,0,0,0,0,.09h0c0,.06-.09.23-.08.3h0l-.06-.07a3.65,3.65,0,0,1-.29.37h0v.06h.06v.07l-.11.13h0a.11.11,0,0,0,0,.13l.71.68h.06c.05,0,0-.06,0-.06h0v-.08h.11l.34-.5h0c.09-.13.28-.37.36-.51a.16.16,0,0,0,.08-.06h0v-.07a1.63,1.63,0,0,1,.35-.39c0-.06.05-.09.06-.13h0c0-.05.21-.23.23-.27h0c0-.06,0,0,.08,0m0-.08h0v-.12h0s0-.08.05-.1a.23.23,0,0,0,.15-.14h-.06a4.12,4.12,0,0,0-.8-.63h0a1.59,1.59,0,0,0-.29.29h0l-.07.1h0l-.28.3Z"/></g><g class="cls-15"><path class="cls-10" d="M388.1,286.31h-.05c-.06,0,0,.07,0,.1h0c0,.07-.21.47-.23.55s0,0,.06,0,0,0,0,.06,0,0-.1,0h0v.23h0v.05h0c0,.06,0,.07,0,.1h0a.11.11,0,0,0,0,.11h0v.38h0l-.08-.06a3.36,3.36,0,0,1-.26.54h-.05v.06h.07v.09a.56.56,0,0,1-.11.19h0s-.05.11,0,.16l.8.58h0v0c0-.06,0,0,.06,0s0,0,0-.06h0s0-.1,0-.13h0a.09.09,0,0,1,.06-.08h0s0-.07.06-.08h0a8.11,8.11,0,0,0,.34-.74h0a6,6,0,0,0,.31-.8.1.1,0,0,1,.06-.09h0v-.12a3.81,3.81,0,0,1,.27-.66v-.18h0c0-.07.14-.4.15-.46h0c0-.07,0,0,.06-.09a.06.06,0,0,1,0-.09h0v-.16h0v-.16a.5.5,0,0,0,.08-.26h.08a2.84,2.84,0,0,0-1-.21h0m0,.06h0c-.06.15-.12.31-.17.48h0v.15h0l-.41.53Z"/></g><path class="cls-14" d="M386.39,278.31a0,0,0,0,0,0,.05A0,0,0,0,0,386.39,278.31Z"/><path class="cls-14" d="M387,278.8h0v.05c0,.06,0,0,.06,0h0s.21.28.25.32,0,0,0-.05h0v.08h0c.08,0,0,0,.06.07s.08,0,.08,0h0v.07h0v.05h0a2.55,2.55,0,0,0,.21.18h-.08a1.9,1.9,0,0,1,.14.4h.09a.33.33,0,0,0,0,.14h0v.1h1v0h0v-.06h0V280h0V280h0v-.09h0a3.44,3.44,0,0,0-.26-.67h0a3.2,3.2,0,0,0-.4-.63v-.1h0l-.08-.06a3.71,3.71,0,0,1-.39-.48.2.2,0,0,0-.14-.09h0l-.33-.27h0c-.06,0,0,0-.05-.09a.07.07,0,0,1-.1,0h-.14a.22.22,0,0,1-.12-.05c-.06,0-.12-.12-.2-.13v-.08h0a4,4,0,0,0-.42.92h0l.28.22h.09Z"/><path class="cls-14" d="M390.39,275.82a.09.09,0,0,0,0,.07A.09.09,0,0,0,390.39,275.82Z"/><path class="cls-14" d="M390.77,276.89h0V277c0,.08,0,.06.06.08h0s.18.48.23.57,0,0,0-.08h0v.1h0c.08.09,0,0,.07.11s.07.05.07.08h.06c.05,0,0,.06,0,0h0s0,.08.05.09h0a.06.06,0,0,1,0,.08h0l.08.09h0c.06,0,.2.25.25.27h-.09a5.69,5.69,0,0,1,.26.56H392a1.79,1.79,0,0,1,.09.21h0a.13.13,0,0,0,.11.13l.93-.32h0v-.05h.05c.06,0,0-.06,0-.06h0s-.05,0,0-.05h0c0-.07-.06-.06-.06-.12h0v-.08h0v-.09h0a4,4,0,0,0-.35-.68h0c-.1-.17-.27-.53-.39-.71s0-.08,0-.11h0l-.07-.09a3.29,3.29,0,0,1-.26-.61c-.05,0-.05-.11-.09-.14h0s-.15-.36-.19-.42h0v-.1a.07.07,0,0,1-.1,0h0a.57.57,0,0,1-.11-.11h0l-.06-.12a.64.64,0,0,0-.1-.24v-.09h0s-.8.27-.91.45h0s.11.33.18.48h0l.09.14h0Z"/><path class="cls-14" d="M394,276.11h0v.08c0,.08,0,.08.07.08h0a4.3,4.3,0,0,0,.28.57v-.07h0v.11h0c.09.09,0,0,.07.11s.09.06.09.09h0v.05c0,.06,0,.06.05,0s0,.06,0,0h0s0,.08.06.09h0v.08h0a.28.28,0,0,0,.07.09h0c.07,0,.23.25.3.27h-.09c0,.08.29.47.31.55h.14a1.14,1.14,0,0,0,.1.19h0a.59.59,0,0,0,.12.14l.91-.39h.05c.06,0,0,0,0,0v0h0c0-.06-.07-.06-.07-.11h0v-.09h0v-.1h0a3.18,3.18,0,0,0-.41-.67h0c-.11-.17-.3-.53-.44-.7a.13.13,0,0,0,0-.12h0l-.07-.08a3.5,3.5,0,0,1-.31-.61s-.07-.11-.12-.15h0a2.92,2.92,0,0,0-.22-.42h0V275a.09.09,0,0,1-.1,0h0l-.15.07h0l-.09-.12a.41.41,0,0,0-.11-.24v-.09h0s-.78.32-.88.51h0v.06a3.06,3.06,0,0,0,.22.49h0a1.13,1.13,0,0,1,.1.13h0A.77.77,0,0,1,394,276.11Z"/><path class="cls-14" d="M398,273.29v.07A.09.09,0,0,0,398,273.29Z"/><path class="cls-14" d="M398.55,274.32h0v.07c0,.08,0,.08.07.07h0l.28.59V275h0v.11h0c.09.09,0,0,.06.11s.08.07.08.1h0v.06s0,0,.06,0,0,.06,0,0h0v.1h0m0,.07h0a.24.24,0,0,0,.06.11h0c.06,0,.18.29.24.32h-.09a3.36,3.36,0,0,1,.18.64h.08a1.8,1.8,0,0,0,0,.24h0s0,.12.07.16h1v-.05h0v-.06h0v-.08h0c0-.06-.05-.09,0-.15h0v-.1h0v-.11h0c-.07-.3-.16-.59-.26-.89h0a4.67,4.67,0,0,0-.38-.89.24.24,0,0,0,0-.12h0l-.08-.1a4,4,0,0,1-.34-.73.28.28,0,0,0-.13-.16h0c-.06-.06-.23-.41-.3-.47h0V273c0-.06-.09,0-.11,0h0l-.14-.11h0c-.06,0-.1-.1-.12-.13a.68.68,0,0,0-.18-.26v-.08h0s-.7.47-.75.68h.05v.05a2.27,2.27,0,0,0,.3.47h0l.09.12h0a1.09,1.09,0,0,1,.27.62Z"/><path class="cls-14" d="M403,273.07v.06C403,273.2,403,273.09,403,273.07Z"/><path class="cls-14" d="M403.51,274.13h0v.08c0,.07,0,.07.08.07h0a3.75,3.75,0,0,0,.24.6c0,.08,0,0,0-.08h0v.1h0c.08.1,0,0,.06.12s.08.05.07.1h0v.1h0v.07h0a.23.23,0,0,0,.07.1h0s.17.29.24.31h-.1a3.84,3.84,0,0,1,.2.6h.06s.08,0,.08.06a1.6,1.6,0,0,0,.05.21h0a.18.18,0,0,0,.09.16l1-.13h0m0-.06h0v-.06h0c0-.07-.07-.09,0-.15h0v-.1h0v-.09h0a4.52,4.52,0,0,0-.3-.82h0a6.66,6.66,0,0,0-.37-.82v-.12h0l-.08-.1a5.11,5.11,0,0,1-.28-.68c-.06,0-.07-.12-.12-.16h0c-.07-.15-.15-.3-.23-.45h0c-.06,0,0,0,0-.11s-.09,0-.1,0h0a.69.69,0,0,1-.13-.11h0a.21.21,0,0,1-.1-.13.75.75,0,0,0-.13-.25v-.09h0s-.76.36-.85.56h0v.05a2.62,2.62,0,0,0,.24.49h0l.09.13h0a1.18,1.18,0,0,1,.24.6Z"/><path class="cls-14" d="M407.83,273.48h0v.07c0,.06,0,.06.07.06h0a3.16,3.16,0,0,0,.22.5h0v.1h0c.07.06,0,0,0,.08s.07.06.07.09h0s0,.06.06,0h0v.09h0v.07h0a.16.16,0,0,0,.06.08h0c.06,0,.17.23.23.26h-.08c.06.16.12.34.17.51h.13v.19h0a.14.14,0,0,0,.08.13l1-.17h0m0-.05h0v-.06h0c0-.05-.06-.06,0-.12h0v-.08h0v-.09h0a5,5,0,0,0-.28-.69h0a4.47,4.47,0,0,0-.33-.7.2.2,0,0,0,0-.11h0l-.07-.08a4.35,4.35,0,0,1-.27-.58c-.05,0-.06-.11-.11-.14h0a4.13,4.13,0,0,0-.21-.39h0v-.1c0-.09-.07,0-.08,0h0a.48.48,0,0,1-.11-.08h0a.31.31,0,0,1-.09-.11s0-.17-.12-.22v-.08h0s-.74.41-.82.59h0v.06a3,3,0,0,0,.21.4h0l.08.1h0l.21.47Z"/><path class="cls-14" d="M409.29,267.35v.06C409.29,267.48,409.31,267.4,409.29,267.35Z"/><path class="cls-14" d="M410,268.08h0v.07c0,.06,0,0,.08,0h0a4.71,4.71,0,0,0,.41.35v-.08h0v.1h0c.08,0,0,0,.08.05s.09,0,.1,0h.06s0,.06.07,0h0v.07h.09c.07,0,.26.11.33.1h0l-.07.05a1.8,1.8,0,0,1,.42.32h.06V269h.08a.57.57,0,0,0,.15.12h0a.31.31,0,0,0,.14.06l.67-.72h.05v-.06c0-.05,0,0-.05,0h0c0-.05-.08,0-.1-.06h0v-.06h0l-.06-.06h0a6.42,6.42,0,0,0-.53-.38h0c-.15-.09-.42-.3-.57-.38s0-.06-.06-.08h-.1a2.1,2.1,0,0,1-.42-.37.14.14,0,0,1-.15-.07h0a3.12,3.12,0,0,0-.3-.24h0v-.07c0-.08-.07,0-.09,0h-.13s-.09,0-.11-.06a.29.29,0,0,0-.17-.15v-.09h0a3.7,3.7,0,0,0-.6.81h0a3.34,3.34,0,0,0,.33.32h0a.32.32,0,0,0,.11.06h0Z"/><path class="cls-14" d="M409.35,264.12h0s0,.06.06,0,.07,0,.08,0H410v-.05h0l0,.08h.1c.1,0,.07-.06.09,0h.23a1,1,0,0,0,.3-.13h0v.09h.49V264h0s0-.08.05-.06h.31a9.28,9.28,0,0,0,.08-1h-.86a3.31,3.31,0,0,0-.63,0H410a2.26,2.26,0,0,1-.52,0h-.58a.06.06,0,0,1-.06.06h-.43V263h0a3.49,3.49,0,0,0,0,1H409Z"/><path class="cls-14" d="M405.43,260.41h.07A.09.09,0,0,0,405.43,260.41Z"/><path class="cls-14" d="M406.42,260.25h.13a1.78,1.78,0,0,0,.51-.16h0c.07-.07,0,0,.1,0s0-.08.07-.07h0s.06,0,0,0,.06,0,0,0h.14a.11.11,0,0,0,.09-.07h0s.21-.18.22-.25h0v.09a4.45,4.45,0,0,1,.46-.26h0v-.06h0v-.08l.17-.08h0a.33.33,0,0,0,.09-.12,8.31,8.31,0,0,0-.47-.87h0c-.05,0,0,.08-.07.08h-.13l-.5.31h0c-.13.08-.4.22-.53.31s-.07,0-.09,0h0l-.07.06a1.41,1.41,0,0,1-.49.16c0,.06-.09,0-.12.08h0a2.37,2.37,0,0,0-.34.1h-.09a.06.06,0,0,1,0,.08h0l-.09.09h-.29l-.07-.05h0a3.27,3.27,0,0,0,.24,1h0a2.34,2.34,0,0,0,.45-.07h0l.12-.06h0A1.54,1.54,0,0,1,406.42,260.25Z"/><path class="cls-14" d="M404.66,256.85h.08A.06.06,0,0,0,404.66,256.85Z"/><path class="cls-14" d="M405.88,256.44H406c.07,0,.08,0,.08-.08h0a3.78,3.78,0,0,0,.63-.33h0c.09-.08,0,0,.12-.07s.06-.1.09-.1H407s0,0,0-.06.06,0,0,0h0a.08.08,0,0,0,.08-.07h.08a.47.47,0,0,0,.1-.1h0c0-.07.25-.26.26-.34h0v.09l.54-.44h0v-.07H408v-.09l.19-.16h0a.47.47,0,0,0,.11-.16,5.58,5.58,0,0,0-.6-.78h0v-.07c0-.06-.06,0,0,0h-.06a.1.1,0,0,1-.09.1h-.16c-.1.08-.47.44-.58.52h0c-.16.14-.48.37-.65.51a.2.2,0,0,0-.11,0h0l-.09.08a2.46,2.46,0,0,1-.6.32c0,.06-.11.06-.15.12h0l-.42.18h-.11s0,.08,0,.09h0a.43.43,0,0,1-.12.11h0a.51.51,0,0,0-.13.08.46.46,0,0,0-.26.07h-.08s.19.83.37,1h.06a4.23,4.23,0,0,0,.57-.19h0l.14-.09h0Z"/><path class="cls-14" d="M403.84,251.69h.07S403.85,251.67,403.84,251.69Z"/><path class="cls-14" d="M404.76,251.15h.08c.08,0,.06,0,.05-.08h0a5.25,5.25,0,0,0,.49-.33h0c.07-.09,0,0,.09-.08s0-.08.07-.09h0v-.07c0-.07.06,0,0,0h0a.07.07,0,0,0,.07-.07h0m.08,0h0l.07-.08h0c0-.06.2-.23.2-.3h0v.09a3.1,3.1,0,0,1,.46-.35h0l0-.06h0v-.07l.16-.13h0s.09-.06.1-.12a9.41,9.41,0,0,0-.5-.85h0v.05h0c-.06,0,0,.08-.09.08h-.17c-.1.07-.46.38-.56.45h0c-.2.15-.39.32-.58.49h-.1l-.06.09a2.26,2.26,0,0,1-.52.35c0,.07-.08.08-.12.13h0a3.4,3.4,0,0,0-.35.26h0s0,0-.09,0a.08.08,0,0,1,0,.09h0a.49.49,0,0,1-.08.12h0l-.1.09a.57.57,0,0,0-.21.13h-.08s.43.73.63.8h.05a2.26,2.26,0,0,0,.42-.26h0l.11-.1h0a1.45,1.45,0,0,1,.49-.18Z"/><path class="cls-14" d="M403.28,246.38h0Z"/><path class="cls-14" d="M404.16,246h.07c.06,0,.06,0,0-.06h0a3.3,3.3,0,0,0,.45-.26h0c.07-.08,0,0,.09-.06s0-.09.06-.09h0v-.05c0-.06.06,0,0,0h0s.08,0,.08-.07h.07a.14.14,0,0,0,.07-.08h0s.19-.21.2-.27h0v.09a4.17,4.17,0,0,1,.44-.29h0l-.06-.06h0v-.08l.17-.09h0a.25.25,0,0,0,.09-.12,7.84,7.84,0,0,0-.45-.86h0v-.06c0-.05-.06,0,0,0h0a.08.08,0,0,1-.09.08h-.14c-.1,0-.44.31-.53.37h0a5.23,5.23,0,0,0-.55.41h-.1l-.05.07a2.43,2.43,0,0,1-.49.29s-.09.06-.11.11h0a3.25,3.25,0,0,0-.34.19h0c0,.06,0,0-.09,0a.07.07,0,0,1,0,.09h0a.28.28,0,0,1-.08.11h0l-.08.09s-.16,0-.2.1h-.08a3.21,3.21,0,0,0,.56.85h0a1.76,1.76,0,0,0,.39-.19h0l.1-.08h0Z"/><path class="cls-14" d="M402.73,242.4h.07A.16.16,0,0,0,402.73,242.4Z"/><path class="cls-14" d="M403.71,242h.07c.06,0,.07,0,.06-.08h0a2.22,2.22,0,0,0,.49-.3h0c.05-.09,0,0,.09-.08s0-.09.06-.09h0v0h0a.07.07,0,0,0,.07-.08h.06a.22.22,0,0,0,.07-.09h0a1.31,1.31,0,0,0,.18-.3h0s.06.08,0,.08c.14-.13.27-.26.42-.38h-.06v-.08l.15-.13h0a.24.24,0,0,0,.08-.14l-.64-.75h0v-.05c0-.05-.05,0,0,0h-.05c-.06,0,0,.08-.08.09h-.13l-.46.47h0c-.12.12-.4.33-.52.47s-.05,0-.09,0h0l-.06.08a2.41,2.41,0,0,1-.48.3.55.55,0,0,0-.11.11h0a3.62,3.62,0,0,0-.34.2h-.09a.09.09,0,0,1,0,.1h0a.44.44,0,0,1-.08.11h0a.11.11,0,0,0-.1.08.37.37,0,0,0-.2.07H402a3.25,3.25,0,0,0,.49.89h0a2.28,2.28,0,0,0,.45-.2h0l.11-.08h0Z"/><path class="cls-14" d="M403.5,238.72h0a1.12,1.12,0,0,0,.26-.08h.06s.11-.12.11-.18h0v.09l.25-.1v.06h0v-.07h0v-.06h.09v-.08c0-.08-.28-.88-.3-.93h-.05l-.31.15h0a2,2,0,0,0-.32.17h-.05a.73.73,0,0,1-.29.07h-.06s-.17,0-.19.07h-.05c-.06,0,0,.06,0,.08h0V238h-.18v0h0a6.79,6.79,0,0,0,.35.95h.29Z"/><path class="cls-14" d="M393.29,212.39h0a.06.06,0,0,0,.06-.06h0a2.44,2.44,0,0,0,.46-.14h0c.06-.06,0,0,.08,0s0-.06.07-.06h.14a.16.16,0,0,0,.08-.06h0s.21-.14.22-.21h0V212a3,3,0,0,1,.45-.16h0v-.07h0v-.06h.16a.11.11,0,0,0,.11-.09,7.56,7.56,0,0,0-.27-1h0v-.05h-.24l-.54.24h0c-.13.07-.43.18-.57.26h0l-.06.06a1.45,1.45,0,0,1-.5.15c0,.06-.08,0-.12.08h0a3.14,3.14,0,0,0-.33.11h-.08a.14.14,0,0,1,0,.09h0l-.09.08h-.11a.31.31,0,0,0-.19,0H392a4.12,4.12,0,0,0,.36,1h0a1.72,1.72,0,0,0,.39-.1h0l.11-.06h0S393.28,212.38,393.29,212.39Z"/><path class="cls-14" d="M391.39,209.89h.07c.06,0,0,0,0-.07h0a1.42,1.42,0,0,0,.3-.25h.09c0-.06,0,0,.06,0s0-.08,0-.08h0v-.06h0c0-.06.1-.19.09-.26h0s.05.08,0,.08a2.37,2.37,0,0,1,.28-.27h-.06v-.08a.31.31,0,0,0,.11-.09h0s.05,0,0-.1-.57-.72-.62-.76h0m0-.06h0s0,.08-.05.08h-.06c-.06,0-.27.29-.34.36h0c-.12.12-.23.26-.34.39h-.07v.07a1.22,1.22,0,0,1-.33.27.42.42,0,0,0-.07.11h0a1.8,1.8,0,0,0-.23.2h-.06a.14.14,0,0,1,0,.09h0v.1h0l-.07.07c-.06.08-.11,0-.13.1h-.08a4.91,4.91,0,0,0,.7.74h0a2.83,2.83,0,0,0,.28-.2h0l0-.08h0l.43-.25Z"/><path class="cls-14" d="M337.93,236.75Z"/><path class="cls-14" d="M338.78,236.9h.55l.06.06h0c.08-.05,0,0,.09,0s.06-.06.09,0h.16s.22-.13.24-.18h0v.08a2.94,2.94,0,0,1,.44-.13c.06,0,0,.06,0,.06h0v-.07h0v-.06h.17a.11.11,0,0,0,.1-.09,6.34,6.34,0,0,0-.31-.93h0v-.06h0s0,.07-.08,0h-.05l-.44.18h0a1.74,1.74,0,0,0-.48.14.11.11,0,0,0-.08,0h-.07a.94.94,0,0,1-.41,0h-.4a0,0,0,0,1,0,.07h0l-.1.05h-.08s-.11-.07-.17,0V236h0a4.94,4.94,0,0,0-.1,1h0a1.87,1.87,0,0,0,.4.07h.11Z"/><path class="cls-14" d="M338.43,232.39h0a1.09,1.09,0,0,0,.36,0h0v.08h.08c.07,0,.05-.06.06,0h.13a.77.77,0,0,0,.22-.13h0v.09a1.15,1.15,0,0,1,.37,0h0v-.08h0v-.06h.22s.06-.91.06-1h-1.17a1.27,1.27,0,0,1-.39,0h-.43a.06.06,0,0,1,0,.06h-.32v-.06h0a5.79,5.79,0,0,0,0,1H338Z"/><path class="cls-14" d="M339.1,227.77h0a.77.77,0,0,0,.27.08v0h0v.09h.16s.15,0,.18-.09h0v.09s.23,0,.26.05h0v-.07h.16s.24-.89.27-1h-.83a.49.49,0,0,1-.28-.09h-.09s-.16-.06-.2,0h0a0,0,0,0,1,0,.07h-.13s-.06-.07-.11,0v-.07h0a8.45,8.45,0,0,0-.21,1h0a1,1,0,0,0,.22.09h.07S339.1,227.76,339.1,227.77Z"/><path class="cls-14" d="M340.31,224.18h0a.76.76,0,0,0,.2.08h0v.08h.06s.12,0,.15-.08h0v.09h.21v-.07h.13a5.76,5.76,0,0,0,.31-.94h-.56a.43.43,0,0,1-.22-.09h-.07s-.12-.06-.15,0h0a.09.09,0,0,1,0,.07h-.07s0-.07-.08,0v-.07h0c-.11.32-.2.65-.28,1h0a.48.48,0,0,0,.17.1h.05S340.31,224.17,340.31,224.18Z"/><g class="cls-13"><path d="M358.41,210.65a34.51,34.51,0,0,0,3.52,9.26,4.44,4.44,0,0,0,2,2.19c1.68.69,3.46-.68,4.77-1.94a3.17,3.17,0,0,0,2.76,3.09,6.78,6.78,0,0,0,4.38-1.09,27.43,27.43,0,0,0,8.37-8.14,57.34,57.34,0,0,1-6.12,4.39c-1.49.93-3.38,1.82-5,1s-2.27-2.87-3.95-3c-2.2-.16-3.46,3.28-5.62,2.93-1.23-.17-1.93-1.49-2.41-2.64l-2.62-6.25"/></g><g class="cls-13"><path d="M382.42,295a4,4,0,0,1,.42-3.11,3.32,3.32,0,0,1,2.49-1,20,20,0,0,1,6.06,1.28,42.89,42.89,0,0,0,13.93,1.73,12.53,12.53,0,0,1-7.28,2.71,37.1,37.1,0,0,1-7.87-.54L382,295"/></g><polygon class="cls-6" points="325.31 412.9 325.63 458.96 346.31 457.48 350.94 412.62 325.31 412.9"/><path class="cls-5" d="M347,448.43s-14.55,10.34-21.6,1.4l-1.84,4.33L315.3,485a4.14,4.14,0,0,0,2.34,5,4,4,0,0,0,4.23-.81c6-5.7,27.91-26.77,27.71-29.6l-.09-7.58a3.85,3.85,0,0,0-2.46-3.55Z"/><path class="cls-16" d="M318.35,490.21,349.59,457v1.66c.15,1.79-.63,2.5-1.48,3.65-2.53,3.41-9.53,11-26.11,27a4,4,0,0,1-3.64,1Z"/><g class="cls-15"><path class="cls-10" d="M345,452a2.41,2.41,0,0,0-.68,3.15,2.34,2.34,0,0,0,3.13.71,2.57,2.57,0,0,0,.7-3.36,2.42,2.42,0,0,0-3.34-.36"/></g><path class="cls-4" d="M327.35,473.16c-.22.11-1.1-1.94-3.41-3.06s-4.45-.63-4.49-.87.46-.4,1.37-.53a6.38,6.38,0,0,1,6.12,3.05C327.39,472.55,327.45,473.13,327.35,473.16Z"/><path class="cls-4" d="M324.53,478.38c-.18.17-1.43-1.1-3.45-1.69s-3.75-.26-3.82-.51,1.78-1,4.07-.31S324.75,478.28,324.53,478.38Z"/><path class="cls-4" d="M332.57,466.48c-.19.18-2.1-1.79-5.17-3s-5.78-1.09-5.78-1.37,2.83-.74,6.1.57S332.75,466.37,332.57,466.48Z"/><path class="cls-4" d="M333.3,457.07c-.11.23-2.26-.68-5.07-.79s-5,.55-5.12.31,2.19-1.32,5.16-1.16S333.38,456.9,333.3,457.07Z"/><path class="cls-4" d="M326.58,456.19a3.58,3.58,0,0,1,.22-1.45,10.4,10.4,0,0,1,1.87-3.6,4.57,4.57,0,0,1,2.33-1.77,1.59,1.59,0,0,1,1.71.69,2.56,2.56,0,0,1,.28,1.84,5.67,5.67,0,0,1-5.84,4.24,6.58,6.58,0,0,1-5.71-4.57,2.28,2.28,0,0,1,.25-1.87,1.57,1.57,0,0,1,1.78-.53,5.65,5.65,0,0,1,2.28,1.8,11.23,11.23,0,0,1,2.07,3.47,3.43,3.43,0,0,1,.35,1.44,18.33,18.33,0,0,0-2.86-4.51,5.23,5.23,0,0,0-2-1.51.84.84,0,0,0-1,.27,1.6,1.6,0,0,0-.09,1.25,5.83,5.83,0,0,0,5,3.89,4.92,4.92,0,0,0,5-3.51,2,2,0,0,0-.15-1.31.88.88,0,0,0-.94-.38,4,4,0,0,0-2,1.47A15.14,15.14,0,0,0,326.58,456.19Z"/><polygon class="cls-6" points="276.6 373.27 251.29 421.31 271.49 433.41 304.17 387.38 276.6 373.27"/><path class="cls-5" d="M254.45,414.88l-.82,1.33s-28.21-4.8-31.1-.66L267.61,443l8.5-15.34C267.54,426.58,260.29,422.67,254.45,414.88Z"/><g class="cls-15"><path class="cls-10" d="M268.63,429.56a2.18,2.18,0,0,1,0,2.87,2.07,2.07,0,0,1-2.85,0,2.27,2.27,0,0,1,0-3,2.18,2.18,0,0,1,3,.3"/></g><g class="cls-15"><path class="cls-10" d="M267.61,442.92l2.05-3.7-44-24.87s-2.53-.35-3.17,1.2Z"/></g><path class="cls-4" d="M253.39,416.24c-.12.23.92,1,1.56,2.36s.67,2.64.94,2.67.7-1.43-.12-3.06S253.46,416,253.39,416.24Z"/><path class="cls-4" d="M247.48,415.31c-.19.18.55,1.1.72,2.52s-.19,2.5,0,2.62,1.1-1,.86-2.75S247.61,415.13,247.48,415.31Z"/><path class="cls-4" d="M241.35,419.36c.18.17,1.1-.75,1.32-2.29s-.57-2.66-.78-2.54,0,1.17-.11,2.44S241.15,419.2,241.35,419.36Z"/><polygon class="cls-2" points="300.46 382.3 300.46 480.81 307.17 480.81 307.17 374.46 300.46 382.3"/><rect class="cls-2" x="397.86" y="366.88" width="6.52" height="113.95"/><rect class="cls-2" x="307.17" y="382.3" width="90.69" height="7.28"/><rect class="cls-5" x="307.17" y="346.25" width="100.35" height="20.62" rx="4.11"/><path class="cls-4" d="M400,297.37s13.63,24.2,11.62,41.11-5.75,16.91-5.75,16.91L361.7,353l-6.35-53.15,10.78-6Z"/><polygon class="cls-9" points="284.83 242.29 295.88 294.93 348.05 299.77 381.69 297.45 369.5 285.79 355.35 288.82 350.32 237.87 284.83 242.29"/><path class="cls-6" d="M357.56,285.64c1.52,4.21,8.7.25,8.7.25l-.5,7.5-4.47,3.19s0,2,2.95,2.19a10,10,0,0,0,4.14-.31l.17,1a2.34,2.34,0,0,0,2.26,2,2.9,2.9,0,0,0,1.39-.23s3.13,2.27,6.09.63A8.27,8.27,0,0,0,382,297l.48-6.19,3.79-2.63s3.13-5.78-.78-9.75a7.79,7.79,0,0,0-8-1.76l-6.07,2a6.18,6.18,0,0,0-4.32,1.15c-1,.73-2.26,1.61-3.37,2.27C363.75,282.13,357.24,284.76,357.56,285.64Z"/><path class="cls-7" d="M371.66,291.83c.08,0,.19.48.29,1.26a9.79,9.79,0,0,1,0,3.15,3.41,3.41,0,0,1-.83,1.61,2.75,2.75,0,0,1-1.27.78c-.86.22-1.36-.15-1.31-.19a3,3,0,0,0,1.18-.2,2.92,2.92,0,0,0,1.68-2.13,15.06,15.06,0,0,0,.15-3C371.5,292.32,371.54,291.84,371.66,291.83Z"/><path class="cls-7" d="M366.26,285.89a26.31,26.31,0,0,1-.54,7.5,25.53,25.53,0,0,1,.49-7.5Z"/><path class="cls-7" d="M376.7,293.65a3.66,3.66,0,0,1,.29,1.46,6.17,6.17,0,0,1-.66,3.58,5.57,5.57,0,0,1-2.84,2.29c-.87.34-1.44.4-1.47.32a7.08,7.08,0,0,1,1.31-.68,6.26,6.26,0,0,0,2.51-2.19,7,7,0,0,0,.74-3.29A4.34,4.34,0,0,1,376.7,293.65Z"/><path class="cls-4" d="M385,290.36a20.25,20.25,0,0,1,1.41-2.74,8.68,8.68,0,0,0,.89-3.12,7.78,7.78,0,0,0-3-7,8.86,8.86,0,0,0-2.89-1.46,22.07,22.07,0,0,0-3-.48,2,2,0,0,1,.83-.13,8.69,8.69,0,0,1,2.28.21,8.79,8.79,0,0,1,3.12,1.44,8,8,0,0,1,3.16,7.44,8.7,8.7,0,0,1-1.09,3.29c-.39.66-.8,1.29-1.25,1.91C385.16,290.18,385,290.42,385,290.36Z"/><path class="cls-17" d="M322.53,267a3.29,3.29,0,1,1-3.29-3.28A3.29,3.29,0,0,1,322.53,267Z"/><path class="cls-4" d="M328.92,324.73l-.3.18a20.82,20.82,0,0,0-10.07,18.83L321.84,415l32,3.23,1-64.45,13.29-1.61L346,327.3A13.54,13.54,0,0,0,328.92,324.73Z"/><path class="cls-4" d="M268.3,386.19,311,300.62s6-8.87,14.5-8.46,61.22,17.32,61.22,17.32v43.09l-18.53-.4-41.89-4L298,402.77Z"/><path class="cls-9" d="M370.13,352.21a1.7,1.7,0,0,1-.34-.37l-1-1.1-3.6-4.38-13-16.07h0c-3.13-5-10.31-8-17.54-6.8a19.22,19.22,0,0,0-10,4.86,14.83,14.83,0,0,0-3.41,4.74,18.38,18.38,0,0,0-1.42,5.84,68.74,68.74,0,0,0-.17,7.32c0,2.42,0,4.81.07,7.15q.12,7,.24,13.51c.18,8.6.44,16.36.68,22.86s.49,11.74.64,15.43c.08,1.78.14,3.19.18,4.18v1.1a2.29,2.29,0,0,1,0,.37,2.16,2.16,0,0,1,0-.36,5.39,5.39,0,0,0-.09-1.1c-.08-1-.16-2.39-.28-4.17-.23-3.64-.54-8.9-.83-15.41s-.59-14.25-.81-22.88c-.08-4.3-.17-8.82-.27-13.51q0-3.53-.08-7.15a72.92,72.92,0,0,1,.17-7.39,18.92,18.92,0,0,1,1.47-6,15.15,15.15,0,0,1,3.55-4.91,19.67,19.67,0,0,1,10.29-5c7.36-1.24,14.75,1.85,18,7.1h0l12.83,16.15,3.49,4.47.9,1.17A3.26,3.26,0,0,1,370.13,352.21Z"/><path class="cls-9" d="M354.33,382.43c-.16,0-.28-9-.28-20s.12-20,.28-20,.29,9,.29,20S354.49,382.43,354.33,382.43Z"/><path class="cls-9" d="M396.77,315.29a2.12,2.12,0,0,1-.6-.2l-1.68-.67-6.16-2.52c-5.2-2.1-12.44-4.91-20.53-7.67s-15.49-5.11-20.89-6.7l-6.39-1.85-1.73-.52a1.75,1.75,0,0,1-.59-.22,4.23,4.23,0,0,1,.62.11l1.77.42c1.52.36,3.73.93,6.43,1.68,5.48,1.48,12.87,3.72,21,6.57s15.34,5.69,20.5,7.9c2.58,1.09,4.67,2,6.09,2.68l1.63.78A2.69,2.69,0,0,1,396.77,315.29Z"/><path class="cls-9" d="M398.05,306.05a30.39,30.39,0,0,1-3.93-.16c-2.41-.14-5.75-.31-9.46-.4l-9.47-.19a25.69,25.69,0,0,1-3.92-.21,3.61,3.61,0,0,1,1.09-.11c.68,0,1.67-.06,2.87-.08,2.44,0,5.79-.08,9.5,0s7,.31,9.47.57c1.2.12,2.19.24,2.86.35A3.75,3.75,0,0,1,398.05,306.05Z"/><path class="cls-9" d="M303.19,391.92c-.09,0-1.22-1.54-3.36-3.84a43.63,43.63,0,0,0-4-3.79,49.39,49.39,0,0,0-5.48-3.9,47,47,0,0,0-6-3,46.06,46.06,0,0,0-5.23-1.79c-3-.82-5-1.1-5-1.16a5.25,5.25,0,0,1,1.37.1,14,14,0,0,1,1.6.24c.63.12,1.34.23,2.1.44a39.53,39.53,0,0,1,5.32,1.67,45.93,45.93,0,0,1,6.13,3,45.4,45.4,0,0,1,5.55,4,40.5,40.5,0,0,1,4,3.9,21.25,21.25,0,0,1,1.37,1.66,13.58,13.58,0,0,1,1,1.29A6.09,6.09,0,0,1,303.19,391.92Z"/><path class="cls-9" d="M355.3,408.09c0,.1-1.78-.86-4.72-2.07a54.09,54.09,0,0,0-24.25-3.95c-3.17.22-5.12.58-5.13.47a7.82,7.82,0,0,1,1.35-.33,36.38,36.38,0,0,1,3.75-.53,48.87,48.87,0,0,1,24.45,4,33.22,33.22,0,0,1,3.37,1.7A6,6,0,0,1,355.3,408.09Z"/></g><g id="freepik--Plant--inject-22"><rect class="cls-4" x="84.7" y="427.54" width="63.41" height="8.71"/><path class="cls-4" d="M148.23,436.36H84.6v-8.93h63.63Zm-63.42-.22h63.26v-8.51H84.81Z"/><polygon class="cls-4" points="90.59 433.35 99.71 478.38 133.49 478.38 142.31 436.26 90.59 433.35"/><polygon class="cls-4" points="90.59 474.13 95.46 480.81 136.5 480.81 142.31 474.13 90.59 474.13"/><path class="cls-4" d="M114.09,434.67c-.13,0-.29-20.83-.36-46.59s0-46.6.1-46.6.28,20.83.35,46.6S114.16,434.67,114.09,434.67Z"/><path class="cls-4" d="M128.16,382.43a2.48,2.48,0,0,1-.17.48l-.57,1.35-.41,1-.43,1.18-.49,1.36c-.16.48-.29,1-.46,1.54a60.82,60.82,0,0,0-1.77,7.78,92.83,92.83,0,0,0-1,9.71,132.85,132.85,0,0,0,.5,17.73c.21,2.26.41,4.09.56,5.35l.17,1.46a2.18,2.18,0,0,1,0,.51,2.15,2.15,0,0,1-.12-.5,12.93,12.93,0,0,0-.24-1.44c-.2-1.26-.47-3.09-.71-5.35a117.42,117.42,0,0,1-.63-17.79,88.69,88.69,0,0,1,1-9.76,59.55,59.55,0,0,1,1.88-7.78c.18-.55.32-1.1.51-1.55s.35-.93.52-1.36l.45-1.17c.17-.36.32-.68.46-1l.64-1.32A5,5,0,0,1,128.16,382.43Z"/><path class="cls-4" d="M126.54,365.6a4.42,4.42,0,0,1-.21.68l-.65,1.94-.49,1.4c-.17.5-.33,1.09-.51,1.69-.37,1.2-.8,2.57-1.19,4.12-.19.76-.41,1.56-.63,2.41s-.39,1.72-.59,2.63c-.44,1.82-.77,3.79-1.18,5.85-.7,4.14-1.31,8.77-1.74,13.56s-.57,9.45-.63,13.66,0,8,.21,11.17c.06,1.58.16,3,.25,4.28s.15,2.35.23,3.23.12,1.54.15,2a2.89,2.89,0,0,1,0,.72,4.36,4.36,0,0,1-.11-.71c-.07-.5-.14-1.18-.24-2s-.21-2-.31-3.24-.23-2.69-.31-4.28c-.21-3.18-.3-7-.31-11.18s.2-8.85.6-13.7,1.1-9.44,1.79-13.59c.41-2.07.75-4,1.21-5.86.21-.91.42-1.8.62-2.64s.46-1.64.67-2.41c.4-1.55.85-2.92,1.24-4.11.2-.6.39-1.16.55-1.68s.36-1,.53-1.39l.73-1.92A3,3,0,0,1,126.54,365.6Z"/><path class="cls-4" d="M110,438.33a1,1,0,0,1,0-.25,3.4,3.4,0,0,0-.06-.72c0-.66-.11-1.58-.19-2.76-.15-2.43-.37-5.89-.63-10.16-.55-8.58-1.35-20.43-2.79-33.46-.74-6.52-1.6-12.7-2.49-18.31-.47-2.81-.9-5.49-1.39-7.95s-.92-4.79-1.36-6.9-.89-4-1.26-5.65-.72-3.1-1-4.26-.5-2-.65-2.69l-.17-.7v-.24a1.55,1.55,0,0,1,.08.23l.21.69c.17.63.42,1.53.73,2.66s.71,2.59,1.1,4.24.88,3.55,1.32,5.66,1,4.38,1.43,6.89.94,5.14,1.43,8c.91,5.61,1.78,11.8,2.51,18.33,1.45,13,2.2,24.91,2.67,33.49.23,4.3.39,7.77.49,10.17,0,1.17.08,2.11.1,2.76v.73A1.14,1.14,0,0,1,110,438.33Z"/><path class="cls-5" d="M113.52,351.51c-.29-2.95-3.29-5.18-6.24-5.22a9.86,9.86,0,0,0-7.55,4.1,23.62,23.62,0,0,0-3.63,8.07,54.73,54.73,0,0,0-2.19,21.47c.86,7.2,3.77,14.25,8.93,19.36a2.83,2.83,0,0,0,3.84,1.13,2.9,2.9,0,0,0,.87-.73,48,48,0,0,0,15.58-36.53,14.85,14.85,0,0,0-1.95-7.87c-1.51-2.28-5-4.69-7.67-3.78"/><path class="cls-5" d="M91.35,327.84l-4.18,7.57c-.1.18-.23.37-.43.39s-.38-.18-.5-.37l-11-17L77.73,317Z"/><g class="cls-13"><path d="M91.35,327.84l-4.18,7.57c-.1.18-.23.37-.43.39s-.38-.18-.5-.37l-11-17L77.73,317Z"/></g><path class="cls-5" d="M113.77,341.48l-37.7-22.25a1.3,1.3,0,0,1-.24-2.43A26,26,0,0,1,96,308.89a23,23,0,0,1,18.22,11.33c3.64,6.5,3.76,15.09-.42,21.26"/><path class="cls-4" d="M81.5,312.14a1.4,1.4,0,0,1,.5-.06,13.5,13.5,0,0,1,1.42-.07,27,27,0,0,1,5.23.42,30.24,30.24,0,0,1,7.45,2.25,30.69,30.69,0,0,1,17,19.82,28.36,28.36,0,0,1,.93,5.16c.07.62,0,1.1.08,1.43a2.09,2.09,0,0,1,0,.5s-.08-.69-.23-1.91a31,31,0,0,0-25.21-26.95,33.35,33.35,0,0,0-5.17-.55C82.18,312.15,81.5,312.17,81.5,312.14Z"/><path class="cls-4" d="M108.66,326.13a9,9,0,0,1-1.9.86c-1.2.47-2.87,1.1-4.76,1.68s-3.59,1.1-4.84,1.38a9.75,9.75,0,0,1-2.06.4,9.86,9.86,0,0,1,2-.71l4.8-1.5,4.79-1.54A10.12,10.12,0,0,1,108.66,326.13Z"/><path class="cls-4" d="M102.73,310.18a16.12,16.12,0,0,1,.44,4.21,15.32,15.32,0,0,1-.23,4.22,77.29,77.29,0,0,1-.21-8.43Z"/><path class="cls-4" d="M75.73,318.86a16.48,16.48,0,0,1,2.74-1c1.71-.53,4.1-1.2,6.75-1.85s5.1-1.09,6.86-1.43a18.69,18.69,0,0,1,2.87-.4,19.14,19.14,0,0,1-2.8.71c-1.76.39-4.17.93-6.82,1.56s-5,1.26-6.77,1.71A19.69,19.69,0,0,1,75.73,318.86Z"/><path class="cls-5" d="M96.39,344.52c-3.29-2.46-6.68-2.95-10.74-2.79a33,33,0,0,0-11.75,3c-6.36,2.78-12.33,6.88-16.14,12.69S52.65,371,55.5,377.29a2.77,2.77,0,0,0,1.28,1.57,3,3,0,0,0,2.12-.17c7.24-2.35,14.52-4.73,21.17-8.43s12.69-8.83,16.26-15.55A13.24,13.24,0,0,0,98,349.56a6.39,6.39,0,0,0-1.65-5"/><path class="cls-4" d="M96.45,343.75a2.39,2.39,0,0,1-.52.22l-1.51.52-1.1.37-1.28.49c-.91.37-2,.75-3.09,1.28l-1.78.81c-.61.29-1.23.64-1.88,1-1.31.65-2.63,1.47-4.05,2.3a68.69,68.69,0,0,0-8.56,6.35,70.48,70.48,0,0,0-7.39,7.67c-1,1.29-2,2.5-2.79,3.73-.42.6-.85,1.16-1.2,1.73l-1,1.65c-.68,1-1.18,2.05-1.66,2.92-.24.43-.47.82-.66,1.2l-.5,1.05-.72,1.43a2.27,2.27,0,0,1-.27.48,3.17,3.17,0,0,1,.2-.51c.15-.39.37-.88.62-1.48.14-.33.31-.68.47-1.1s.41-.79.63-1.22c.47-.88.95-1.9,1.62-2.95L61,370c.35-.58.77-1.15,1.17-1.77C63,367,64,365.75,65,364.43a69,69,0,0,1,7.48-7.71,66.57,66.57,0,0,1,8.64-6.37c1.42-.82,2.77-1.64,4.1-2.28.65-.32,1.27-.67,1.89-.94l1.8-.79c1.1-.53,2.19-.88,3.13-1.23l1.3-.46,1.09-.33,1.55-.44A3.18,3.18,0,0,1,96.45,343.75Z"/><path class="cls-4" d="M71.12,357.47A77.17,77.17,0,0,1,63.23,360a76,76,0,0,1-8,2.1,75.31,75.31,0,0,1,7.88-2.54A76.91,76.91,0,0,1,71.12,357.47Z"/><path class="cls-4" d="M70.8,374.88a12.62,12.62,0,0,1-.18-2.46v-5.94c0-2.31.19-4.38.31-5.93a11.83,11.83,0,0,1,.32-2.44,16.7,16.7,0,0,1,0,2.45c0,1.67-.11,3.7-.18,5.93s-.11,4.27-.15,5.93A14.44,14.44,0,0,1,70.8,374.88Z"/><path class="cls-4" d="M85.7,367.28c-.12,0-.51-4.26-.89-9.53a94.33,94.33,0,0,1-.42-9.56c.13,0,.51,4.25.88,9.52A92.94,92.94,0,0,1,85.7,367.28Z"/><path class="cls-4" d="M67.15,347.77a13.36,13.36,0,0,1,2.53-.07c1.55,0,3.7.05,6.08.13s4.53.17,6.08.27a13.28,13.28,0,0,1,2.52.24,13.33,13.33,0,0,1-2.53.08c-1.55,0-3.7-.05-6.08-.14s-4.54-.18-6.09-.27A12.35,12.35,0,0,1,67.15,347.77Z"/><path class="cls-4" d="M104.41,401.33a4.51,4.51,0,0,1,0-.52,14.06,14.06,0,0,0-.06-1.48c0-1.29-.07-3.15,0-5.48s.19-5,.47-8.08.71-6.35,1.32-9.86,1.37-6.73,2.2-9.68,1.58-5.56,2.34-7.74,1.4-3.92,1.91-5.1c.23-.56.43-1,.57-1.37a2.47,2.47,0,0,1,.23-.46,3,3,0,0,1-.14.49l-.5,1.4c-.45,1.21-1.09,3-1.76,5.14s-1.49,4.81-2.26,7.75-1.48,6.2-2.1,9.65-1.1,6.76-1.35,9.78-.48,5.76-.57,8.05-.12,4.15-.12,5.48v1.48A1.87,1.87,0,0,1,104.41,401.33Z"/><path class="cls-4" d="M106.42,375.6a9.81,9.81,0,0,1-1.5,1.65c-1,1-2.37,2.28-4,3.67s-3.06,2.58-4.15,3.42A10.94,10.94,0,0,1,95,385.62a11.17,11.17,0,0,1,1.63-1.52l4-3.52,4-3.56A11.2,11.2,0,0,1,106.42,375.6Z"/><path class="cls-4" d="M118.33,385.21a19.19,19.19,0,0,1-1.6-2.19L113,377.54l-3.8-5.38a19.11,19.11,0,0,1-1.52-2.27,14.61,14.61,0,0,1,1.78,2.08c1.1,1.33,2.45,3.2,3.92,5.32s2.74,4.08,3.63,5.48A15.12,15.12,0,0,1,118.33,385.21Z"/><path class="cls-4" d="M112.08,355c.07.1-3.89,2.77-8.85,6s-9,5.69-9.1,5.59,3.9-2.77,8.86-6S112,354.88,112.08,355Z"/><path class="cls-4" d="M123.26,367.09a75.83,75.83,0,0,1-6-5.48,76.75,76.75,0,0,1-5.68-5.87,76.72,76.72,0,0,1,6,5.54A74,74,0,0,1,123.26,367.09Z"/><path class="cls-5" d="M126.07,366.8l3.41-.27a17.2,17.2,0,0,0,6.87-2.11,29,29,0,0,1,3.2-1.61c4.21-1.69,8.9-1.39,13.43-1.61a55.65,55.65,0,0,0,21.36-5.48,2.1,2.1,0,0,0,.93-.84c.7-1.28-.59-2.4-1.71-3.09-5.73-3.55-11.57-7.12-18.07-8.87s-13.89-1.46-19.44,2.35c-6.51,4.49-8.87,13.69-10,21.52"/><path class="cls-4" d="M175.35,354.47a3.68,3.68,0,0,1-.57-.26l-1.62-.86c-1.4-.73-3.41-1.82-6-3a54.41,54.41,0,0,0-9.21-3.55,30.4,30.4,0,0,0-12-1,20.53,20.53,0,0,0-10.9,4.68,24.54,24.54,0,0,0-5.67,8c-1.2,2.55-1.93,4.72-2.47,6.2l-.6,1.72a2.81,2.81,0,0,1-.24.59,3.3,3.3,0,0,1,.15-.62l.53-1.74a53.8,53.8,0,0,1,2.34-6.28,24.14,24.14,0,0,1,5.69-8.15A20.67,20.67,0,0,1,146,345.34a30.51,30.51,0,0,1,12.13,1,55,55,0,0,1,9.25,3.67c2.53,1.26,4.52,2.39,5.89,3.17l1.58.92A3.74,3.74,0,0,1,175.35,354.47Z"/><path class="cls-4" d="M167.18,358.87c-.07.09-4.52-2.79-9.94-6.44s-9.75-6.69-9.69-6.8,4.52,2.77,9.94,6.43S167.25,358.76,167.18,358.87Z"/><path class="cls-4" d="M162.91,345.17a10.62,10.62,0,0,1-3.48.7,10.84,10.84,0,0,1-3.55-.06,20.72,20.72,0,0,1,3.51-.39A20.7,20.7,0,0,1,162.91,345.17Z"/><path class="cls-4" d="M143,341.62a23.46,23.46,0,0,1-3.29,5.62A23.14,23.14,0,0,1,143,341.62Z"/><path class="cls-4" d="M147,361.49a12.78,12.78,0,0,1-2.19-1.17c-1.28-.77-3-1.93-4.88-3.28s-3.49-2.62-4.67-3.56a11.54,11.54,0,0,1-1.84-1.59,14.64,14.64,0,0,1,2,1.34l4.73,3.44C142,358,143.72,359.19,145,360A15.18,15.18,0,0,1,147,361.49Z"/><path class="cls-5" d="M131.08,381.26c-3.29-.86-7.11,2.3-7.78,5.59s.57,6.65,2,9.69a49.29,49.29,0,0,0,13.42,17.53,33.19,33.19,0,0,0,20.53,7.56c-1.38-6.37.36-13-.41-19.5a25.34,25.34,0,0,0-22.47-22.25c-2.07-.23-4.47-.55-5.3,1.36"/><path class="cls-4" d="M159.26,421.65a.9.9,0,0,1-.46-.21,8.39,8.39,0,0,1-1.22-.82,12.54,12.54,0,0,1-3.21-4.29c-.52-1-1.1-2.09-1.66-3.29s-1.09-2.5-1.75-3.85a35.21,35.21,0,0,0-2.14-4.14,32.52,32.52,0,0,0-2.94-4c-2.2-2.6-4.61-4.86-6.68-7a46.46,46.46,0,0,1-5.09-6.11,22.3,22.3,0,0,1-2.48-4.74c-.21-.61-.35-1.1-.43-1.39a2.33,2.33,0,0,1-.11-.51s.23.67.7,1.83a25.71,25.71,0,0,0,2.59,4.64,48,48,0,0,0,5.13,6c2.07,2.13,4.47,4.39,6.72,7a32.29,32.29,0,0,1,3,4.08A37.72,37.72,0,0,1,151.4,409l1.71,3.88c.55,1.2,1.1,2.3,1.6,3.29a13,13,0,0,0,3,4.3A17.62,17.62,0,0,0,159.26,421.65Z"/><path class="cls-4" d="M142.47,416.41a10,10,0,0,1,.3-2.19c.26-1.34.67-3.17,1.23-5.18s1.16-3.78,1.65-5.05a9.51,9.51,0,0,1,.88-2,10.23,10.23,0,0,1-.58,2.12c-.4,1.3-.95,3.09-1.51,5.07s-1,3.81-1.36,5.12A11.27,11.27,0,0,1,142.47,416.41Z"/><path class="cls-4" d="M158.64,400.71a14,14,0,0,1-2.29-.52c-1.4-.36-3.28-.87-5.48-1.35s-4.11-.87-5.48-1.1a14,14,0,0,1-2.29-.5,10.82,10.82,0,0,1,2.34.18c1.43.19,3.42.52,5.58,1s4.08,1,5.48,1.48A12.21,12.21,0,0,1,158.64,400.71Z"/><path class="cls-4" d="M130.42,405.26a14.4,14.4,0,0,1,.35-2.53c.3-1.55.75-3.68,1.35-6s1.26-4.38,1.76-5.89a13.24,13.24,0,0,1,.94-2.38,17.4,17.4,0,0,1-.63,2.46c-.43,1.52-1,3.61-1.63,5.92s-1.1,4.39-1.47,6A14.91,14.91,0,0,1,130.42,405.26Z"/><path class="cls-4" d="M151.19,387.08c0,.12-4.07-.21-9-.74a88.12,88.12,0,0,1-9-1.18c0-.12,4.07.21,9.05.73S151.2,387,151.19,387.08Z"/><path class="cls-9" d="M148.22,436.21c0,.14-14.25.23-31.78.23s-31.79-.09-31.79-.23S98.9,436,116.44,436,148.22,436.14,148.22,436.21Z"/><path class="cls-9" d="M138.31,454.54c0,.13-9.59.23-21.43.23s-21.43-.1-21.43-.23,9.6-.22,21.43-.22S138.31,454.42,138.31,454.54Z"/><path class="cls-9" d="M138.69,457.17c0,.12-9.6.22-21.43.22s-21.44-.1-21.44-.22,9.6-.23,21.44-.23S138.69,457,138.69,457.17Z"/><path class="cls-9" d="M138.69,452.38c0,.13-9.92.23-22.17.23s-22.17-.1-22.17-.23,9.92-.22,22.17-.22S138.69,452.26,138.69,452.38Z"/></g></svg>