<svg id="freepik_stories-stress" data-name="freepik stories-stress" xmlns="http://www.w3.org/2000/svg" xmlns:xlink="http://www.w3.org/1999/xlink" viewBox="0 0 500 500"><defs><style>.cls-1{fill:none;}.cls-2{fill:#ebebeb;}.cls-3{fill:#e0e0e0;}.cls-4{fill:#f5f5f5;}.cls-5{fill:#fafafa;}.cls-6{fill:#fff;}.cls-7{fill:#455a64;}.cls-8{fill:#263238;}.cls-9{fill:#0966e5;}.cls-10{opacity:0.4;}.cls-11{clip-path:url(#clip-path);}.cls-12{fill:#ffbe9d;}.cls-13{fill:#eb996e;}.cls-14{opacity:0.3;}</style><clipPath id="clip-path"><path class="cls-1" d="M73,270.48a2.55,2.55,0,1,1-4.38,0H65.68a2.63,2.63,0,0,1,.36,1.29,2.55,2.55,0,1,1-5.1,0,2.48,2.48,0,0,1,.36-1.32h-3a2.55,2.55,0,0,1-2.18,3.86,2.56,2.56,0,0,1-2.56-2.54,2.48,2.48,0,0,1,.36-1.32H51a2.58,2.58,0,1,1-4.73,1.61,1.71,1.71,0,0,1,0-.32,2.44,2.44,0,0,1,.36-1.29h-3a2.55,2.55,0,1,1-4.38,2.61,2.48,2.48,0,0,1-.36-1.32,2.44,2.44,0,0,1,.36-1.29h-2.9a2.55,2.55,0,1,1-4.38,0H30.14v52.67H74V270.48Z"/></clipPath></defs><title>Live help 04</title><g id="freepik--background-complete--inject-15"><polygon class="cls-2" points="251.51 60.6 269.41 117.24 256.45 117.24 250.74 97.71 251.51 60.6"/><rect class="cls-3" x="20.3" y="117.18" width="267.38" height="15.98"/><rect class="cls-3" x="57.56" y="129.67" width="12.94" height="24.53"/><rect class="cls-3" x="224.5" y="129.67" width="12.93" height="24.53"/><path class="cls-2" d="M29.38,43.1s-12,9.14-.5,21.22a1.05,1.05,0,0,0,.76.32L134.48,64s9-10,1.52-21.62Z"/><path class="cls-3" d="M111.31,52.64c0,.11-13.06.21-29.16.21S53,52.75,53,52.64s13.06-.21,29.16-.21S111.31,52.52,111.31,52.64Z"/><path class="cls-3" d="M95,56.43c0,.12-6.14.21-13.71.21s-13.71-.09-13.71-.21,6.14-.21,13.71-.21S95,56.31,95,56.43Z"/><path class="cls-3" d="M122,63.69c-.07,0,.23-1.2.55-3.15a43.26,43.26,0,0,0-.14-15.28c-.36-1.94-.69-3.12-.62-3.14a3.08,3.08,0,0,1,.31.81c.17.53.38,1.3.6,2.27a37,37,0,0,1,.15,15.4c-.21,1-.4,1.75-.56,2.28A3.41,3.41,0,0,1,122,63.69Z"/><path class="cls-3" d="M129.82,42.28a3.32,3.32,0,0,1,.47.76,9.06,9.06,0,0,1,.46.94c.17.38.37.8.54,1.29a22.17,22.17,0,0,1,1,3.47,25.4,25.4,0,0,1,.53,4.42,24.1,24.1,0,0,1-.38,4.41,23.47,23.47,0,0,1-.94,3.5c-.16.49-.36.91-.52,1.29a9,9,0,0,1-.45,1,4,4,0,0,1-.45.77c-.08,0,.51-1.17,1.13-3.11a23,23,0,0,0,.84-3.46,27.54,27.54,0,0,0,.35-4.35,26.36,26.36,0,0,0-.42-4.34,24.27,24.27,0,0,0-.89-3.45C130.38,43.44,129.82,42.32,129.82,42.28Z"/><path class="cls-3" d="M45.92,63.86a3.82,3.82,0,0,1-.49-.7,8.29,8.29,0,0,1-.49-.88c-.17-.35-.38-.74-.56-1.2a19.13,19.13,0,0,1-1-3.31,19.54,19.54,0,0,1,.12-8.43,18.1,18.1,0,0,1,1.11-3.28,13.16,13.16,0,0,1,.59-1.19,6.71,6.71,0,0,1,.51-.86c.31-.46.48-.71.51-.69s-.6,1.06-1.34,2.85a21.79,21.79,0,0,0-1,3.25,22.07,22.07,0,0,0-.48,4.13,24.06,24.06,0,0,0,.36,4.15A21.74,21.74,0,0,0,44.68,61C45.35,62.76,46,63.79,45.92,63.86Z"/><path class="cls-3" d="M34.6,66.39a6.23,6.23,0,0,1-.54-.8,8.72,8.72,0,0,1-.54-1c-.2-.4-.44-.84-.64-1.35a24,24,0,0,1-1.2-3.71,23.41,23.41,0,0,1-.21-9.48,23,23,0,0,1,1-3.75q.26-.7.57-1.38c.15-.34.32-.67.5-1a3.81,3.81,0,0,1,.51-.81c.07,0-.6,1.23-1.3,3.3a25,25,0,0,0-.93,3.72,24.51,24.51,0,0,0,1.3,13C34,65.18,34.68,66.34,34.6,66.39Z"/><path class="cls-2" d="M130.63,96V116H91.82V96Z"/><path class="cls-3" d="M5.25,106.17v.53a11.49,11.49,0,0,0,11.57,10.77H132.44V116H105a10,10,0,0,1-10-10h0a10,10,0,0,1,10-10h27.45V93.86l-115.62.35A11.57,11.57,0,0,0,5.25,105.79Z"/><path class="cls-3" d="M130.63,106.25c0,.12-8,.22-17.82.22S95,106.37,95,106.25s8-.21,17.83-.21S130.63,106.14,130.63,106.25Z"/><path class="cls-3" d="M130.07,110.77c0,.12-7.55.22-16.87.22s-16.87-.1-16.87-.22,7.55-.21,16.87-.21S130.07,110.66,130.07,110.77Z"/><path class="cls-3" d="M130.63,114.91c0,.12-6.79.21-15.16.21s-15.17-.09-15.17-.21,6.79-.21,15.17-.21S130.63,114.79,130.63,114.91Z"/><path class="cls-3" d="M130.63,102.19c0,.12-7.82.21-17.46.21s-17.46-.09-17.46-.21,7.81-.21,17.46-.21S130.63,102.08,130.63,102.19Z"/><path class="cls-3" d="M130.07,98.13c0,.12-7,.21-15.54.21S99,98.25,99,98.13s7-.21,15.55-.21S130.07,98,130.07,98.13Z"/><path class="cls-4" d="M19.26,94.55a28.38,28.38,0,0,0-2.44,2.92A14.88,14.88,0,0,0,17,114.66a29.91,29.91,0,0,0,2.52,2.87,6.18,6.18,0,0,1-.83-.62,13.2,13.2,0,0,1-1.9-2,14.61,14.61,0,0,1-.21-17.54,13.45,13.45,0,0,1,1.88-2.11A4.4,4.4,0,0,1,19.26,94.55Z"/><path class="cls-4" d="M15.35,94.12A27.44,27.44,0,0,0,12.9,97a14.88,14.88,0,0,0,.2,17.2,28.63,28.63,0,0,0,2.52,2.86,4.18,4.18,0,0,1-.83-.62,12.87,12.87,0,0,1-2-2.07,14.63,14.63,0,0,1-.17-17.55,13.45,13.45,0,0,1,1.88-2.11A4.16,4.16,0,0,1,15.35,94.12Z"/><path class="cls-4" d="M93.91,94.55a26.39,26.39,0,0,0-2.46,2.92,14.88,14.88,0,0,0,.21,17.19,25.5,25.5,0,0,0,2.52,2.87,6.18,6.18,0,0,1-.83-.62,13.39,13.39,0,0,1-1.93-2,14.61,14.61,0,0,1-.21-17.54,13,13,0,0,1,1.88-2.11A4.32,4.32,0,0,1,93.91,94.55Z"/><path class="cls-4" d="M90,94.12A28.57,28.57,0,0,0,87.54,97a14.9,14.9,0,0,0,.21,17.2,28.63,28.63,0,0,0,2.52,2.86,4.18,4.18,0,0,1-.83-.62,13.53,13.53,0,0,1-1.93-2.07,14.61,14.61,0,0,1-.21-17.54,13.45,13.45,0,0,1,1.88-2.11A4.21,4.21,0,0,1,90,94.12Z"/><path class="cls-4" d="M32.42,109l-.11-8.16a5.57,5.57,0,0,0-.29-2.1,2,2,0,0,0-1.55-1.3c-1-.46-2.61.4-3.32,1.57a7.81,7.81,0,0,0-.81,4,60.24,60.24,0,0,0,.32,6.44,7.21,7.21,0,0,0,.76,3,2.46,2.46,0,0,0,4.66-.39A8.05,8.05,0,0,0,32.42,109Z"/><path class="cls-4" d="M77.32,106.65c0,.11-8.36.21-18.66.21S40,106.76,40,106.65s8.35-.22,18.67-.22S77.32,106.53,77.32,106.65Z"/><polygon class="cls-4" points="24.67 93.75 24.46 74.73 34.81 74.73 35.17 93.75 24.67 93.75"/><path class="cls-3" d="M34.2,78.11a26.65,26.65,0,0,1-4.81.22,26.73,26.73,0,0,1-4.81-.22,28.7,28.7,0,0,1,4.81-.21A28.6,28.6,0,0,1,34.2,78.11Z"/><path class="cls-3" d="M34.2,81.05a27.59,27.59,0,0,1-4.81.21,27.67,27.67,0,0,1-4.81-.21,27.67,27.67,0,0,1,4.81-.21A27.59,27.59,0,0,1,34.2,81.05Z"/><path class="cls-3" d="M34.2,84a26.65,26.65,0,0,1-4.81.22A26.73,26.73,0,0,1,24.58,84a28.7,28.7,0,0,1,4.81-.21A28.6,28.6,0,0,1,34.2,84Z"/><path class="cls-3" d="M34.2,86.92a27.59,27.59,0,0,1-4.81.21,27.67,27.67,0,0,1-4.81-.21,27.67,27.67,0,0,1,4.81-.21A27.59,27.59,0,0,1,34.2,86.92Z"/><path class="cls-3" d="M34.2,89.86a26.65,26.65,0,0,1-4.81.22,26.73,26.73,0,0,1-4.81-.22,28.7,28.7,0,0,1,4.81-.21A28.6,28.6,0,0,1,34.2,89.86Z"/><path class="cls-2" d="M23.91,74.23H138.64c1.42,6.29,1.22,13.22,0,20.55H24.4v-1.4h7a3.28,3.28,0,0,0,3.3-3.28h0V78.71a3.29,3.29,0,0,0-3.29-3.29H23.93Z"/><path class="cls-5" d="M51,84.52H53a.34.34,0,0,1,.2,0,.37.37,0,0,1,.21.36.24.24,0,0,1,0,.12,2.19,2.19,0,0,1-.12.49A5.45,5.45,0,0,1,52,87.66a2.28,2.28,0,0,1-1.64.84h-.23a1.89,1.89,0,0,1-1.3-1,4.3,4.3,0,0,1-.57-2.3,6.55,6.55,0,0,1,.23-1.64,5.71,5.71,0,0,1,1.13-2.22,2.38,2.38,0,0,1,1.73-.92,1.62,1.62,0,0,1,.72.17A2.3,2.3,0,0,1,53.23,82a.41.41,0,0,1,.05.19.36.36,0,0,1-.06.2.38.38,0,0,1-.35.21h-.13a.43.43,0,0,1-.27-.26h0a1.6,1.6,0,0,0-.23-.45,1.07,1.07,0,0,0-.91-.55,1.16,1.16,0,0,0-.64.23,3.43,3.43,0,0,0-1,1.51,5.72,5.72,0,0,0-.45,2.16,4.24,4.24,0,0,0,.32,1.69,1.12,1.12,0,0,0,1,.75,1.32,1.32,0,0,0,.93-.56,4.72,4.72,0,0,0,1-1.77H51.12a.44.44,0,0,1-.46-.46v-.14A.45.45,0,0,1,51,84.52Z"/><path class="cls-5" d="M57.55,80.78a.24.24,0,0,0,.05.14q.12.42,1.35,7.11a.17.17,0,0,1,0,.1.43.43,0,0,1-.4.42h-.07a.38.38,0,0,1-.31-.29l-.46-2.36H55.35l-1.13,2.37a.11.11,0,0,1,0,.08.4.4,0,0,1-.35.2.46.46,0,0,1-.22-.06.41.41,0,0,1-.19-.35V88c.07-.17.19-.43.35-.78q2.47-5.4,3-6.38a.47.47,0,0,1,.4-.28A.42.42,0,0,1,57.55,80.78ZM57,82.37l-1.27,2.68h1.8Z"/><path class="cls-5" d="M64,88.55H60.49a.46.46,0,0,1-.22-.06.65.65,0,0,1-.2-.44h0c0-.14.34-2.5,1-7.08v-.15a.37.37,0,0,1,.37-.26.6.6,0,0,1,.19,0,.4.4,0,0,1,.22.37c0,.31-.11,1-.24,1.94L61,87.65h2.94a.81.81,0,0,1,.22,0,.39.39,0,0,1,.26.39.29.29,0,0,1,0,.13A.46.46,0,0,1,64,88.55Z"/><path class="cls-5" d="M68.67,80.78a.42.42,0,0,1,.06.14q.12.42,1.35,7.11a.17.17,0,0,1,0,.1.43.43,0,0,1-.4.42h-.07a.4.4,0,0,1-.32-.29l-.47-2.4H66.46l-1.13,2.37a.11.11,0,0,1,0,.08.46.46,0,0,1-.35.2.46.46,0,0,1-.23-.06.48.48,0,0,1-.19-.35.24.24,0,0,1,0-.12c.07-.17.19-.43.35-.78q2.49-5.4,3-6.38a.47.47,0,0,1,.4-.28A.41.41,0,0,1,68.67,80.78Zm-.51,1.59-1.27,2.68h1.8Z"/><path class="cls-5" d="M74.18,84.86c.27.75.48,1.33.63,1.73.36,1,.53,1.51.53,1.56a.37.37,0,0,1-.06.21.39.39,0,0,1-.35.19.36.36,0,0,1-.34-.28l-.07-.17c-.18-.43-.49-1.24-.92-2.44l-2,2.68a.47.47,0,0,1-.36.21.31.31,0,0,1-.41-.35v-.09a1.15,1.15,0,0,1,.21-.33c.66-.85,1.38-1.86,2.17-3-.08-.23-.16-.45-.24-.65-.73-2-1.1-3-1.1-3.06a.74.74,0,0,1,0-.21.36.36,0,0,1,.34-.2.4.4,0,0,1,.38.22L73.75,84l2.3-3.14a.51.51,0,0,1,.37-.2h.19a.38.38,0,0,1,.2.36.31.31,0,0,1,0,.19Z"/><path class="cls-5" d="M82.74,80.6a.41.41,0,0,1,.19.05.38.38,0,0,1,.22.35c-.56,4.47-.88,6.89-.93,7.25a4.44,4.44,0,0,1-.74,1.89,2.68,2.68,0,0,1-2.3,1.12A2.58,2.58,0,0,1,78.07,91a2.46,2.46,0,0,1-1.25-1.11.67.67,0,0,1,0-.2.74.74,0,0,1,0-.21.42.42,0,0,1,.36-.2.38.38,0,0,1,.31.17,2.25,2.25,0,0,0,1.77,1,1.77,1.77,0,0,0,1.38-.7,3.78,3.78,0,0,0,.76-2.17,2,2,0,0,1-.51.54,2,2,0,0,1-1.24.4h-.23a1.86,1.86,0,0,1-1.31-1,4.2,4.2,0,0,1-.58-2.3,9.65,9.65,0,0,1,.06-1.3c.06-.7.22-1.69.46-3v-.12a.4.4,0,0,1,.37-.28.43.43,0,0,1,.41.39c0,.21-.07.73-.19,1.57s-.23,1.6-.28,2.41a5,5,0,0,0,.31,1.88c.24.56.58.84,1,.84h.14a1.86,1.86,0,0,0,1-.83,4.84,4.84,0,0,0,.85-1.91l.53-3.94a.84.84,0,0,1,0-.17A.39.39,0,0,1,82.74,80.6Z"/><path class="cls-4" d="M134.33,95.05c-.12,0-.21-4.72-.21-10.54s.09-10.55.21-10.55.21,4.72.21,10.55S134.45,95.05,134.33,95.05Z"/><path class="cls-3" d="M40.45,95.05c-.12,0-.21-4.72-.21-10.54S40.33,74,40.45,74s.21,4.72.21,10.55S40.56,95.05,40.45,95.05Z"/><path class="cls-4" d="M136.34,95.05c-.11,0-.21-4.72-.21-10.54s.1-10.55.21-10.55.22,4.72.22,10.55S136.46,95.05,136.34,95.05Z"/><path class="cls-3" d="M38.57,95.05c-.12,0-.22-4.72-.22-10.54S38.45,74,38.57,74s.21,4.72.21,10.55S38.68,95.05,38.57,95.05Z"/><path class="cls-3" d="M106.51,77.43h0l12.13,9.78.11.09h-.14l-1.61.43-10.24,2.68h0l-9.28-3.93-2.66-1.13-.7-.3L94,85h0l.18.07.7.28,2.64,1.1,9.3,3.88h0L117,87.6l1.61-.42v.12l-12.1-9.82h0"/><polygon class="cls-3" points="117.52 85.66 118.19 86.28 119.07 86.09 118.68 86.91 119.14 87.69 118.24 87.58 117.64 88.26 117.47 87.36 116.64 87 117.43 86.56 117.52 85.66"/><polygon class="cls-3" points="105.89 89.51 106.34 89.89 106.91 89.73 106.69 90.28 107.02 90.77 106.43 90.73 106.07 91.19 105.92 90.62 105.37 90.41 105.87 90.1 105.89 89.51"/><polygon class="cls-3" points="93.04 84.24 93.76 84.29 94.21 83.72 94.39 84.42 95.07 84.67 94.46 85.05 94.43 85.77 93.88 85.31 93.18 85.51 93.45 84.84 93.04 84.24"/><polygon class="cls-3" points="122.96 77.59 123.68 77.63 124.13 77.07 124.31 77.77 124.98 78.01 124.37 78.4 124.35 79.12 123.79 78.66 123.1 78.86 123.36 78.19 122.96 77.59"/><polygon class="cls-3" points="105.92 77.12 106.38 77.14 106.67 76.78 106.78 77.23 107.22 77.39 106.83 77.63 106.81 78.09 106.45 77.8 106.01 77.93 106.18 77.5 105.92 77.12"/><path class="cls-3" d="M124,78.09s-3.92-.08-8.76-.29-8.76-.41-8.75-.46,3.92.09,8.76.29S124,78.05,124,78.09Z"/><path class="cls-3" d="M128.38,74.05H12c-1.53-3.46-1.9-6.74,0-9.69H128.38A11.27,11.27,0,0,1,128.38,74.05Z"/><rect class="cls-2" x="36.11" y="67.13" width="63.04" height="3.52"/><path class="cls-3" d="M16.48,74.1a3.62,3.62,0,0,1-.92-1.17,8.55,8.55,0,0,1-.61-7,3.61,3.61,0,0,1,.7-1.31,11.28,11.28,0,0,1-.42,1.4,10.56,10.56,0,0,0-.31,3.45,10.44,10.44,0,0,0,.91,3.33A9.39,9.39,0,0,1,16.48,74.1Z"/><path class="cls-3" d="M19,74.1a3.62,3.62,0,0,1-.92-1.17A8.68,8.68,0,0,1,17,69.49a8.48,8.48,0,0,1,.45-3.57,3.61,3.61,0,0,1,.7-1.31,11.28,11.28,0,0,1-.42,1.4,10.28,10.28,0,0,0-.31,3.45,9.88,9.88,0,0,0,.91,3.33A9.39,9.39,0,0,1,19,74.1Z"/><path class="cls-4" d="M123.67,73.86a20,20,0,0,0,.82-4.74,19.64,19.64,0,0,0-.77-4.75A9.85,9.85,0,0,1,123.67,73.86Z"/><path class="cls-4" d="M121.5,73.86c-.12,0,.37-2.07.35-4.64s-.49-4.6-.36-4.63a14,14,0,0,1,0,9.27Z"/><polygon class="cls-3" points="171.66 14.04 251.51 14.04 251.51 118.24 172.2 118.24 171.66 14.04"/><rect class="cls-6" x="165.85" y="14.55" width="79.39" height="103.14"/><path class="cls-3" d="M245.64,14.16V118.08H165.46V14.16Zm-.82,103.14V14.94h-78.6V117.3Z"/><rect class="cls-6" x="174.14" y="25.74" width="60.78" height="80.8"/><path class="cls-3" d="M174,25.72v22.5c0,14.21,0,34.38.09,58.3l-.18-.19H234.7l-.21.21V25.74l.33.12-44.14-.09h-.1l44.24-.22H235v81.17H173.82v-.18c0-24,.07-44.18.09-58.42,0-7.09,0-12.69.05-16.53V26.11A1,1,0,0,1,174,25.72Z"/><path class="cls-3" d="M165.67,117.69a12,12,0,0,1,1.07-1.75c.71-1,1.71-2.47,2.85-4s2.23-2.92,3-3.89a9.47,9.47,0,0,1,1.39-1.51,11.5,11.5,0,0,1-1.16,1.69l-2.94,4-2.94,4A10.16,10.16,0,0,1,165.67,117.69Z"/><path class="cls-3" d="M165.82,14.55A58.64,58.64,0,0,1,170.06,20,57.12,57.12,0,0,1,174,25.72a58.21,58.21,0,0,1-4.16-5.46A59.62,59.62,0,0,1,165.82,14.55Z"/><line class="cls-1" x1="245.25" y1="14.55" x2="234.8" y2="26.13"/><path class="cls-3" d="M234.82,26.13a77.35,77.35,0,0,1,5.07-5.93,73.6,73.6,0,0,1,5.38-5.65,75.3,75.3,0,0,1-5.08,5.93A73.47,73.47,0,0,1,234.82,26.13Z"/><path class="cls-3" d="M245.25,117.69a69,69,0,0,1-5.15-5.39,68.8,68.8,0,0,1-4.83-5.67,72.61,72.61,0,0,1,5.14,5.39A68.64,68.64,0,0,1,245.25,117.69Z"/><path class="cls-3" d="M176.92,106.52s6.54-20.26,10.43-22.42a37.42,37.42,0,0,1,17.07-4.62c9-.08,13.28.59,18.56,4.22,6.09,4.19,10.22,22.61,10.22,22.61"/><path class="cls-3" d="M195.06,46.18c-5.59.25-7,7.76-6.58,12,.18,2,.8,4.24-.22,6-.73,1.25-2.16,2-2.76,3.31-.74,1.59,0,3.43.5,5.1s.76,3.79-.58,4.93a48,48,0,0,0,9.65,1.81,16.35,16.35,0,0,0,9.46-2.1"/><path class="cls-3" d="M191.07,61.17c-3.69-8.45,1.31-13.62,4.58-15.48a13.74,13.74,0,0,1,6.48-1.4,23.77,23.77,0,0,1,6.57.58,11.82,11.82,0,0,1,5.7,3.19c2.69,2.86,3.31,7.1,3.07,11a30.5,30.5,0,0,1-3.86,13.17,3.12,3.12,0,0,1-1.14,1.33,1.19,1.19,0,0,1-1.58-.28"/><path class="cls-4" d="M203.52,90.16c3.79.26,7.11-3,7.5-8.85l2-29.72-.14,2.06a2.4,2.4,0,0,0-2.15-2.42L199,50a7.16,7.16,0,0,0-7.86,6.38l0,.33c-.27,4.52-.43,10.06.12,13.43,1.1,6.78,6.3,7.63,6.3,7.63l-.4,4.93a6.89,6.89,0,0,0,6.28,7.43h.15Z"/><path class="cls-3" d="M193.36,60.56a.86.86,0,0,0,.84.87.83.83,0,0,0,.9-.78h0a.87.87,0,0,0-.85-.87.84.84,0,0,0-.89.77Z"/><path class="cls-3" d="M192.31,59.6c.11.11.76-.38,1.7-.38s1.63.47,1.73.36-.06-.26-.36-.48a2.52,2.52,0,0,0-1.39-.42,2.36,2.36,0,0,0-1.35.44C192.35,59.35,192.26,59.55,192.31,59.6Z"/><path class="cls-3" d="M202.36,60.56a.86.86,0,0,0,.84.87.82.82,0,0,0,.89-.75v0a.86.86,0,0,0-.84-.87.81.81,0,0,0-.88.75Z"/><path class="cls-3" d="M201.52,59.75c.1.11.76-.38,1.7-.38s1.62.47,1.73.35-.06-.25-.37-.47a2.41,2.41,0,0,0-1.38-.42,2.27,2.27,0,0,0-1.35.44C201.56,59.49,201.46,59.7,201.52,59.75Z"/><path class="cls-3" d="M198.14,66.71a5.65,5.65,0,0,0-1.53-.27c-.23,0-.46-.08-.5-.24a1.24,1.24,0,0,1,.16-.71c.22-.58.45-1.18.7-1.82a30.37,30.37,0,0,0,1.57-4.81,33.85,33.85,0,0,0-2,4.63c-.24.64-.46,1.25-.67,1.84a1.43,1.43,0,0,0-.13.93.63.63,0,0,0,.4.35,1.39,1.39,0,0,0,.4.06A6.59,6.59,0,0,0,198.14,66.71Z"/><path class="cls-2" d="M197.52,77.79a17.29,17.29,0,0,0,9.09-2.45s-2.43,4.7-9.22,4.09Z"/><path class="cls-3" d="M198.54,69a1.73,1.73,0,0,1,1.51-.63,1.54,1.54,0,0,1,1.07.57,1,1,0,0,1,.07,1.11,1.12,1.12,0,0,1-1.22.32,3.57,3.57,0,0,1-1.2-.71,1,1,0,0,1-.27-.28.32.32,0,0,1,0-.35"/><path class="cls-3" d="M200.9,67.35c-.16,0-.16,1-1,1.73s-2,.61-2,.76.24.19.7.2a2.46,2.46,0,0,0,1.63-.57A2.17,2.17,0,0,0,201,68C201.08,67.59,201,67.34,200.9,67.35Z"/><path class="cls-3" d="M201.09,58.11c.09.26,1,.13,2.13.26s2,.43,2.13.2-.09-.35-.45-.6a3.55,3.55,0,0,0-1.58-.54,3.48,3.48,0,0,0-1.66.2C201.25,57.79,201.05,58,201.09,58.11Z"/><path class="cls-3" d="M192.64,56.86c.17.21.81,0,1.59,0s1.43.14,1.59-.09,0-.32-.33-.52a2.23,2.23,0,0,0-1.29-.34,2.09,2.09,0,0,0-1.26.43C192.66,56.57,192.57,56.79,192.64,56.86Z"/><path class="cls-3" d="M196.4,45.29c6.57-3.7,13.63-1.11,18.95,4.23,1.18,1.18,2.23,2.57,3.76,3.22s3.85.6,4.84,2.1c1.14,1.76-.4,4.24.43,6.17.78,1.77,3.21,2.28,4.11,4,.71,1.34.27,3-.07,4.45s-.46,3.26.65,4.29l-14.14,5.37a3.69,3.69,0,0,1-2,.22c-2-.4-2.16-2.26-2-3.8a6.41,6.41,0,0,0-.09-3.42c-.58-1.25-2-1.91-2.55-3.18-.92-2.24,1.62-4.57,1.31-7a4.49,4.49,0,0,0-2.88-3.27c-1.39-.6-2.93-.8-4.37-1.27-3.34-1.06-6.09-4.12-7.51-7.52a3.66,3.66,0,0,1,1.52-4.61Z"/><rect class="cls-3" x="367.46" y="34.6" width="127.29" height="132.69"/><rect class="cls-5" x="358.84" y="34.6" width="127.29" height="132.69"/><path class="cls-3" d="M486.17,167.33H358.76V34.56H486.17Zm-127.29-.08H486.09V34.64H358.88Z"/><rect class="cls-6" x="375.95" y="52.44" width="93.07" height="97.02"/><path class="cls-3" d="M376,150.1a15.38,15.38,0,0,1-2.3,2.67c-1.49,1.57-3.57,3.69-5.91,6s-4.5,4.36-6.09,5.82a14.49,14.49,0,0,1-2.69,2.24,15,15,0,0,1,2.29-2.66c1.49-1.57,3.58-3.7,5.93-6s4.5-4.37,6.09-5.83A14,14,0,0,1,376,150.1Z"/><path class="cls-3" d="M469,149.86a15,15,0,0,1,2.67,2.3c1.57,1.49,3.69,3.58,6,5.92s4.36,4.49,5.81,6.08a14.16,14.16,0,0,1,2.25,2.69,14.18,14.18,0,0,1-2.66-2.29c-1.57-1.48-3.7-3.58-6-5.93s-4.38-4.5-5.83-6.09A14.76,14.76,0,0,1,469,149.86Z"/><path class="cls-3" d="M468.76,52.7a15.08,15.08,0,0,1,2.3-2.67c1.49-1.57,3.57-3.69,5.92-6s4.49-4.36,6.08-5.82a14.11,14.11,0,0,1,2.7-2.24,14.84,14.84,0,0,1-2.29,2.66c-1.49,1.57-3.58,3.7-5.93,6S473,49,471.45,50.46A14.49,14.49,0,0,1,468.76,52.7Z"/><path class="cls-3" d="M375.69,52.94a16.29,16.29,0,0,1-2.67-2.3c-1.57-1.49-3.69-3.57-6-5.92s-4.37-4.49-5.82-6.08A14.42,14.42,0,0,1,359,36a14.44,14.44,0,0,1,2.65,2.29c1.57,1.48,3.7,3.58,6,5.93s4.38,4.5,5.83,6.09A13.45,13.45,0,0,1,375.69,52.94Z"/><path class="cls-3" d="M468.76,149.44v-7.07c0-4.59,0-11.28-.09-19.77-.05-17-.11-41.2-.19-70.18l.36.36H376l.41-.41c0,35.61,0,68.92-.06,97L376,149l67.2.18,18.88.1h6.29a1.7,1.7,0,0,1,.45,0h-6.59l-18.79.09-67.43.18h-.36v-.12c0-28.1,0-61.41-.05-97V52h93.58v.41c-.07,29.08-.14,53.36-.18,70.41,0,8.46-.07,15.12-.09,19.69,0,2.24,0,4-.05,5.17V149A2,2,0,0,1,468.76,149.44Z"/><path class="cls-4" d="M441.76,82a34.87,34.87,0,0,0-35.06-4.4s-1.74,23-1.61,33.08,10.16,11.6,10.16,11.6v10.87l24.4.92,3.64-50.92Z"/><path class="cls-3" d="M415.22,122.18a23.5,23.5,0,0,0,13.09-3.74s-3.09,7.22-13.11,6.32Z"/><path class="cls-4" d="M442,93.58c.17-.07,6.9-2,6.68,4.83s-7.07,5.22-7.07,5S442,93.58,442,93.58Z"/><path class="cls-3" d="M443.76,100.9a1.81,1.81,0,0,0,.31.19,1.27,1.27,0,0,0,.9,0,3,3,0,0,0,1.45-2.61,3.87,3.87,0,0,0-.28-1.72,1.38,1.38,0,0,0-.87-1,.61.61,0,0,0-.72.3c-.1.19-.06.33-.09.34s-.15-.12-.08-.4a.83.83,0,0,1,.28-.42.85.85,0,0,1,.67-.15,1.63,1.63,0,0,1,1.21,1.1,3.87,3.87,0,0,1,.36,1.93c-.09,1.38-.84,2.65-1.84,2.9a1.29,1.29,0,0,1-1.09-.21C443.76,101.07,443.76,100.92,443.76,100.9Z"/><path class="cls-3" d="M410,93.08a1.47,1.47,0,0,0,1.39,1.45,1.38,1.38,0,0,0,1.47-1.27v0a1.42,1.42,0,0,0-1.38-1.44A1.36,1.36,0,0,0,410,93Z"/><path class="cls-3" d="M408.59,91.76c.18.18,1.27-.62,2.81-.62s2.67.78,2.84.59-.1-.42-.59-.78a3.94,3.94,0,0,0-2.28-.7,3.8,3.8,0,0,0-2.23.72C408.67,91.33,408.5,91.67,408.59,91.76Z"/><path class="cls-3" d="M425.15,93.73a1.46,1.46,0,0,0,1.38,1.45A1.39,1.39,0,0,0,428,93.9v0a1.44,1.44,0,0,0-1.38-1.44,1.35,1.35,0,0,0-1.47,1.23S425.15,93.71,425.15,93.73Z"/><path class="cls-3" d="M423.76,92c.18.19,1.27-.61,2.81-.61s2.68.78,2.84.59-.09-.42-.59-.78a3.77,3.77,0,0,0-2.27-.7,3.7,3.7,0,0,0-2.24.72C423.83,91.62,423.67,92,423.76,92Z"/><path class="cls-3" d="M418.16,103.44a10.67,10.67,0,0,0-2.51-.45c-.39,0-.77-.12-.83-.39a2,2,0,0,1,.26-1.16q.56-1.44,1.17-3c1.61-4.27,2.78-7.78,2.61-7.85s-1.62,3.35-3.24,7.62c-.39,1.05-.76,2.06-1.12,3a2.34,2.34,0,0,0-.2,1.54,1,1,0,0,0,.65.58,2.57,2.57,0,0,0,.67.09A9.82,9.82,0,0,0,418.16,103.44Z"/><path class="cls-3" d="M423.36,86c.15.42,1.69.22,3.5.44s3.27.71,3.51.33c.11-.18-.14-.57-.73-1a5.79,5.79,0,0,0-2.61-.91,5.7,5.7,0,0,0-2.74.32C423.63,85.44,423.29,85.8,423.36,86Z"/><path class="cls-3" d="M409.16,87.29c.27.35,1.33,0,2.61,0s2.36.24,2.61-.13c.11-.18-.06-.53-.53-.86a3.55,3.55,0,0,0-2.13-.57,3.47,3.47,0,0,0-2.08.7C409.19,86.76,409,87.12,409.16,87.29Z"/><path class="cls-3" d="M401.76,71.3A3.71,3.71,0,0,1,403.13,68a2.63,2.63,0,0,1,3.41.25,3.07,3.07,0,0,1,2.31-3.67l.32,0c1.64-.1,3,1.14,4.62,1.57a7.46,7.46,0,0,0,4.68-.54c1.49-.6,2.88-1.43,4.38-2a12.83,12.83,0,0,1,16.42,7.53,5.68,5.68,0,0,1,6,2.29A9.35,9.35,0,0,1,446.71,80a21.4,21.4,0,0,1-1.15,4.5v.39c-.11,5.52-.73,12-3.08,12-4.11.07-3.13-7.67-3.13-7.67-5-1.94-3.16-9.49-4.42-10.63s-3.9-3.81-14.44,1.58c-4.1,2.09-9.54,2-12.51,1.35h-.3A9.64,9.64,0,0,1,405,80.34a5.53,5.53,0,0,1-2.23-2.48,3,3,0,0,1,.58-3.14A6.52,6.52,0,0,1,401.76,71.3Z"/><path class="cls-3" d="M418.17,111a4.81,4.81,0,0,0,1.77-.21,2.56,2.56,0,0,0,1.33-1.22,2.62,2.62,0,0,0,0-2.16,2.22,2.22,0,0,0-.28-.5c-.14-.14-.11-.13-.25-.11a3.05,3.05,0,0,0-.53.21l-.55.22c-.71.29-1.35.54-1.89.74a5.6,5.6,0,0,1-1.8.54,5.66,5.66,0,0,1,1.64-.92c.52-.26,1.14-.55,1.84-.86l.53-.24a5.22,5.22,0,0,1,.61-.25.69.69,0,0,1,.49,0,.9.9,0,0,1,.36.28,3,3,0,0,1,.28,3.28,2.88,2.88,0,0,1-1.68,1.36,2.92,2.92,0,0,1-1.44.06C418.31,111.1,418.16,111,418.17,111Z"/></g><g id="freepik--Chair--inject-15"><path class="cls-7" d="M326.5,358a16.4,16.4,0,0,1,16-13.77C377,343.76,465,343,469.7,346.71c5.88,4.67,9,7.06,8.49,14.47-.43,6.8-7.84,124.29-7.84,124.29H305.74Z"/><path class="cls-8" d="M451.57,485.53a2.11,2.11,0,0,1-.05-.35,4.94,4.94,0,0,0-.08-1c-.07-.92-.17-2.24-.29-3.91s-.26-3.79-.34-6.21-.24-5.18-.24-8.23c0-1.53,0-3.13-.05-4.79s0-3.4.06-5.19c0-3.59.21-7.42.38-11.45.46-8.06,1.22-16.9,2.45-26.13s2.91-18,4.62-25.85c.91-3.93,1.75-7.67,2.69-11.14.46-1.73.87-3.41,1.33-5s.91-3.13,1.33-4.6c.82-2.94,1.71-5.55,2.43-7.87s1.41-4.28,2-5.89,1-2.82,1.32-3.7l.36-1c.08-.21.13-.32.13-.32a2.09,2.09,0,0,1-.08.34l-.31,1c-.29.89-.7,2.14-1.23,3.74s-1.21,3.59-1.9,5.91-1.56,4.94-2.35,7.88c-.42,1.47-.85,3-1.3,4.61s-.85,3.29-1.3,5c-.92,3.46-1.74,7.21-2.64,11.13-1.69,7.88-3.29,16.6-4.57,25.82s-2,18-2.49,26.08c-.18,4-.4,7.85-.43,11.44,0,1.79-.09,3.52-.09,5.18v4.78c0,3.05.11,5.81.17,8.23s.15,4.5.24,6.2.15,3,.19,3.93v1A2.2,2.2,0,0,1,451.57,485.53Z"/><path class="cls-8" d="M359,403.36a.58.58,0,0,0,.25-.1,2.42,2.42,0,0,1,.76,0,3.42,3.42,0,0,1,2.41,1.42,4,4,0,0,1,.24,4.1,5.34,5.34,0,0,1-1.6,1.93,5.12,5.12,0,0,1-2.55.89,4.15,4.15,0,0,1-2.63-.69,3.28,3.28,0,0,1-1.36-2.14,4.47,4.47,0,0,1,1.26-3.94c1.85-1.58,3.48-1.63,3.45-1.48s-.09,0-.25,0a4.13,4.13,0,0,0-.7.24,7.19,7.19,0,0,0-2.24,1.45,4.14,4.14,0,0,0-1.05,3.59,2.77,2.77,0,0,0,1.18,1.81,3.61,3.61,0,0,0,2.3.59,4.5,4.5,0,0,0,2.29-.79,4.62,4.62,0,0,0,1.47-1.72,3.6,3.6,0,0,0-.11-3.68,3.39,3.39,0,0,0-2.13-1.43A8.21,8.21,0,0,0,359,403.36Z"/><path class="cls-8" d="M384.83,388.43c0,.11-1.7-.2-4.42.05a20.24,20.24,0,0,0-16.6,11.67c-1.17,2.47-1.45,4.16-1.56,4.14a4.41,4.41,0,0,1,.19-1.19,17,17,0,0,1,1-3.1,19.69,19.69,0,0,1,16.93-11.85,17.88,17.88,0,0,1,3.27.09A4.41,4.41,0,0,1,384.83,388.43Z"/><path class="cls-8" d="M337.09,419a3.28,3.28,0,0,1,.39-.85,12.49,12.49,0,0,1,1.45-2.08,15.41,15.41,0,0,1,15.18-5.18,13.63,13.63,0,0,1,2.42.77,3.85,3.85,0,0,1,.83.43c0,.1-1.24-.47-3.32-.84a16.08,16.08,0,0,0-14.84,5.06C337.79,417.87,337.18,419.05,337.09,419Z"/><path class="cls-8" d="M368.94,423.09a6.18,6.18,0,0,1-1.69-1.22A18.8,18.8,0,0,1,364,418a18.12,18.12,0,0,1-2.13-4.57,5.81,5.81,0,0,1-.41-2.05,36.38,36.38,0,0,0,3,6.34A38.88,38.88,0,0,0,368.94,423.09Z"/><path class="cls-8" d="M414.6,404.75a1.1,1.1,0,0,1,.25-.1,2.42,2.42,0,0,1,.76,0,3.47,3.47,0,0,1,2.41,1.42,4,4,0,0,1,.25,4.1,5.47,5.47,0,0,1-1.61,1.93,5.12,5.12,0,0,1-2.55.89,4.15,4.15,0,0,1-2.63-.69,3.33,3.33,0,0,1-1.36-2.14,4.45,4.45,0,0,1,1.25-4c1.85-1.57,3.48-1.63,3.45-1.48s-.09,0-.25.05a4.13,4.13,0,0,0-.7.24,7.19,7.19,0,0,0-2.24,1.45,4.16,4.16,0,0,0-1,3.59,2.83,2.83,0,0,0,1.18,1.81,3.61,3.61,0,0,0,2.3.59,4.5,4.5,0,0,0,2.29-.79,4.62,4.62,0,0,0,1.47-1.72,3.6,3.6,0,0,0-.11-3.68,3.39,3.39,0,0,0-2.13-1.43A8.92,8.92,0,0,0,414.6,404.75Z"/><path class="cls-8" d="M440.37,389.82c0,.11-1.7-.2-4.42.05a20.25,20.25,0,0,0-16.58,11.63c-1.17,2.47-1.45,4.16-1.56,4.14a4.41,4.41,0,0,1,.19-1.19,17,17,0,0,1,1-3.1,19.69,19.69,0,0,1,16.91-11.85,17.88,17.88,0,0,1,3.27.09A4.48,4.48,0,0,1,440.37,389.82Z"/><path class="cls-8" d="M392.67,420.39a3.28,3.28,0,0,1,.39-.85,12.92,12.92,0,0,1,1.45-2.08,15.48,15.48,0,0,1,15.18-5.18,14,14,0,0,1,2.43.77,3,3,0,0,1,.82.44c0,.09-1.24-.48-3.32-.85a16.06,16.06,0,0,0-14.83,5.06C393.37,419.26,392.76,420.44,392.67,420.39Z"/><path class="cls-8" d="M424.52,424.48a6.18,6.18,0,0,1-1.69-1.22,18.8,18.8,0,0,1-3.27-3.85,18.12,18.12,0,0,1-2.13-4.57,6,6,0,0,1-.41-2,36.28,36.28,0,0,0,3,6.33A38,38,0,0,0,424.52,424.48Z"/></g><g id="freepik--Cushion--inject-15"><path class="cls-9" d="M484,321.58c-44.3-43.77-99.46-54.22-99.46-54.22-32.8,19.56-54.93,52.39-71.78,91.79,28.26,26.15,64.6,51.22,95.7,53.52C457.62,400.24,484,321.58,484,321.58Z"/><g class="cls-10"><path d="M484,321.58c-44.3-43.77-99.46-54.22-99.46-54.22-32.8,19.56-54.93,52.39-71.78,91.79,28.26,26.15,64.6,51.22,95.7,53.52C457.62,400.24,484,321.58,484,321.58Z"/></g><path class="cls-9" d="M468.19,356.33a1.21,1.21,0,0,1-.11-.3l-.28-.9c-.25-.82-.6-2-1.06-3.52l-3.89-13.23.19.11-21.73,7,.14-.13-.06.11c-.06.08-.21.12-.26.08a.27.27,0,0,1-.14-.14.43.43,0,0,1,0-.16V330.63c0-2.62-.11-5.28-.26-8a74.16,74.16,0,0,0-.86-8.29l.31.2-19.87,4.61-12,2.79-.26.06v-.26c-1.78-9.34-3.48-18.21-5-26.39l.3.19a178.84,178.84,0,0,1-31.56,5.51h-.16v-.16c-.83-6.8-1.49-12.2-1.94-15.93-.22-1.83-.38-3.26-.5-4.24-.05-.47-.08-.83-.11-1.1a2.29,2.29,0,0,1,0-.37,1.53,1.53,0,0,1,.07.36,10,10,0,0,0,.17,1.09c.13,1,.33,2.41.58,4.24.49,3.72,1.2,9.12,2.09,15.91l-.18-.15a181.43,181.43,0,0,0,31.28-5.55l.25-.07v.25c1.57,8.18,3.28,17.05,5.07,26.38l-.31-.2,12-2.8,19.76-4.58.26-.06v.26a70.71,70.71,0,0,1,.85,8.35c.15,2.73.21,5.41.25,8s0,5.16,0,7.63v7h0c-.05,0-.1,0-.13,0h0l-.13-.08-.11-.05.25-.08,21.85-7,.15,0v.16l3.75,13.27,1,3.54.24.91A1.4,1.4,0,0,1,468.19,356.33Z"/><path class="cls-5" d="M459.72,370.26a.94.94,0,0,1-.1-.23c-.07-.18-.16-.41-.27-.71l-1-2.76c-.86-2.44-2.1-6-3.68-10.51l.17.09-25.9,6.92-.24.06v-.24c-.62-4.77-1.31-9.88-2.07-15.27s-1.57-11.07-2.61-16.9l.31.2-19,4.41-12.84,3-.26.06v-.27c-1.78-9.33-3.47-18.2-5-26.38l.3.18A178.86,178.86,0,0,1,356,317.43h-.16v-.15c-.83-6.8-1.49-12.21-1.94-15.93-.21-1.84-.38-3.26-.49-4.25-.05-.46-.09-.83-.12-1.09a2.41,2.41,0,0,1,0-.38c0,.12.05.24.07.37a9.54,9.54,0,0,0,.16,1.09c.13,1,.33,2.4.58,4.23.49,3.73,1.2,9.12,2.09,15.91l-.18-.14a181.74,181.74,0,0,0,31.39-5.65l.25-.07v.25c1.57,8.18,3.28,17,5.08,26.38l-.31-.21,12.83-3,19-4.39.26-.06v.26c1,5.85,1.83,11.53,2.59,16.92s1.42,10.51,2,15.28l-.27-.18,25.94-6.77h.12l.05.12c1.52,4.53,2.72,8.1,3.55,10.55.39,1.21.7,2.14.92,2.79.09.3.17.53.22.71Z"/><path class="cls-9" d="M442.37,391.82V391c0-.54.11-1.37.2-2.41.19-2.14.46-5.25.81-9.23l.17.14-26.86,8.92-.23.08v-.24c-2.12-11-4.62-24-7.34-38.09l.31.2L393,354.15l-15.37,3.56-.26.06-.05-.26c-1.78-9.34-3.47-18.21-5-26.38l.29.18a178.86,178.86,0,0,1-31.56,5.52h-.16v-.16c-.83-6.8-1.49-12.21-1.94-15.93-.21-1.84-.38-3.26-.49-4.24,0-.47-.09-.83-.12-1.09a2.41,2.41,0,0,1,0-.38,1.48,1.48,0,0,0,.07.37c.07.24.09.62.16,1.09.13,1,.33,2.4.58,4.23.49,3.72,1.19,9.11,2.09,15.91l-.18-.14a181.55,181.55,0,0,0,31.46-5.64l.25-.07.05.25c1.57,8.17,3.28,17,5.08,26.37l-.31-.2L393,353.63l16.41-3.77.26-.06v.27c2.68,14.09,5.16,27.1,7.25,38.1l-.27-.16,26.91-8.77.18-.06v.2q-.6,6-.93,9.21c-.11,1-.2,1.84-.26,2.41A4.62,4.62,0,0,1,442.37,391.82Z"/><path class="cls-5" d="M406.62,412.51l-.06-.19-.16-.57c-.13-.53-.32-1.27-.57-2.21-.48-2-1.18-4.82-2.07-8.42s-1.91-8-3.1-13-2.48-10.69-3.68-16.91l.28.19-31.79,7.4-.27.07-.05-.27c-.16-.87-.34-1.81-.52-2.75-1.58-8.25-3.1-16.2-4.52-23.63l.31.19a176.89,176.89,0,0,1-31.56,5.52h-.18v-.18c-.81-6.69-1.47-12.1-1.92-15.85-.22-1.85-.38-3.29-.5-4.29-.05-.47-.09-.84-.11-1.12a1.21,1.21,0,0,1,0-.38,2.33,2.33,0,0,1,.08.38l.16,1.1c.14,1,.34,2.44.59,4.28.5,3.75,1.21,9.15,2.09,15.84l-.19-.16a181.55,181.55,0,0,0,31.46-5.64l.25-.07.06.26c1.42,7.44,3,15.38,4.54,23.63.18.94.36,1.88.52,2.75l-.31-.2,31.81-7.36.23-.05.05.24c1.17,6.2,2.48,11.86,3.6,16.9s2.15,9.43,3,13.07,1.49,6.46,1.94,8.44c.22,1,.38,1.7.5,2.24l.12.57C406.62,412.44,406.63,412.51,406.62,412.51Z"/><path class="cls-9" d="M389.73,408.93a7.4,7.4,0,0,1-.37-1.38l-.86-3.86c-.7-3.27-1.66-7.85-2.71-13l.31.2-3,.7c-5.85,1.36-11.16,2.56-15,3.4l-4.56,1a12.18,12.18,0,0,1-1.69.29,9.37,9.37,0,0,1,1.64-.49l4.53-1.13c3.82-.94,9.12-2.2,15-3.56l3-.69.26-.06v.26c1,5.19,1.92,9.78,2.54,13.07.28,1.59.52,2.89.7,3.89A10.39,10.39,0,0,1,389.73,408.93Z"/><path class="cls-9" d="M352.85,390.71a7.71,7.71,0,0,1-.37-1.41c-.22-1-.5-2.32-.83-3.89-.68-3.28-1.58-7.83-2.55-12.86-.05-.31-.11-.61-.17-.9l.33.2c-4.76,1.29-9.08,2.21-12.21,2.77-1.56.29-2.83.49-3.71.61a7,7,0,0,1-1.37.14,7.5,7.5,0,0,1,1.34-.33l3.67-.77c3.11-.66,7.4-1.63,12.14-2.92l.27-.07.05.27.18.9c1,5,1.8,9.59,2.39,12.89.27,1.58.49,2.9.67,3.92A7.86,7.86,0,0,1,352.85,390.71Z"/><path class="cls-9" d="M315.74,361.9a19.73,19.73,0,0,1-.8-6.34,10.17,10.17,0,0,1,.66,3.14A9.82,9.82,0,0,1,315.74,361.9Z"/><path class="cls-5" d="M475.66,341.72a.57.57,0,0,1-.06-.25,5.57,5.57,0,0,0-.15-.73c-.12-.67-.29-1.62-.52-2.85-.45-2.52-1.09-6.18-1.91-10.8l.17.12-15.11,2.42h-.2v-.19c-1.52-9.09-3.34-20-5.35-32l.3.2-20.62,4.8-10.51,2.43-.25.06-.06-.25c-2.23-9.08-4.31-17.68-5.87-25.61l.26.19L385.09,284h-.15v-.16c-.59-4.92-1.06-8.81-1.39-11.5-.14-1.32-.26-2.34-.34-3.06a6.3,6.3,0,0,0-.08-.78.61.61,0,0,1,0-.27v.26l.12.78.42,3.05c.36,2.69.88,6.57,1.53,11.48l-.17-.13,30.66-4.88h.22l0,.22c1.58,7.91,3.67,16.51,5.91,25.58l-.31-.19,10.51-2.44,20.62-4.78.26-.06v.26c2,12,3.75,23,5.24,32l-.22-.16,15.12-2.32h.15V327c.76,4.63,1.36,8.3,1.77,10.82.2,1.24.35,2.19.45,2.87.05.31.08.55.11.74A1.31,1.31,0,0,1,475.66,341.72Z"/><path class="cls-8" d="M479,320.83a1.62,1.62,0,0,1-.28.11l-.83.25c-.72.24-1.81.48-3.17,1a65.3,65.3,0,0,0-11.12,5,77.57,77.57,0,0,0-14.58,10.61,100.46,100.46,0,0,0-14.49,16.67,147.86,147.86,0,0,0-11.09,19.16c-3,6.11-5.42,11.76-7.38,16.53s-3.48,8.66-4.54,11.34c-.53,1.31-.94,2.35-1.24,3.09-.13.32-.24.59-.33.79s-.08.18-.13.27a1,1,0,0,1,.08-.29c.07-.21.17-.48.29-.81q.39-1.12,1.14-3.12c1-2.71,2.48-6.61,4.39-11.41s4.3-10.46,7.29-16.61a147.27,147.27,0,0,1,11.1-19.26,98.52,98.52,0,0,1,14.59-16.73,75.85,75.85,0,0,1,14.72-10.57A60.33,60.33,0,0,1,474.7,322c1.37-.47,2.48-.68,3.21-.89l.84-.2A1.45,1.45,0,0,1,479,320.83Z"/></g><g id="freepik--Notes--inject-15"><path class="cls-2" d="M161.59,232.15l.14,2.69a2.31,2.31,0,0,1,3.91,1.58,2.31,2.31,0,0,1-3.72,2l.15,2.7a2.25,2.25,0,0,1,1.47-.64,2.34,2.34,0,0,1,.25,4.68,2.28,2.28,0,0,1-1.53-.48l.14,2.7a2.33,2.33,0,1,1,.19,3.56l.15,2.7a2.25,2.25,0,0,1,1.47-.64,2.34,2.34,0,0,1,.25,4.67,2.28,2.28,0,0,1-1.53-.48l.14,2.71a2.34,2.34,0,1,1,.19,3.55l.15,2.71a2.25,2.25,0,0,1,1.47-.64,2.34,2.34,0,0,1,.25,4.67,2.28,2.28,0,0,1-1.53-.48l.09,1.68,72.09-1.73-3.65-42Z"/><path class="cls-4" d="M160,230.37l.15,2.7a2.25,2.25,0,0,1,1.47-.64,2.34,2.34,0,1,1-1.28,4.19l.14,2.7a2.31,2.31,0,0,1,3.91,1.58,2.31,2.31,0,0,1-3.72,2l.15,2.7a2.25,2.25,0,0,1,1.47-.64,2.34,2.34,0,1,1-1.28,4.2l.14,2.7a2.33,2.33,0,1,1,.19,3.56l.15,2.7a2.25,2.25,0,0,1,1.47-.64,2.34,2.34,0,0,1,.25,4.67,2.28,2.28,0,0,1-1.53-.48l.14,2.71a2.34,2.34,0,1,1,.19,3.55l.09,1.68,72.08-3.85-2.1-39.23Z"/><path class="cls-3" d="M232.48,234.27c0,.15-16.12,1.12-36,2.19s-36,1.81-36,1.67,16.12-1.13,36-2.19S232.48,234.15,232.48,234.27Z"/><path class="cls-3" d="M232.82,240.55c0,.14-16.12,1.12-36,2.19s-36,1.81-36,1.66,16.11-1.12,36-2.18S232.81,240.4,232.82,240.55Z"/><path class="cls-3" d="M233.16,246.82c0,.15-16.13,1.13-36,2.19s-36,1.81-36,1.67,16.12-1.12,36-2.19S233.15,246.68,233.16,246.82Z"/><path class="cls-3" d="M233.49,253.15c0,.14-16.12,1.12-36,2.19s-36.05,1.81-36.05,1.67,16.12-1.13,36-2.19S233.48,253,233.49,253.15Z"/><path class="cls-3" d="M233.83,259.38c0,.14-16.12,1.12-36,2.18s-36.05,1.82-36.06,1.67,16.12-1.12,36-2.19S233.82,259.23,233.83,259.38Z"/><rect class="cls-9" x="170.8" y="229.81" width="0.5" height="39.28" transform="translate(-13.07 9.49) rotate(-3.06)"/><path class="cls-3" d="M178.64,268.71c-.14,0-.73-8.77-1.31-19.6s-.93-19.62-.79-19.63.73,8.77,1.31,19.6S178.79,268.7,178.64,268.71Z"/><path class="cls-3" d="M165.81,269.39c-.14,0-.73-8.76-1.31-19.59s-.93-19.65-.79-19.65.73,8.76,1.31,19.6S166,269.39,165.81,269.39Z"/><path class="cls-3" d="M185.67,268.33c-.14,0-.73-8.77-1.31-19.6s-.93-19.58-.79-19.58.73,8.77,1.31,19.61S185.81,268.32,185.67,268.33Z"/><path class="cls-3" d="M192.7,268c-.15,0-.73-8.77-1.31-19.6s-.93-19.62-.79-19.63.73,8.76,1.31,19.6S192.84,268,192.7,268Z"/><path class="cls-3" d="M199.72,267.58c-.14,0-.72-8.77-1.3-19.6s-.94-19.62-.79-19.63.73,8.77,1.31,19.6S199.87,267.57,199.72,267.58Z"/><path class="cls-3" d="M206.75,267.2c-.14,0-.73-8.76-1.31-19.6s-.93-19.62-.79-19.62.73,8.76,1.31,19.6S206.9,267.2,206.75,267.2Z"/><path class="cls-3" d="M213.78,266.83c-.14,0-.73-8.77-1.31-19.6s-.93-19.62-.79-19.63.73,8.77,1.31,19.6S213.92,266.82,213.78,266.83Z"/><path class="cls-3" d="M220.81,266.45c-.15,0-.73-8.77-1.31-19.6s-.94-19.62-.79-19.63.73,8.77,1.31,19.61S221,266.44,220.81,266.45Z"/><path class="cls-3" d="M227.83,266.08c-.14,0-.73-8.77-1.31-19.6s-.93-19.62-.79-19.63.73,8.76,1.31,19.6S228,266.07,227.83,266.08Z"/><path class="cls-8" d="M227,242.32a1.81,1.81,0,0,1-.51.08l-1.48.13-5.41.36c-4.58.29-10.91.64-17.89,1s-13.33.61-17.91.75-7.43.16-7.42,0l25.3-1.27,17.9-.83,5.42-.21h1.48A1.51,1.51,0,0,1,227,242.32Z"/><path class="cls-8" d="M228.42,249.49c0,.14-11.63.79-26,1.45s-26,1.08-26,.93,11.62-.79,26-1.45S228.37,249.34,228.42,249.49Z"/><path class="cls-8" d="M229.19,255.76c0,.15-11.62.8-26,1.46s-26,1.07-26,.93,11.62-.8,26-1.45S229.18,255.62,229.19,255.76Z"/><path class="cls-3" d="M168.06,234.48a6.26,6.26,0,0,0,2.31,4,4.12,4.12,0,1,0,1.51-7.43"/><path class="cls-7" d="M167.89,234.47A3.28,3.28,0,1,0,171,231h0A3.28,3.28,0,0,0,167.89,234.47Z"/><path class="cls-7" d="M166,233.26a2,2,0,1,0,0-.71A1.89,1.89,0,0,0,166,233.26Z"/><path class="cls-8" d="M167.84,235.08c0-.08.31-.06.71-.21a1.89,1.89,0,0,0,1.12-1.08,2,2,0,0,0-.15-1.57c-.2-.39-.43-.57-.39-.64s.36,0,.69.43a2.1,2.1,0,0,1,.34,2,2,2,0,0,1-1.52,1.27C168.11,235.31,167.82,235.15,167.84,235.08Z"/><path class="cls-8" d="M169.49,232c.07-.13.56,0,1.11-.12s.93-.47,1-.38-.15.7-.93.89S169.37,232.05,169.49,232Z"/><path class="cls-8" d="M170,236.93c-.14,0-.28-.61-.8-1.09s-1.13-.59-1.13-.73.79-.3,1.49.35S170.13,237,170,236.93Z"/><path class="cls-3" d="M223.46,232.15a6.32,6.32,0,0,0,2.31,4,4.12,4.12,0,1,0,1.51-7.43"/><path class="cls-9" d="M229.8,231.28a3.17,3.17,0,1,1-3.34-3,3.17,3.17,0,0,1,3.34,3Z"/><path class="cls-9" d="M231.48,229.92a1.9,1.9,0,1,1-2-1.8,1.9,1.9,0,0,1,2,1.8Z"/><path class="cls-8" d="M229.91,231.86a1,1,0,0,1-.75.23,1.89,1.89,0,0,1-1.6-1.06,2,2,0,0,1,.12-1.91c.28-.43.6-.54.63-.49s-.15.27-.3.66a1.89,1.89,0,0,0,0,1.51,1.81,1.81,0,0,0,1.18.93C229.61,231.83,229.89,231.78,229.91,231.86Z"/><path class="cls-8" d="M228,229c.11.1-.36.6-1.14.51s-1.11-.69-1-.77.51.2,1,.26S227.92,228.9,228,229Z"/><path class="cls-8" d="M228,233.86c-.14,0-.33-.75.27-1.46s1.42-.63,1.4-.49-.57.31-1,.83S228.18,233.85,228,233.86Z"/><polygon class="cls-3" points="107.09 325.53 166.01 333.04 165.22 311.47 107.09 325.53"/><rect class="cls-7" x="126.7" y="290.55" width="18.84" height="56.76" transform="matrix(0.08, -1, 1, 0.08, -193.03, 428.05)"/><path class="cls-8" d="M157.23,317.54c0,.14-9.5-.53-21.19-1.51s-21.15-1.88-21.14-2,9.5.53,21.19,1.5S157.24,317.4,157.23,317.54Z"/><path class="cls-8" d="M157.12,322.44c0,.14-9.5-.53-21.19-1.51s-21.15-1.88-21.14-2,9.49.53,21.19,1.5S157.13,322.3,157.12,322.44Z"/><polygon class="cls-2" points="125.38 305.9 147.3 307.72 146.15 308.7 147.65 310.01 145.86 310.83 147.46 312.25 124.49 310.33 125.92 309.12 125.21 307.82 126.44 307.19 125.38 305.9"/><path class="cls-3" d="M73.68,271.92a2.55,2.55,0,1,1-4.38,0h-3a2.63,2.63,0,0,1,.36,1.29,2.55,2.55,0,1,1-5.1,0,2.48,2.48,0,0,1,.36-1.32H59a2.55,2.55,0,0,1-2.18,3.86,2.56,2.56,0,0,1-2.56-2.54,2.48,2.48,0,0,1,.36-1.32h-3a2.58,2.58,0,1,1-4.73,1.61,1.71,1.71,0,0,1,0-.32,2.44,2.44,0,0,1,.36-1.29h-3a2.58,2.58,0,1,1-4.73,1.61,1.71,1.71,0,0,1,0-.32,2.44,2.44,0,0,1,.36-1.29h-3a2.55,2.55,0,1,1-4.38,0H30.62v52.62l46,2.53-2.2-55.15Z"/><g class="cls-11"><path class="cls-4" d="M73,270.48a2.55,2.55,0,1,1-4.38,0H65.68a2.63,2.63,0,0,1,.36,1.29,2.55,2.55,0,1,1-5.1,0,2.48,2.48,0,0,1,.36-1.32h-3a2.55,2.55,0,0,1-2.18,3.86,2.56,2.56,0,0,1-2.56-2.54,2.48,2.48,0,0,1,.36-1.32H51a2.58,2.58,0,1,1-4.73,1.61,1.71,1.71,0,0,1,0-.32,2.44,2.44,0,0,1,.36-1.29h-3a2.55,2.55,0,1,1-4.38,2.61,2.48,2.48,0,0,1-.36-1.32,2.44,2.44,0,0,1,.36-1.29h-2.9a2.55,2.55,0,1,1-4.38,0H30.14v52.67H74V270.48Z"/><path class="cls-3" d="M27.47,325.53c-.15,0-.39-12.75-.55-28.48s-.18-28.49,0-28.49.39,12.75.55,28.48S27.61,325.53,27.47,325.53Z"/><path class="cls-3" d="M34.51,325.46c-.15,0-.4-12.75-.56-28.48s-.17-28.49,0-28.49.39,12.75.55,28.48S34.65,325.46,34.51,325.46Z"/><path class="cls-3" d="M38,325.46c-.14,0-.39-12.75-.55-28.48s-.18-28.49,0-28.49.39,12.75.55,28.48S38.14,325.46,38,325.46Z"/><path class="cls-3" d="M45.11,325.46c-.14,0-.39-12.75-.55-28.48s-.17-28.49,0-28.49.39,12.75.55,28.48S45.26,325.46,45.11,325.46Z"/><path class="cls-3" d="M52.22,325.46c-.14,0-.39-12.75-.55-28.48s-.17-28.49,0-28.49.39,12.75.55,28.48S52.37,325.46,52.22,325.46Z"/><path class="cls-3" d="M59.37,325.46c-.14,0-.39-12.75-.55-28.48s-.17-28.49,0-28.49.39,12.75.55,28.48S59.48,325.46,59.37,325.46Z"/><path class="cls-3" d="M66.08,325.46c-.14,0-.39-12.75-.55-28.48s-.17-28.49,0-28.49.39,12.75.55,28.48S66.23,325.46,66.08,325.46Z"/><path class="cls-3" d="M72.83,325.46c-.14,0-.39-12.75-.55-28.48s-.18-28.49,0-28.49.39,12.75.55,28.48S73,325.46,72.83,325.46Z"/><path class="cls-3" d="M41.54,325.39c-.14,0-.39-12.76-.55-28.49s-.17-28.48,0-28.48.39,12.74.55,28.48S41.69,325.38,41.54,325.39Z"/><path class="cls-3" d="M48.58,325.31c-.14,0-.39-12.75-.55-28.48s-.18-28.48,0-28.49.39,12.75.55,28.49S48.72,325.31,48.58,325.31Z"/><path class="cls-3" d="M55.62,325.24c-.15,0-.4-12.75-.56-28.48s-.17-28.49,0-28.49.39,12.75.55,28.49S55.76,325.24,55.62,325.24Z"/><path class="cls-3" d="M62.65,325.15c-.14,0-.39-12.75-.55-28.48s-.17-28.49,0-28.49.39,12.75.55,28.48S62.8,325.15,62.65,325.15Z"/><path class="cls-3" d="M69.37,325.53c-.15,0-.39-12.75-.55-28.48s-.18-28.49,0-28.49.39,12.75.55,28.48S69.54,325.53,69.37,325.53Z"/><path class="cls-3" d="M76.73,325c-.15,0-.39-12.76-.56-28.49s-.17-28.48,0-28.48.39,12.74.56,28.48S76.87,325,76.73,325Z"/><path class="cls-3" d="M84.28,318.35c0,.14-12.76.39-28.48.54s-28.49.17-28.49,0,12.75-.39,28.48-.55S84.27,318.21,84.28,318.35Z"/><path class="cls-3" d="M84.57,322c0,.14-12.75.39-28.48.54s-28.49.17-28.49,0,12.75-.39,28.49-.55S84.57,321.8,84.57,322Z"/><path class="cls-3" d="M84.21,311.31c0,.15-12.76.39-28.48.55s-28.49.17-28.49,0,12.75-.39,28.48-.54S84.2,311.15,84.21,311.31Z"/><path class="cls-3" d="M84.14,304.28c0,.14-12.76.38-28.49.54s-28.48.17-28.48,0,12.75-.38,28.48-.54S84.13,304.15,84.14,304.28Z"/><path class="cls-3" d="M84.07,297.24c0,.14-12.76.39-28.49.54s-28.48.17-28.48,0,12.74-.39,28.48-.55S84.06,297.09,84.07,297.24Z"/><path class="cls-3" d="M84,290.2c0,.15-12.76.39-28.49.55s-28.48.16-28.48,0,12.74-.39,28.48-.54S84,290.06,84,290.2Z"/><path class="cls-3" d="M83.92,283.15c0,.15-12.75.39-28.48.55s-28.48.17-28.48,0,12.74-.38,28.48-.54S83.92,283,83.92,283.15Z"/><path class="cls-3" d="M83.85,276.15c0,.14-12.75.39-28.48.54s-28.48.17-28.49,0,12.75-.39,28.49-.55S83.85,276,83.85,276.15Z"/><path class="cls-3" d="M83.85,273.31c0,.14-12.75.39-28.48.54s-28.48.17-28.49,0,12.75-.39,28.49-.55S83.85,273.15,83.85,273.31Z"/><path class="cls-3" d="M83.85,279.72c0,.15-12.75.39-28.48.55s-28.48.17-28.49,0,12.75-.39,28.49-.54S83.85,279.58,83.85,279.72Z"/><path class="cls-3" d="M83.85,286.7c0,.15-12.75.39-28.48.55s-28.48.17-28.49,0,12.75-.38,28.49-.54S83.85,286.56,83.85,286.7Z"/><path class="cls-3" d="M83.85,293.68c0,.15-12.75.39-28.48.55s-28.48.17-28.49,0,12.75-.38,28.49-.54S83.85,293.54,83.85,293.68Z"/><path class="cls-3" d="M83.85,300.67c0,.14-12.75.38-28.48.54s-28.48.17-28.49,0,12.75-.38,28.49-.54S83.85,300.52,83.85,300.67Z"/><path class="cls-3" d="M83.85,307.65c0,.14-12.75.38-28.48.54s-28.48.17-28.49,0,12.75-.39,28.49-.55S83.85,307.5,83.85,307.65Z"/><path class="cls-3" d="M83.85,314.63c0,.14-12.75.38-28.48.54s-28.48.17-28.49,0,12.75-.39,28.49-.55S83.85,314.48,83.85,314.63Z"/><path class="cls-1" d="M73,270.48a2.55,2.55,0,1,1-4.38,0H65.68a2.63,2.63,0,0,1,.36,1.29,2.55,2.55,0,1,1-5.1,0,2.48,2.48,0,0,1,.36-1.32h-3a2.55,2.55,0,0,1-2.18,3.86,2.56,2.56,0,0,1-2.56-2.54,2.48,2.48,0,0,1,.36-1.32H51a2.58,2.58,0,1,1-4.73,1.61,1.71,1.71,0,0,1,0-.32,2.44,2.44,0,0,1,.36-1.29h-3a2.55,2.55,0,1,1-4.38,2.61,2.48,2.48,0,0,1-.36-1.32,2.44,2.44,0,0,1,.36-1.29h-2.9a2.55,2.55,0,1,1-4.38,0H30.14v52.67H74V270.48Z"/></g><path class="cls-3" d="M49.05,278.15a6.26,6.26,0,0,0,2.31,4,4.12,4.12,0,1,0,1.51-7.43"/><path class="cls-9" d="M49,278.09a3.28,3.28,0,1,0,3.1-3.45h0A3.28,3.28,0,0,0,49,278.09Z"/><path class="cls-9" d="M47.09,276.88A2,2,0,1,0,49,274.81H49A2,2,0,0,0,47.09,276.88Z"/><path class="cls-8" d="M48.92,278.7c0-.08.31-.05.71-.2a1.94,1.94,0,0,0,1.12-1.09,2,2,0,0,0-.15-1.57c-.2-.38-.43-.57-.39-.63s.36,0,.69.42a2.09,2.09,0,0,1,.34,2,2,2,0,0,1-1.52,1.27C49.2,278.93,48.9,278.75,48.92,278.7Z"/><path class="cls-8" d="M50.57,275.57c.07-.13.56,0,1.11-.11s.93-.47,1-.39-.15.71-.93.89S50.48,275.68,50.57,275.57Z"/><path class="cls-8" d="M51.07,280.55c-.14,0-.28-.61-.79-1.09s-1.14-.59-1.14-.73.79-.29,1.49.35S51.22,280.58,51.07,280.55Z"/><path class="cls-8" d="M69.07,289.28c0,.14-7,.26-15.62.26s-15.63-.12-15.63-.26,7-.26,15.63-.26S69.07,289.15,69.07,289.28Z"/><path class="cls-8" d="M69.07,292.53c0,.14-7,.26-15.62.26s-15.63-.12-15.63-.26,7-.26,15.63-.26S69.07,292.38,69.07,292.53Z"/><path class="cls-8" d="M69.07,295.78c0,.14-7,.26-15.62.26s-15.63-.12-15.63-.26,7-.26,15.63-.26S69.07,295.63,69.07,295.78Z"/><path class="cls-8" d="M69.07,299c0,.15-7,.26-15.62.26s-15.63-.11-15.63-.26,7-.26,15.63-.26S69.07,298.88,69.07,299Z"/><path class="cls-8" d="M69.07,302.27c0,.15-7,.26-15.62.26s-15.63-.11-15.63-.26,7-.26,15.63-.26S69.07,302.15,69.07,302.27Z"/><path class="cls-8" d="M69.07,305.52c0,.14-7,.26-15.62.26s-15.63-.12-15.63-.26,7-.26,15.63-.26S69.07,305.38,69.07,305.52Z"/><path class="cls-8" d="M69.07,308.77c0,.14-7,.26-15.62.26s-15.63-.12-15.63-.26,7-.26,15.63-.26S69.07,308.62,69.07,308.77Z"/></g><g id="freepik--Character--inject-15"><path class="cls-12" d="M111.49,475.36c-.33.07-1.74,1.5.27,3.77s14.13,8.48,16.36,4.77-3.15-6.29-3.15-6.29Z"/><path class="cls-12" d="M124.8,471.36s12.5-1.38,17.6-.73c5.53.71,11.4-2.08,14.88-5.9a19.93,19.93,0,0,0,4.39-8.84l8-5.56s.86-18.91-11.75-15.86l-14.73.52s-29,4.8-33.48,8.41c0,0-5.46,5.31-7,7.36-.6.78-1.11,8.57,4.43,11.23,0,0-3.27,4.17-.39,6.53l1.35,1s-1.87,4.17-.11,5.36,15.67,5.41,19.62,2.66-.63-5.92-2.72-6.2"/><path class="cls-13" d="M109.22,461.25a11.29,11.29,0,0,1,1.63.18c1.05.13,2.57.32,4.46.46.94.06,2,.12,3.08.14s2.29,0,3.56.09a7.37,7.37,0,0,1,3.83,1.21,4.26,4.26,0,0,1,1.87,3.85,3.28,3.28,0,0,1-1.12,2,5.76,5.76,0,0,1-1.89,1.05,17.4,17.4,0,0,1-3.91.73,35.6,35.6,0,0,1-6.69-.13c-1.89-.2-3.4-.45-4.44-.63a9,9,0,0,1-1.62-.34,11.34,11.34,0,0,1,1.64.14c1.06.12,2.58.31,4.46.46a38.28,38.28,0,0,0,6.6,0,17.51,17.51,0,0,0,3.79-.73,5.47,5.47,0,0,0,1.72-1,2.82,2.82,0,0,0,.94-1.67,3.76,3.76,0,0,0-1.65-3.37,7,7,0,0,0-3.57-1.15c-1.22-.11-2.42-.07-3.53-.13s-2.16-.11-3.11-.21c-1.89-.18-3.4-.42-4.45-.62A7.93,7.93,0,0,1,109.22,461.25Z"/><path class="cls-13" d="M108.2,452.22a11.29,11.29,0,0,1,1.63.18c1,.14,2.56.34,4.43.5s4.11.29,6.6.29a8.76,8.76,0,0,1,4,.59,3.18,3.18,0,0,1,1.5,1.61,4.08,4.08,0,0,1,.21,2.24A5.4,5.4,0,0,1,124,461.1a8.74,8.74,0,0,1-3.8,1.23,37.9,37.9,0,0,1-6.65-.31l-4.44-.45a8.9,8.9,0,0,1-1.63-.24,11.22,11.22,0,0,1,1.64,0l4.46.29a41.19,41.19,0,0,0,6.57.19,8.31,8.31,0,0,0,3.58-1.19A4.87,4.87,0,0,0,126,457.5a3,3,0,0,0-1.43-3.31,8.26,8.26,0,0,0-3.71-.56,59.16,59.16,0,0,1-6.63-.4c-1.88-.21-3.39-.47-4.43-.67A9.48,9.48,0,0,1,108.2,452.22Z"/><path class="cls-13" d="M114.65,453.32a15.43,15.43,0,0,1-1.13-2.31,14.07,14.07,0,0,1-1.2-2.27c.1-.1,1,.72,1.66,2A4.35,4.35,0,0,1,114.65,453.32Z"/><path class="cls-12" d="M152.89,435.23l-11.82-1.57s-33.4-6.81-33.73-5.93-2,1.19-.74,4.77,20.51,6.75,21.37,7.89,1.48,7.77,9,10.82,12.26,2,12.26,2"/><path class="cls-13" d="M149.27,453.23l-.25.07-.77.11a18.78,18.78,0,0,1-3,0,25.81,25.81,0,0,1-4.63-.82,25.19,25.19,0,0,1-5.81-2.26,13.44,13.44,0,0,1-5.21-5.44A29.18,29.18,0,0,1,128,441c-.07-.15-.14-.3-.22-.44a1,1,0,0,0-.35-.22,9.12,9.12,0,0,0-1-.35c-.7-.22-1.42-.41-2.16-.6-2.94-.77-6-1.51-9.23-2.44-1.59-.47-3.2-1-4.8-1.63a15.54,15.54,0,0,1-2.35-1.16,5.63,5.63,0,0,1-1.08-.85,2.25,2.25,0,0,1-.41-.61c-.11-.23-.14-.44-.22-.65a4.8,4.8,0,0,1-.16-2.73,3.13,3.13,0,0,1,.72-1.18,2.15,2.15,0,0,0,.33-.46l.08-.13a.35.35,0,0,1,.19-.12h.57c1.74.11,3.39.4,5,.66,3.27.54,6.41,1.12,9.4,1.69,6,1.13,11.34,2.21,15.85,3.14,1.12.22,2.2.48,3.21.65l2.9.4,4.63.66,2.93.44.76.13.26.06h-.27l-.76-.07-2.95-.35-4.65-.57-2.91-.37c-1-.16-2.09-.4-3.22-.61l-15.87-3c-3-.55-6.13-1.13-9.39-1.66-1.63-.25-3.31-.54-5-.65h-.4a.17.17,0,0,0-.05-.12h0c.39.14.1,0,.19.09h0a2,2,0,0,1-.41.59,2.67,2.67,0,0,0-.62,1,4.34,4.34,0,0,0,.17,2.42,2.16,2.16,0,0,0,.52,1.06,5,5,0,0,0,1,.76,16.5,16.5,0,0,0,2.27,1.12c1.57.64,3.16,1.15,4.75,1.62,3.16.94,6.26,1.68,9.2,2.46.74.2,1.47.4,2.18.62a8.39,8.39,0,0,1,1.06.38,1.27,1.27,0,0,1,.54.38,2.4,2.4,0,0,1,.27.53,30,30,0,0,0,1.57,3.86,13,13,0,0,0,5,5.32,25.88,25.88,0,0,0,5.7,2.3,26.19,26.19,0,0,0,4.57.89,20.59,20.59,0,0,0,2.94.1h.77Z"/><path class="cls-13" d="M121.16,470.77a3.64,3.64,0,0,1,1.23.06,11.8,11.8,0,0,1,3.22.95,10.4,10.4,0,0,1,2,1.2,3.6,3.6,0,0,1,1.48,2.32,2.88,2.88,0,0,1-1.48,2.64,5.59,5.59,0,0,1-3.18.66A60,60,0,0,1,113.52,477a28.15,28.15,0,0,1-3.2-1,5.44,5.44,0,0,1-1.13-.49,5.58,5.58,0,0,1,1.19.29c.76.22,1.85.52,3.22.82a70.72,70.72,0,0,0,10.85,1.45,5.09,5.09,0,0,0,2.89-.57,2.41,2.41,0,0,0,1.27-2.17,3.13,3.13,0,0,0-1.27-2,10.22,10.22,0,0,0-1.91-1.2A17.39,17.39,0,0,0,121.16,470.77Z"/><path class="cls-9" d="M208.11,402.5s14.81-24.38,18.14-40.47,20.53-41.62,26.12-48.28,27.75-14.42,27.75-14.42l8.18-4.42,63.39-5.57s42.17,4.44,54.94,16.09,22.74,38.29,22.74,51.6,12.89,128.64,12.89,128.64l-156.21-.2,3.5-56.86s-18.87-12.76-23.86-23.86-2.22-5.55-2.22-5.55-17.71,37.65-23.81,42.09-77,26.21-77,26.21l-9.71-37.23Z"/><path class="cls-9" d="M392.54,310.08c-1.71.53-22.87,55.18-24.36,60.15s0,36.29,0,36.29l7,12.93s-2,9.44-.5,13.92l-31.32,6s-7.95-5.47-15.41,0l-37,3.13s10.85.12,7.62,16.76c-3.16,16.3-5.57,19.88-5.57,19.88l129.85-3s14.43-.72,12.23-28.46-8.39-104.26-8.39-104.26S417.23,302.42,392.54,310.08Z"/><path class="cls-8" d="M367.89,402.15a2.9,2.9,0,0,1-.31-.67l-.79-2c-.34-.85-.75-1.9-1.15-3.15s-.93-2.64-1.35-4.23-1-3.32-1.39-5.21-.86-3.91-1.26-6a102.43,102.43,0,0,1-1.1-28.26c.26-2.16.47-4.22.82-6.13.16-1,.29-1.88.47-2.77s.36-1.72.53-2.53c.32-1.61.73-3,1.06-4.32s.64-2.34.93-3.22.49-1.5.65-2a5.89,5.89,0,0,1,.26-.7,3.66,3.66,0,0,1-.16.73c-.14.51-.33,1.19-.56,2s-.56,2-.84,3.24-.69,2.7-1,4.32c-.16.81-.32,1.65-.49,2.53s-.29,1.8-.44,2.75c-.33,1.91-.53,4-.77,6.12a106,106,0,0,0,1.09,28.12c.39,2.14.75,4.17,1.21,6s.89,3.62,1.32,5.21.9,3,1.28,4.24.75,2.31,1.06,3.17l.7,2A6.65,6.65,0,0,1,367.89,402.15Z"/><path class="cls-8" d="M413.07,461.42a3.91,3.91,0,0,1-.34-.38l-.86-1.15c-.37-.51-.83-1.12-1.39-1.8s-1.17-1.49-1.92-2.32S407,454,406.1,453.08s-1.92-1.92-3-2.93a74.42,74.42,0,0,0-7.48-6,75.92,75.92,0,0,0-8.24-4.88c-1.33-.64-2.58-1.27-3.8-1.76s-2.34-1-3.38-1.35-2-.69-2.85-1-1.57-.5-2.17-.66l-1.38-.41a2,2,0,0,1-.48-.18,2.17,2.17,0,0,1,.5.08l1.41.31c.61.14,1.35.32,2.21.58s1.83.52,2.88.92,2.22.77,3.43,1.29,2.5,1.1,3.84,1.73a69.48,69.48,0,0,1,8.33,4.88,71.46,71.46,0,0,1,7.5,6.06c1.07,1,2.09,2,3,3s1.71,1.89,2.43,2.75,1.32,1.68,1.87,2.38a20.63,20.63,0,0,1,1.32,1.86c.32.52.58.88.79,1.21A2,2,0,0,1,413.07,461.42Z"/><path class="cls-8" d="M424,454.15c-.08.07-1.23-1.24-3.39-3a34.56,34.56,0,0,0-4-2.8,33.9,33.9,0,0,0-11.15-4.23,33.21,33.21,0,0,0-4.86-.57c-2.79-.11-4.52.1-4.53,0a5.46,5.46,0,0,1,1.21-.2,11.34,11.34,0,0,1,1.43-.13,17.14,17.14,0,0,1,1.9,0,31.53,31.53,0,0,1,4.94.47,34,34,0,0,1,5.85,1.61,35,35,0,0,1,5.46,2.68,32.47,32.47,0,0,1,4,2.92,18.38,18.38,0,0,1,1.39,1.3,10.49,10.49,0,0,1,1,1A6.27,6.27,0,0,1,424,454.15Z"/><path class="cls-8" d="M412,435.86c-.06.09-1.59-1.13-4.39-2.51a21.94,21.94,0,0,0-2.34-1c-.84-.36-1.78-.63-2.76-.94a31.66,31.66,0,0,0-13.27-.91c-1,.17-2,.31-2.86.55a23,23,0,0,0-2.46.7c-3,1-4.64,2-4.69,1.88a5.8,5.8,0,0,1,1.17-.71,12,12,0,0,1,1.43-.72,20.33,20.33,0,0,1,2-.8,20.76,20.76,0,0,1,2.47-.76,25.77,25.77,0,0,1,2.9-.62,30.55,30.55,0,0,1,13.47.93,25,25,0,0,1,2.79,1A20.82,20.82,0,0,1,407.8,433a20,20,0,0,1,1.84,1.07,11.81,11.81,0,0,1,1.32.9A6,6,0,0,1,412,435.86Z"/><path class="cls-8" d="M336.05,476.84a47.39,47.39,0,0,0,.92-5.56,36.66,36.66,0,0,0-.05-6.11,49.65,49.65,0,0,0-1.3-7.37,52.47,52.47,0,0,0-2.49-7,38.84,38.84,0,0,0-3-5.34,52,52,0,0,0-3.53-4.41,9.93,9.93,0,0,1,1.15,1,13.92,13.92,0,0,1,1.22,1.32l.72.85c.25.32.48.66.74,1a34.78,34.78,0,0,1,3.1,5.35,43.42,43.42,0,0,1,3.84,14.58,33.57,33.57,0,0,1-.06,6.18c-.05.44-.1.85-.14,1.25l-.22,1.1a13,13,0,0,1-.42,1.74A11.85,11.85,0,0,1,336.05,476.84Z"/><path class="cls-8" d="M314.28,439.31a.72.72,0,0,1-.06-.29,6.41,6.41,0,0,0-.14-.85c-.11-.79-.27-1.89-.47-3.29-.41-2.86-.94-7-1.56-12.14-1.23-10.25-2.7-24.45-3.85-40.17s-1.75-30-2-40.31c-.14-5.16-.21-9.34-.23-12.23v-4.19a.16.16,0,0,1-.12-.18.16.16,0,0,1,.18-.12.15.15,0,0,1,.11.18.14.14,0,0,1-.11.12v.87c0,.79.06,1.9.11,3.32.09,2.92.22,7.09.38,12.22.37,10.32,1,24.57,2.17,40.29s2.56,29.9,3.7,40.16c.58,5.1,1.06,9.24,1.39,12.15.16,1.41.28,2.51.37,3.31a7.62,7.62,0,0,0,.09.86A2.54,2.54,0,0,1,314.28,439.31Z"/><path class="cls-8" d="M263.27,399.92a11,11,0,0,1-.68-1.53c-.4-1-1-2.43-1.75-4.2-1.5-3.53-3.74-8.34-6.42-13.56s-5.1-9.85-6.91-13.33c-.87-1.72-1.57-3.11-2-4.08a10,10,0,0,1-.67-1.54,9.4,9.4,0,0,1,.85,1.44l2.17,4c1.82,3.38,4.38,8,7.06,13.27s4.87,10.07,6.29,13.65c.71,1.79,1.26,3.25,1.6,4.27A11,11,0,0,1,263.27,399.92Z"/><path class="cls-8" d="M255.29,381.44a3.12,3.12,0,0,1-.91-.17c-.57-.14-1.39-.38-2.4-.71a59.06,59.06,0,0,1-14.78-7.32c-.87-.6-1.56-1.11-2-1.48a3.58,3.58,0,0,1-.68-.61,33.28,33.28,0,0,1,2.91,1.78,78.39,78.39,0,0,0,7.16,4c2.88,1.41,5.56,2.52,7.53,3.26C253.19,380.55,254.25,381,255.29,381.44Z"/><path class="cls-8" d="M241.88,415.59a4.92,4.92,0,0,1-1.08-.65c-.66-.45-1.64-1.09-2.87-1.83A59.08,59.08,0,0,0,217,405.28c-1.42-.25-2.57-.41-3.37-.51a5.19,5.19,0,0,1-1.24-.21,5.31,5.31,0,0,1,1.26,0,27.76,27.76,0,0,1,3.41.34,52.39,52.39,0,0,1,11,2.8,53.37,53.37,0,0,1,10.1,5.08c1.21.8,2.16,1.48,2.79,2A6.94,6.94,0,0,1,241.88,415.59Z"/><path class="cls-8" d="M350,289.43q0,.4-.06.81c-.07.58-.16,1.35-.27,2.32-.26,2-.62,4.92-1.23,8.5a108,108,0,0,1-2.8,12.44,58.29,58.29,0,0,1-6.27,14.28,43.74,43.74,0,0,1-5.21,6.68l-.2.22-.19-.25a26.4,26.4,0,0,0-9.49-7.87,25,25,0,0,0-5-1.84,21.84,21.84,0,0,0-4.55-.61,18.73,18.73,0,0,0-6.48.91c-1.45.51-2.22.89-2.24.84a3.6,3.6,0,0,1,.55-.29,11.86,11.86,0,0,1,1.63-.72,18.05,18.05,0,0,1,6.55-1.07,22,22,0,0,1,4.64.56,25,25,0,0,1,5.1,1.82,26.67,26.67,0,0,1,9.7,8h-.39a45.1,45.1,0,0,0,5.14-6.6,59,59,0,0,0,6.27-14.14,119.16,119.16,0,0,0,2.9-12.36c.66-3.56,1.07-6.47,1.39-8.47.15-1,.28-1.73.37-2.3A3.59,3.59,0,0,1,350,289.43Z"/><polygon class="cls-9" points="350.85 290.06 341.22 277.29 330.75 277.62 296.73 295.59 350.85 290.06"/><path class="cls-8" d="M306,325.86a2.53,2.53,0,0,1-.55,0,11.68,11.68,0,0,1-1.57-.26,19.36,19.36,0,0,1-5.37-2.3,11.66,11.66,0,0,0-3.65-1.51,10.76,10.76,0,0,0-4.52,0,10.55,10.55,0,0,0-7.55,6.57l-.54,1.46V327c.12-7.88.13-15,.45-20.19.15-2.58.35-4.67.57-6.1.09-.72.2-1.27.28-1.64a2.7,2.7,0,0,1,.14-.56c.05,0-.09.79-.22,2.23s-.3,3.51-.4,6.09c-.23,5.16-.17,12.29-.3,20.18v1.23l-.5-.1a11,11,0,0,1,7.94-6.85,11.19,11.19,0,0,1,8.44,1.67,21,21,0,0,0,5.24,2.42C305.23,325.76,306,325.81,306,325.86Z"/><path class="cls-12" d="M341.22,215.45v76.7a18.67,18.67,0,0,1-4.37,12h0a56.6,56.6,0,0,1-15.4,12.75L306,325.61l-12.8-11.46A18.64,18.64,0,0,1,287,301c-.22-5.58-.22-11.21-.22-11.21s-21.67-1.56-23.71-22.93c-1-10.06-1.26-30.67-1.31-49.67a41.58,41.58,0,0,1,38.15-41.53l.61,0a39.74,39.74,0,0,1,40.69,38.77C341.21,214.73,341.22,215.09,341.22,215.45Z"/><path class="cls-13" d="M286.72,289.47s13.61,0,27.24-10.24c0,0-5.32,15.94-26.83,15.78Z"/><path class="cls-8" d="M269,231.54a3.07,3.07,0,0,0,3.2,2.84,2.93,2.93,0,0,0,2.92-2.94v-.06a3.06,3.06,0,0,0-3.19-2.84,2.93,2.93,0,0,0-2.93,2.93Z"/><path class="cls-8" d="M267.22,225.8c.41.36,2.58-1.54,5.87-1.8s5.84,1.18,6.16.75c.16-.2-.28-.88-1.4-1.56a8.32,8.32,0,0,0-5-1.09,8,8,0,0,0-4.63,1.93C267.3,224.89,267,225.63,267.22,225.8Z"/><path class="cls-8" d="M300.24,230.21a3.07,3.07,0,0,0,3.2,2.84,3,3,0,0,0,2.93-3v0a3.07,3.07,0,0,0-3.2-2.84,2.93,2.93,0,0,0-2.93,2.95Z"/><path class="cls-8" d="M299.59,223.74c.41.36,2.59-1.54,5.87-1.8s5.84,1.18,6.16.74c.16-.19-.28-.88-1.4-1.55a8.42,8.42,0,0,0-5-1.1,8,8,0,0,0-4.63,1.93C299.67,222.82,299.37,223.57,299.59,223.74Z"/><path class="cls-8" d="M289.67,249.15c0-.19-2.07-.38-5.42-.53-.84,0-1.65-.11-1.84-.67a4.27,4.27,0,0,1,.35-2.54c.63-2.1,1.28-4.29,2-6.6,2.69-9.39,4.57-17.08,4.19-17.18s-2.87,7.42-5.56,16.8c-.65,2.32-1.27,4.52-1.85,6.63a4.78,4.78,0,0,0-.16,3.33,2.09,2.09,0,0,0,1.48,1.12,5.78,5.78,0,0,0,1.44.08C287.61,249.45,289.68,249.29,289.67,249.15Z"/><path class="cls-8" d="M299.54,250.58c-.54,0-.25,3.58-3.1,6.37s-6.67,2.71-6.66,3.21c0,.22.91.62,2.52.53a8.92,8.92,0,0,0,5.57-2.48,7.78,7.78,0,0,0,2.37-5.32C300.25,251.39,299.78,250.54,299.54,250.58Z"/><path class="cls-8" d="M297.67,210.92c.4.87,3.65.17,7.54.32s7.11.94,7.55.09c.2-.4-.41-1.19-1.74-2a13.12,13.12,0,0,0-11.5-.31C298.15,209.75,297.5,210.51,297.67,210.92Z"/><path class="cls-8" d="M267.64,216.15c.64.7,2.84-.26,5.56-.52s5.07.08,5.54-.74c.2-.4-.22-1.12-1.29-1.74a7.76,7.76,0,0,0-4.63-.85,7.59,7.59,0,0,0-4.31,1.87C267.61,215,267.37,215.84,267.64,216.15Z"/><path class="cls-8" d="M316.05,193.91l.12.08a17,17,0,0,1,7.2,10.37l.09.43c1.34,6,1.71,12.25,3.11,18.27s1.14,10.62,7.17,12a8,8,0,0,0,8.39-3.41,5.15,5.15,0,0,0,.53-2.86c-.07-14.82,2.91-20.58,1.6-36A13,13,0,0,0,338,182.67c-3.42-2-7.56-4.12-11-2.13s-7.53,9.09-10.08,12.17"/><path class="cls-12" d="M334.8,225.72c.36-.18,14.34-5.56,15.09,9.11s-14.14,12.38-14.18,12S334.8,225.72,334.8,225.72Z"/><path class="cls-13" d="M339.91,241c.06,0,.26.17.7.34a2.53,2.53,0,0,0,1.91-.06c1.52-.64,2.7-3.17,2.64-5.82a8.56,8.56,0,0,0-.9-3.62,2.94,2.94,0,0,0-2-1.86,1.29,1.29,0,0,0-1.47.78c-.18.42-.07.7-.15.73s-.32-.23-.24-.84a1.62,1.62,0,0,1,.53-.95,2,2,0,0,1,1.4-.44,3.61,3.61,0,0,1,2.78,2.14,8.74,8.74,0,0,1,1.09,4c.06,3-1.31,5.8-3.4,6.52a2.76,2.76,0,0,1-2.36-.27C340,241.36,339.86,241,339.91,241Z"/><path class="cls-8" d="M327.64,182.75c3.12-6.15-7.44-13.74-14.85-15.42s-16.63,2.63-23.61,5.61c-4.41,1.88-8.75,4.35-13.54,4.54-3.21.14-6.36-.77-9.47-1.59s-6.33-1.56-9.51-1.07-6.33,2.45-7.29,5.52,1.1,7,4.31,7.16c-4.23-1.89-9.85,1.51-10.12,6.14s4.88,8.68,9.31,7.33c-2.21-1.41-5.19,1.46-4.71,4s3,4.28,5.45,5.13c6.33,2.17,13.37.73,19.51-1.92s11.71-6.44,17.78-9.24,16.22-7.76,22.68-6.07c4.76,1.25,8.44,6.56,11,5.11a9,9,0,0,0,4.08-7,25.86,25.86,0,0,0-1-8.3"/><path class="cls-7" d="M251.88,187.24c.12-.08.84,1,2.56,2.6a20.19,20.19,0,0,0,8.56,4.55,18.61,18.61,0,0,0,13.9-1.71c4.79-2.64,8.68-7.46,13.23-12.06s10.05-8.26,15.79-9.26S317.1,172,320.3,175a12.86,12.86,0,0,1,4.11,9.18A10.23,10.23,0,0,1,324,187c-.22.59-.36.89-.41.87a22.85,22.85,0,0,0,.25-3.6,12.68,12.68,0,0,0-4.22-8.44c-3-2.7-8.14-4.15-13.46-3.13s-10.57,4.44-15,9-8.47,9.45-13.6,12.21a20,20,0,0,1-23.51-3.61,14.16,14.16,0,0,1-1.71-2.15C252,187.56,251.84,187.27,251.88,187.24Z"/><path class="cls-7" d="M338.48,224.78c-.05.05-.67-.35-1.32-1.47a9.77,9.77,0,0,1-1.16-5.24c-.07-4.74,3.68-10.14,3.67-16.69a14.86,14.86,0,0,0-2.34-8.6,11.3,11.3,0,0,0-5.83-4.25,9.53,9.53,0,0,0-4.94-.26c-1.16.29-1.76.61-1.83.5s.48-.56,1.67-1a9.22,9.22,0,0,1,5.38-.19,11.93,11.93,0,0,1,6.64,4.47,15.57,15.57,0,0,1,2.7,9.38,26.94,26.94,0,0,1-2.06,9.45,27.59,27.59,0,0,0-2,7.29C336.6,222.48,338.68,224.69,338.48,224.78Z"/><rect class="cls-8" x="331.15" y="235.09" width="17.43" height="7.53" rx="2.14" transform="translate(-66.34 325.79) rotate(-47.18)"/><path class="cls-8" d="M429.43,360.32a4.36,4.36,0,0,0,.06.59c.06.39.07,1,.13,1.72.11,1.53.26,3.78.47,6.7.4,5.88,1,14.47,1.71,25.36s1.57,24.08,2.57,39.15q.36,5.66.76,11.65c.15,2,.23,4,.32,6.1.05,1,.05,2.07,0,3.11a30.22,30.22,0,0,1-.17,3.15l-.39,3.18c-.23,1.05-.46,2.11-.68,3.17a30.69,30.69,0,0,1-1,3.13,16.31,16.31,0,0,1-1.38,3c-2.1,3.89-5.37,7.53-9.91,9H292.69l.09-.33c1-3.38,1.89-6.72,2.82-10.05q.7-2.49,1.39-5a36,36,0,0,0,1.16-4.93,21.51,21.51,0,0,0-.86-9.82A12.16,12.16,0,0,0,295,445a6.93,6.93,0,0,0-4-2.35l-2.05-.32,2-.17,37-3.1h-.11a12.61,12.61,0,0,1,8-2.45,15.91,15.91,0,0,1,7.71,2.46h-.17l31.33-5.9-.14.24a12.82,12.82,0,0,1-.54-3.69,28.38,28.38,0,0,1,.1-3.57,53.12,53.12,0,0,1,1-6.76v.12c-2.51-4.69-4.81-9-6.94-12.94v-.06c-.49-11.53-.67-20.62-.58-26.82,0-3.1.15-5.48.31-7.08a10.86,10.86,0,0,1,.27-1.8c.09-.4.14-.6.14-.6a2.83,2.83,0,0,1-.1.61,12,12,0,0,0-.23,1.8c-.14,1.6-.23,4-.24,7.07,0,6.2.18,15.29.71,26.81v-.06c2.13,3.95,4.45,8.23,7,12.91h0v.06a55,55,0,0,0-.95,6.76,29.89,29.89,0,0,0-.09,3.54,12.41,12.41,0,0,0,.53,3.58l.06.2h-.2l-31.32,6h-.08l-.08-.05a15.44,15.44,0,0,0-7.48-2.36,12.07,12.07,0,0,0-7.67,2.37h-.12L291,442.57v-.49a7.35,7.35,0,0,1,4.32,2.5,12.61,12.61,0,0,1,2.44,4.4,22,22,0,0,1,.89,10,35.91,35.91,0,0,1-1.17,5c-.46,1.65-.93,3.32-1.39,5q-1.41,5-2.81,10l-.25-.33h31l97.83.07h0a15,15,0,0,0,5.67-3.5,21.31,21.31,0,0,0,3.95-5.29c.53-1,.91-2,1.36-3a26.48,26.48,0,0,0,1-3.09c.32-1,.45-2.09.68-3.13s.26-2.11.39-3.15.17-2.08.18-3.12.05-2.06,0-3.09c-.09-2-.16-4.07-.31-6.07q-.37-6-.74-11.66c-1-15.07-1.79-28.27-2.48-39.17S430.33,375,430,369.14c-.17-2.92-.31-5.18-.4-6.71,0-.75-.07-1.32-.09-1.72S429.43,360.32,429.43,360.32Z"/><path class="cls-8" d="M401.11,305.83c-.58.4-1.17.77-1.78,1.11a41,41,0,0,0-4.63,3.32,54.23,54.23,0,0,0-12,14.34,117.1,117.1,0,0,0-8,17l-2.08,5.32-.58,1.45a2.75,2.75,0,0,1-.23.49,2,2,0,0,1,.13-.53c.13-.39.3-.88.49-1.48.44-1.28,1.08-3.12,1.93-5.39a106.84,106.84,0,0,1,7.89-17.15A51.92,51.92,0,0,1,394.45,310a35.67,35.67,0,0,1,4.76-3.2c.58-.35,1.07-.56,1.38-.72A2.33,2.33,0,0,1,401.11,305.83Z"/><g class="cls-14"><path d="M362,344a66.27,66.27,0,0,0-5.6,29.91c.38,10.16,1.6,20.35.6,30.48s-4.51,20.46-12.06,27.27a9.57,9.57,0,0,0-2.44,2.71,2.75,2.75,0,0,0,.47,3.35,4,4,0,0,0,3.14.33c7.23-1.26,14.55-2.16,21.79-3.41,1.55-.27,6.76-1.29,6.76-1.29a28.07,28.07,0,0,1-.44-6c.23-1.81.94-8,.94-8a10.54,10.54,0,0,0-1.39-2.58,59.29,59.29,0,0,1-6-15.39c-2.47-5-3.58-10.13-4.73-14.85-3.17-13.11-3.08-26-1.06-42.61"/></g><g class="cls-14"><path d="M282.7,329.09c.59,1.5,1.19,3,1.78,4.51a1.81,1.81,0,0,0,.86,1.13c.89.34,1.6-.75,2-1.61a11.54,11.54,0,0,1,8.87-6.23c3-.35,6.16.53,9.15-.09a40.54,40.54,0,0,0-8.26-4.11,13.7,13.7,0,0,0-9.07-.09,8.35,8.35,0,0,0-5.47,6.83"/></g><g class="cls-14"><path d="M307.42,325.3a48.37,48.37,0,0,1,10.59,1,16.5,16.5,0,0,1,9.07,5.22c2.42,3,3.32,6.82,4.3,10.5.19.71.53,1.55,1.25,1.63a1.79,1.79,0,0,0,1.2-.47c6-4.4,9.94-11.13,12.1-18.23s2.66-14.58,2.78-22c-2.86,5.11-4.1,10.93-6,16.47s-4.67,11.12-9.57,14.32a4.81,4.81,0,0,0-1.12-3.51,10.59,10.59,0,0,0-2.91-2.38,27.77,27.77,0,0,0-22.26-2.73"/></g><path class="cls-12" d="M291.88,443.09H279.63s-27.63-10-33.31-9c-5.12.86-23.85,13.3-27.52,15.77a2.31,2.31,0,0,0-.89,1.13h0a4,4,0,0,0,2.24,5.1l.38.16-.16.56a6.28,6.28,0,0,0-.29,2.24,2.7,2.7,0,0,0,5,1.16l-.7,1.26a3,3,0,0,0-.39,1.68l.06,1.13a3.08,3.08,0,0,0,2.12,2.76h0a3.08,3.08,0,0,0,3.2-.89c2.38-2.61,7.51-7.84,11-8.42a79.56,79.56,0,0,1,11.34-.57,3.86,3.86,0,0,1,3.57,2.45h0c-2.06.15-16.42,7.64-21.5,10.32a5.39,5.39,0,0,0-2.95,4.09c-.19,1.59.61,3.25,3.76,2.52,6.75-1.58,18.9-7.16,18.9-7.16s6.26-1.79,10.32,1.07c5.71,4,8.33,5.51,13.23,3.88a41.91,41.91,0,0,0,8.52-4l9.66-1S304.37,446.59,291.88,443.09Z"/><path class="cls-13" d="M255.37,447.75c0,.11-2-.51-5.19-.72a26.79,26.79,0,0,0-22.33,9.53,49.29,49.29,0,0,0-3.07,4.25,5.57,5.57,0,0,1,.61-1.28,22.49,22.49,0,0,1,2.17-3.2,25.91,25.91,0,0,1,22.65-9.66,23.5,23.5,0,0,1,3.81.64A6.65,6.65,0,0,1,255.37,447.75Z"/><path class="cls-13" d="M252.47,441a21,21,0,0,0-18,2.62,50.19,50.19,0,0,0-10.1,8.57l-2.78,2.92a7.7,7.7,0,0,1-1.06,1,8.63,8.63,0,0,1,.91-1.18c.61-.74,1.51-1.79,2.66-3.06a46.37,46.37,0,0,1,10.13-8.77,23,23,0,0,1,12.85-3.48,15.6,15.6,0,0,1,4,.74,9.4,9.4,0,0,1,1,.39Z"/></g><g id="freepik--speech-bubble--inject-15"><path class="cls-6" d="M412,163.26a40.87,40.87,0,0,0-33.54,64.27l-4.91,15.25,15-5.11A40.89,40.89,0,1,0,412,163.26Z"/><path class="cls-8" d="M401.21,203.83a3.53,3.53,0,1,1-3.43-3.63h0A3.54,3.54,0,0,1,401.21,203.83Z"/><path class="cls-8" d="M415.37,204.26a3.53,3.53,0,1,1-3.43-3.63h0A3.54,3.54,0,0,1,415.37,204.26Z"/><path class="cls-8" d="M429.44,202.92a3.53,3.53,0,1,1-4.78-1.43h0a3.51,3.51,0,0,1,4.76,1.43Z"/><path class="cls-8" d="M413.25,163a2.81,2.81,0,0,1,.71,0l2.1.12a7.64,7.64,0,0,1,1.54.11l1.84.32,2.15.37,2.39.67A39.43,39.43,0,0,1,435.5,170a41.2,41.2,0,0,1,18,31.55,44.38,44.38,0,0,1,0,5.65c-.1.95-.11,1.92-.28,2.88s-.35,1.92-.52,2.9a41.86,41.86,0,0,1-4.33,11.38,44.59,44.59,0,0,1-7.82,10.1,43.47,43.47,0,0,1-11.05,7.45,39.55,39.55,0,0,1-13.3,3.65,26,26,0,0,1-3.53.19,35.23,35.23,0,0,1-3.56,0,42.52,42.52,0,0,1-7.09-1.11,41.8,41.8,0,0,1-14-6.4l.43.06-14.61,5.36L373,244l.27-.88L378,227.81l.06.38a41.26,41.26,0,0,1-7.17-17.86,37.14,37.14,0,0,1-.29-9.06,28.5,28.5,0,0,1,.54-4.32l.39-2.11c.15-.69.38-1.35.57-2a41.27,41.27,0,0,1,16.81-23,39.32,39.32,0,0,1,9.74-4.77l2.18-.71,2.07-.46,1.89-.4c.6-.1,1.18-.15,1.73-.21,1.1-.11,2.06-.27,2.9-.28h3.42a1.62,1.62,0,0,1,.44,0,1.62,1.62,0,0,1-.44,0l-1.29.07-2.13.07a28.1,28.1,0,0,0-2.87.35A41,41,0,0,0,372.75,193c-.17.66-.4,1.32-.54,2s-.25,1.38-.38,2.07a27.55,27.55,0,0,0-.51,4.25,37.09,37.09,0,0,0,.32,8.87,40.75,40.75,0,0,0,7.08,17.49l.13.17-.07.21q-2.26,7.42-4.67,15.32l-.6-.57,14.61-5.37.23-.09.2.14a40.72,40.72,0,0,0,20.61,7.33,31.09,31.09,0,0,0,3.48.05,26.35,26.35,0,0,0,3.44-.19,38.45,38.45,0,0,0,13-3.55,42.76,42.76,0,0,0,10.83-7.27,43.48,43.48,0,0,0,7.67-9.87,40.65,40.65,0,0,0,4.22-11.13c.18-1,.35-1.9.53-2.83s.18-1.9.28-2.83a44.7,44.7,0,0,0,.08-5.55,40.81,40.81,0,0,0-17.52-31.16,39.41,39.41,0,0,0-11.34-5.53l-2.36-.7-2.12-.42-1.82-.35c-.56-.08-1.08-.11-1.53-.16l-2.08-.22C413.69,163.05,413.47,163,413.25,163Z"/></g><g id="freepik--Device--inject-15"><path class="cls-8" d="M119.11,486,85.93,402.67a10.88,10.88,0,0,1,10.08-15H199.37a10.89,10.89,0,0,1,10.31,7.39l28.5,84,33.29.16c2.7,0,4.89,4,4.89,6.67h0l-36.64-.42Z"/><path class="cls-4" d="M166.89,440.24a6.72,6.72,0,1,1-6.73-6.71h0A6.73,6.73,0,0,1,166.89,440.24Z"/></g><g id="freepik--Desk--inject-15"><path class="cls-8" d="M491.66,485.47c0,.14-67.46.26-237,.26s-237-.12-237-.26,67.43-.26,237-.26S491.66,485.32,491.66,485.47Z"/></g><g id="freepik--Plant--inject-15"><path class="cls-9" d="M39,451.15c-9.78-5.67-15-18.86-15.4-29.66s4.1-22.05,13-28.24c9.32-6.52,22.6-6.4,32.18-.27S84,410.7,83.57,422.07s-6.63,22.22-15.79,29"/><path class="cls-6" d="M54.64,452.15a12.78,12.78,0,0,1-.18-2.47c-.05-1.77-.12-4-.19-6.73-.15-5.69-.37-13.54-.75-22.2s-.85-16.51-1.21-22.18c-.16-2.71-.29-5-.4-6.73a11.33,11.33,0,0,1,0-2.47,12.54,12.54,0,0,1,.39,2.44c.19,1.58.43,3.87.69,6.71.52,5.66,1.09,13.51,1.47,22.19s.5,16.54.48,22.23c0,2.84,0,5.15-.1,6.74A13.65,13.65,0,0,1,54.64,452.15Z"/><path class="cls-8" d="M26.52,419c0,.25-1.58.33-3.48.17s-3.43-.49-3.41-.74,1.58-.33,3.48-.17S26.54,418.78,26.52,419Z"/><path class="cls-8" d="M27.06,409.34c-.11.23-1.45-.14-3-.83s-2.73-1.44-2.63-1.67,1.45.14,3,.83S27.16,409.15,27.06,409.34Z"/><path class="cls-8" d="M32,402.15c-.13.21-1.64-.5-3.22-1.8s-2.55-2.66-2.37-2.82,1.43.85,3,2.11S32.18,401.94,32,402.15Z"/><path class="cls-8" d="M37.05,395.37c-.23.1-1-1-1.62-2.53s-1-2.8-.78-2.9,1,1,1.62,2.53S37.28,395.27,37.05,395.37Z"/><path class="cls-8" d="M44.92,390.56c-.23.1-1-1.1-1.53-2.77s-.56-3.11-.32-3.15.69,1.27,1.2,2.87S45.15,390.45,44.92,390.56Z"/><path class="cls-8" d="M58,385.15c.24.09.09,1.12-.33,2.3s-1,2.08-1.19,2-.09-1.12.33-2.3S57.8,385.05,58,385.15Z"/><path class="cls-8" d="M67.77,389.31c.17.19-.45,1-1.39,1.91s-1.85,1.43-2,1.25.45-1.05,1.39-1.92S67.6,389.15,67.77,389.31Z"/><path class="cls-8" d="M76.37,394.84c.14.21-.62,1-1.7,1.71s-2.08,1.15-2.22.94.62-1,1.7-1.7S76.2,394.63,76.37,394.84Z"/><path class="cls-8" d="M82.42,403.09c.1.24-1.1,1-2.68,1.64s-2.94,1-3,.8,1.1-1,2.68-1.64S82.37,402.86,82.42,403.09Z"/><path class="cls-8" d="M84.82,412.09c0,.25-1.19.61-2.73.8s-2.81.14-2.84-.11,1.19-.61,2.73-.8S84.79,411.84,84.82,412.09Z"/><path class="cls-8" d="M86.06,423.15c-.1.23-1.4-.11-2.9-.77s-2.64-1.37-2.54-1.6,1.4.11,2.9.76S86.16,422.93,86.06,423.15Z"/><path class="cls-8" d="M85,432.67c-.08.23-1.73-.16-3.45-1.29s-2.74-2.47-2.56-2.64,1.44.82,3.06,1.87S85.06,432.42,85,432.67Z"/><path class="cls-8" d="M80,441.32c-.15.2-1.46-.57-2.72-1.93s-1.93-2.71-1.72-2.85,1.19.93,2.39,2.23S80.18,441.15,80,441.32Z"/><path class="cls-8" d="M33,442.34c.12.22-1.26,1.17-3.07,2.11s-3.38,1.53-3.49,1.3,1.25-1.17,3.07-2.11S32.91,442.15,33,442.34Z"/><path class="cls-8" d="M28.74,434.51c.1.23-1,1-2.46,1.62s-2.74,1-2.84.79,1-1,2.46-1.62S28.63,434.28,28.74,434.51Z"/><path class="cls-8" d="M25.58,427.58c0,.25-1.32.65-3,.89s-3.12.24-3.16,0,1.33-.65,3-.89S25.55,427.33,25.58,427.58Z"/><path class="cls-8" d="M35.93,423.76c.08.24-1.25.85-3,1.05s-3.19-.11-3.17-.35,1.39-.37,3.07-.56S35.86,423.51,35.93,423.76Z"/><path class="cls-8" d="M44.53,415.21c.07.23-1,.77-2.4.9s-2.56-.17-2.53-.42,1.12-.36,2.44-.49S44.45,415,44.53,415.21Z"/><path class="cls-8" d="M46.17,408.35c-.08.24-1.22.07-2.55-.39s-2.33-1-2.24-1.26,1.22-.07,2.54.39S46.25,408.15,46.17,408.35Z"/><path class="cls-8" d="M49.37,401.42c-.17.18-1-.34-1.51-1.31s-.62-1.91-.38-2,.67.65,1.17,1.51S49.51,401.25,49.37,401.42Z"/><path class="cls-8" d="M45.52,429.79c.06.25-.92.7-2.2,1a8.35,8.35,0,0,1-1.85.27l-.19-.54c.34-.06.55,0,.59.06s-.09.26-.36.46l-.18-.53a7.89,7.89,0,0,1,1.77-.61C44.37,429.6,45.46,429.55,45.52,429.79Z"/><path class="cls-8" d="M47.29,441.94c.1.24-1.16.95-2.81,1.6s-3,1-3.14.74,1.16-.95,2.81-1.59S47.2,441.71,47.29,441.94Z"/><path class="cls-8" d="M37.58,436.55c.08.24-.75.74-1.87,1.12s-2.09.49-2.17.25.76-.74,1.87-1.12S37.5,436.31,37.58,436.55Z"/><path class="cls-8" d="M38.37,411.82c-.06.24-1.52.1-3.21-.51s-2.92-1.4-2.81-1.62,1.47.18,3.11.76S38.37,411.57,38.37,411.82Z"/><path class="cls-8" d="M61.83,409.15c.14.21-.69,1-1.84,1.76s-2.21,1.21-2.34,1,.68-1,1.83-1.76S61.69,408.92,61.83,409.15Z"/><path class="cls-8" d="M63.1,421.33c.06.25-.81.64-1.93.87s-2.06.22-2.12,0,.82-.64,1.94-.87S63.05,421.08,63.1,421.33Z"/><path class="cls-8" d="M64.59,435.05c-.11.23-1.35-.12-2.78-.79s-2.51-1.38-2.4-1.61,1.35.12,2.78.78S64.7,434.82,64.59,435.05Z"/><path class="cls-8" d="M61.45,448.4c-.2.16-1-.5-1.81-1.47s-1.29-1.9-1.1-2.06,1,.5,1.81,1.47S61.64,448.24,61.45,448.4Z"/><path class="cls-8" d="M60.8,400.15c.16.19-.38.86-1.29,1.32s-1.77.49-1.84.25.6-.65,1.43-1.07S60.65,399.94,60.8,400.15Z"/><path class="cls-8" d="M72.37,412.45c.08.23-1,.82-2.44,1s-2.64-.07-2.62-.31,1.14-.4,2.49-.6S72.24,412.21,72.37,412.45Z"/><path class="cls-8" d="M70,401.41c.11.22-1,1-2.45,1.45s-2.81.48-2.84.24,1.13-.65,2.56-1.11S69.91,401.15,70,401.41Z"/><path class="cls-8" d="M74.83,429.56c0,.25-1.81.41-4,0s-3.82-1.18-3.74-1.41,1.8.13,3.9.5S74.84,429.3,74.83,429.56Z"/><path class="cls-8" d="M70.55,445.6c-.15.2-1.48-.58-2.81-1.92s-2.11-2.67-1.91-2.82,1.27.88,2.56,2.17S70.71,445.4,70.55,445.6Z"/><path class="cls-6" d="M51.74,388.35c.13.2-3.66,1.73-8,6.35a39.2,39.2,0,0,0-10,22.12,49.65,49.65,0,0,0,.6,13.55,104.44,104.44,0,0,0,2.54,10.87c.88,3.06,1.69,5.52,2.23,7.22a19,19,0,0,1,.77,2.67,15.14,15.14,0,0,1-1.11-2.55c-.64-1.67-1.55-4.1-2.51-7.15a91.34,91.34,0,0,1-2.75-10.92,48,48,0,0,1-.68-13.8c1.13-9.85,5.86-18,10.45-22.46a28.71,28.71,0,0,1,6-4.69,18.15,18.15,0,0,1,1.84-1A2,2,0,0,1,51.74,388.35Z"/><path class="cls-6" d="M64.23,451.72c-.2-.1,2.06-3.58,4.12-9.85a55.7,55.7,0,0,0,2.46-25.3,47.75,47.75,0,0,0-3.9-13.5,31.92,31.92,0,0,0-6.65-9.26,24.14,24.14,0,0,0-6.52-4.12c-1.7-.71-2.71-.88-2.7-1a2.11,2.11,0,0,1,.75.05,13.9,13.9,0,0,1,2.08.56,22.75,22.75,0,0,1,6.82,4,31.34,31.34,0,0,1,7,9.39,46.61,46.61,0,0,1,4,13.73,53.68,53.68,0,0,1-2.76,25.65c-.51,1.58-1.18,2.93-1.68,4.16a24.26,24.26,0,0,1-1.52,3A17,17,0,0,1,64.23,451.72Z"/><polygon class="cls-8" points="28.74 449.55 79.25 449.55 79.56 459.66 28.74 459.66 28.74 449.55"/><polygon class="cls-8" points="33.03 454.6 35.93 485.47 72.86 485.47 75.83 454.94 33.03 454.6"/><path class="cls-7" d="M79.56,459.78c0,.25-11.37.46-25.4.46s-25.41-.21-25.41-.46,11.37-.46,25.41-.46S79.56,459.53,79.56,459.78Z"/><path class="cls-7" d="M74.43,469.15a7.53,7.53,0,0,1-1.06,2,29.38,29.38,0,0,1-3.92,4.63l-.23.22-.23-.24a74.17,74.17,0,0,0-9.9-8.67h.56l-4.39,3.85-5.19,4.52-.29.25-.29-.25-8.43-7.09.49-.05-4.36,5.32a12.27,12.27,0,0,1-1.72,1.88,12.93,12.93,0,0,1,1.41-2.11L41,467.89l.21-.28.28.23,8.56,6.94h-.57l5.16-4.54,4.41-3.84.27-.23.29.21a65.27,65.27,0,0,1,9.85,8.94H69A53,53,0,0,0,74.43,469.15Z"/></g></svg>