<svg id="freepik_stories-stress" data-name="freepik stories-stress" xmlns="http://www.w3.org/2000/svg" viewBox="0 0 500 500"><defs><style>.cls-1{fill:#f5f5f5;}.cls-2{fill:#e0e0e0;}.cls-3{fill:#ebebeb;}.cls-4{fill:#fafafa;}.cls-5{fill:#455a64;}.cls-6{fill:#ffbe9d;}.cls-7{fill:#263238;}.cls-8{fill:#eb996e;}.cls-9{fill:#0966e5;}.cls-10{opacity:0.3;}.cls-11{fill:#fff;}</style></defs><title>Live help 05</title><g id="freepik--background-complete--inject-84"><path class="cls-1" d="M387.7,424.84c-16.4-11.46-20.13-32.69-19.47-51.85.1-3.16-.25-6.56,1.27-9.35s5.06-4.72,7.92-3.38c2.37,1.12,3.4,3.87,4.73,6.16a18.58,18.58,0,0,0,7.49,7.14c2,1.06,4.54,1.71,6.55.6,2.75-1.51,3.08-5.32,3.05-8.5q0-8.88-.1-17.75a29.72,29.72,0,0,1,.95-9.43c1-3,3.16-5.81,6.19-6.65s6.76.9,7.38,4a30.5,30.5,0,0,1,.1,3.94c.08,1.32.69,2.79,1.95,3.17s2.53-.53,3.48-1.46c3.28-3.16,5.5-7.38,7.58-11.44s4.09-8.3,7.07-11.8,7.09-6.27,11.6-6.52,9.39,2.54,10.55,7-1.46,9-4.31,12.66a70.82,70.82,0,0,1-14.76,14.06,5.87,5.87,0,0,0-2.47,2.65c-.69,2.11,1.32,4.22,3.41,4.92,2.37.78,4.93.54,7.38.83s5.16,1.38,6.09,3.72c1.3,3.24-1.42,6.65-4.09,8.87a60.43,60.43,0,0,1-17.93,10.37c-2.33.86-4.78,1.61-6.67,3.25s-3,4.49-1.88,6.73,4.05,2.95,6.5,2.5,4.64-1.78,7-2.67c4.35-1.64,10-1.34,12.78,2.43a10,10,0,0,1,1.06,8.89,23.28,23.28,0,0,1-4.81,7.83,61.06,61.06,0,0,1-26.06,18.32c-10.13,3.52-19.51,4.47-29.54.78"/><path class="cls-2" d="M387.45,439a139.68,139.68,0,0,1,5.18-26.17,285.4,285.4,0,0,1,11.3-30.59l3.37-7.87c1.11-2.59,2.22-5.14,3.45-7.59a142.2,142.2,0,0,1,7.89-13.57c2.72-4.22,5.45-8.1,8-11.72s5.07-6.94,7.46-9.87a112.67,112.67,0,0,1,12.29-13c1.56-1.43,2.82-2.48,3.67-3.17l1-.79a1.72,1.72,0,0,1,.35-.25,2.87,2.87,0,0,1-.31.29l-.93.85c-.84.73-2.11,1.81-3.61,3.26a120,120,0,0,0-12.12,13.08c-2.36,2.95-4.82,6.27-7.38,9.9s-5.28,7.52-8,11.73a143.65,143.65,0,0,0-7.83,13.56c-1.23,2.42-2.31,5-3.43,7.56l-3.36,7.87a292.13,292.13,0,0,0-11.32,30.59,140.9,140.9,0,0,0-5.27,26.05"/><path class="cls-2" d="M410.92,366.75a6.31,6.31,0,0,1-.32-1.35c-.17-.87-.36-2.11-.59-3.73-.44-3.17-.91-7.55-1.41-12.39s-1.06-9.2-1.53-12.35c-.24-1.58-.45-2.84-.61-3.72a6.36,6.36,0,0,1-.18-1.38,6.18,6.18,0,0,1,.4,1.33c.22.86.5,2.11.79,3.7.6,3.16,1.2,7.51,1.71,12.36s.92,9.09,1.24,12.39c.16,1.49.3,2.75.42,3.76A9.13,9.13,0,0,1,410.92,366.75Z"/><path class="cls-2" d="M451.73,359.12a9,9,0,0,1-1.63.21c-1.05.08-2.56.21-4.43.43-3.74.4-8.88,1.14-14.52,2.2s-10.71,2.26-14.34,3.23c-1.82.46-3.29.89-4.3,1.17a7.25,7.25,0,0,1-1.59.39,9.46,9.46,0,0,1,1.52-.61c1.05-.35,2.45-.83,4.22-1.35,3.61-1.06,8.68-2.33,14.34-3.41a140.6,140.6,0,0,1,14.59-2c1.87-.17,3.4-.24,4.46-.26A9.43,9.43,0,0,1,451.73,359.12Z"/><path class="cls-2" d="M393.14,412.1a3.28,3.28,0,0,1-.28-.49l-.7-1.48c-.6-1.29-1.42-3.16-2.41-5.51-2-4.67-4.48-11.22-7.16-18.47s-5.14-13.82-7-18.53l-2.2-5.57c-.24-.62-.44-1.11-.6-1.52a2.19,2.19,0,0,1-.17-.55,2,2,0,0,1,.28.49l.7,1.48c.6,1.29,1.42,3.17,2.4,5.51,2,4.68,4.49,11.22,7.17,18.48s5.13,13.82,7,18.53L392.4,410c.24.61.43,1.11.6,1.52A2.15,2.15,0,0,1,393.14,412.1Z"/><path class="cls-2" d="M447.37,394.63a2.11,2.11,0,0,1-.54.22l-1.57.52-5.81,1.89c-4.91,1.58-11.66,3.86-19.1,6.38s-14.23,4.74-19.16,6.24c-2.48.74-4.48,1.33-5.87,1.69l-1.61.43a1.9,1.9,0,0,1-.57.1,2.55,2.55,0,0,1,.54-.22l1.57-.53,5.81-1.87c4.9-1.6,11.6-3.87,19.1-6.4s14.23-4.73,19.16-6.22c2.48-.75,4.49-1.33,5.88-1.71l1.6-.42A2.28,2.28,0,0,1,447.37,394.63Z"/><path class="cls-2" d="M474,344.22a3.75,3.75,0,0,1-.42-.62l-1-1.7c-.89-1.45-2.11-3.5-3.59-6l.33.09-8.35,4.88c0,.07.19-.72.1-.38h0v.07l.08.14.16.3.34.57.64,1.11,1.25,2.18,2.26,4-.32-.08c2.49-1.4,4.58-2.56,6.08-3.38l1.76-.93a3,3,0,0,1,.68-.33,5.14,5.14,0,0,1-.54.37l-1.65,1.05c-1.44.89-3.54,2.16-6.09,3.66l-.21.12-.12-.2c-.71-1.23-1.5-2.55-2.31-4L461.78,343l-.65-1.12-.33-.57-.16-.29-.09-.14v-.07h0c-.08.33.13-.46.11-.37l8.44-4.82.2-.12.11.2c1.47,2.58,2.65,4.74,3.45,6.21.37.69.68,1.25.92,1.72A2.45,2.45,0,0,1,474,344.22Z"/><rect class="cls-2" x="145.91" y="61.63" width="10.2" height="50.75" transform="translate(-0.47 0.82) rotate(-0.31)"/><rect class="cls-3" x="57.48" y="61.8" width="26.42" height="28.02" transform="translate(-0.41 0.38) rotate(-0.31)"/><rect class="cls-1" x="83.76" y="61.66" width="26.42" height="28.02" transform="translate(-0.41 0.53) rotate(-0.31)"/><path class="cls-2" d="M57.45,69.62c17.55.15,35.15,0,52.73-.24a.28.28,0,0,0,.23-.33.28.28,0,0,0-.23-.23q-26.33-.13-52.73.32a.24.24,0,1,0,0,.48Z"/><rect class="cls-3" x="41.01" y="89.41" width="47.99" height="22.83" transform="matrix(1, -0.01, 0.01, 1, -0.54, 0.35)"/><rect class="cls-1" x="88.77" y="89.15" width="47.99" height="22.83" transform="translate(-0.54 0.61) rotate(-0.31)"/><path class="cls-2" d="M41,95.88c31.88.36,63.88,0,95.75-.47a.28.28,0,0,0,.23-.33.3.3,0,0,0-.23-.23c-31.88-.17-63.88-.15-95.75.55a.25.25,0,0,0-.25.24A.24.24,0,0,0,41,95.88Z"/><rect class="cls-2" x="23.02" y="112.39" width="185.93" height="8.18"/><rect class="cls-2" x="53.46" y="116.32" width="7.55" height="27.92"/><rect class="cls-2" x="166.14" y="116.32" width="7.55" height="27.92"/><rect class="cls-3" x="155.93" y="42.7" width="10.2" height="69.81" transform="translate(-0.42 0.87) rotate(-0.31)"/><rect class="cls-1" x="166.17" y="55.72" width="15.85" height="56.57" transform="translate(-0.45 0.94) rotate(-0.31)"/><path class="cls-2" d="M181.76,66.57a56.63,56.63,0,0,1-7.92.28,56.92,56.92,0,0,1-7.94-.28,58.49,58.49,0,0,1,7.94-.27A58.19,58.19,0,0,1,181.76,66.57Z"/><path class="cls-2" d="M181.76,64.24a58.2,58.2,0,0,1-7.92.28,58.49,58.49,0,0,1-7.94-.28,56.91,56.91,0,0,1,7.94-.27A56.63,56.63,0,0,1,181.76,64.24Z"/><path class="cls-2" d="M181.76,103.73a55.15,55.15,0,0,1-7.92.29,55.43,55.43,0,0,1-7.94-.29,58.49,58.49,0,0,1,7.94-.27A58.19,58.19,0,0,1,181.76,103.73Z"/><path class="cls-2" d="M181.76,101.36a55.14,55.14,0,0,1-7.92.27,55.42,55.42,0,0,1-7.94-.27,60.16,60.16,0,0,1,7.94-.28A58.2,58.2,0,0,1,181.76,101.36Z"/><path class="cls-2" d="M174.06,96.18c-.15,0-.28-5.72-.28-12.75s.13-12.75.28-12.75.27,5.7.27,12.75S174.24,96.18,174.06,96.18Z"/><rect class="cls-3" x="181.92" y="69.57" width="17.25" height="42.7"/><path class="cls-4" d="M191.05,101.16a3.71,3.71,0,0,1-3.86-3.56,1.4,1.4,0,0,1,0-.29,3.33,3.33,0,0,1,1.39-2.88l.4.54a2.79,2.79,0,0,0-1.14,2.34,3.2,3.2,0,0,0,6.4,0A2.74,2.74,0,0,0,193.1,95l.41-.54a3.39,3.39,0,0,1,1.39,2.88,3.72,3.72,0,0,1-3.57,3.85Z"/><path class="cls-4" d="M193.93,93.42l-.59-.34a4.42,4.42,0,0,0,.91-2.73c0-1.61-.55-2.25-1.42-2.25-2.2,0-.58,5-3.56,5-1.15,0-2.11-1-2.11-2.89a4.64,4.64,0,0,1,.73-2.59l.59.32a3.92,3.92,0,0,0-.68,2.29c0,1.49.61,2.11,1.42,2.11,2.28,0,.67-5,3.57-5,1.23,0,2.11,1.06,2.11,3A4.83,4.83,0,0,1,193.93,93.42Z"/><path class="cls-4" d="M193.93,86.47l-.59-.34a4.39,4.39,0,0,0,.91-2.74c0-1.6-.55-2.24-1.42-2.24-2.2,0-.58,5-3.56,5-1.15,0-2.11-1-2.11-2.88a4.67,4.67,0,0,1,.73-2.6l.59.33a3.9,3.9,0,0,0-.68,2.29c0,1.48.61,2.11,1.42,2.11,2.28,0,.67-5,3.57-5,1.23,0,2.11,1.06,2.11,3A4.87,4.87,0,0,1,193.93,86.47Z"/><circle class="cls-2" cx="160.67" cy="54.6" r="2.93"/><rect class="cls-2" x="159.77" y="62.66" width="1.81" height="41.52"/><path class="cls-2" d="M390.78,307.07a105.76,105.76,0,0,1,7.65-8.05,109.88,109.88,0,0,1,8.05-7.66,109.84,109.84,0,0,1-7.67,8.05C394.47,303.74,390.88,307.17,390.78,307.07Z"/><path class="cls-2" d="M406.48,307.07q-4.22-3.63-8.05-7.66a107.66,107.66,0,0,1-7.65-8.05c.1-.1,3.7,3.32,8,7.66A106,106,0,0,1,406.48,307.07Z"/><path class="cls-2" d="M247.13,221.89a109.74,109.74,0,0,1,7.65-8,109.88,109.88,0,0,1,8-7.66,110.88,110.88,0,0,1-7.66,8C250.84,218.58,247.23,222,247.13,221.89Z"/><path class="cls-2" d="M262.83,221.89c-.11.1-3.71-3.32-8-7.66a109.74,109.74,0,0,1-7.65-8,109.74,109.74,0,0,1,8,7.66C259.49,218.23,262.94,221.78,262.83,221.89Z"/><path class="cls-2" d="M225.59,84.43a86.35,86.35,0,0,1-1.06-9.49,83.61,83.61,0,0,1-.55-9.49,81.82,81.82,0,0,1,1.1,9.49A79.19,79.19,0,0,1,225.59,84.43Z"/><path class="cls-2" d="M234.28,74.08a81.74,81.74,0,0,1-9.49,1.06,86,86,0,0,1-9.49.56,79.24,79.24,0,0,1,9.49-1.11A83.57,83.57,0,0,1,234.28,74.08Z"/><path class="cls-2" d="M137.53,188.7a2.23,2.23,0,0,1-.2-.3l-.51-.84-1.91-3.17-6.62-11.2.33.09L113,182.37c0,.08.19-.71.1-.37h0v.06l.08.14.15.26.31.54.62,1.06,1.2,2.11,2.32,4.05L122,197.6l-.33-.1L133,191.1l3.24-1.79.86-.47.33-.15a10.53,10.53,0,0,1-1.06.67l-3.16,1.87-11.34,6.69-.21.12-.12-.21-4.28-7.38-2.34-4-1.2-2.11-.62-1.06-.31-.53-.15-.27-.08-.13v-.07h0c-.09.33.12-.46.1-.38l15.72-9,.2-.12.11.2,6.49,11.52,1.76,3.16A10.9,10.9,0,0,1,137.53,188.7Z"/><path class="cls-2" d="M483,290.3a6.59,6.59,0,0,0-.48-.92,4.27,4.27,0,0,0-2.11-1.75,4.07,4.07,0,0,0-3.82.45,4,4,0,0,0,4.64,6.54,4.16,4.16,0,0,0,.81-.76,4.27,4.27,0,0,0,1-2.53c0-.67-.08-1.06,0-1.06a2,2,0,0,1,.24,1.06,4.17,4.17,0,0,1-.86,2.76,4.41,4.41,0,0,1-3.9,1.74,4.48,4.48,0,0,1-2.11-8.17,4.41,4.41,0,0,1,4.22-.39,4.24,4.24,0,0,1,2.11,2A2,2,0,0,1,483,290.3Z"/><path class="cls-2" d="M285.85,39.27c-.05,0-.14-.36-.48-.92a4.22,4.22,0,0,0-2.11-1.75,4.12,4.12,0,0,0-3.82.45,4,4,0,0,0,4.64,6.54,3.84,3.84,0,0,0,.8-.76,4.16,4.16,0,0,0,.95-2.53c0-.66-.07-1,0-1a2.26,2.26,0,0,1,.25,1,4.21,4.21,0,0,1-.87,2.76,4.42,4.42,0,0,1-3.9,1.75,4.49,4.49,0,0,1-2.11-8.18,4.44,4.44,0,0,1,4.22-.39,4.25,4.25,0,0,1,2.11,2A2.15,2.15,0,0,1,285.85,39.27Z"/><path class="cls-2" d="M89.68,160a8.36,8.36,0,0,0-.48-.92,4.22,4.22,0,0,0-2.11-1.75,4.07,4.07,0,0,0-3.82.45A4,4,0,0,0,85.16,165a4.07,4.07,0,0,0,3.55-1.48,4.31,4.31,0,0,0,1-2.53c0-.65-.08-1,0-1a2.13,2.13,0,0,1,.24,1,4.21,4.21,0,0,1-.85,2.78,4.4,4.4,0,0,1-3.87,1.7,4.46,4.46,0,1,1,2.11-8.56,4.32,4.32,0,0,1,2.11,2A2.26,2.26,0,0,1,89.68,160Z"/><path class="cls-2" d="M464.86,143.11c-.07,0-.24-.77-.93-2a8.94,8.94,0,0,0-8.44-4.49,8.75,8.75,0,0,0-4.35,1.56,7.76,7.76,0,0,0-1.85,1.72,8.74,8.74,0,0,0,1.3,12.28,8,8,0,0,0,2.25,1.34,8.37,8.37,0,0,0,2.45.6,8.87,8.87,0,0,0,4.57-.78,8.5,8.5,0,0,0,3.16-2.51,9,9,0,0,0,2-5.51c0-1.43-.24-2.2-.17-2.21a2.78,2.78,0,0,1,.17.56,7.62,7.62,0,0,1,.22,1.65,9.12,9.12,0,0,1-5.17,8.44,9.28,9.28,0,0,1-4.81.86,9,9,0,0,1-2.6-.61,8.45,8.45,0,0,1-2.4-1.42A9.21,9.21,0,0,1,447.44,142a8.5,8.5,0,0,1,1.42-2.39,8.24,8.24,0,0,1,2-1.81A9.13,9.13,0,0,1,464.08,141a7.84,7.84,0,0,1,.61,1.54A4.11,4.11,0,0,1,464.86,143.11Z"/><path class="cls-2" d="M436.44,276.63a10.33,10.33,0,0,1-.54-1l-1.58-2.9c-1.34-2.5-3.28-6.1-5.47-10.33l-.21-.41h.46l7.82.48L445,263h.44l-.24.37c-2.55,3.94-4.78,7.27-6.33,9.58l-1.8,2.68a8.11,8.11,0,0,1-.65.89s.23-.4.64-1.05,1.05-1.67,1.74-2.82c1.47-2.39,3.53-5.71,6-9.55l.2.4L436.9,263l-7.83-.51.25-.38c2.11,4.12,3.84,7.68,5.11,10.26l1.49,3A9.05,9.05,0,0,1,436.44,276.63Z"/><path class="cls-2" d="M362.9,77.47s-.19-.32-.56-1l-1.6-2.89c-1.34-2.5-3.28-6.11-5.48-10.34l-.21-.4h.46l7.82.5,8.11.54h.45l-.25.36c-2.55,3.93-4.79,7.26-6.33,9.57l-1.8,2.69a9.21,9.21,0,0,1-.64.9s.22-.4.63-1.06l1.73-2.81c1.49-2.4,3.53-5.71,6-9.5l.2.4-8.11-.5-7.82-.53.25-.37c2.11,4.11,3.84,7.68,5.1,10.25.61,1.25,1.1,2.26,1.49,3A11.28,11.28,0,0,1,362.9,77.47Z"/><path class="cls-2" d="M235.33,312.71a8.45,8.45,0,0,1,.6-.95l1.81-2.74c1.55-2.37,3.8-5.78,6.5-9.74l.21-.31.21.31,5,7.38,3.91,5.85.29.41h-.5c-5.27,0-9.88-.1-13.07-.15l-3.71-.07h-1.28s.53,0,1.43-.06l3.8-.06c3.22-.05,7.67-.14,12.83-.15l-.22.42L249.24,307c-1.78-2.62-3.46-5.14-5-7.45h.42c-2.65,3.81-4.95,7-6.61,9.37l-2,2.74A11.6,11.6,0,0,1,235.33,312.71Z"/></g><g id="freepik--Character--inject-84"><path class="cls-5" d="M334.07,307.26h0a66,66,0,0,1,66,66v76.57H268V373.27A66,66,0,0,1,334.07,307.26Z"/><path class="cls-6" d="M166.86,412.71l-6.64,4.71-7.38,17.73s2,1.35,3.55-.09,7.48-11.74,7.48-11.74v6.1a4.88,4.88,0,0,0,4.33,4.83l11,3.42,13.44-3.83,1.15-16Z"/><path class="cls-7" d="M286.24,294.83c-3.29-.95-4.9-4.71-5.2-8.12s.27-6.93-.66-10.22c-.66-2.34-2.06-4.49-2.24-6.92-.19-2.61,1.06-5.14,1.14-7.75.1-3.66-2.11-7.06-2.11-10.72-.07-5.06.84-13.42,5.9-13.14s13.17,9.16,12.53,14.18"/><path class="cls-6" d="M334.07,252.92,334,258l-1.06,75.68c-.11,8.79-7.76,15.69-17.17,15.49h0c-9.49-.2-17.22-7.55-17.24-16.43,0-9.33-.23-19.14-.23-19.14s-12-2-14.49-17.65c-1.24-7.79-.85-20.56-.19-31a16.55,16.55,0,0,1,17.55-15.48l.69.06Z"/><path class="cls-7" d="M286.84,273.82a2,2,0,0,0,1.94,2,1.93,1.93,0,0,0,2.1-1.72.38.38,0,0,1,0-.1,2,2,0,0,0-2-2h0a1.92,1.92,0,0,0-2.07,1.75Z"/><path class="cls-7" d="M286.4,271.57c.25.27,1.77-.86,3.94-.85s3.74,1.06,4,.82-.13-.59-.83-1.05a5.57,5.57,0,0,0-3.16-1,5.29,5.29,0,0,0-3.17,1.05C286.51,271,286.28,271.46,286.4,271.57Z"/><path class="cls-7" d="M308.48,273.82a2,2,0,0,0,1.93,2,1.94,1.94,0,0,0,2.1-1.76V274a2,2,0,0,0-1.94-2,1.92,1.92,0,0,0-2.1,1.7Z"/><path class="cls-7" d="M307.64,272c.26.26,1.78-.86,3.94-.86s3.74,1.06,4,.83-.14-.59-.84-1.06a5.57,5.57,0,0,0-3.16-1A5.28,5.28,0,0,0,308.4,271C307.75,271.39,307.53,271.86,307.64,272Z"/><path class="cls-7" d="M299.81,288a15.5,15.5,0,0,0-3.51-.64c-.56-.05-1.06-.16-1.17-.53a2.85,2.85,0,0,1,.36-1.64l1.64-4.22c2.27-6,3.9-10.9,3.66-11s-2.27,4.69-4.54,10.68c-.54,1.47-1.05,2.88-1.57,4.22a3.18,3.18,0,0,0-.28,2.1,1.39,1.39,0,0,0,.9.81,3.8,3.8,0,0,0,.94.13A13.76,13.76,0,0,0,299.81,288Z"/><path class="cls-8" d="M298.31,313.58a39.78,39.78,0,0,0,21-5.59s-5.1,10.76-20.77,9.3Z"/><path class="cls-8" d="M300.71,293.22a3.92,3.92,0,0,1,3.5-1.45,3.54,3.54,0,0,1,2.45,1.32,2.23,2.23,0,0,1,.17,2.57,2.58,2.58,0,0,1-2.82.72,8.37,8.37,0,0,1-2.77-1.64,2.74,2.74,0,0,1-.62-.65.73.73,0,0,1,0-.8"/><path class="cls-7" d="M306.17,289.5c-.36,0-.36,2.34-2.36,4s-4.52,1.41-4.53,1.74c0,.15.55.46,1.6.49a5.87,5.87,0,0,0,3.79-1.32,5.09,5.09,0,0,0,1.82-3.34C306.59,290.07,306.33,289.49,306.17,289.5Z"/><path class="cls-7" d="M307.09,263.51c.22.59,2.37.31,4.91.62s4.59,1,4.92.46c.15-.25-.21-.8-1.06-1.37a8.58,8.58,0,0,0-7.49-.82C307.46,262.77,307,263.23,307.09,263.51Z"/><path class="cls-7" d="M287.19,265.32c.38.5,1.87,0,3.66,0s3.32.33,3.66-.18c.15-.25-.08-.75-.75-1.21a5.3,5.3,0,0,0-5.89.19C287.24,264.57,287,265.08,287.19,265.32Z"/><path class="cls-7" d="M339.84,248.11c3.26-8.85,16.83-22.15,27.26-16.24,11.42,6.49,7.38,11,11.5,14,1,.71,5.63-.83,6.27.2,1.7,2.73.25,6.27-1.19,9.14a5.42,5.42,0,0,0,1.05-.28,1.92,1.92,0,0,1,2.48,1.08,2,2,0,0,1,.13.77,17.82,17.82,0,0,1-3.54,9.69,5.57,5.57,0,0,0,2.19.07,1.35,1.35,0,0,1,1.54,1.12,1.28,1.28,0,0,1-.06.67,10.71,10.71,0,0,1-7.85,6.68c-4.36.9-9-.68-12.51-3.35s-6.24-6.33-8.64-10.09c-1.4-2.17-2.78-4.44-4.87-6s-5.1-2.11-7.24-.68"/><path class="cls-9" d="M346.34,254.59v-.41a3.44,3.44,0,0,0-.26-1.05,17,17,0,0,0-1.7-3.17,20.06,20.06,0,0,0-2.23-2.89c-.63-.67-1.1-1-1-1a3.11,3.11,0,0,1,1.33.81,14.4,14.4,0,0,1,2.41,2.87,12.2,12.2,0,0,1,1.61,3.4,2.71,2.71,0,0,1,.11,1.17C346.49,254.48,346.36,254.62,346.34,254.59Z"/><path class="cls-7" d="M372.82,278.87a2,2,0,0,1-.38.29,6.57,6.57,0,0,1-1.2.64,9.89,9.89,0,0,1-4.93.66,10.38,10.38,0,0,1-6.54-3.36,10.66,10.66,0,0,1-2.11-3.9,21,21,0,0,1-.77-4.65c-.2-3.17-.08-6.26-.65-8.94A12.56,12.56,0,0,0,355,256a8.3,8.3,0,0,0-2.2-2.48,6.78,6.78,0,0,0-4.49-1.52,10.48,10.48,0,0,0-1.75.37,1.27,1.27,0,0,1,.41-.23,5.07,5.07,0,0,1,1.32-.36A7,7,0,0,1,353,253.2a8.65,8.65,0,0,1,2.35,2.58,12.74,12.74,0,0,1,1.4,3.73c.61,2.75.5,5.84.7,9a20.49,20.49,0,0,0,.73,4.53,9.81,9.81,0,0,0,13,6.55C372.25,279.2,372.79,278.82,372.82,278.87Z"/><path class="cls-7" d="M383.35,236.3a2.55,2.55,0,0,1,.31.59,6,6,0,0,1,.4,1.87,6.83,6.83,0,0,1-.5,3,6.35,6.35,0,0,1-2.58,3.09,6.82,6.82,0,0,1-4.8.77,6.57,6.57,0,0,1-4.51-3.26,18.46,18.46,0,0,1-1.81-5.9c-.42-2.05-.82-4.28-2.21-6a5.15,5.15,0,0,0-2.64-1.67,6.82,6.82,0,0,0-3.08-.05,16.4,16.4,0,0,0-5.51,2.35,49.61,49.61,0,0,0-8.18,6.25,54.41,54.41,0,0,0-4.74,5.1L342.32,244a2.33,2.33,0,0,1-.43.51,3.36,3.36,0,0,1,.35-.57c.23-.37.61-.89,1.05-1.55a44.74,44.74,0,0,1,4.64-5.27,47.76,47.76,0,0,1,8.18-6.41,17,17,0,0,1,5.67-2.44,7.34,7.34,0,0,1,3.33,0,5.73,5.73,0,0,1,3,1.86c1.52,1.84,1.91,4.16,2.32,6.21a18.11,18.11,0,0,0,1.72,5.75,6.09,6.09,0,0,0,4.16,3.07,6.5,6.5,0,0,0,4.51-.67,6.08,6.08,0,0,0,2.5-2.87,6.88,6.88,0,0,0,.57-2.87A8,8,0,0,0,383.35,236.3Z"/><path class="cls-7" d="M343.74,232.57a4.42,4.42,0,0,1,1.15,1.74,8.78,8.78,0,0,1-1.65,9.57,4.4,4.4,0,0,1-1.67,1.26c-.05-.07.59-.54,1.39-1.51a9.4,9.4,0,0,0,1.57-9.17C344.11,233.28,343.65,232.61,343.74,232.57Z"/><path class="cls-7" d="M345.3,252a19.79,19.79,0,0,0-14.23-12,18.39,18.39,0,0,0-11.47,1.55,18.56,18.56,0,0,1-3.55-3,31.08,31.08,0,0,0-13.39-8,22.24,22.24,0,0,0-15.38,1.19,17.33,17.33,0,0,0-9.49,11.87,14.26,14.26,0,0,0,5.1,14,12.15,12.15,0,0,0,14.61-.1c-.29,2.31,1.74,4.45,4,4.88a8.54,8.54,0,0,0,6.5-1.9,46.65,46.65,0,0,0,5-4.82q.94-.9,1.92-1.74a18.93,18.93,0,0,0,13.19,10.55c-1.82,2-1.66,5.06-.91,7.63s2,5.09,1.91,7.77c0,2.25-1,4.37-1.43,6.59a14.4,14.4,0,0,0,1.27,9.13c.54,1.06,1.2,2.6,1.81,3.64,1.05,1.88,1.05,1.88,2.61,2.35,3.23,1,8.8-10.71,10.23-15.36,1.2-3.88,1.67-10.85,3.07-14.65C349.19,264.78,347.66,258.07,345.3,252Z"/><path class="cls-5" d="M347.47,266.74a1.38,1.38,0,0,1-.22.35,3.28,3.28,0,0,1-.89.77,4.45,4.45,0,0,1-4.22.16,3.74,3.74,0,0,1-1.18-.91,5.8,5.8,0,0,1-.82-1.35,17.46,17.46,0,0,0-1.43-3,4.5,4.5,0,0,0-3-1.63,29.23,29.23,0,0,0-4-.16,17.71,17.71,0,0,1-4-.56,18.45,18.45,0,0,1-3.52-1.4,17.38,17.38,0,0,1-5-3.93,15.08,15.08,0,0,1-2.38-3.58,8.15,8.15,0,0,1-.46-1,1.14,1.14,0,0,1-.11-.4,22.74,22.74,0,0,0,3.24,4.78,17.79,17.79,0,0,0,4.95,3.75,19.28,19.28,0,0,0,3.43,1.32,17.77,17.77,0,0,0,3.9.53,27.27,27.27,0,0,1,4,.19,5,5,0,0,1,3.36,1.84,15.9,15.9,0,0,1,1.44,3.17,5.49,5.49,0,0,0,.74,1.26,3.74,3.74,0,0,0,1,.85,4.41,4.41,0,0,0,4,0A5.89,5.89,0,0,0,347.47,266.74Z"/><path class="cls-5" d="M345,273.07a3,3,0,0,1-.66.65,6.91,6.91,0,0,1-2.24,1.11,7.22,7.22,0,0,1-3.72.13,7.66,7.66,0,0,1-4-2.29,19,19,0,0,1-2.38-3.85,9.65,9.65,0,0,0-2.11-2.88,5.09,5.09,0,0,0-2-1.17,6.68,6.68,0,0,1-.89-.18,2.09,2.09,0,0,1,.93,0,4.65,4.65,0,0,1,2.25,1.06,9.73,9.73,0,0,1,2.29,2.93,19.1,19.1,0,0,0,2.34,3.72,7.32,7.32,0,0,0,7.17,2.18A11.56,11.56,0,0,0,345,273.07Z"/><path class="cls-5" d="M386.6,254.7a1.51,1.51,0,0,1-.15.59,4.34,4.34,0,0,1-.95,1.51,5.87,5.87,0,0,1-2.38,1.51,6.3,6.3,0,0,1-3.72.14c-2.78-.67-5.38-3.16-7-6.45s-2.59-7.2-5-10.55a10.56,10.56,0,0,0-4.62-3.6,12.46,12.46,0,0,0-5.44-.8,14.23,14.23,0,0,0-8.44,3.76,20.1,20.1,0,0,0-4,5c-.76,1.32-1.06,2.11-1.13,2.11a1.72,1.72,0,0,1,.2-.59,15.53,15.53,0,0,1,.75-1.6,19,19,0,0,1,3.92-5.16,14.41,14.41,0,0,1,8.7-4,12.84,12.84,0,0,1,5.69.8,10.94,10.94,0,0,1,4.85,3.78c2.53,3.47,3.41,7.46,5.05,10.63s4,5.62,6.61,6.33a6,6,0,0,0,3.54-.07,5.32,5.32,0,0,0,3.57-3.31Z"/><path class="cls-5" d="M386.2,262.1a5.73,5.73,0,0,1-.38.46,13.93,13.93,0,0,1-1.3,1.12,10.29,10.29,0,0,1-2.36,1.31,7.62,7.62,0,0,1-3.56.54,11.75,11.75,0,0,1-7.77-4.87,17.87,17.87,0,0,1-2.47-4.94c-.63-1.79-1.13-3.69-1.8-5.57a16.23,16.23,0,0,0-2.73-5,8.62,8.62,0,0,0-4.38-2.83,12.4,12.4,0,0,0-8.8,1.11,24.29,24.29,0,0,0-5,3.57l-1.25,1.14a3.31,3.31,0,0,1-.45.39,2.4,2.4,0,0,1,.37-.47c.26-.29.65-.7,1.19-1.22a21.77,21.77,0,0,1,5-3.74,12.63,12.63,0,0,1,9.11-1.27,9.2,9.2,0,0,1,4.65,3,16.91,16.91,0,0,1,2.84,5.2c.68,1.91,1.18,3.81,1.79,5.59a17.87,17.87,0,0,0,2.36,4.8,11.51,11.51,0,0,0,7.38,4.79,7.47,7.47,0,0,0,3.41-.43,10.59,10.59,0,0,0,2.34-1.21C385.61,262.67,386.17,262.07,386.2,262.1Z"/><path class="cls-9" d="M272.36,419.07l1.79,4.45-3.51,40.6h89.59l-4-12.14,11.14.57c17.18.86,31.22-14.48,27.88-31.36-.11-.5-.21-1.05-.35-1.52-5.56-21.71-13.12-50.91-15.75-59.52-4.35-14.25-14-21-14-21H365c-13.41-10.94-31.64-11.91-31.64-11.91l-6.72,4.51a23.4,23.4,0,0,1-22.71,1.87,10.19,10.19,0,0,1-5.54-6.38h0a78.84,78.84,0,0,0-22.89,6A33.52,33.52,0,0,0,257.75,353l-23.41,68.55-39.84-5.39L186,439.4,226.35,449a33,33,0,0,0,38.36-15.82l7.65-14.08m74.53,5.48h0s3.83-14.68,6.16-22.58l5.65,22.15Z"/><path class="cls-7" d="M377.36,452.78h-7.09l-19.73.08-68.67.09h-.23v-.26c.34-8.38.72-17.16,1.1-26.23v-.26H283l25.51-.8,50.19-1.51-.24.33c-1.88-6.84-3.41-13.51-4.88-19.87s-2.8-12.46-4.1-18.19q-.92-4.31-1.82-8.36a61.87,61.87,0,0,1-1.44-7.87,41.46,41.46,0,0,1,0-7.39,34.37,34.37,0,0,1,1.23-6.67,20.58,20.58,0,0,1,6-9.75,15.07,15.07,0,0,1,7.71-3.59,12.58,12.58,0,0,1,5.32.3,11.14,11.14,0,0,1,1.3.47c.29.12.42.19.42.19a13.47,13.47,0,0,0-1.74-.58,12.83,12.83,0,0,0-5.27-.22,15,15,0,0,0-7.57,3.62,20.31,20.31,0,0,0-5.84,9.64,35.34,35.34,0,0,0-1.18,6.62,39.66,39.66,0,0,0,0,7.39,59.48,59.48,0,0,0,1.46,7.82c.6,2.69,1.21,5.48,1.85,8.35,1.3,5.73,2.68,11.81,4.13,18.17s3,13,4.91,19.85l.09.31h-.33L308.54,426l-25.52.8.26-.26c-.39,9.07-.77,17.86-1.13,26.23l-.26-.27,68.67.1,19.73.08h6.63A3.48,3.48,0,0,1,377.36,452.78Z"/><path class="cls-7" d="M277.33,359.4a2.35,2.35,0,0,1,.06.65v1.89a31,31,0,0,1-1.22,6.82,95.19,95.19,0,0,1-3.5,9.66,65.84,65.84,0,0,0-3.86,11.87,35.86,35.86,0,0,0-.06,12.4,69,69,0,0,0,2.42,9.92c.89,2.77,1.68,5,2.23,6.54l.61,1.77a2.28,2.28,0,0,1,.18.63,2.49,2.49,0,0,1-.29-.59c-.17-.45-.42-1-.7-1.74-.61-1.52-1.46-3.72-2.4-6.5a65.41,65.41,0,0,1-2.55-10,35.45,35.45,0,0,1,0-12.58,65,65,0,0,1,3.89-12,102.16,102.16,0,0,0,3.6-9.57,33.65,33.65,0,0,0,1.38-6.73C277.29,360.31,277.28,359.4,277.33,359.4Z"/><path class="cls-7" d="M358.7,424.18a4.29,4.29,0,0,1,1.88-.24A11,11,0,0,1,365,425a8.26,8.26,0,0,1,3.53,2.9,3.34,3.34,0,0,1,.69,1.76c-.1,0-.32-.65-1-1.54a9.07,9.07,0,0,0-3.45-2.62,13.21,13.21,0,0,0-4.22-1.13A14.61,14.61,0,0,1,358.7,424.18Z"/><path class="cls-7" d="M350.81,331.19a10,10,0,0,1,1.68.63c.54.22,1.19.48,1.94.82l2.5,1.23c.93.45,1.91,1.05,3,1.61s2.11,1.31,3.29,2a51.09,51.09,0,0,1,6.91,5.62,35.24,35.24,0,0,1,8.71,13.5,22.79,22.79,0,0,1,.81,2.67,19.1,19.1,0,0,1,.44,2.11,12,12,0,0,1,.23,1.79,10.56,10.56,0,0,1-.44-1.74c-.1-.57-.31-1.24-.53-2s-.52-1.65-.86-2.62a36.88,36.88,0,0,0-8.74-13.24,53.62,53.62,0,0,0-6.81-5.58c-1.13-.74-2.2-1.47-3.24-2.11s-2-1.19-2.92-1.67l-2.46-1.28-1.88-.91A11.59,11.59,0,0,1,350.81,331.19Z"/><g class="cls-10"><path d="M347.32,375.38s-8.9,39.31-8.76,43.16a21.6,21.6,0,0,0,.91,6l7.39.06.06-.73,6.22-22.24Z"/></g><path class="cls-6" d="M269.83,426l-5.8-2.35s-6.74-11.43-8.12-10.88-1.58,4,1.16,9.3l-7.62-1.72s-15.82,8.44-15.08,9.4,2.24,3.29,5.69,1.28,8-4.39,8-4.39l8.91,2-11.23,2.11L235.61,441s3.64,2.43,6.5-.51l27.95,4.39h11.83l.63-15.64Z"/><path class="cls-8" d="M242.11,440.43c.12.06.59-.78,1.52-1.92a8.44,8.44,0,0,1,1.92-1.66,8.35,8.35,0,0,1,2.95-.94c4.56-.8,8.24-1.65,8.2-1.88s-3.77.22-8.36,1.05a8.22,8.22,0,0,0-3.22,1.13,7.65,7.65,0,0,0-2,2A4.79,4.79,0,0,0,242.11,440.43Z"/><path class="cls-8" d="M246.49,441.3c.11,0,.16-.58.92-.79s2-.41,3.33-.62c2.64-.42,4.82-.51,4.83-.77s-2.22-.51-4.95-.08a14.09,14.09,0,0,0-3.44.91,1.37,1.37,0,0,0-.79.9C246.33,441.16,246.44,441.31,246.49,441.3Z"/><path class="cls-8" d="M269.06,425.67a19.31,19.31,0,0,1-2.79-.8c-1.71-.52-4.08-1.19-6.73-1.85l-6.78-1.71a15.12,15.12,0,0,1-2.78-.85,15.5,15.5,0,0,1,2.87.48c1.75.36,4.22.88,6.83,1.55a69.14,69.14,0,0,1,6.72,2A12.33,12.33,0,0,1,269.06,425.67Z"/></g><g id="freepik--Screens--inject-84"><path class="cls-7" d="M366.34,131.47a8.72,8.72,0,0,1-.07-1.14c0-.79,0-1.84-.06-3.16,0-2.72-.06-6.49-.11-11l.23.24H351.08c0,.06.52-.52.27-.27h0v15.21l-.24-.23,11,.12,3.16.06a4.33,4.33,0,0,1,1.15.05,6.18,6.18,0,0,1-1.05.07h-3.07l-11.14.12h-.23V116.1h0c-.24.26.34-.33.27-.27h15.5v.23c0,4.56-.1,8.37-.12,11.14,0,1.26,0,2.29-.06,3.07C366.47,130.67,366.42,131.07,366.34,131.47Z"/><path class="cls-7" d="M366.34,116.38c.1.1-3.22,3.58-7.38,7.77a104.67,104.67,0,0,1-7.81,7.38,106.2,106.2,0,0,1,7.38-7.77A100.8,100.8,0,0,1,366.34,116.38Z"/><path class="cls-7" d="M366.1,131.37a95.64,95.64,0,0,1-7.64-7.29,101.4,101.4,0,0,1-7.25-7.7,101.36,101.36,0,0,1,7.64,7.31Q362.66,127.35,366.1,131.37Z"/><path class="cls-7" d="M456.64,220.22a5.1,5.1,0,0,1,.81-.93c.65-.63,1.44-1.43,2.37-2.36,2-2,4.83-4.69,7.95-7.67l.07-.06v.4c-3.16-2.92-6-5.58-8-7.52l-2.38-2.32a4.45,4.45,0,0,1-.82-.91,5.89,5.89,0,0,1,1,.75l2.5,2.2c2.11,1.86,5,4.48,8.12,7.38l.21.2-.21.2-.07.07c-3.17,3-6,5.64-8.06,7.54l-2.49,2.25A5.12,5.12,0,0,1,456.64,220.22Z"/><path class="cls-7" d="M432.32,198.85a4.51,4.51,0,0,1-.81.93l-2.38,2.36c-2,2-4.82,4.7-7.94,7.67l-.07.07v-.41c3.16,2.93,6,5.58,8,7.52l2.38,2.32a4.73,4.73,0,0,1,.82.91,5,5,0,0,1-1-.75c-.69-.59-1.52-1.33-2.5-2.19-2.11-1.87-5-4.48-8.12-7.38l-.21-.2.21-.2.07-.08c3.17-3,6-5.63,8.06-7.54l2.49-2.25A6.06,6.06,0,0,1,432.32,198.85Z"/><path class="cls-7" d="M438.56,225.25c-.13,0,2.42-7.2,5.7-15.95s6.07-15.83,6.22-15.77-2.41,7.2-5.7,16S438.7,225.31,438.56,225.25Z"/><path class="cls-7" d="M484.26,240.55v-4.64c0-3,0-7.39-.06-13,0-11.21-.07-27.22-.12-46.53l.23.22-79.11,0h0l.28-.27v64.19l-.26-.26,57.12.13,16.19.06h.13l-16.13.07-57.27.12H405V176h79.62v.23c0,19.37-.08,35.44-.11,46.68,0,5.58,0,10-.07,13v3.39A3.53,3.53,0,0,1,484.26,240.55Z"/><path class="cls-7" d="M484.89,185.88c0,.15-17.86.28-39.87.28s-39.88-.13-39.88-.28,17.85-.27,39.88-.27S484.89,185.72,484.89,185.88Z"/><path class="cls-7" d="M411.63,181.19a1.06,1.06,0,1,1-1.06-1.06A1.06,1.06,0,0,1,411.63,181.19Z"/><path class="cls-7" d="M415.51,181.19a1.06,1.06,0,1,1-1.06-1.06A1.05,1.05,0,0,1,415.51,181.19Z"/><path class="cls-7" d="M419.39,181.19a1.06,1.06,0,1,1-1.06-1.06A1.05,1.05,0,0,1,419.39,181.19Z"/><rect class="cls-5" x="260.9" y="79.34" width="62.49" height="44.55"/><path class="cls-11" d="M323.89,86c0,.15-14.12.27-31.51.27s-31.5-.12-31.5-.27,14.1-.28,31.5-.28S323.89,85.79,323.89,86Z"/><path class="cls-11" d="M266,82.69a.84.84,0,0,1-.73,1A.85.85,0,1,1,265,82h.12A.8.8,0,0,1,266,82.69Z"/><path class="cls-11" d="M269.07,82.69a.84.84,0,0,1-.73,1,.85.85,0,1,1-.23-1.69h.12A.8.8,0,0,1,269.07,82.69Z"/><ellipse class="cls-11" cx="271.3" cy="82.69" rx="0.84" ry="0.74"/><path class="cls-11" d="M284,103.71c0,2.68-1.94,4.29-5.14,4.29h-3.37v4h-1.33V99.41h4.7C282.08,99.41,284,101,284,103.71Zm-1.33,0c0-2-1.33-3.16-3.84-3.16h-3.34v6.27h3.34C281.36,106.83,282.69,105.68,282.69,103.71Z"/><path class="cls-11" d="M297.38,99.41V112h-1.31v-5.8h-7.86V112h-1.3V99.41h1.33V105h7.87v-5.6Z"/><path class="cls-11" d="M311.29,103.71c0,2.68-1.93,4.29-5.12,4.29h-3.38v4h-1.33V99.41h4.71C309.36,99.41,311.29,101,311.29,103.71Zm-1.31,0c0-2-1.33-3.16-3.84-3.16h-3.35v6.27h3.35C308.65,106.83,310,105.68,310,103.71Z"/><path class="cls-9" d="M197.26,175l.82-.91a4.87,4.87,0,0,0,4.14,2.35c2.48,0,3.7-1.41,3.7-4.4v-12H199v-1.22h8.24V172c0,3.76-1.74,5.62-5.06,5.62A5.83,5.83,0,0,1,197.26,175Z"/><path class="cls-9" d="M211.18,175.81l.61-1.06a8,8,0,0,0,5,1.68c2.94,0,4.11-1.05,4.11-2.6,0-4.05-9.21-1.06-9.21-6.53,0-2.11,1.75-3.81,5.27-3.81a8.49,8.49,0,0,1,4.77,1.36l-.61,1.06a7.08,7.08,0,0,0-4.22-1.26c-2.71,0-3.91,1.12-3.91,2.62,0,4.21,9.21,1.22,9.21,6.51,0,2.27-1.95,3.81-5.49,3.81A8.7,8.7,0,0,1,211.18,175.81Z"/><path class="cls-9" d="M234.39,187.39v-3.27c0-2.11,0-5.22-.07-9.13,0-7.86-.06-19-.11-32.49l.23.23H186.06c-.06.07.52-.51.27-.26h0v44.89l-.24-.24,35,.11,9.89.06h0l-9.82.07-35.12.11h-.24V142.52h0l.27-.28h48.61v.23c0,13.51-.08,24.74-.12,32.63,0,3.89,0,7-.06,9.08v2.38A2.41,2.41,0,0,1,234.39,187.39Z"/><path class="cls-9" d="M234.28,149.17c0,.14-10.81.27-24.15.27s-24.16-.13-24.16-.27,10.82-.29,24.16-.29S234.28,149,234.28,149.17Z"/><ellipse class="cls-9" cx="190.3" cy="145.89" rx="0.84" ry="0.75"/><path class="cls-9" d="M194.23,145.89a.85.85,0,0,1-1.69.21.86.86,0,0,1,.74-1h.11A.79.79,0,0,1,194.23,145.89Z"/><path class="cls-9" d="M197.32,145.89a.85.85,0,0,1-1.69.21.86.86,0,0,1,.74-1h.11A.79.79,0,0,1,197.32,145.89Z"/><path class="cls-9" d="M410.8,100.71a7.79,7.79,0,0,1,7.66-7.92h.43A7.43,7.43,0,0,1,424.44,95l-.71.73A6.48,6.48,0,0,0,419,93.85a6.87,6.87,0,1,0-.76,13.71H419a6.51,6.51,0,0,0,4.78-1.87l.71.74a7.41,7.41,0,0,1-5.55,2.18,7.78,7.78,0,0,1-8.08-7.49C410.8,101,410.8,100.85,410.8,100.71Z"/><path class="cls-9" d="M426.58,106.5l.52-.84a7.42,7.42,0,0,0,5.15,2c3.16,0,4.5-1.36,4.5-3.06,0-4.68-9.74-1.86-9.74-7.62,0-2.21,1.69-4.15,5.53-4.15a8.37,8.37,0,0,1,4.7,1.41l-.43.91a7.81,7.81,0,0,0-4.27-1.34c-3,0-4.4,1.41-4.4,3.17,0,4.68,9.75,1.92,9.75,7.58,0,2.21-1.76,4.13-5.62,4.13A8,8,0,0,1,426.58,106.5Z"/><path class="cls-9" d="M440.16,106.5l.51-.84a7.39,7.39,0,0,0,5.15,2c3.16,0,4.5-1.36,4.5-3.06,0-4.68-9.74-1.86-9.74-7.62,0-2.21,1.7-4.15,5.53-4.15a8.53,8.53,0,0,1,4.7,1.41l-.42.91a7.87,7.87,0,0,0-4.22-1.34c-3,0-4.4,1.41-4.4,3.17,0,4.68,9.74,1.92,9.74,7.58,0,2.21-1.76,4.13-5.62,4.13A8,8,0,0,1,440.16,106.5Z"/><path class="cls-9" d="M464.74,121v-3.21c0-2.11,0-5.14-.06-9,0-7.79-.07-19-.12-32.69l.22.22-69.49,0h0l.27-.27V121l-.25-.25,50,.13,14.34.06h4.82a1.93,1.93,0,0,1,.34,0h-5.05l-14.28.06-50.16.13h-.25V75.84h.27l69.5.07h.22v.21c-.06,13.71-.1,25-.12,32.79v11.32A3.5,3.5,0,0,0,464.74,121Z"/><path class="cls-9" d="M464.74,82.77c0,.15-15.57.28-34.8.28s-34.81-.13-34.81-.28,15.57-.27,34.81-.27S464.74,82.62,464.74,82.77Z"/><path class="cls-9" d="M400.38,79.49a.85.85,0,1,1-.95-.74h.11A.79.79,0,0,1,400.38,79.49Z"/><path class="cls-9" d="M403.47,79.49a.85.85,0,1,1-1-.74h.11A.79.79,0,0,1,403.47,79.49Z"/><path class="cls-9" d="M406.56,79.49a.85.85,0,1,1-.95-.74h.11A.79.79,0,0,1,406.56,79.49Z"/><rect class="cls-9" x="287.86" y="144.25" width="87.27" height="62.21"/><path class="cls-11" d="M317.29,173.13v12.4h-2.85v-5.06h-5.61v5.06H306v-12.4h2.86V178h5.61v-4.87Z"/><path class="cls-11" d="M322.77,175.46h-4v-2.33h10.77v2.33h-3.95v10.07h-2.86Z"/><path class="cls-11" d="M346.58,173.13h2.86v10h6.19v2.38h-9.05Z"/><path class="cls-11" d="M342.39,185.53v-7.38l-3.64,6.1h-1.3l-3.62-5.94v7.22h-2.71v-12.4h2.36l4.63,7.68,4.55-7.68H345v12.35Z"/><path class="cls-11" d="M375.82,153.48c0,.15-19.7.28-44,.28s-44-.13-44-.28,19.69-.27,44-.27S375.82,153.32,375.82,153.48Z"/><path class="cls-11" d="M295,148.94a1.18,1.18,0,1,1-1.3-1.05h.12a1.12,1.12,0,0,1,1.18,1.05Z"/><path class="cls-11" d="M299.27,148.94a1.18,1.18,0,1,1-1.3-1.05h.12a1.12,1.12,0,0,1,1.18,1.05Z"/><path class="cls-11" d="M303.55,148.94a1.18,1.18,0,1,1-1.3-1.05h.12a1.11,1.11,0,0,1,1.18,1.05Z"/><path class="cls-7" d="M108,266.74a.74.74,0,0,1,0-.21V263.7c0-2,0-4.87-.06-8.5,0-7.31-.08-17.71-.13-30.17l.24.23H66.34c-.06.06.52-.51.28-.26h0v41.69l-.24-.24,30.17.13,8.5.06h.06l-8.44.06-30.31.13h-.24V225h0c-.25.24.33-.35.27-.28h42V225c0,12.52-.09,23-.12,30.31,0,3.62,0,6.48-.06,8.44v2.77A.89.89,0,0,1,108,266.74Z"/><path class="cls-7" d="M108,225.44c.11.11-9.12,9.49-20.61,20.94s-20.91,20.66-21,20.55S75.51,257.44,87,246,107.9,225.34,108,225.44Z"/><path class="cls-7" d="M107.34,266.48c-.11.11-9.31-9-20.54-20.32s-20.26-20.61-20.15-20.72,9.3,9,20.54,20.33S107.44,266.36,107.34,266.48Z"/><path class="cls-7" d="M195,236.21c0,.15-16.58.28-37,.28s-37-.13-37-.28,16.57-.27,37-.27S195,236.06,195,236.21Z"/><path class="cls-7" d="M195,242.87c0,.14-16.58.27-37,.27s-37-.13-37-.27,16.57-.28,37-.28S195,242.71,195,242.87Z"/><path class="cls-7" d="M195,249.51c0,.16-16.58.27-37,.27s-37-.11-37-.27,16.57-.27,37-.27S195,249.36,195,249.51Z"/><path class="cls-7" d="M195,256.2c0,.15-16.58.27-37,.27s-37-.12-37-.27,16.57-.28,37-.28S195,256,195,256.2Z"/><path class="cls-7" d="M154.42,229.56c0,.15-7.63.28-17,.28s-17-.13-17-.28,7.62-.28,17-.28S154.42,229.41,154.42,229.56Z"/><path class="cls-7" d="M53.15,212.44h47.14l120.55.21h.27v66.58H205.77l.28-.27v14.33l-.47-.46-13.71-13.71.19.07-138.91-.11H53v-.18c0-20.71.08-37.34.1-48.81v.11c0,11.44.07,28,.11,48.7l-.19-.18,138.94-.09H192l.07.07,13.71,13.72-.47.2v-14H220.7l-.28.27v-66l.26.27-120.37-.47-34.8-.17H53.81Z"/></g><g id="freepik--Desk--inject-84"><rect class="cls-5" x="388.97" y="426.89" width="91.55" height="22.97"/><rect class="cls-7" x="411.59" y="434.39" width="55.79" height="7.97"/><path class="cls-7" d="M404.56,438.84a4.46,4.46,0,1,1-4.47-4.45h0a4.45,4.45,0,0,1,4.46,4.44Z"/><rect class="cls-7" x="398.62" y="414.37" width="73.12" height="12.42"/><rect class="cls-9" x="398.62" y="391.41" width="91.55" height="22.97"/><path class="cls-11" d="M426.5,402.31a5.93,5.93,0,0,1,10.26-3.66l-1.59,1.48a3.5,3.5,0,0,0-2.71-1.25,3.44,3.44,0,1,0,2.71,5.61l1.59,1.47a5.9,5.9,0,0,1-10.26-3.65Z"/><path class="cls-11" d="M449.79,403.25h-2.68v2.62h-2v-2.62h-2.65v-1.87h2.65v-2.61h2v2.61h2.67Z"/><path class="cls-11" d="M459.09,403.25h-2.68v2.62h-2v-2.62h-2.66v-1.87h2.66v-2.61h2v2.61h2.68Z"/><path class="cls-4" d="M412.23,413.74c-.15,0-.28-5-.28-11.17s.13-11.18.28-11.18.27,5,.27,11.18S412.42,413.74,412.23,413.74Z"/><path class="cls-4" d="M408.2,413.74c-.15,0-.28-5-.28-11.17s.13-11.18.28-11.18a109.74,109.74,0,0,1,.27,11.18A109.61,109.61,0,0,1,408.2,413.74Z"/><path class="cls-4" d="M475.59,413.74c-.27-3.72-.37-7.45-.27-11.17-.1-3.73,0-7.46.27-11.18.15,0,.28,5,.28,11.18S475.7,413.74,475.59,413.74Z"/><path class="cls-4" d="M471.61,413.74c-.15,0-.28-5-.28-11.17s.13-11.18.28-11.18.27,5,.27,11.18S471.75,413.74,471.61,413.74Z"/><path class="cls-3" d="M428.87,420.43a2.41,2.41,0,0,1,2.32-2.47h.19a2.1,2.1,0,0,1,1.91,1l-.49.33a1.63,1.63,0,0,0-1.42-.72,1.9,1.9,0,1,0,0,3.79,1.66,1.66,0,0,0,1.42-.7l.49.32a2.09,2.09,0,0,1-1.91,1,2.4,2.4,0,0,1-2.51-2.29Z"/><path class="cls-3" d="M433.9,422.32l.31-.53a2.83,2.83,0,0,0,1.73.55c.93,0,1.31-.31,1.31-.79,0-1.27-3.17-.27-3.17-2.2,0-.79.69-1.38,1.93-1.38a3.14,3.14,0,0,1,1.72.45l-.28.53a2.47,2.47,0,0,0-1.44-.42c-.88,0-1.26.34-1.26.81,0,1.32,3.16.31,3.16,2.19,0,.84-.74,1.39-2,1.39A3.35,3.35,0,0,1,433.9,422.32Z"/><path class="cls-3" d="M438.44,422.32l.3-.53a2.83,2.83,0,0,0,1.73.55c.93,0,1.31-.31,1.31-.79,0-1.27-3.16-.27-3.16-2.2,0-.79.68-1.38,1.93-1.38a3.17,3.17,0,0,1,1.72.45L442,419a2.42,2.42,0,0,0-1.43-.42c-.89,0-1.27.34-1.27.81,0,1.32,3.16.31,3.16,2.19,0,.84-.73,1.39-2,1.39A3.32,3.32,0,0,1,438.44,422.32Z"/><circle class="cls-3" cx="409.38" cy="420.58" r="2.21"/><circle class="cls-3" cx="464.89" cy="420.58" r="2.21"/><rect class="cls-7" x="19.7" y="303.66" width="179.11" height="122.04" rx="12.66"/><polygon class="cls-5" points="79.32 396.69 69.41 452.83 115.94 452.83 124.37 395.54 79.32 396.69"/><rect class="cls-5" x="12.59" y="303.66" width="179.11" height="122.04" rx="12.66"/><polygon class="cls-7" points="119.94 425.7 124.37 395.54 125.6 425.7 119.94 425.7"/><path class="cls-7" d="M79.58,393.57c.15,0-1,7.5-2.52,16.69s-2.9,16.62-3.06,16.6,1-7.5,2.52-16.69S79.43,393.55,79.58,393.57Z"/><path class="cls-4" d="M108,360.45a5.88,5.88,0,1,1-5.87-5.87,5.87,5.87,0,0,1,5.87,5.87Z"/><path class="cls-7" d="M102.15,366.35a5.9,5.9,0,1,1,5.89-5.9h0A5.9,5.9,0,0,1,102.15,366.35Zm0-11.74a5.85,5.85,0,1,0,5.84,5.84A5.85,5.85,0,0,0,102.15,354.61Z"/><rect class="cls-5" x="157.47" y="442.68" width="101.89" height="7.18"/><path class="cls-5" d="M133.09,439.91h5.11a8.19,8.19,0,0,1,8.18,8.19h0v1.76H125V448.1A8.19,8.19,0,0,1,133.09,439.91Z"/><path class="cls-7" d="M146,447.62a95.87,95.87,0,0,1-10.31.28,96.24,96.24,0,0,1-10.33-.28,96.23,96.23,0,0,1,10.33-.27A95.86,95.86,0,0,1,146,447.62Z"/><path class="cls-7" d="M135.86,439.83a13.38,13.38,0,0,1,.18,3.79,13.62,13.62,0,0,1-.38,3.76,12.88,12.88,0,0,1-.17-3.77A13.38,13.38,0,0,1,135.86,439.83Z"/><rect class="cls-7" x="5" y="449.86" width="490" height="14.26"/></g></svg>